<?xml version="1.0" encoding="utf-8" standalone="no"?>
<!DOCTYPE svg PUBLIC "-//W3C//DTD SVG 1.1//EN"
  "http://www.w3.org/Graphics/SVG/1.1/DTD/svg11.dtd">
<svg xmlns:xlink="http://www.w3.org/1999/xlink" width="1143.765625pt" height="849.279688pt" viewBox="0 0 1143.765625 849.279688" xmlns="http://www.w3.org/2000/svg" version="1.1">
 <metadata>
  <rdf:RDF xmlns:dc="http://purl.org/dc/elements/1.1/" xmlns:cc="http://creativecommons.org/ns#" xmlns:rdf="http://www.w3.org/1999/02/22-rdf-syntax-ns#">
   <cc:Work>
    <dc:type rdf:resource="http://purl.org/dc/dcmitype/StillImage"/>
    <dc:date>2025-08-04T19:49:06.130697</dc:date>
    <dc:format>image/svg+xml</dc:format>
    <dc:creator>
     <cc:Agent>
      <dc:title>Matplotlib v3.10.5, https://matplotlib.org/</dc:title>
     </cc:Agent>
    </dc:creator>
   </cc:Work>
  </rdf:RDF>
 </metadata>
 <defs>
  <style type="text/css">*{stroke-linejoin: round; stroke-linecap: butt}</style>
 </defs>
 <g id="figure_1">
  <g id="patch_1">
   <path d="M 0 849.279688 
L 1143.765625 849.279688 
L 1143.765625 0 
L 0 0 
z
" style="fill: #ffffff"/>
  </g>
  <g id="axes_1">
   <g id="patch_2">
    <path d="M 42.815625 411.545 
L 564.210625 411.545 
L 564.210625 43.89 
L 42.815625 43.89 
z
" style="fill: #ffffff"/>
   </g>
   <g id="patch_3">
    <path d="M 66.515398 411.545 
L 201.94267 411.545 
L 201.94267 264.26994 
L 66.515398 264.26994 
z
" clip-path="url(#p6e9ac1df2a)" style="fill: #ff7f0e; opacity: 0.8"/>
   </g>
   <g id="patch_4">
    <path d="M 235.799489 411.545 
L 371.226761 411.545 
L 371.226761 61.397381 
L 235.799489 61.397381 
z
" clip-path="url(#p6e9ac1df2a)" style="fill: #2ca02c; opacity: 0.8"/>
   </g>
   <g id="patch_5">
    <path d="M 405.08358 411.545 
L 540.510852 411.545 
L 540.510852 151.107926 
L 405.08358 151.107926 
z
" clip-path="url(#p6e9ac1df2a)" style="fill: #d62728; opacity: 0.8"/>
   </g>
   <g id="matplotlib.axis_1">
    <g id="xtick_1">
     <g id="line2d_1">
      <defs>
       <path id="m0917a53a99" d="M 0 0 
L 0 3.5 
" style="stroke: #000000; stroke-width: 0.8"/>
      </defs>
      <g>
       <use xlink:href="#m0917a53a99" x="134.229034" y="411.545" style="stroke: #000000; stroke-width: 0.8"/>
      </g>
     </g>
     <g id="text_1">
      <!-- 最小损耗 -->
      <g transform="translate(114.229034 426.53875) scale(0.1 -0.1)">
       <defs>
        <path id="MicrosoftYaHei-6700" d="M 169 -28 
Q 475 3 781 38 
L 781 2416 
L 94 2416 
L 94 2791 
L 6288 2791 
L 6288 2416 
L 3025 2416 
L 3025 331 
Q 3325 375 3625 422 
Q 3619 309 3631 22 
Q 3338 -19 3025 -63 
L 3025 -859 
L 2600 -859 
L 2600 -125 
Q 1525 -278 281 -472 
L 169 -28 
z
M 1038 5053 
L 5363 5053 
L 5363 3047 
L 4925 3047 
L 4925 3191 
L 1475 3191 
L 1475 3047 
L 1038 3047 
L 1038 5053 
z
M 3338 1609 
L 3338 1972 
L 5819 1972 
L 5819 1609 
Q 5500 844 4981 278 
Q 5516 -113 6306 -316 
Q 6144 -553 6025 -753 
Q 5219 -488 4666 -34 
Q 4128 -516 3413 -822 
Q 3306 -634 3125 -428 
Q 3834 -156 4347 266 
Q 3825 825 3603 1609 
L 3338 1609 
z
M 1475 3553 
L 4925 3553 
L 4925 3953 
L 1475 3953 
L 1475 3553 
z
M 4925 4691 
L 1475 4691 
L 1475 4291 
L 4925 4291 
L 4925 4691 
z
M 5344 1609 
L 4025 1609 
Q 4222 994 4659 556 
Q 5094 1013 5344 1609 
z
M 2600 269 
L 2600 691 
L 1206 691 
L 1206 88 
Q 1913 172 2600 269 
z
M 1206 1916 
L 2600 1916 
L 2600 2416 
L 1206 2416 
L 1206 1916 
z
M 1206 1053 
L 2600 1053 
L 2600 1553 
L 1206 1553 
L 1206 1053 
z
" transform="scale(0.015625)"/>
        <path id="MicrosoftYaHei-5c0f" d="M 1513 3878 
L 2025 3697 
Q 1425 1984 625 478 
Q 413 609 113 759 
Q 831 1972 1513 3878 
z
M 4300 3641 
L 4769 3866 
Q 5563 2422 6319 828 
L 5750 559 
Q 4988 2328 4300 3641 
z
M 3000 5247 
L 3556 5247 
L 3556 66 
Q 3556 -747 2675 -747 
Q 2325 -747 1744 -728 
Q 1700 -453 1638 -141 
Q 2238 -197 2556 -197 
Q 3000 -197 3000 203 
L 3000 5247 
z
" transform="scale(0.015625)"/>
        <path id="MicrosoftYaHei-635f" d="M 2688 5041 
L 5756 5041 
L 5756 3134 
L 5300 3134 
L 5300 3316 
L 3144 3316 
L 3144 3147 
L 2688 3147 
L 2688 5041 
z
M 88 1947 
Q 544 2053 969 2159 
L 969 3622 
L 144 3622 
L 144 4072 
L 969 4072 
L 969 5278 
L 1431 5278 
L 1431 4072 
L 2250 4072 
L 2250 3622 
L 1431 3622 
L 1431 2284 
Q 1825 2391 2188 2497 
Q 2200 2222 2231 2028 
Q 1881 1934 1431 1803 
L 1431 -72 
Q 1431 -766 881 -778 
Q 588 -784 219 -772 
Q 194 -516 138 -278 
Q 525 -322 706 -322 
Q 969 -322 969 9 
L 969 1666 
Q 588 1553 150 1422 
L 88 1947 
z
M 2431 2734 
L 5994 2734 
L 5994 472 
L 5538 472 
L 5538 2316 
L 2888 2316 
L 2888 459 
L 2431 459 
L 2431 2734 
z
M 4456 2034 
Q 4456 1253 4331 791 
Q 5356 203 6288 -422 
L 5938 -841 
Q 5169 -241 4150 359 
Q 3619 -547 2081 -872 
Q 1988 -691 1794 -397 
Q 3569 -134 3875 953 
Q 3975 1297 3975 2034 
L 4456 2034 
z
M 5300 4622 
L 3144 4622 
L 3144 3734 
L 5300 3734 
L 5300 4622 
z
" transform="scale(0.015625)"/>
        <path id="MicrosoftYaHei-8017" d="M 2506 1622 
L 3913 1753 
L 3913 2878 
L 2738 2772 
L 2706 3197 
L 3913 3303 
L 3913 4459 
Q 3381 4403 2794 4353 
Q 2769 4584 2700 4809 
Q 4225 4916 5706 5172 
L 5819 4697 
Q 5188 4603 4381 4509 
L 4381 3347 
L 5825 3478 
L 5850 3053 
L 4381 2916 
L 4381 1797 
L 6150 1966 
L 6175 1541 
L 4381 1366 
L 4381 128 
Q 4381 -241 4706 -241 
L 5400 -241 
Q 5688 -241 5750 147 
Q 5813 566 5844 991 
Q 6094 866 6319 791 
Q 6250 291 6194 -28 
Q 6094 -691 5456 -691 
L 4588 -691 
Q 3913 -691 3913 72 
L 3913 1322 
L 2538 1197 
L 2506 1622 
z
M 88 191 
Q 769 1072 1088 2022 
L 138 2022 
L 138 2422 
L 1250 2422 
L 1250 3028 
L 363 3028 
L 363 3428 
L 1250 3428 
L 1250 4016 
L 231 4016 
L 231 4416 
L 1250 4416 
L 1250 5303 
L 1675 5303 
L 1675 4416 
L 2631 4416 
L 2631 4016 
L 1675 4016 
L 1675 3428 
L 2519 3428 
L 2519 3028 
L 1675 3028 
L 1675 2422 
L 2700 2422 
L 2700 2022 
L 1675 2022 
L 1675 1334 
L 1894 1547 
Q 2381 1078 2806 622 
L 2463 316 
Q 2125 747 1675 1203 
L 1675 -841 
L 1250 -841 
L 1250 1491 
Q 869 434 281 -297 
Q 188 -16 88 191 
z
" transform="scale(0.015625)"/>
       </defs>
       <use xlink:href="#MicrosoftYaHei-6700"/>
       <use xlink:href="#MicrosoftYaHei-5c0f" transform="translate(100 0)"/>
       <use xlink:href="#MicrosoftYaHei-635f" transform="translate(200 0)"/>
       <use xlink:href="#MicrosoftYaHei-8017" transform="translate(300 0)"/>
      </g>
     </g>
    </g>
    <g id="xtick_2">
     <g id="line2d_2">
      <g>
       <use xlink:href="#m0917a53a99" x="303.513125" y="411.545" style="stroke: #000000; stroke-width: 0.8"/>
      </g>
     </g>
     <g id="text_2">
      <!-- 加权评分 -->
      <g transform="translate(283.513125 426.53875) scale(0.1 -0.1)">
       <defs>
        <path id="MicrosoftYaHei-52a0" d="M 3663 4484 
L 6038 4484 
L 6038 -666 
L 5544 -666 
L 5544 -34 
L 4156 -34 
L 4156 -666 
L 3663 -666 
L 3663 4484 
z
M 231 4178 
L 1103 4178 
Q 1109 4681 1106 5297 
L 1600 5297 
Q 1600 4675 1594 4178 
L 3050 4178 
Q 3019 1778 2969 409 
Q 2944 -716 2119 -672 
Q 1875 -672 1400 -653 
Q 1356 -391 1300 -109 
Q 1738 -166 2013 -166 
Q 2431 -178 2469 428 
Q 2538 1909 2550 3703 
L 1588 3703 
Q 1581 3225 1569 2891 
Q 1544 447 394 -872 
Q 238 -678 25 -453 
Q 1063 684 1081 2941 
Q 1094 3269 1100 3703 
L 231 3703 
L 231 4178 
z
M 5544 4022 
L 4156 4022 
L 4156 416 
L 5544 416 
L 5544 4022 
z
" transform="scale(0.015625)"/>
        <path id="MicrosoftYaHei-6743" d="M 2331 4416 
L 2331 4884 
L 5881 4884 
L 5881 4428 
Q 5588 2253 4556 922 
Q 5231 241 6344 -203 
Q 6075 -497 5925 -722 
Q 4850 -166 4213 516 
Q 3500 -228 2225 -872 
Q 2088 -647 1875 -397 
Q 3194 222 3888 916 
Q 2944 2103 2719 4416 
L 2331 4416 
z
M 63 1347 
Q 700 2322 1019 3528 
L 125 3528 
L 125 3966 
L 1100 3966 
L 1100 5291 
L 1575 5291 
L 1575 3966 
L 2456 3966 
L 2456 3528 
L 1575 3528 
L 1575 2703 
L 1844 2953 
Q 2406 2422 2750 2009 
L 2375 1659 
Q 1956 2191 1575 2591 
L 1575 -853 
L 1100 -853 
L 1100 2572 
Q 763 1522 275 797 
Q 188 1066 63 1347 
z
M 5350 4416 
L 3219 4416 
Q 3406 2397 4225 1309 
Q 5088 2466 5350 4416 
z
" transform="scale(0.015625)"/>
        <path id="MicrosoftYaHei-8bc4" d="M 1750 2028 
L 3775 2028 
L 3775 4447 
L 2088 4447 
L 2088 4916 
L 5975 4916 
L 5975 4447 
L 4281 4447 
L 4281 2028 
L 6319 2028 
L 6319 1553 
L 4281 1553 
L 4281 -797 
L 3775 -797 
L 3775 1553 
L 1750 1553 
L 1750 2028 
z
M 2219 866 
Q 2238 553 2263 328 
Q 1456 -228 963 -628 
L 669 -209 
Q 881 -28 881 303 
L 881 2716 
L 100 2716 
L 100 3166 
L 1363 3166 
L 1363 241 
Q 1775 534 2219 866 
z
M 4725 2697 
Q 5175 3309 5563 4028 
L 6019 3753 
Q 5613 3091 5125 2403 
L 4725 2697 
z
M 2056 3791 
L 2450 4028 
Q 2919 3353 3288 2716 
L 2850 2434 
Q 2431 3209 2056 3791 
z
M 738 5222 
Q 1419 4522 1725 4184 
L 1288 3816 
Q 894 4334 356 4891 
L 738 5222 
z
" transform="scale(0.015625)"/>
        <path id="MicrosoftYaHei-5206" d="M 900 2559 
L 5056 2559 
Q 5025 1497 4963 484 
Q 4888 -684 3856 -678 
Q 3350 -684 2788 -647 
Q 2750 -384 2700 -116 
Q 3181 -184 3775 -191 
Q 4400 -203 4463 541 
Q 4513 1216 4538 2097 
L 2616 2097 
Q 2541 1053 2181 416 
Q 1706 -422 588 -878 
Q 425 -666 231 -459 
Q 1269 -72 1725 666 
Q 2053 1225 2103 2097 
L 900 2097 
L 900 2559 
z
M 3488 5159 
L 3938 5353 
Q 4625 3678 6350 2847 
Q 6069 2553 5944 2372 
Q 4225 3366 3488 5159 
z
M 50 2766 
Q 1338 3678 2250 5253 
L 2694 5009 
Q 1744 3347 413 2341 
Q 281 2534 50 2766 
z
" transform="scale(0.015625)"/>
       </defs>
       <use xlink:href="#MicrosoftYaHei-52a0"/>
       <use xlink:href="#MicrosoftYaHei-6743" transform="translate(100 0)"/>
       <use xlink:href="#MicrosoftYaHei-8bc4" transform="translate(200 0)"/>
       <use xlink:href="#MicrosoftYaHei-5206" transform="translate(300 0)"/>
      </g>
     </g>
    </g>
    <g id="xtick_3">
     <g id="line2d_3">
      <g>
       <use xlink:href="#m0917a53a99" x="472.797216" y="411.545" style="stroke: #000000; stroke-width: 0.8"/>
      </g>
     </g>
     <g id="text_3">
      <!-- 运力效率 -->
      <g transform="translate(452.797216 426.53875) scale(0.1 -0.1)">
       <defs>
        <path id="MicrosoftYaHei-8fd0" d="M 4319 2197 
L 4713 2447 
Q 5419 1522 5963 666 
L 5513 359 
Q 5372 597 5225 834 
Q 3450 722 2681 622 
Q 2469 591 2238 516 
L 2006 966 
Q 2250 1134 2413 1366 
Q 2838 2009 3250 2859 
L 1919 2859 
L 1919 3334 
L 6200 3334 
L 6200 2859 
L 3844 2859 
Q 3303 1866 2800 1116 
Q 3750 1172 4959 1253 
Q 4650 1731 4319 2197 
z
M 2756 -141 
L 4588 -178 
L 6313 -109 
Q 6206 -366 6113 -609 
L 4250 -622 
L 2650 -603 
Q 1656 -578 1156 122 
Q 769 -209 369 -697 
L 100 -166 
Q 116 -147 931 547 
L 931 2678 
L 131 2678 
L 131 3141 
L 1431 3141 
L 1431 459 
Q 1903 -125 2756 -141 
z
M 2338 4947 
L 5838 4947 
L 5838 4472 
L 2338 4472 
L 2338 4947 
z
M 794 5278 
Q 1275 4697 1744 4078 
L 1300 3778 
Q 881 4403 413 5003 
L 794 5278 
z
" transform="scale(0.015625)"/>
        <path id="MicrosoftYaHei-529b" d="M 400 3916 
L 2425 3916 
Q 2444 4603 2450 5316 
L 2994 5316 
Q 2981 4653 2963 3916 
L 5831 3916 
Q 5756 1472 5688 459 
Q 5606 -616 4538 -628 
Q 4025 -628 3300 -603 
Q 3275 -359 3206 -9 
L 3225 -9 
Q 4038 -84 4488 -78 
Q 5094 -66 5156 591 
Q 5231 1709 5269 3403 
L 2950 3403 
Q 2894 1775 2431 953 
Q 1938 41 506 -803 
Q 331 -578 131 -328 
Q 1488 434 1913 1209 
Q 2353 1913 2406 3403 
L 400 3403 
L 400 3916 
z
" transform="scale(0.015625)"/>
        <path id="MicrosoftYaHei-6548" d="M 4088 5334 
L 4581 5253 
Q 4453 4653 4259 4122 
L 6269 4122 
L 6269 3697 
L 5838 3697 
Q 5672 1869 5050 841 
Q 5572 128 6388 -347 
Q 6188 -622 6050 -841 
Q 5250 -313 4728 391 
Q 4153 -328 3300 -891 
Q 3163 -709 2944 -497 
Q 3872 125 4428 853 
Q 3897 1797 3753 3025 
Q 3603 2766 3431 2528 
Q 3300 2716 3119 2928 
Q 3844 3941 4088 5334 
z
M 694 1909 
L 1031 2203 
Q 1456 1800 1863 1394 
Q 2138 1847 2350 2378 
L 2800 2141 
Q 2538 1550 2209 1047 
Q 2659 591 3088 134 
L 2669 -222 
Q 2275 225 1913 625 
Q 1250 -238 356 -809 
Q 238 -641 31 -397 
Q 947 128 1584 981 
Q 1113 1491 694 1909 
z
M 5344 3697 
L 4125 3697 
Q 4222 2322 4741 1338 
Q 5263 2306 5344 3697 
z
M 175 4297 
L 3325 4297 
L 3325 3872 
L 175 3872 
L 175 4297 
z
M 1063 3628 
L 1475 3372 
Q 963 2641 413 1953 
Q 256 2084 44 2241 
Q 506 2797 1063 3628 
z
M 2344 3609 
Q 2744 3197 3263 2591 
L 2894 2278 
Q 2506 2759 2006 3341 
L 2344 3609 
z
M 1306 5141 
L 1731 5359 
Q 1988 4953 2206 4547 
L 1769 4322 
Q 1544 4772 1306 5141 
z
" transform="scale(0.015625)"/>
        <path id="MicrosoftYaHei-7387" d="M 2525 2009 
Q 2622 2016 3928 2081 
Q 3772 2300 3625 2491 
L 3963 2703 
Q 4413 2203 4794 1653 
L 4394 1403 
Q 4284 1569 4178 1725 
Q 2991 1659 2213 1597 
Q 2075 1584 1881 1541 
L 1725 1966 
Q 1913 2028 2006 2084 
Q 2534 2441 3050 2913 
Q 2597 2894 2275 2866 
Q 2144 2847 1988 2809 
L 1800 3191 
Q 1956 3247 2088 3366 
Q 2509 3722 2875 4228 
L 231 4228 
L 231 4666 
L 3031 4666 
Q 2878 4944 2744 5153 
L 3194 5372 
Q 3438 5000 3616 4666 
L 6175 4666 
L 6175 4228 
L 3053 4228 
L 3350 4072 
Q 2844 3553 2494 3247 
Q 2850 3256 3425 3269 
Q 3675 3519 3925 3797 
L 4356 3547 
Q 3363 2603 2525 2009 
z
M 144 991 
L 2994 991 
L 2994 1541 
L 3488 1541 
L 3488 991 
L 6275 991 
L 6275 553 
L 3488 553 
L 3488 -853 
L 2994 -853 
L 2994 553 
L 144 553 
L 144 991 
z
M 1719 2672 
L 1944 2303 
Q 1200 1866 425 1409 
L 163 1828 
Q 813 2134 1719 2672 
z
M 4856 2678 
Q 5750 2172 6250 1816 
L 5975 1409 
Q 5331 1909 4600 2341 
L 4856 2678 
z
M 5994 3591 
Q 5519 3178 4963 2809 
L 4644 3141 
Q 5244 3534 5638 3928 
L 5994 3591 
z
M 363 3634 
L 681 3941 
Q 1200 3528 1588 3159 
L 1238 2816 
Q 875 3197 363 3634 
z
" transform="scale(0.015625)"/>
       </defs>
       <use xlink:href="#MicrosoftYaHei-8fd0"/>
       <use xlink:href="#MicrosoftYaHei-529b" transform="translate(100 0)"/>
       <use xlink:href="#MicrosoftYaHei-6548" transform="translate(200 0)"/>
       <use xlink:href="#MicrosoftYaHei-7387" transform="translate(300 0)"/>
      </g>
     </g>
    </g>
   </g>
   <g id="matplotlib.axis_2">
    <g id="ytick_1">
     <g id="line2d_4">
      <path d="M 42.815625 411.545 
L 564.210625 411.545 
" clip-path="url(#p6e9ac1df2a)" style="fill: none; stroke: #b0b0b0; stroke-opacity: 0.3; stroke-width: 0.8; stroke-linecap: square"/>
     </g>
     <g id="line2d_5">
      <defs>
       <path id="mda0f40868e" d="M 0 0 
L -3.5 0 
" style="stroke: #000000; stroke-width: 0.8"/>
      </defs>
      <g>
       <use xlink:href="#mda0f40868e" x="42.815625" y="411.545" style="stroke: #000000; stroke-width: 0.8"/>
      </g>
     </g>
     <g id="text_4">
      <!-- 0.0 -->
      <g transform="translate(21.679688 415.541875) scale(0.1 -0.1)">
       <defs>
        <path id="MicrosoftYaHei-30" d="M 284 2325 
Q 284 3606 709 4264 
Q 1134 4922 1941 4922 
Q 3478 4922 3478 2441 
Q 3478 1216 3045 567 
Q 2613 -81 1831 -81 
Q 1094 -81 689 534 
Q 284 1150 284 2325 
z
M 909 2353 
Q 909 425 1888 425 
Q 2850 425 2850 2384 
Q 2850 4413 1906 4413 
Q 909 4413 909 2353 
z
" transform="scale(0.015625)"/>
        <path id="MicrosoftYaHei-2e" d="M 372 322 
Q 372 491 487 606 
Q 603 722 775 722 
Q 950 722 1065 605 
Q 1181 488 1181 322 
Q 1181 159 1065 42 
Q 950 -75 772 -75 
Q 600 -75 486 42 
Q 372 159 372 322 
z
" transform="scale(0.015625)"/>
       </defs>
       <use xlink:href="#MicrosoftYaHei-30"/>
       <use xlink:href="#MicrosoftYaHei-2e" transform="translate(58.642578 0)"/>
       <use xlink:href="#MicrosoftYaHei-30" transform="translate(82.714844 0)"/>
      </g>
     </g>
    </g>
    <g id="ytick_2">
     <g id="line2d_6">
      <path d="M 42.815625 346.925448 
L 564.210625 346.925448 
" clip-path="url(#p6e9ac1df2a)" style="fill: none; stroke: #b0b0b0; stroke-opacity: 0.3; stroke-width: 0.8; stroke-linecap: square"/>
     </g>
     <g id="line2d_7">
      <g>
       <use xlink:href="#mda0f40868e" x="42.815625" y="346.925448" style="stroke: #000000; stroke-width: 0.8"/>
      </g>
     </g>
     <g id="text_5">
      <!-- 0.2 -->
      <g transform="translate(21.679688 350.922323) scale(0.1 -0.1)">
       <defs>
        <path id="MicrosoftYaHei-32" d="M 2666 3572 
Q 2666 3963 2419 4186 
Q 2172 4409 1747 4409 
Q 1447 4409 1140 4256 
Q 834 4103 569 3819 
L 569 4413 
Q 806 4659 1107 4790 
Q 1409 4922 1816 4922 
Q 2472 4922 2872 4570 
Q 3272 4219 3272 3619 
Q 3272 3084 3026 2693 
Q 2781 2303 2188 1894 
Q 1581 1475 1376 1294 
Q 1172 1113 1090 947 
Q 1009 781 1009 544 
L 3416 544 
L 3416 0 
L 372 0 
L 372 241 
Q 372 659 486 951 
Q 600 1244 862 1520 
Q 1125 1797 1681 2184 
Q 2250 2584 2458 2886 
Q 2666 3188 2666 3572 
z
" transform="scale(0.015625)"/>
       </defs>
       <use xlink:href="#MicrosoftYaHei-30"/>
       <use xlink:href="#MicrosoftYaHei-2e" transform="translate(58.642578 0)"/>
       <use xlink:href="#MicrosoftYaHei-32" transform="translate(82.714844 0)"/>
      </g>
     </g>
    </g>
    <g id="ytick_3">
     <g id="line2d_8">
      <path d="M 42.815625 282.305896 
L 564.210625 282.305896 
" clip-path="url(#p6e9ac1df2a)" style="fill: none; stroke: #b0b0b0; stroke-opacity: 0.3; stroke-width: 0.8; stroke-linecap: square"/>
     </g>
     <g id="line2d_9">
      <g>
       <use xlink:href="#mda0f40868e" x="42.815625" y="282.305896" style="stroke: #000000; stroke-width: 0.8"/>
      </g>
     </g>
     <g id="text_6">
      <!-- 0.4 -->
      <g transform="translate(21.679688 286.302771) scale(0.1 -0.1)">
       <defs>
        <path id="MicrosoftYaHei-34" d="M 2906 4841 
L 2906 1644 
L 3631 1644 
L 3631 1138 
L 2906 1138 
L 2906 0 
L 2313 0 
L 2313 1138 
L 53 1138 
L 53 1616 
Q 656 2294 1265 3178 
Q 1875 4063 2272 4841 
L 2906 4841 
z
M 741 1644 
L 2313 1644 
L 2313 3950 
Q 1988 3366 1616 2817 
Q 1244 2269 741 1644 
z
" transform="scale(0.015625)"/>
       </defs>
       <use xlink:href="#MicrosoftYaHei-30"/>
       <use xlink:href="#MicrosoftYaHei-2e" transform="translate(58.642578 0)"/>
       <use xlink:href="#MicrosoftYaHei-34" transform="translate(82.714844 0)"/>
      </g>
     </g>
    </g>
    <g id="ytick_4">
     <g id="line2d_10">
      <path d="M 42.815625 217.686344 
L 564.210625 217.686344 
" clip-path="url(#p6e9ac1df2a)" style="fill: none; stroke: #b0b0b0; stroke-opacity: 0.3; stroke-width: 0.8; stroke-linecap: square"/>
     </g>
     <g id="line2d_11">
      <g>
       <use xlink:href="#mda0f40868e" x="42.815625" y="217.686344" style="stroke: #000000; stroke-width: 0.8"/>
      </g>
     </g>
     <g id="text_7">
      <!-- 0.6 -->
      <g transform="translate(21.679688 221.683219) scale(0.1 -0.1)">
       <defs>
        <path id="MicrosoftYaHei-36" d="M 3181 4219 
Q 2803 4413 2391 4413 
Q 1763 4413 1381 3866 
Q 1000 3319 994 2372 
L 1009 2372 
Q 1353 3038 2106 3038 
Q 2734 3038 3109 2628 
Q 3484 2219 3484 1541 
Q 3484 831 3051 375 
Q 2619 -81 1947 -81 
Q 1209 -81 789 495 
Q 369 1072 369 2131 
Q 369 3413 920 4167 
Q 1472 4922 2372 4922 
Q 2888 4922 3181 4781 
L 3181 4219 
z
M 1031 1584 
Q 1031 1106 1286 765 
Q 1541 425 1963 425 
Q 2363 425 2613 719 
Q 2863 1013 2863 1475 
Q 2863 1975 2627 2253 
Q 2391 2531 1956 2531 
Q 1544 2531 1287 2250 
Q 1031 1969 1031 1584 
z
" transform="scale(0.015625)"/>
       </defs>
       <use xlink:href="#MicrosoftYaHei-30"/>
       <use xlink:href="#MicrosoftYaHei-2e" transform="translate(58.642578 0)"/>
       <use xlink:href="#MicrosoftYaHei-36" transform="translate(82.714844 0)"/>
      </g>
     </g>
    </g>
    <g id="ytick_5">
     <g id="line2d_12">
      <path d="M 42.815625 153.066792 
L 564.210625 153.066792 
" clip-path="url(#p6e9ac1df2a)" style="fill: none; stroke: #b0b0b0; stroke-opacity: 0.3; stroke-width: 0.8; stroke-linecap: square"/>
     </g>
     <g id="line2d_13">
      <g>
       <use xlink:href="#mda0f40868e" x="42.815625" y="153.066792" style="stroke: #000000; stroke-width: 0.8"/>
      </g>
     </g>
     <g id="text_8">
      <!-- 0.8 -->
      <g transform="translate(21.679688 157.063667) scale(0.1 -0.1)">
       <defs>
        <path id="MicrosoftYaHei-38" d="M 306 1350 
Q 306 1769 556 2122 
Q 806 2475 1200 2625 
Q 884 2803 700 3081 
Q 516 3359 516 3684 
Q 516 4028 692 4312 
Q 869 4597 1183 4759 
Q 1497 4922 1875 4922 
Q 2256 4922 2572 4761 
Q 2888 4600 3063 4315 
Q 3238 4031 3238 3684 
Q 3238 3366 3058 3086 
Q 2878 2806 2559 2625 
Q 2953 2472 3200 2119 
Q 3447 1766 3447 1350 
Q 3447 938 3250 611 
Q 3053 284 2690 103 
Q 2328 -78 1875 -78 
Q 1425 -78 1065 103 
Q 706 284 506 612 
Q 306 941 306 1350 
z
M 906 1378 
Q 906 947 1172 687 
Q 1438 428 1878 428 
Q 2309 428 2582 692 
Q 2856 956 2856 1378 
Q 2856 1778 2579 2051 
Q 2303 2325 1878 2325 
Q 1456 2325 1181 2058 
Q 906 1791 906 1378 
z
M 1081 3634 
Q 1081 3309 1312 3076 
Q 1544 2844 1878 2844 
Q 2206 2844 2445 3078 
Q 2684 3313 2684 3634 
Q 2684 3963 2454 4191 
Q 2225 4419 1878 4419 
Q 1534 4419 1307 4195 
Q 1081 3972 1081 3634 
z
" transform="scale(0.015625)"/>
       </defs>
       <use xlink:href="#MicrosoftYaHei-30"/>
       <use xlink:href="#MicrosoftYaHei-2e" transform="translate(58.642578 0)"/>
       <use xlink:href="#MicrosoftYaHei-38" transform="translate(82.714844 0)"/>
      </g>
     </g>
    </g>
    <g id="ytick_6">
     <g id="line2d_14">
      <path d="M 42.815625 88.44724 
L 564.210625 88.44724 
" clip-path="url(#p6e9ac1df2a)" style="fill: none; stroke: #b0b0b0; stroke-opacity: 0.3; stroke-width: 0.8; stroke-linecap: square"/>
     </g>
     <g id="line2d_15">
      <g>
       <use xlink:href="#mda0f40868e" x="42.815625" y="88.44724" style="stroke: #000000; stroke-width: 0.8"/>
      </g>
     </g>
     <g id="text_9">
      <!-- 1.0 -->
      <g transform="translate(21.679688 92.444115) scale(0.1 -0.1)">
       <defs>
        <path id="MicrosoftYaHei-31" d="M 1781 0 
L 1781 4141 
Q 1638 3997 1295 3819 
Q 953 3641 663 3569 
L 663 4169 
Q 1047 4275 1484 4508 
Q 1922 4741 2156 4947 
L 2388 4947 
L 2388 0 
L 1781 0 
z
" transform="scale(0.015625)"/>
       </defs>
       <use xlink:href="#MicrosoftYaHei-31"/>
       <use xlink:href="#MicrosoftYaHei-2e" transform="translate(58.642578 0)"/>
       <use xlink:href="#MicrosoftYaHei-30" transform="translate(82.714844 0)"/>
      </g>
     </g>
    </g>
    <g id="text_10">
     <!-- 损耗率 (%) -->
     <g transform="translate(15.19375 251.98625) rotate(-90) scale(0.1 -0.1)">
      <defs>
       <path id="MicrosoftYaHei-20" transform="scale(0.015625)"/>
       <path id="MicrosoftYaHei-28" d="M 1531 -1100 
Q 478 100 478 1847 
Q 478 3594 1531 4841 
L 2072 4841 
Q 1016 3544 1016 1853 
Q 1016 166 2066 -1100 
L 1531 -1100 
z
" transform="scale(0.015625)"/>
       <path id="MicrosoftYaHei-25" d="M 272 3619 
Q 272 4213 589 4563 
Q 906 4913 1444 4913 
Q 1959 4913 2248 4591 
Q 2538 4269 2538 3694 
Q 2538 3122 2219 2765 
Q 1900 2409 1372 2409 
Q 872 2409 572 2740 
Q 272 3072 272 3619 
z
M 753 3650 
Q 753 3247 928 3028 
Q 1103 2809 1406 2809 
Q 1719 2809 1889 3036 
Q 2059 3263 2059 3675 
Q 2059 4078 1892 4298 
Q 1725 4519 1422 4519 
Q 1113 4519 933 4289 
Q 753 4059 753 3650 
z
M 4647 4841 
L 1538 -31 
L 1016 -31 
L 4125 4841 
L 4647 4841 
z
M 3172 1134 
Q 3172 1728 3489 2083 
Q 3806 2438 4341 2438 
Q 4853 2438 5143 2114 
Q 5434 1791 5434 1203 
Q 5434 634 5112 279 
Q 4791 -75 4272 -75 
Q 3769 -75 3470 261 
Q 3172 597 3172 1134 
z
M 3650 1163 
Q 3650 769 3825 548 
Q 4000 328 4303 328 
Q 4616 328 4786 556 
Q 4956 784 4956 1194 
Q 4956 1600 4786 1815 
Q 4616 2031 4319 2031 
Q 4000 2031 3825 1801 
Q 3650 1572 3650 1163 
z
" transform="scale(0.015625)"/>
       <path id="MicrosoftYaHei-29" d="M 78 -1100 
Q 1131 163 1131 1853 
Q 1131 3547 72 4841 
L 616 4841 
Q 1672 3603 1672 1847 
Q 1672 91 616 -1100 
L 78 -1100 
z
" transform="scale(0.015625)"/>
      </defs>
      <use xlink:href="#MicrosoftYaHei-635f"/>
      <use xlink:href="#MicrosoftYaHei-8017" transform="translate(100 0)"/>
      <use xlink:href="#MicrosoftYaHei-7387" transform="translate(200 0)"/>
      <use xlink:href="#MicrosoftYaHei-20" transform="translate(300 0)"/>
      <use xlink:href="#MicrosoftYaHei-28" transform="translate(329.589844 0)"/>
      <use xlink:href="#MicrosoftYaHei-25" transform="translate(362.988281 0)"/>
      <use xlink:href="#MicrosoftYaHei-29" transform="translate(451.953125 0)"/>
     </g>
    </g>
   </g>
   <g id="patch_6">
    <path d="M 42.815625 411.545 
L 42.815625 43.89 
" style="fill: none; stroke: #000000; stroke-width: 0.8; stroke-linejoin: miter; stroke-linecap: square"/>
   </g>
   <g id="patch_7">
    <path d="M 564.210625 411.545 
L 564.210625 43.89 
" style="fill: none; stroke: #000000; stroke-width: 0.8; stroke-linejoin: miter; stroke-linecap: square"/>
   </g>
   <g id="patch_8">
    <path d="M 42.815625 411.545 
L 564.210625 411.545 
" style="fill: none; stroke: #000000; stroke-width: 0.8; stroke-linejoin: miter; stroke-linecap: square"/>
   </g>
   <g id="patch_9">
    <path d="M 42.815625 43.89 
L 564.210625 43.89 
" style="fill: none; stroke: #000000; stroke-width: 0.8; stroke-linejoin: miter; stroke-linecap: square"/>
   </g>
   <g id="text_11">
    <!-- 0.456% -->
    <g transform="translate(115.811065 258.553025) scale(0.1 -0.1)">
     <defs>
      <path id="MicrosoftYaHei-Bold-30" d="M 244 2341 
Q 244 3597 706 4259 
Q 1169 4922 2044 4922 
Q 3713 4922 3713 2453 
Q 3713 1238 3259 577 
Q 2806 -84 1950 -84 
Q 244 -84 244 2341 
z
M 1266 2366 
Q 1266 691 1981 691 
Q 2684 691 2684 2416 
Q 2684 4147 2000 4147 
Q 1266 4147 1266 2366 
z
" transform="scale(0.015625)"/>
      <path id="MicrosoftYaHei-Bold-2e" d="M 313 453 
Q 313 688 491 838 
Q 669 988 916 988 
Q 1166 988 1337 834 
Q 1509 681 1509 453 
Q 1509 213 1337 64 
Q 1166 -84 903 -84 
Q 659 -84 486 69 
Q 313 222 313 453 
z
" transform="scale(0.015625)"/>
      <path id="MicrosoftYaHei-Bold-34" d="M 3184 4841 
L 3184 1766 
L 3869 1766 
L 3869 1031 
L 3184 1031 
L 3184 0 
L 2266 0 
L 2266 1031 
L 103 1031 
L 103 1772 
Q 775 2522 1362 3359 
Q 1950 4197 2250 4841 
L 3184 4841 
z
M 997 1766 
L 2266 1766 
L 2266 3541 
Q 2116 3259 1836 2859 
Q 1556 2459 997 1766 
z
" transform="scale(0.015625)"/>
      <path id="MicrosoftYaHei-Bold-35" d="M 541 125 
L 541 997 
Q 1044 691 1613 691 
Q 2041 691 2283 902 
Q 2525 1113 2525 1472 
Q 2525 2225 1494 2225 
Q 1113 2225 616 2169 
L 797 4841 
L 3359 4841 
L 3359 4009 
L 1613 4009 
L 1544 2991 
Q 1803 3013 2022 3013 
Q 2731 3013 3142 2625 
Q 3553 2238 3553 1575 
Q 3553 844 3056 380 
Q 2559 -84 1706 -84 
Q 1016 -84 541 125 
z
" transform="scale(0.015625)"/>
      <path id="MicrosoftYaHei-Bold-36" d="M 3378 3938 
Q 3009 4147 2575 4147 
Q 2016 4147 1680 3708 
Q 1344 3269 1344 2572 
L 1363 2572 
Q 1709 3103 2391 3103 
Q 3000 3103 3358 2686 
Q 3716 2269 3716 1600 
Q 3716 869 3250 392 
Q 2784 -84 2059 -84 
Q 1228 -84 786 516 
Q 344 1116 344 2159 
Q 344 3388 917 4155 
Q 1491 4922 2513 4922 
Q 3063 4922 3378 4791 
L 3378 3938 
z
M 1378 1591 
Q 1378 1216 1565 953 
Q 1753 691 2059 691 
Q 2369 691 2547 931 
Q 2725 1172 2725 1534 
Q 2725 2350 2053 2350 
Q 1750 2350 1564 2134 
Q 1378 1919 1378 1591 
z
" transform="scale(0.015625)"/>
      <path id="MicrosoftYaHei-Bold-25" d="M 297 3597 
Q 297 4191 626 4548 
Q 956 4906 1519 4906 
Q 2056 4906 2354 4581 
Q 2653 4256 2653 3684 
Q 2653 3097 2322 2744 
Q 1991 2391 1438 2391 
Q 919 2391 608 2722 
Q 297 3053 297 3597 
z
M 984 3631 
Q 984 2959 1478 2959 
Q 1981 2959 1981 3659 
Q 1981 4338 1500 4338 
Q 984 4338 984 3631 
z
M 4938 4841 
L 1791 -3 
L 1006 -3 
L 4147 4841 
L 4938 4841 
z
M 3297 1141 
Q 3297 1741 3631 2095 
Q 3966 2450 4522 2450 
Q 5059 2450 5357 2131 
Q 5656 1813 5656 1234 
Q 5656 641 5322 286 
Q 4988 -69 4438 -69 
Q 3922 -69 3609 264 
Q 3297 597 3297 1141 
z
M 3981 1175 
Q 3981 500 4478 500 
Q 4978 500 4978 1200 
Q 4978 1528 4845 1704 
Q 4713 1881 4491 1881 
Q 3981 1881 3981 1175 
z
" transform="scale(0.015625)"/>
     </defs>
     <use xlink:href="#MicrosoftYaHei-Bold-30"/>
     <use xlink:href="#MicrosoftYaHei-Bold-2e" transform="translate(61.669922 0)"/>
     <use xlink:href="#MicrosoftYaHei-Bold-34" transform="translate(90.234375 0)"/>
     <use xlink:href="#MicrosoftYaHei-Bold-35" transform="translate(151.904297 0)"/>
     <use xlink:href="#MicrosoftYaHei-Bold-36" transform="translate(213.574219 0)"/>
     <use xlink:href="#MicrosoftYaHei-Bold-25" transform="translate(275.244141 0)"/>
    </g>
   </g>
   <g id="text_12">
    <!-- 1.084% -->
    <g transform="translate(285.095156 55.680466) scale(0.1 -0.1)">
     <defs>
      <path id="MicrosoftYaHei-Bold-31" d="M 2716 4947 
L 2716 0 
L 1700 0 
L 1700 3809 
Q 1513 3647 1188 3517 
Q 863 3388 591 3356 
L 591 4222 
Q 1447 4472 2072 4947 
L 2716 4947 
z
" transform="scale(0.015625)"/>
      <path id="MicrosoftYaHei-Bold-38" d="M 269 1303 
Q 269 1725 512 2053 
Q 756 2381 1219 2534 
Q 850 2719 648 3003 
Q 447 3288 447 3634 
Q 447 3997 645 4292 
Q 844 4588 1200 4755 
Q 1556 4922 1997 4922 
Q 2441 4922 2800 4758 
Q 3159 4594 3359 4298 
Q 3559 4003 3559 3647 
Q 3559 3309 3339 3018 
Q 3119 2728 2747 2559 
Q 3200 2403 3453 2076 
Q 3706 1750 3706 1313 
Q 3706 697 3228 309 
Q 2750 -78 1988 -78 
Q 1225 -78 747 309 
Q 269 697 269 1303 
z
M 1278 1394 
Q 1278 1056 1472 853 
Q 1666 650 1991 650 
Q 2303 650 2503 853 
Q 2703 1056 2703 1394 
Q 2703 1709 2500 1920 
Q 2297 2131 1991 2131 
Q 1675 2131 1476 1920 
Q 1278 1709 1278 1394 
z
M 1428 3531 
Q 1428 3266 1592 3077 
Q 1756 2888 2006 2888 
Q 2247 2888 2415 3072 
Q 2584 3256 2584 3531 
Q 2584 3806 2420 3997 
Q 2256 4188 2006 4188 
Q 1750 4188 1589 3997 
Q 1428 3806 1428 3531 
z
" transform="scale(0.015625)"/>
     </defs>
     <use xlink:href="#MicrosoftYaHei-Bold-31"/>
     <use xlink:href="#MicrosoftYaHei-Bold-2e" transform="translate(61.669922 0)"/>
     <use xlink:href="#MicrosoftYaHei-Bold-30" transform="translate(90.234375 0)"/>
     <use xlink:href="#MicrosoftYaHei-Bold-38" transform="translate(151.904297 0)"/>
     <use xlink:href="#MicrosoftYaHei-Bold-34" transform="translate(213.574219 0)"/>
     <use xlink:href="#MicrosoftYaHei-Bold-25" transform="translate(275.244141 0)"/>
    </g>
   </g>
   <g id="text_13">
    <!-- 0.806% -->
    <g transform="translate(454.379247 145.391011) scale(0.1 -0.1)">
     <use xlink:href="#MicrosoftYaHei-Bold-30"/>
     <use xlink:href="#MicrosoftYaHei-Bold-2e" transform="translate(61.669922 0)"/>
     <use xlink:href="#MicrosoftYaHei-Bold-38" transform="translate(90.234375 0)"/>
     <use xlink:href="#MicrosoftYaHei-Bold-30" transform="translate(151.904297 0)"/>
     <use xlink:href="#MicrosoftYaHei-Bold-36" transform="translate(213.574219 0)"/>
     <use xlink:href="#MicrosoftYaHei-Bold-25" transform="translate(275.244141 0)"/>
    </g>
   </g>
   <g id="text_14">
    <!-- 加权平均损耗率对比 -->
    <g transform="translate(249.513125 37.89) scale(0.12 -0.12)">
     <defs>
      <path id="MicrosoftYaHei-5e73" d="M 169 1934 
L 2938 1934 
L 2938 4547 
L 450 4547 
L 450 5028 
L 5975 5028 
L 5975 4547 
L 3463 4547 
L 3463 1934 
L 6250 1934 
L 6250 1453 
L 3463 1453 
L 3463 -847 
L 2938 -847 
L 2938 1453 
L 169 1453 
L 169 1934 
z
M 3950 2559 
Q 4638 3284 5188 4159 
L 5656 3859 
Q 4950 2891 4338 2234 
L 3950 2559 
z
M 769 3859 
L 1163 4134 
Q 1863 3316 2369 2553 
L 1925 2222 
Q 1444 3003 769 3859 
z
" transform="scale(0.015625)"/>
      <path id="MicrosoftYaHei-5747" d="M 2244 2803 
Q 2931 3953 3338 5322 
L 3838 5172 
Q 3691 4744 3531 4347 
L 6013 4347 
Q 5925 1053 5875 297 
Q 5831 -697 4806 -697 
Q 4188 -697 3706 -672 
Q 3669 -422 3606 -141 
L 3625 -141 
Q 4250 -209 4775 -209 
Q 5350 -209 5394 378 
Q 5456 1447 5513 3891 
L 3341 3891 
Q 3028 3172 2675 2572 
Q 2481 2691 2244 2803 
z
M 81 428 
Q 559 600 1006 769 
L 1006 3253 
L 169 3253 
L 169 3697 
L 1006 3697 
L 1006 5259 
L 1469 5259 
L 1469 3697 
L 2281 3697 
L 2281 3253 
L 1469 3253 
L 1469 947 
Q 1922 1125 2338 1303 
Q 2350 991 2369 784 
Q 1363 403 250 -53 
L 81 428 
z
M 2513 853 
Q 3769 1353 5119 1934 
Q 5150 1641 5188 1434 
Q 4031 947 2706 359 
L 2513 853 
z
M 3138 2909 
L 3481 3216 
Q 4025 2716 4531 2216 
L 4125 1859 
Q 3644 2409 3138 2909 
z
" transform="scale(0.015625)"/>
      <path id="MicrosoftYaHei-5bf9" d="M 694 3691 
Q 1234 2909 1741 2166 
Q 2113 3081 2213 4147 
L 250 4147 
L 250 4622 
L 2725 4622 
L 2725 4166 
Q 2553 2809 2059 1700 
Q 2569 953 3044 247 
L 2594 -53 
Q 2203 563 1803 1181 
Q 1247 163 388 -622 
Q 263 -428 81 -166 
Q 975 638 1500 1647 
Q 919 2538 319 3434 
L 694 3691 
z
M 2975 3941 
L 5056 3941 
L 5056 5278 
L 5563 5278 
L 5563 3941 
L 6325 3941 
L 6325 3466 
L 5563 3466 
L 5563 191 
Q 5563 -716 4669 -716 
Q 4388 -716 3744 -709 
Q 3713 -478 3644 -147 
Q 4263 -197 4588 -197 
Q 5056 -197 5056 278 
L 5056 3466 
L 2975 3466 
L 2975 3941 
z
M 3088 2684 
L 3494 2928 
Q 4000 2184 4388 1484 
L 3919 1216 
Q 3550 1922 3088 2684 
z
" transform="scale(0.015625)"/>
      <path id="MicrosoftYaHei-6bd4" d="M 3225 5316 
L 3744 5316 
L 3744 2672 
Q 4959 3550 5744 4509 
L 6188 4178 
Q 5175 3063 3744 2056 
L 3744 247 
Q 3744 -166 4106 -166 
L 5175 -166 
Q 5588 -166 5650 203 
Q 5725 678 5763 1247 
Q 6025 1147 6300 1066 
Q 6244 484 6150 22 
Q 6019 -622 5319 -622 
L 3944 -622 
Q 3225 -622 3225 159 
L 3225 5316 
z
M 1063 5153 
L 1063 3278 
L 2825 3278 
L 2825 2809 
L 1063 2809 
L 1063 153 
Q 1713 428 2763 928 
Q 2763 634 2788 366 
Q 1869 -3 1231 -328 
Q 956 -472 725 -672 
L 344 -184 
Q 544 -34 544 272 
L 544 5153 
L 1063 5153 
z
" transform="scale(0.015625)"/>
     </defs>
     <use xlink:href="#MicrosoftYaHei-52a0"/>
     <use xlink:href="#MicrosoftYaHei-6743" transform="translate(100 0)"/>
     <use xlink:href="#MicrosoftYaHei-5e73" transform="translate(200 0)"/>
     <use xlink:href="#MicrosoftYaHei-5747" transform="translate(300 0)"/>
     <use xlink:href="#MicrosoftYaHei-635f" transform="translate(400 0)"/>
     <use xlink:href="#MicrosoftYaHei-8017" transform="translate(500 0)"/>
     <use xlink:href="#MicrosoftYaHei-7387" transform="translate(600 0)"/>
     <use xlink:href="#MicrosoftYaHei-5bf9" transform="translate(700 0)"/>
     <use xlink:href="#MicrosoftYaHei-6bd4" transform="translate(800 0)"/>
    </g>
   </g>
  </g>
  <g id="axes_2">
   <g id="patch_10">
    <path d="M 615.170625 411.545 
L 1136.565625 411.545 
L 1136.565625 43.89 
L 615.170625 43.89 
z
" style="fill: #ffffff"/>
   </g>
   <g id="patch_11">
    <path d="M 638.870398 411.545 
L 774.29767 411.545 
L 774.29767 236.47119 
L 638.870398 236.47119 
z
" clip-path="url(#pd800dbb499)" style="fill: #ff7f0e; opacity: 0.8"/>
   </g>
   <g id="patch_12">
    <path d="M 808.154489 411.545 
L 943.581761 411.545 
L 943.581761 236.47119 
L 808.154489 236.47119 
z
" clip-path="url(#pd800dbb499)" style="fill: #2ca02c; opacity: 0.8"/>
   </g>
   <g id="patch_13">
    <path d="M 977.43858 411.545 
L 1112.865852 411.545 
L 1112.865852 61.397381 
L 977.43858 61.397381 
z
" clip-path="url(#pd800dbb499)" style="fill: #d62728; opacity: 0.8"/>
   </g>
   <g id="matplotlib.axis_3">
    <g id="xtick_4">
     <g id="line2d_16">
      <g>
       <use xlink:href="#m0917a53a99" x="706.584034" y="411.545" style="stroke: #000000; stroke-width: 0.8"/>
      </g>
     </g>
     <g id="text_15">
      <!-- 最小损耗 -->
      <g transform="translate(686.584034 426.53875) scale(0.1 -0.1)">
       <use xlink:href="#MicrosoftYaHei-6700"/>
       <use xlink:href="#MicrosoftYaHei-5c0f" transform="translate(100 0)"/>
       <use xlink:href="#MicrosoftYaHei-635f" transform="translate(200 0)"/>
       <use xlink:href="#MicrosoftYaHei-8017" transform="translate(300 0)"/>
      </g>
     </g>
    </g>
    <g id="xtick_5">
     <g id="line2d_17">
      <g>
       <use xlink:href="#m0917a53a99" x="875.868125" y="411.545" style="stroke: #000000; stroke-width: 0.8"/>
      </g>
     </g>
     <g id="text_16">
      <!-- 加权评分 -->
      <g transform="translate(855.868125 426.53875) scale(0.1 -0.1)">
       <use xlink:href="#MicrosoftYaHei-52a0"/>
       <use xlink:href="#MicrosoftYaHei-6743" transform="translate(100 0)"/>
       <use xlink:href="#MicrosoftYaHei-8bc4" transform="translate(200 0)"/>
       <use xlink:href="#MicrosoftYaHei-5206" transform="translate(300 0)"/>
      </g>
     </g>
    </g>
    <g id="xtick_6">
     <g id="line2d_18">
      <g>
       <use xlink:href="#m0917a53a99" x="1045.152216" y="411.545" style="stroke: #000000; stroke-width: 0.8"/>
      </g>
     </g>
     <g id="text_17">
      <!-- 运力效率 -->
      <g transform="translate(1025.152216 426.53875) scale(0.1 -0.1)">
       <use xlink:href="#MicrosoftYaHei-8fd0"/>
       <use xlink:href="#MicrosoftYaHei-529b" transform="translate(100 0)"/>
       <use xlink:href="#MicrosoftYaHei-6548" transform="translate(200 0)"/>
       <use xlink:href="#MicrosoftYaHei-7387" transform="translate(300 0)"/>
      </g>
     </g>
    </g>
   </g>
   <g id="matplotlib.axis_4">
    <g id="ytick_7">
     <g id="line2d_19">
      <path d="M 615.170625 411.545 
L 1136.565625 411.545 
" clip-path="url(#pd800dbb499)" style="fill: none; stroke: #b0b0b0; stroke-opacity: 0.3; stroke-width: 0.8; stroke-linecap: square"/>
     </g>
     <g id="line2d_20">
      <g>
       <use xlink:href="#mda0f40868e" x="615.170625" y="411.545" style="stroke: #000000; stroke-width: 0.8"/>
      </g>
     </g>
     <g id="text_18">
      <!-- 0 -->
      <g transform="translate(602.306563 415.541875) scale(0.1 -0.1)">
       <use xlink:href="#MicrosoftYaHei-30"/>
      </g>
     </g>
    </g>
    <g id="ytick_8">
     <g id="line2d_21">
      <path d="M 615.170625 367.776548 
L 1136.565625 367.776548 
" clip-path="url(#pd800dbb499)" style="fill: none; stroke: #b0b0b0; stroke-opacity: 0.3; stroke-width: 0.8; stroke-linecap: square"/>
     </g>
     <g id="line2d_22">
      <g>
       <use xlink:href="#mda0f40868e" x="615.170625" y="367.776548" style="stroke: #000000; stroke-width: 0.8"/>
      </g>
     </g>
     <g id="text_19">
      <!-- 1 -->
      <g transform="translate(602.306563 371.773423) scale(0.1 -0.1)">
       <use xlink:href="#MicrosoftYaHei-31"/>
      </g>
     </g>
    </g>
    <g id="ytick_9">
     <g id="line2d_23">
      <path d="M 615.170625 324.008095 
L 1136.565625 324.008095 
" clip-path="url(#pd800dbb499)" style="fill: none; stroke: #b0b0b0; stroke-opacity: 0.3; stroke-width: 0.8; stroke-linecap: square"/>
     </g>
     <g id="line2d_24">
      <g>
       <use xlink:href="#mda0f40868e" x="615.170625" y="324.008095" style="stroke: #000000; stroke-width: 0.8"/>
      </g>
     </g>
     <g id="text_20">
      <!-- 2 -->
      <g transform="translate(602.306563 328.00497) scale(0.1 -0.1)">
       <use xlink:href="#MicrosoftYaHei-32"/>
      </g>
     </g>
    </g>
    <g id="ytick_10">
     <g id="line2d_25">
      <path d="M 615.170625 280.239643 
L 1136.565625 280.239643 
" clip-path="url(#pd800dbb499)" style="fill: none; stroke: #b0b0b0; stroke-opacity: 0.3; stroke-width: 0.8; stroke-linecap: square"/>
     </g>
     <g id="line2d_26">
      <g>
       <use xlink:href="#mda0f40868e" x="615.170625" y="280.239643" style="stroke: #000000; stroke-width: 0.8"/>
      </g>
     </g>
     <g id="text_21">
      <!-- 3 -->
      <g transform="translate(602.306563 284.236518) scale(0.1 -0.1)">
       <defs>
        <path id="MicrosoftYaHei-33" d="M 447 809 
Q 944 425 1569 425 
Q 2069 425 2361 670 
Q 2653 916 2653 1328 
Q 2653 2247 1338 2247 
L 934 2247 
L 934 2753 
L 1319 2753 
Q 2484 2753 2484 3616 
Q 2484 4413 1594 4413 
Q 1084 4413 634 4069 
L 634 4647 
Q 1109 4922 1744 4922 
Q 2363 4922 2738 4598 
Q 3113 4275 3113 3759 
Q 3113 2809 2144 2538 
L 2144 2525 
Q 2669 2469 2973 2155 
Q 3278 1841 3278 1372 
Q 3278 719 2808 319 
Q 2338 -81 1556 -81 
Q 869 -81 447 175 
L 447 809 
z
" transform="scale(0.015625)"/>
       </defs>
       <use xlink:href="#MicrosoftYaHei-33"/>
      </g>
     </g>
    </g>
    <g id="ytick_11">
     <g id="line2d_27">
      <path d="M 615.170625 236.47119 
L 1136.565625 236.47119 
" clip-path="url(#pd800dbb499)" style="fill: none; stroke: #b0b0b0; stroke-opacity: 0.3; stroke-width: 0.8; stroke-linecap: square"/>
     </g>
     <g id="line2d_28">
      <g>
       <use xlink:href="#mda0f40868e" x="615.170625" y="236.47119" style="stroke: #000000; stroke-width: 0.8"/>
      </g>
     </g>
     <g id="text_22">
      <!-- 4 -->
      <g transform="translate(602.306563 240.468065) scale(0.1 -0.1)">
       <use xlink:href="#MicrosoftYaHei-34"/>
      </g>
     </g>
    </g>
    <g id="ytick_12">
     <g id="line2d_29">
      <path d="M 615.170625 192.702738 
L 1136.565625 192.702738 
" clip-path="url(#pd800dbb499)" style="fill: none; stroke: #b0b0b0; stroke-opacity: 0.3; stroke-width: 0.8; stroke-linecap: square"/>
     </g>
     <g id="line2d_30">
      <g>
       <use xlink:href="#mda0f40868e" x="615.170625" y="192.702738" style="stroke: #000000; stroke-width: 0.8"/>
      </g>
     </g>
     <g id="text_23">
      <!-- 5 -->
      <g transform="translate(602.306563 196.699613) scale(0.1 -0.1)">
       <defs>
        <path id="MicrosoftYaHei-35" d="M 3294 1494 
Q 3294 784 2823 350 
Q 2353 -84 1559 -84 
Q 878 -84 544 119 
L 544 744 
Q 1034 425 1544 425 
Q 2050 425 2361 704 
Q 2672 984 2672 1447 
Q 2672 1909 2348 2167 
Q 2025 2425 1434 2425 
Q 978 2425 613 2384 
L 791 4841 
L 3053 4841 
L 3053 4303 
L 1306 4303 
L 1206 2931 
L 1647 2950 
Q 2416 2950 2855 2567 
Q 3294 2184 3294 1494 
z
" transform="scale(0.015625)"/>
       </defs>
       <use xlink:href="#MicrosoftYaHei-35"/>
      </g>
     </g>
    </g>
    <g id="ytick_13">
     <g id="line2d_31">
      <path d="M 615.170625 148.934286 
L 1136.565625 148.934286 
" clip-path="url(#pd800dbb499)" style="fill: none; stroke: #b0b0b0; stroke-opacity: 0.3; stroke-width: 0.8; stroke-linecap: square"/>
     </g>
     <g id="line2d_32">
      <g>
       <use xlink:href="#mda0f40868e" x="615.170625" y="148.934286" style="stroke: #000000; stroke-width: 0.8"/>
      </g>
     </g>
     <g id="text_24">
      <!-- 6 -->
      <g transform="translate(602.306563 152.931161) scale(0.1 -0.1)">
       <use xlink:href="#MicrosoftYaHei-36"/>
      </g>
     </g>
    </g>
    <g id="ytick_14">
     <g id="line2d_33">
      <path d="M 615.170625 105.165833 
L 1136.565625 105.165833 
" clip-path="url(#pd800dbb499)" style="fill: none; stroke: #b0b0b0; stroke-opacity: 0.3; stroke-width: 0.8; stroke-linecap: square"/>
     </g>
     <g id="line2d_34">
      <g>
       <use xlink:href="#mda0f40868e" x="615.170625" y="105.165833" style="stroke: #000000; stroke-width: 0.8"/>
      </g>
     </g>
     <g id="text_25">
      <!-- 7 -->
      <g transform="translate(602.306563 109.162708) scale(0.1 -0.1)">
       <defs>
        <path id="MicrosoftYaHei-37" d="M 3422 4463 
Q 2659 3131 2223 1998 
Q 1788 866 1684 0 
L 1047 0 
Q 1163 853 1594 1947 
Q 2025 3041 2747 4300 
L 347 4300 
L 347 4841 
L 3422 4841 
L 3422 4463 
z
" transform="scale(0.015625)"/>
       </defs>
       <use xlink:href="#MicrosoftYaHei-37"/>
      </g>
     </g>
    </g>
    <g id="ytick_15">
     <g id="line2d_35">
      <path d="M 615.170625 61.397381 
L 1136.565625 61.397381 
" clip-path="url(#pd800dbb499)" style="fill: none; stroke: #b0b0b0; stroke-opacity: 0.3; stroke-width: 0.8; stroke-linecap: square"/>
     </g>
     <g id="line2d_36">
      <g>
       <use xlink:href="#mda0f40868e" x="615.170625" y="61.397381" style="stroke: #000000; stroke-width: 0.8"/>
      </g>
     </g>
     <g id="text_26">
      <!-- 8 -->
      <g transform="translate(602.306563 65.394256) scale(0.1 -0.1)">
       <use xlink:href="#MicrosoftYaHei-38"/>
      </g>
     </g>
    </g>
    <g id="text_27">
     <!-- 转运商数量 -->
     <g transform="translate(595.820625 252.7175) rotate(-90) scale(0.1 -0.1)">
      <defs>
       <path id="MicrosoftYaHei-8f6c" d="M 3125 584 
L 3406 959 
Q 3925 634 4431 303 
L 5400 1428 
L 3244 1428 
L 3244 1859 
Q 3363 2238 3481 2666 
L 2769 2666 
L 2769 3091 
L 3600 3091 
Q 3703 3484 3809 3916 
L 3063 3916 
L 3063 4341 
L 3913 4341 
Q 4022 4800 4131 5297 
L 4613 5297 
Q 4506 4806 4394 4341 
L 6075 4341 
L 6075 3916 
L 4294 3916 
Q 4188 3491 4084 3091 
L 6300 3091 
L 6300 2666 
L 3969 2666 
Q 3853 2247 3738 1853 
L 6006 1853 
L 6006 1409 
L 4819 50 
Q 5191 -197 5556 -447 
L 5231 -859 
Q 4219 -103 3125 584 
z
M 744 2303 
L 1506 2303 
L 1506 3534 
L 1969 3534 
L 1969 2303 
L 2813 2303 
L 2813 1878 
L 1969 1878 
L 1969 1034 
Q 2441 1100 2944 1172 
Q 2919 953 2900 722 
Q 2431 653 1969 584 
L 1969 -841 
L 1506 -841 
L 1506 516 
Q 825 413 150 309 
L 81 791 
Q 756 872 1506 972 
L 1506 1878 
L 225 1878 
L 225 2297 
Q 553 2994 844 3922 
L 156 3922 
L 156 4347 
L 972 4347 
Q 1109 4819 1238 5347 
L 1750 5247 
Q 1609 4788 1466 4347 
L 2813 4347 
L 2813 3922 
L 1325 3922 
Q 1044 3084 744 2303 
z
" transform="scale(0.015625)"/>
       <path id="MicrosoftYaHei-5546" d="M 600 3309 
L 2119 3309 
Q 1903 3625 1650 3934 
L 2031 4191 
Q 2331 3841 2575 3541 
L 2238 3309 
L 3656 3309 
Q 3972 3716 4238 4166 
L 4713 3891 
Q 4416 3538 4213 3309 
L 5769 3309 
L 5769 34 
Q 5769 -753 5050 -759 
Q 4663 -766 4175 -753 
Q 4125 -391 4081 -228 
Q 4575 -278 4894 -278 
Q 5300 -278 5300 172 
L 5300 2878 
L 1069 2878 
L 1069 -834 
L 600 -834 
L 600 3309 
z
M 1950 -216 
L 1950 1797 
L 4456 1797 
L 4456 116 
L 2400 116 
L 2400 -216 
L 1950 -216 
z
M 144 4647 
L 2997 4647 
Q 2878 4869 2706 5141 
L 3188 5359 
Q 3375 5038 3581 4647 
L 6275 4647 
L 6275 4203 
L 144 4203 
L 144 4647 
z
M 4006 516 
L 4006 1397 
L 2400 1397 
L 2400 516 
L 4006 516 
z
M 2431 2809 
L 2769 2484 
Q 2038 1859 1400 1384 
Q 1213 1641 1106 1753 
Q 1794 2209 2431 2809 
z
M 3531 2466 
L 3806 2809 
Q 4731 2228 5206 1878 
L 4894 1484 
Q 4275 1984 3531 2466 
z
" transform="scale(0.015625)"/>
       <path id="MicrosoftYaHei-6570" d="M 4175 5303 
L 4675 5228 
Q 4544 4622 4369 4097 
L 6281 4097 
L 6281 3672 
L 5888 3672 
Q 5731 1834 5088 753 
Q 5594 66 6375 -372 
Q 6175 -647 6038 -866 
Q 5275 -372 4769 309 
Q 4194 -403 3400 -928 
Q 3263 -747 3044 -534 
Q 3919 41 4463 772 
Q 3956 1647 3794 2791 
Q 3663 2559 3519 2359 
Q 3394 2541 3206 2759 
Q 3931 3803 4175 5303 
z
M 150 1697 
L 1100 1697 
Q 1238 1934 1369 2184 
L 1819 2041 
Q 1719 1866 1619 1697 
L 3150 1697 
L 3150 1291 
Q 2913 678 2431 216 
Q 2775 53 3131 -109 
L 2856 -541 
Q 2469 -322 2050 -103 
Q 1344 -609 269 -903 
Q 169 -703 56 -466 
Q 969 -259 1600 128 
Q 1063 403 475 691 
Q 675 978 863 1284 
L 150 1284 
L 150 1697 
z
M 219 3847 
L 1656 3847 
L 1656 5247 
L 2119 5247 
L 2119 3847 
L 3319 3847 
L 3319 3434 
L 2119 3434 
L 2119 3053 
L 2306 3266 
Q 2888 2841 3281 2516 
L 2981 2166 
Q 2638 2491 2119 2897 
L 2119 2184 
L 1656 2184 
L 1656 3059 
Q 1088 2466 331 2016 
Q 213 2197 63 2397 
Q 850 2822 1506 3434 
L 219 3434 
L 219 3847 
z
M 5388 3672 
L 4219 3672 
Q 4188 3591 4150 3516 
Q 4263 2191 4775 1247 
Q 5275 2159 5388 3672 
z
M 1088 834 
Q 1531 634 2000 416 
Q 2431 784 2675 1284 
L 1375 1284 
Q 1231 1053 1088 834 
z
M 3038 5091 
L 3425 4834 
Q 3081 4384 2738 4003 
Q 2594 4128 2400 4266 
Q 2725 4647 3038 5091 
z
M 381 4816 
L 738 5059 
Q 1019 4716 1319 4322 
L 931 4047 
Q 656 4453 381 4816 
z
" transform="scale(0.015625)"/>
       <path id="MicrosoftYaHei-91cf" d="M 113 -278 
L 2981 -278 
L 2981 78 
L 475 78 
L 475 403 
L 2981 403 
L 2981 759 
L 1494 759 
L 1494 597 
L 1069 597 
L 1069 2516 
L 5350 2516 
L 5350 597 
L 4925 597 
L 4925 759 
L 3419 759 
L 3419 403 
L 5931 403 
L 5931 78 
L 3419 78 
L 3419 -278 
L 6288 -278 
L 6288 -616 
L 113 -616 
L 113 -278 
z
M 1119 5072 
L 5306 5072 
L 5306 3284 
L 4881 3284 
L 4881 3453 
L 1544 3453 
L 1544 3284 
L 1119 3284 
L 1119 5072 
z
M 163 3153 
L 6263 3153 
L 6263 2816 
L 163 2816 
L 163 3153 
z
M 1544 3778 
L 4881 3778 
L 4881 4116 
L 1544 4116 
L 1544 3778 
z
M 4881 4747 
L 1544 4747 
L 1544 4416 
L 4881 4416 
L 4881 4747 
z
M 3419 1084 
L 4925 1084 
L 4925 1491 
L 3419 1491 
L 3419 1084 
z
M 1494 1084 
L 2981 1084 
L 2981 1491 
L 1494 1491 
L 1494 1084 
z
M 4925 2191 
L 3419 2191 
L 3419 1791 
L 4925 1791 
L 4925 2191 
z
M 1494 1791 
L 2981 1791 
L 2981 2191 
L 1494 2191 
L 1494 1791 
z
" transform="scale(0.015625)"/>
      </defs>
      <use xlink:href="#MicrosoftYaHei-8f6c"/>
      <use xlink:href="#MicrosoftYaHei-8fd0" transform="translate(100 0)"/>
      <use xlink:href="#MicrosoftYaHei-5546" transform="translate(200 0)"/>
      <use xlink:href="#MicrosoftYaHei-6570" transform="translate(300 0)"/>
      <use xlink:href="#MicrosoftYaHei-91cf" transform="translate(400 0)"/>
     </g>
    </g>
   </g>
   <g id="patch_14">
    <path d="M 615.170625 411.545 
L 615.170625 43.89 
" style="fill: none; stroke: #000000; stroke-width: 0.8; stroke-linejoin: miter; stroke-linecap: square"/>
   </g>
   <g id="patch_15">
    <path d="M 1136.565625 411.545 
L 1136.565625 43.89 
" style="fill: none; stroke: #000000; stroke-width: 0.8; stroke-linejoin: miter; stroke-linecap: square"/>
   </g>
   <g id="patch_16">
    <path d="M 615.170625 411.545 
L 1136.565625 411.545 
" style="fill: none; stroke: #000000; stroke-width: 0.8; stroke-linejoin: miter; stroke-linecap: square"/>
   </g>
   <g id="patch_17">
    <path d="M 615.170625 43.89 
L 1136.565625 43.89 
" style="fill: none; stroke: #000000; stroke-width: 0.8; stroke-linejoin: miter; stroke-linecap: square"/>
   </g>
   <g id="text_28">
    <!-- 4 -->
    <g transform="translate(703.50044 233.109884) scale(0.1 -0.1)">
     <use xlink:href="#MicrosoftYaHei-Bold-34"/>
    </g>
   </g>
   <g id="text_29">
    <!-- 4 -->
    <g transform="translate(872.784531 233.109884) scale(0.1 -0.1)">
     <use xlink:href="#MicrosoftYaHei-Bold-34"/>
    </g>
   </g>
   <g id="text_30">
    <!-- 8 -->
    <g transform="translate(1042.068622 58.036074) scale(0.1 -0.1)">
     <use xlink:href="#MicrosoftYaHei-Bold-38"/>
    </g>
   </g>
   <g id="text_31">
    <!-- 所需转运商数量对比 -->
    <g transform="translate(821.868125 37.89) scale(0.12 -0.12)">
     <defs>
      <path id="MicrosoftYaHei-6240" d="M 638 4853 
Q 1675 4872 2806 5109 
L 2969 4641 
Q 2044 4503 1088 4434 
L 1088 3466 
L 2725 3466 
L 2725 1159 
L 2288 1159 
L 2288 1434 
L 1063 1434 
Q 959 3 406 -834 
Q 238 -628 63 -453 
Q 638 334 638 2134 
L 638 4853 
z
M 3325 4816 
Q 4813 4872 6031 5091 
L 6200 4616 
Q 4638 4441 3788 4391 
L 3788 2997 
L 6319 2997 
L 6319 2566 
L 5350 2566 
L 5350 -809 
L 4881 -809 
L 4881 2566 
L 3788 2566 
L 3788 2216 
Q 3788 247 2694 -878 
Q 2513 -666 2338 -466 
Q 3325 547 3325 2228 
L 3325 4816 
z
M 2288 1847 
L 2288 3053 
L 1088 3053 
Q 1088 2122 1084 1847 
L 2288 1847 
z
" transform="scale(0.015625)"/>
      <path id="MicrosoftYaHei-9700" d="M 1188 -822 
L 713 -822 
L 713 1228 
L 2750 1228 
L 2853 1716 
L 125 1716 
L 125 2103 
L 6275 2103 
L 6275 1716 
L 3338 1716 
L 3213 1228 
L 5719 1228 
L 5719 -172 
Q 5719 -791 5100 -791 
Q 4800 -791 4444 -778 
Q 4425 -572 4356 -297 
Q 4725 -334 4963 -334 
Q 5244 -334 5244 -84 
L 5244 841 
L 4169 841 
L 4169 -647 
L 3725 -647 
L 3725 841 
L 2688 841 
L 2688 -647 
L 2244 -647 
L 2244 841 
L 1188 841 
L 1188 -822 
z
M 338 4266 
L 2975 4266 
L 2975 4628 
L 650 4628 
L 650 5016 
L 5700 5016 
L 5700 4628 
L 3419 4628 
L 3419 4266 
L 6063 4266 
L 6063 3103 
L 5581 3103 
L 5581 3878 
L 3419 3878 
L 3419 2391 
L 2975 2391 
L 2975 3878 
L 819 3878 
L 819 3103 
L 338 3103 
L 338 4266 
z
M 3750 2816 
L 5219 2816 
L 5219 2478 
L 3750 2478 
L 3750 2816 
z
M 1175 3516 
L 2644 3516 
L 2644 3178 
L 1175 3178 
L 1175 3516 
z
M 1175 2816 
L 2644 2816 
L 2644 2478 
L 1175 2478 
L 1175 2816 
z
M 3750 3516 
L 5219 3516 
L 5219 3178 
L 3750 3178 
L 3750 3516 
z
" transform="scale(0.015625)"/>
     </defs>
     <use xlink:href="#MicrosoftYaHei-6240"/>
     <use xlink:href="#MicrosoftYaHei-9700" transform="translate(100 0)"/>
     <use xlink:href="#MicrosoftYaHei-8f6c" transform="translate(200 0)"/>
     <use xlink:href="#MicrosoftYaHei-8fd0" transform="translate(300 0)"/>
     <use xlink:href="#MicrosoftYaHei-5546" transform="translate(400 0)"/>
     <use xlink:href="#MicrosoftYaHei-6570" transform="translate(500 0)"/>
     <use xlink:href="#MicrosoftYaHei-91cf" transform="translate(600 0)"/>
     <use xlink:href="#MicrosoftYaHei-5bf9" transform="translate(700 0)"/>
     <use xlink:href="#MicrosoftYaHei-6bd4" transform="translate(800 0)"/>
    </g>
   </g>
  </g>
  <g id="axes_3">
   <g id="patch_18">
    <path d="M 42.815625 824.6 
L 564.210625 824.6 
L 564.210625 456.945 
L 42.815625 456.945 
z
" style="fill: #ffffff"/>
   </g>
   <g id="patch_19">
    <path d="M 66.515398 824.6 
L 201.94267 824.6 
L 201.94267 476.66102 
L 66.515398 476.66102 
z
" clip-path="url(#p32808ccb56)" style="fill: #ff7f0e; opacity: 0.8"/>
   </g>
   <g id="patch_20">
    <path d="M 235.799489 824.6 
L 371.226761 824.6 
L 371.226761 474.452381 
L 235.799489 474.452381 
z
" clip-path="url(#p32808ccb56)" style="fill: #2ca02c; opacity: 0.8"/>
   </g>
   <g id="patch_21">
    <path d="M 405.08358 824.6 
L 540.510852 824.6 
L 540.510852 650.016246 
L 405.08358 650.016246 
z
" clip-path="url(#p32808ccb56)" style="fill: #d62728; opacity: 0.8"/>
   </g>
   <g id="matplotlib.axis_5">
    <g id="xtick_7">
     <g id="line2d_37">
      <g>
       <use xlink:href="#m0917a53a99" x="134.229034" y="824.6" style="stroke: #000000; stroke-width: 0.8"/>
      </g>
     </g>
     <g id="text_32">
      <!-- 最小损耗 -->
      <g transform="translate(114.229034 839.59375) scale(0.1 -0.1)">
       <use xlink:href="#MicrosoftYaHei-6700"/>
       <use xlink:href="#MicrosoftYaHei-5c0f" transform="translate(100 0)"/>
       <use xlink:href="#MicrosoftYaHei-635f" transform="translate(200 0)"/>
       <use xlink:href="#MicrosoftYaHei-8017" transform="translate(300 0)"/>
      </g>
     </g>
    </g>
    <g id="xtick_8">
     <g id="line2d_38">
      <g>
       <use xlink:href="#m0917a53a99" x="303.513125" y="824.6" style="stroke: #000000; stroke-width: 0.8"/>
      </g>
     </g>
     <g id="text_33">
      <!-- 加权评分 -->
      <g transform="translate(283.513125 839.59375) scale(0.1 -0.1)">
       <use xlink:href="#MicrosoftYaHei-52a0"/>
       <use xlink:href="#MicrosoftYaHei-6743" transform="translate(100 0)"/>
       <use xlink:href="#MicrosoftYaHei-8bc4" transform="translate(200 0)"/>
       <use xlink:href="#MicrosoftYaHei-5206" transform="translate(300 0)"/>
      </g>
     </g>
    </g>
    <g id="xtick_9">
     <g id="line2d_39">
      <g>
       <use xlink:href="#m0917a53a99" x="472.797216" y="824.6" style="stroke: #000000; stroke-width: 0.8"/>
      </g>
     </g>
     <g id="text_34">
      <!-- 运力效率 -->
      <g transform="translate(452.797216 839.59375) scale(0.1 -0.1)">
       <use xlink:href="#MicrosoftYaHei-8fd0"/>
       <use xlink:href="#MicrosoftYaHei-529b" transform="translate(100 0)"/>
       <use xlink:href="#MicrosoftYaHei-6548" transform="translate(200 0)"/>
       <use xlink:href="#MicrosoftYaHei-7387" transform="translate(300 0)"/>
      </g>
     </g>
    </g>
   </g>
   <g id="matplotlib.axis_6">
    <g id="ytick_16">
     <g id="line2d_40">
      <path d="M 42.815625 824.6 
L 564.210625 824.6 
" clip-path="url(#p32808ccb56)" style="fill: none; stroke: #b0b0b0; stroke-opacity: 0.3; stroke-width: 0.8; stroke-linecap: square"/>
     </g>
     <g id="line2d_41">
      <g>
       <use xlink:href="#mda0f40868e" x="42.815625" y="824.6" style="stroke: #000000; stroke-width: 0.8"/>
      </g>
     </g>
     <g id="text_35">
      <!-- 0 -->
      <g transform="translate(29.951563 828.596875) scale(0.1 -0.1)">
       <use xlink:href="#MicrosoftYaHei-30"/>
      </g>
     </g>
    </g>
    <g id="ytick_17">
     <g id="line2d_42">
      <path d="M 42.815625 783.659929 
L 564.210625 783.659929 
" clip-path="url(#p32808ccb56)" style="fill: none; stroke: #b0b0b0; stroke-opacity: 0.3; stroke-width: 0.8; stroke-linecap: square"/>
     </g>
     <g id="line2d_43">
      <g>
       <use xlink:href="#mda0f40868e" x="42.815625" y="783.659929" style="stroke: #000000; stroke-width: 0.8"/>
      </g>
     </g>
     <g id="text_36">
      <!-- 10 -->
      <g transform="translate(24.0875 787.656804) scale(0.1 -0.1)">
       <use xlink:href="#MicrosoftYaHei-31"/>
       <use xlink:href="#MicrosoftYaHei-30" transform="translate(58.642578 0)"/>
      </g>
     </g>
    </g>
    <g id="ytick_18">
     <g id="line2d_44">
      <path d="M 42.815625 742.719859 
L 564.210625 742.719859 
" clip-path="url(#p32808ccb56)" style="fill: none; stroke: #b0b0b0; stroke-opacity: 0.3; stroke-width: 0.8; stroke-linecap: square"/>
     </g>
     <g id="line2d_45">
      <g>
       <use xlink:href="#mda0f40868e" x="42.815625" y="742.719859" style="stroke: #000000; stroke-width: 0.8"/>
      </g>
     </g>
     <g id="text_37">
      <!-- 20 -->
      <g transform="translate(24.0875 746.716734) scale(0.1 -0.1)">
       <use xlink:href="#MicrosoftYaHei-32"/>
       <use xlink:href="#MicrosoftYaHei-30" transform="translate(58.642578 0)"/>
      </g>
     </g>
    </g>
    <g id="ytick_19">
     <g id="line2d_46">
      <path d="M 42.815625 701.779788 
L 564.210625 701.779788 
" clip-path="url(#p32808ccb56)" style="fill: none; stroke: #b0b0b0; stroke-opacity: 0.3; stroke-width: 0.8; stroke-linecap: square"/>
     </g>
     <g id="line2d_47">
      <g>
       <use xlink:href="#mda0f40868e" x="42.815625" y="701.779788" style="stroke: #000000; stroke-width: 0.8"/>
      </g>
     </g>
     <g id="text_38">
      <!-- 30 -->
      <g transform="translate(24.0875 705.776663) scale(0.1 -0.1)">
       <use xlink:href="#MicrosoftYaHei-33"/>
       <use xlink:href="#MicrosoftYaHei-30" transform="translate(58.642578 0)"/>
      </g>
     </g>
    </g>
    <g id="ytick_20">
     <g id="line2d_48">
      <path d="M 42.815625 660.839717 
L 564.210625 660.839717 
" clip-path="url(#p32808ccb56)" style="fill: none; stroke: #b0b0b0; stroke-opacity: 0.3; stroke-width: 0.8; stroke-linecap: square"/>
     </g>
     <g id="line2d_49">
      <g>
       <use xlink:href="#mda0f40868e" x="42.815625" y="660.839717" style="stroke: #000000; stroke-width: 0.8"/>
      </g>
     </g>
     <g id="text_39">
      <!-- 40 -->
      <g transform="translate(24.0875 664.836592) scale(0.1 -0.1)">
       <use xlink:href="#MicrosoftYaHei-34"/>
       <use xlink:href="#MicrosoftYaHei-30" transform="translate(58.642578 0)"/>
      </g>
     </g>
    </g>
    <g id="ytick_21">
     <g id="line2d_50">
      <path d="M 42.815625 619.899647 
L 564.210625 619.899647 
" clip-path="url(#p32808ccb56)" style="fill: none; stroke: #b0b0b0; stroke-opacity: 0.3; stroke-width: 0.8; stroke-linecap: square"/>
     </g>
     <g id="line2d_51">
      <g>
       <use xlink:href="#mda0f40868e" x="42.815625" y="619.899647" style="stroke: #000000; stroke-width: 0.8"/>
      </g>
     </g>
     <g id="text_40">
      <!-- 50 -->
      <g transform="translate(24.0875 623.896522) scale(0.1 -0.1)">
       <use xlink:href="#MicrosoftYaHei-35"/>
       <use xlink:href="#MicrosoftYaHei-30" transform="translate(58.642578 0)"/>
      </g>
     </g>
    </g>
    <g id="ytick_22">
     <g id="line2d_52">
      <path d="M 42.815625 578.959576 
L 564.210625 578.959576 
" clip-path="url(#p32808ccb56)" style="fill: none; stroke: #b0b0b0; stroke-opacity: 0.3; stroke-width: 0.8; stroke-linecap: square"/>
     </g>
     <g id="line2d_53">
      <g>
       <use xlink:href="#mda0f40868e" x="42.815625" y="578.959576" style="stroke: #000000; stroke-width: 0.8"/>
      </g>
     </g>
     <g id="text_41">
      <!-- 60 -->
      <g transform="translate(24.0875 582.956451) scale(0.1 -0.1)">
       <use xlink:href="#MicrosoftYaHei-36"/>
       <use xlink:href="#MicrosoftYaHei-30" transform="translate(58.642578 0)"/>
      </g>
     </g>
    </g>
    <g id="ytick_23">
     <g id="line2d_54">
      <path d="M 42.815625 538.019505 
L 564.210625 538.019505 
" clip-path="url(#p32808ccb56)" style="fill: none; stroke: #b0b0b0; stroke-opacity: 0.3; stroke-width: 0.8; stroke-linecap: square"/>
     </g>
     <g id="line2d_55">
      <g>
       <use xlink:href="#mda0f40868e" x="42.815625" y="538.019505" style="stroke: #000000; stroke-width: 0.8"/>
      </g>
     </g>
     <g id="text_42">
      <!-- 70 -->
      <g transform="translate(24.0875 542.01638) scale(0.1 -0.1)">
       <use xlink:href="#MicrosoftYaHei-37"/>
       <use xlink:href="#MicrosoftYaHei-30" transform="translate(58.642578 0)"/>
      </g>
     </g>
    </g>
    <g id="ytick_24">
     <g id="line2d_56">
      <path d="M 42.815625 497.079434 
L 564.210625 497.079434 
" clip-path="url(#p32808ccb56)" style="fill: none; stroke: #b0b0b0; stroke-opacity: 0.3; stroke-width: 0.8; stroke-linecap: square"/>
     </g>
     <g id="line2d_57">
      <g>
       <use xlink:href="#mda0f40868e" x="42.815625" y="497.079434" style="stroke: #000000; stroke-width: 0.8"/>
      </g>
     </g>
     <g id="text_43">
      <!-- 80 -->
      <g transform="translate(24.0875 501.076309) scale(0.1 -0.1)">
       <use xlink:href="#MicrosoftYaHei-38"/>
       <use xlink:href="#MicrosoftYaHei-30" transform="translate(58.642578 0)"/>
      </g>
     </g>
    </g>
    <g id="text_44">
     <!-- 运力利用率 (%) -->
     <g transform="translate(17.601563 675.04125) rotate(-90) scale(0.1 -0.1)">
      <defs>
       <path id="MicrosoftYaHei-5229" d="M 75 741 
Q 913 1653 1488 2997 
L 106 2997 
L 106 3453 
L 1606 3453 
L 1606 4391 
Q 963 4328 331 4272 
Q 288 4503 206 4747 
Q 1706 4866 3269 5066 
L 3394 4591 
Q 2731 4509 2081 4441 
L 2081 3453 
L 3500 3453 
L 3500 2997 
L 2081 2997 
L 2081 2159 
L 2356 2422 
Q 2944 1922 3525 1347 
L 3144 959 
Q 2763 1403 2081 2053 
L 2081 -828 
L 1606 -828 
L 1606 2297 
Q 1069 1084 325 178 
Q 156 584 75 741 
z
M 5444 5197 
L 5938 5197 
L 5938 -9 
Q 5938 -803 5138 -797 
Q 4881 -797 4306 -791 
Q 4269 -534 4213 -228 
Q 4719 -284 4981 -284 
Q 5444 -291 5444 184 
L 5444 5197 
z
M 3963 4572 
L 4438 4572 
L 4438 622 
L 3963 622 
L 3963 4572 
z
" transform="scale(0.015625)"/>
       <path id="MicrosoftYaHei-7528" d="M 3088 -734 
L 3088 1253 
L 1269 1253 
Q 1163 -47 513 -903 
Q 350 -697 144 -472 
Q 550 103 694 803 
Q 831 1478 831 2716 
L 831 4947 
L 5925 4947 
L 5925 -22 
Q 5925 -766 5219 -766 
Q 4788 -766 4250 -747 
Q 4219 -541 4156 -228 
Q 4700 -266 5038 -266 
Q 5425 -266 5425 103 
L 5425 1253 
L 3588 1253 
L 3588 -734 
L 3088 -734 
z
M 3588 1703 
L 5425 1703 
L 5425 2872 
L 3588 2872 
L 3588 1703 
z
M 5425 4484 
L 3588 4484 
L 3588 3322 
L 5425 3322 
L 5425 4484 
z
M 1303 1703 
L 3088 1703 
L 3088 2872 
L 1331 2872 
Q 1350 2266 1303 1703 
z
M 1331 4484 
L 1331 3322 
L 3088 3322 
L 3088 4484 
L 1331 4484 
z
" transform="scale(0.015625)"/>
      </defs>
      <use xlink:href="#MicrosoftYaHei-8fd0"/>
      <use xlink:href="#MicrosoftYaHei-529b" transform="translate(100 0)"/>
      <use xlink:href="#MicrosoftYaHei-5229" transform="translate(200 0)"/>
      <use xlink:href="#MicrosoftYaHei-7528" transform="translate(300 0)"/>
      <use xlink:href="#MicrosoftYaHei-7387" transform="translate(400 0)"/>
      <use xlink:href="#MicrosoftYaHei-20" transform="translate(500 0)"/>
      <use xlink:href="#MicrosoftYaHei-28" transform="translate(529.589844 0)"/>
      <use xlink:href="#MicrosoftYaHei-25" transform="translate(562.988281 0)"/>
      <use xlink:href="#MicrosoftYaHei-29" transform="translate(651.953125 0)"/>
     </g>
    </g>
   </g>
   <g id="patch_22">
    <path d="M 42.815625 824.6 
L 42.815625 456.945 
" style="fill: none; stroke: #000000; stroke-width: 0.8; stroke-linejoin: miter; stroke-linecap: square"/>
   </g>
   <g id="patch_23">
    <path d="M 564.210625 824.6 
L 564.210625 456.945 
" style="fill: none; stroke: #000000; stroke-width: 0.8; stroke-linejoin: miter; stroke-linecap: square"/>
   </g>
   <g id="patch_24">
    <path d="M 42.815625 824.6 
L 564.210625 824.6 
" style="fill: none; stroke: #000000; stroke-width: 0.8; stroke-linejoin: miter; stroke-linecap: square"/>
   </g>
   <g id="patch_25">
    <path d="M 42.815625 456.945 
L 564.210625 456.945 
" style="fill: none; stroke: #000000; stroke-width: 0.8; stroke-linejoin: miter; stroke-linecap: square"/>
   </g>
   <g id="text_45">
    <!-- 85.0% -->
    <g transform="translate(118.894659 472.128079) scale(0.1 -0.1)">
     <use xlink:href="#MicrosoftYaHei-Bold-38"/>
     <use xlink:href="#MicrosoftYaHei-Bold-35" transform="translate(61.669922 0)"/>
     <use xlink:href="#MicrosoftYaHei-Bold-2e" transform="translate(123.339844 0)"/>
     <use xlink:href="#MicrosoftYaHei-Bold-30" transform="translate(151.904297 0)"/>
     <use xlink:href="#MicrosoftYaHei-Bold-25" transform="translate(213.574219 0)"/>
    </g>
   </g>
   <g id="text_46">
    <!-- 85.5% -->
    <g transform="translate(288.17875 469.91944) scale(0.1 -0.1)">
     <use xlink:href="#MicrosoftYaHei-Bold-38"/>
     <use xlink:href="#MicrosoftYaHei-Bold-35" transform="translate(61.669922 0)"/>
     <use xlink:href="#MicrosoftYaHei-Bold-2e" transform="translate(123.339844 0)"/>
     <use xlink:href="#MicrosoftYaHei-Bold-35" transform="translate(151.904297 0)"/>
     <use xlink:href="#MicrosoftYaHei-Bold-25" transform="translate(213.574219 0)"/>
    </g>
   </g>
   <g id="text_47">
    <!-- 42.6% -->
    <g transform="translate(457.462841 645.483305) scale(0.1 -0.1)">
     <defs>
      <path id="MicrosoftYaHei-Bold-32" d="M 1500 841 
L 3553 841 
L 3553 0 
L 334 0 
L 334 359 
Q 334 738 473 1050 
Q 613 1363 856 1633 
Q 1100 1903 1613 2266 
Q 2081 2616 2268 2886 
Q 2456 3156 2456 3459 
Q 2456 4113 1744 4113 
Q 1119 4113 550 3613 
L 550 4513 
Q 1184 4922 1975 4922 
Q 2700 4922 3122 4551 
Q 3544 4181 3544 3531 
Q 3544 3169 3422 2876 
Q 3300 2584 3069 2328 
Q 2838 2072 2328 1713 
Q 1838 1363 1669 1172 
Q 1500 981 1500 841 
z
" transform="scale(0.015625)"/>
     </defs>
     <use xlink:href="#MicrosoftYaHei-Bold-34"/>
     <use xlink:href="#MicrosoftYaHei-Bold-32" transform="translate(61.669922 0)"/>
     <use xlink:href="#MicrosoftYaHei-Bold-2e" transform="translate(123.339844 0)"/>
     <use xlink:href="#MicrosoftYaHei-Bold-36" transform="translate(151.904297 0)"/>
     <use xlink:href="#MicrosoftYaHei-Bold-25" transform="translate(213.574219 0)"/>
    </g>
   </g>
   <g id="text_48">
    <!-- 运力利用率对比 -->
    <g transform="translate(261.513125 450.945) scale(0.12 -0.12)">
     <use xlink:href="#MicrosoftYaHei-8fd0"/>
     <use xlink:href="#MicrosoftYaHei-529b" transform="translate(100 0)"/>
     <use xlink:href="#MicrosoftYaHei-5229" transform="translate(200 0)"/>
     <use xlink:href="#MicrosoftYaHei-7528" transform="translate(300 0)"/>
     <use xlink:href="#MicrosoftYaHei-7387" transform="translate(400 0)"/>
     <use xlink:href="#MicrosoftYaHei-5bf9" transform="translate(500 0)"/>
     <use xlink:href="#MicrosoftYaHei-6bd4" transform="translate(600 0)"/>
    </g>
   </g>
  </g>
  <g id="axes_4">
   <g id="patch_26">
    <path d="M 615.170625 824.6 
L 1136.565625 824.6 
L 1136.565625 456.945 
L 615.170625 456.945 
z
" style="fill: #ffffff"/>
   </g>
   <g id="patch_27">
    <path d="M 638.870398 824.6 
L 774.29767 824.6 
L 774.29767 678.253912 
L 638.870398 678.253912 
z
" clip-path="url(#p33668bb7b0)" style="fill: #ff7f0e; opacity: 0.8"/>
   </g>
   <g id="patch_28">
    <path d="M 808.154489 824.6 
L 943.581761 824.6 
L 943.581761 474.452381 
L 808.154489 474.452381 
z
" clip-path="url(#p33668bb7b0)" style="fill: #2ca02c; opacity: 0.8"/>
   </g>
   <g id="patch_29">
    <path d="M 977.43858 824.6 
L 1112.865852 824.6 
L 1112.865852 564.891926 
L 977.43858 564.891926 
z
" clip-path="url(#p33668bb7b0)" style="fill: #d62728; opacity: 0.8"/>
   </g>
   <g id="matplotlib.axis_7">
    <g id="xtick_10">
     <g id="line2d_58">
      <g>
       <use xlink:href="#m0917a53a99" x="706.584034" y="824.6" style="stroke: #000000; stroke-width: 0.8"/>
      </g>
     </g>
     <g id="text_49">
      <!-- 最小损耗 -->
      <g transform="translate(686.584034 839.59375) scale(0.1 -0.1)">
       <use xlink:href="#MicrosoftYaHei-6700"/>
       <use xlink:href="#MicrosoftYaHei-5c0f" transform="translate(100 0)"/>
       <use xlink:href="#MicrosoftYaHei-635f" transform="translate(200 0)"/>
       <use xlink:href="#MicrosoftYaHei-8017" transform="translate(300 0)"/>
      </g>
     </g>
    </g>
    <g id="xtick_11">
     <g id="line2d_59">
      <g>
       <use xlink:href="#m0917a53a99" x="875.868125" y="824.6" style="stroke: #000000; stroke-width: 0.8"/>
      </g>
     </g>
     <g id="text_50">
      <!-- 加权评分 -->
      <g transform="translate(855.868125 839.59375) scale(0.1 -0.1)">
       <use xlink:href="#MicrosoftYaHei-52a0"/>
       <use xlink:href="#MicrosoftYaHei-6743" transform="translate(100 0)"/>
       <use xlink:href="#MicrosoftYaHei-8bc4" transform="translate(200 0)"/>
       <use xlink:href="#MicrosoftYaHei-5206" transform="translate(300 0)"/>
      </g>
     </g>
    </g>
    <g id="xtick_12">
     <g id="line2d_60">
      <g>
       <use xlink:href="#m0917a53a99" x="1045.152216" y="824.6" style="stroke: #000000; stroke-width: 0.8"/>
      </g>
     </g>
     <g id="text_51">
      <!-- 运力效率 -->
      <g transform="translate(1025.152216 839.59375) scale(0.1 -0.1)">
       <use xlink:href="#MicrosoftYaHei-8fd0"/>
       <use xlink:href="#MicrosoftYaHei-529b" transform="translate(100 0)"/>
       <use xlink:href="#MicrosoftYaHei-6548" transform="translate(200 0)"/>
       <use xlink:href="#MicrosoftYaHei-7387" transform="translate(300 0)"/>
      </g>
     </g>
    </g>
   </g>
   <g id="matplotlib.axis_8">
    <g id="ytick_25">
     <g id="line2d_61">
      <path d="M 615.170625 824.6 
L 1136.565625 824.6 
" clip-path="url(#p33668bb7b0)" style="fill: none; stroke: #b0b0b0; stroke-opacity: 0.3; stroke-width: 0.8; stroke-linecap: square"/>
     </g>
     <g id="line2d_62">
      <g>
       <use xlink:href="#mda0f40868e" x="615.170625" y="824.6" style="stroke: #000000; stroke-width: 0.8"/>
      </g>
     </g>
     <g id="text_52">
      <!-- 0 -->
      <g transform="translate(602.306563 828.596875) scale(0.1 -0.1)">
       <use xlink:href="#MicrosoftYaHei-30"/>
      </g>
     </g>
    </g>
    <g id="ytick_26">
     <g id="line2d_63">
      <path d="M 615.170625 745.897212 
L 1136.565625 745.897212 
" clip-path="url(#p33668bb7b0)" style="fill: none; stroke: #b0b0b0; stroke-opacity: 0.3; stroke-width: 0.8; stroke-linecap: square"/>
     </g>
     <g id="line2d_64">
      <g>
       <use xlink:href="#mda0f40868e" x="615.170625" y="745.897212" style="stroke: #000000; stroke-width: 0.8"/>
      </g>
     </g>
     <g id="text_53">
      <!-- 50 -->
      <g transform="translate(596.4425 749.894087) scale(0.1 -0.1)">
       <use xlink:href="#MicrosoftYaHei-35"/>
       <use xlink:href="#MicrosoftYaHei-30" transform="translate(58.642578 0)"/>
      </g>
     </g>
    </g>
    <g id="ytick_27">
     <g id="line2d_65">
      <path d="M 615.170625 667.194423 
L 1136.565625 667.194423 
" clip-path="url(#p33668bb7b0)" style="fill: none; stroke: #b0b0b0; stroke-opacity: 0.3; stroke-width: 0.8; stroke-linecap: square"/>
     </g>
     <g id="line2d_66">
      <g>
       <use xlink:href="#mda0f40868e" x="615.170625" y="667.194423" style="stroke: #000000; stroke-width: 0.8"/>
      </g>
     </g>
     <g id="text_54">
      <!-- 100 -->
      <g transform="translate(590.578438 671.191298) scale(0.1 -0.1)">
       <use xlink:href="#MicrosoftYaHei-31"/>
       <use xlink:href="#MicrosoftYaHei-30" transform="translate(58.642578 0)"/>
       <use xlink:href="#MicrosoftYaHei-30" transform="translate(117.285156 0)"/>
      </g>
     </g>
    </g>
    <g id="ytick_28">
     <g id="line2d_67">
      <path d="M 615.170625 588.491635 
L 1136.565625 588.491635 
" clip-path="url(#p33668bb7b0)" style="fill: none; stroke: #b0b0b0; stroke-opacity: 0.3; stroke-width: 0.8; stroke-linecap: square"/>
     </g>
     <g id="line2d_68">
      <g>
       <use xlink:href="#mda0f40868e" x="615.170625" y="588.491635" style="stroke: #000000; stroke-width: 0.8"/>
      </g>
     </g>
     <g id="text_55">
      <!-- 150 -->
      <g transform="translate(590.578438 592.48851) scale(0.1 -0.1)">
       <use xlink:href="#MicrosoftYaHei-31"/>
       <use xlink:href="#MicrosoftYaHei-35" transform="translate(58.642578 0)"/>
       <use xlink:href="#MicrosoftYaHei-30" transform="translate(117.285156 0)"/>
      </g>
     </g>
    </g>
    <g id="ytick_29">
     <g id="line2d_69">
      <path d="M 615.170625 509.788846 
L 1136.565625 509.788846 
" clip-path="url(#p33668bb7b0)" style="fill: none; stroke: #b0b0b0; stroke-opacity: 0.3; stroke-width: 0.8; stroke-linecap: square"/>
     </g>
     <g id="line2d_70">
      <g>
       <use xlink:href="#mda0f40868e" x="615.170625" y="509.788846" style="stroke: #000000; stroke-width: 0.8"/>
      </g>
     </g>
     <g id="text_56">
      <!-- 200 -->
      <g transform="translate(590.578438 513.785721) scale(0.1 -0.1)">
       <use xlink:href="#MicrosoftYaHei-32"/>
       <use xlink:href="#MicrosoftYaHei-30" transform="translate(58.642578 0)"/>
       <use xlink:href="#MicrosoftYaHei-30" transform="translate(117.285156 0)"/>
      </g>
     </g>
    </g>
    <g id="text_57">
     <!-- 损耗量 (m³) -->
     <g transform="translate(584.0925 667.280313) rotate(-90) scale(0.1 -0.1)">
      <defs>
       <path id="MicrosoftYaHei-6d" d="M 5522 0 
L 4909 0 
L 4909 1984 
Q 4909 2547 4734 2789 
Q 4559 3031 4159 3031 
Q 3822 3031 3581 2715 
Q 3341 2400 3341 1969 
L 3341 0 
L 2728 0 
L 2728 2047 
Q 2728 3031 1969 3031 
Q 1619 3031 1389 2731 
Q 1159 2431 1159 1966 
L 1159 0 
L 547 0 
L 547 3456 
L 1159 3456 
L 1159 2909 
L 1172 2909 
Q 1541 3538 2250 3538 
Q 2597 3538 2862 3347 
Q 3128 3156 3231 2831 
Q 3616 3538 4381 3538 
Q 5522 3538 5522 2131 
L 5522 0 
z
" transform="scale(0.015625)"/>
       <path id="MicrosoftYaHei-b3" d="M 434 2575 
Q 775 2322 1172 2322 
Q 1441 2322 1591 2442 
Q 1741 2563 1741 2775 
Q 1741 3238 1022 3238 
L 725 3238 
L 725 3650 
L 1009 3650 
Q 1653 3650 1653 4091 
Q 1653 4481 1178 4481 
Q 853 4481 547 4250 
L 547 4731 
Q 838 4906 1275 4906 
Q 1656 4906 1890 4704 
Q 2125 4503 2125 4178 
Q 2125 3672 1634 3491 
L 1634 3478 
Q 2228 3338 2228 2797 
Q 2228 2400 1933 2150 
Q 1638 1900 1159 1900 
Q 703 1900 434 2078 
L 434 2575 
z
" transform="scale(0.015625)"/>
      </defs>
      <use xlink:href="#MicrosoftYaHei-635f"/>
      <use xlink:href="#MicrosoftYaHei-8017" transform="translate(100 0)"/>
      <use xlink:href="#MicrosoftYaHei-91cf" transform="translate(200 0)"/>
      <use xlink:href="#MicrosoftYaHei-20" transform="translate(300 0)"/>
      <use xlink:href="#MicrosoftYaHei-28" transform="translate(329.589844 0)"/>
      <use xlink:href="#MicrosoftYaHei-6d" transform="translate(362.988281 0)"/>
      <use xlink:href="#MicrosoftYaHei-b3" transform="translate(456.689453 0)"/>
      <use xlink:href="#MicrosoftYaHei-29" transform="translate(496.728516 0)"/>
     </g>
    </g>
   </g>
   <g id="patch_30">
    <path d="M 615.170625 824.6 
L 615.170625 456.945 
" style="fill: none; stroke: #000000; stroke-width: 0.8; stroke-linejoin: miter; stroke-linecap: square"/>
   </g>
   <g id="patch_31">
    <path d="M 1136.565625 824.6 
L 1136.565625 456.945 
" style="fill: none; stroke: #000000; stroke-width: 0.8; stroke-linejoin: miter; stroke-linecap: square"/>
   </g>
   <g id="patch_32">
    <path d="M 615.170625 824.6 
L 1136.565625 824.6 
" style="fill: none; stroke: #000000; stroke-width: 0.8; stroke-linejoin: miter; stroke-linecap: square"/>
   </g>
   <g id="patch_33">
    <path d="M 615.170625 456.945 
L 1136.565625 456.945 
" style="fill: none; stroke: #000000; stroke-width: 0.8; stroke-linejoin: miter; stroke-linecap: square"/>
   </g>
   <g id="text_58">
    <!-- 93 -->
    <g transform="translate(700.416847 672.266499) scale(0.1 -0.1)">
     <defs>
      <path id="MicrosoftYaHei-Bold-39" d="M 544 941 
Q 931 691 1456 691 
Q 2628 691 2653 2216 
L 2634 2222 
Q 2316 1731 1650 1731 
Q 1047 1731 658 2154 
Q 269 2578 269 3222 
Q 269 3978 737 4450 
Q 1206 4922 1959 4922 
Q 2744 4922 3191 4325 
Q 3638 3728 3638 2659 
Q 3638 1391 3098 653 
Q 2559 -84 1547 -84 
Q 975 -84 544 100 
L 544 941 
z
M 1259 3313 
Q 1259 2928 1445 2709 
Q 1631 2491 1953 2491 
Q 2241 2491 2427 2700 
Q 2613 2909 2613 3219 
Q 2613 3591 2427 3869 
Q 2241 4147 1928 4147 
Q 1625 4147 1442 3906 
Q 1259 3666 1259 3313 
z
" transform="scale(0.015625)"/>
      <path id="MicrosoftYaHei-Bold-33" d="M 494 1053 
Q 978 691 1625 691 
Q 2034 691 2275 872 
Q 2516 1053 2516 1388 
Q 2516 1731 2230 1912 
Q 1944 2094 1428 2094 
L 997 2094 
L 997 2872 
L 1394 2872 
Q 2369 2872 2369 3528 
Q 2369 4147 1622 4147 
Q 1134 4147 675 3828 
L 675 4663 
Q 1175 4922 1853 4922 
Q 2541 4922 2969 4605 
Q 3397 4288 3397 3725 
Q 3397 2775 2434 2531 
L 2434 2516 
Q 2941 2459 3244 2145 
Q 3547 1831 3547 1381 
Q 3547 691 3042 303 
Q 2538 -84 1697 -84 
Q 950 -84 494 163 
L 494 1053 
z
" transform="scale(0.015625)"/>
     </defs>
     <use xlink:href="#MicrosoftYaHei-Bold-39"/>
     <use xlink:href="#MicrosoftYaHei-Bold-33" transform="translate(61.669922 0)"/>
    </g>
   </g>
   <g id="text_59">
    <!-- 222 -->
    <g transform="translate(866.617344 468.464967) scale(0.1 -0.1)">
     <use xlink:href="#MicrosoftYaHei-Bold-32"/>
     <use xlink:href="#MicrosoftYaHei-Bold-32" transform="translate(61.669922 0)"/>
     <use xlink:href="#MicrosoftYaHei-Bold-32" transform="translate(123.339844 0)"/>
    </g>
   </g>
   <g id="text_60">
    <!-- 165 -->
    <g transform="translate(1035.901435 558.904512) scale(0.1 -0.1)">
     <use xlink:href="#MicrosoftYaHei-Bold-31"/>
     <use xlink:href="#MicrosoftYaHei-Bold-36" transform="translate(61.669922 0)"/>
     <use xlink:href="#MicrosoftYaHei-Bold-35" transform="translate(123.339844 0)"/>
    </g>
   </g>
   <g id="text_61">
    <!-- 总损耗量对比 -->
    <g transform="translate(839.868125 450.945) scale(0.12 -0.12)">
     <defs>
      <path id="MicrosoftYaHei-603b" d="M 900 4253 
L 3631 4253 
Q 4022 4822 4331 5353 
L 4813 5103 
Q 4500 4675 4175 4253 
L 5500 4253 
L 5500 1703 
L 5000 1703 
L 5000 1978 
L 1400 1978 
L 1400 1703 
L 900 1703 
L 900 4253 
z
M 5000 3803 
L 1400 3803 
L 1400 2428 
L 5000 2428 
L 5000 3803 
z
M 1694 1378 
L 2181 1378 
L 2181 284 
Q 2181 -203 2619 -203 
L 3875 -203 
Q 4244 -203 4338 172 
Q 4394 366 4450 872 
Q 4631 791 4931 684 
Q 4850 209 4750 -97 
Q 4556 -641 3900 -641 
L 2519 -641 
Q 1694 -641 1694 197 
L 1694 1378 
z
M 719 1422 
L 1188 1272 
Q 931 491 538 -334 
Q 338 -247 81 -134 
Q 444 597 719 1422 
z
M 4881 1203 
L 5238 1478 
Q 5813 841 6319 197 
L 5900 -134 
Q 5456 491 4881 1203 
z
M 2663 1591 
L 3044 1841 
Q 3488 1372 3863 841 
L 3444 547 
Q 3069 1109 2663 1591 
z
M 1594 5109 
L 1975 5353 
Q 2350 4959 2650 4541 
L 2225 4266 
Q 1956 4653 1594 5109 
z
" transform="scale(0.015625)"/>
     </defs>
     <use xlink:href="#MicrosoftYaHei-603b"/>
     <use xlink:href="#MicrosoftYaHei-635f" transform="translate(100 0)"/>
     <use xlink:href="#MicrosoftYaHei-8017" transform="translate(200 0)"/>
     <use xlink:href="#MicrosoftYaHei-91cf" transform="translate(300 0)"/>
     <use xlink:href="#MicrosoftYaHei-5bf9" transform="translate(400 0)"/>
     <use xlink:href="#MicrosoftYaHei-6bd4" transform="translate(500 0)"/>
    </g>
   </g>
  </g>
  <g id="text_62">
   <!-- 转运商组合选择算法对比分析 -->
   <g transform="translate(467.365625 19.99) scale(0.16 -0.16)">
    <defs>
     <path id="MicrosoftYaHei-Bold-8f6c" d="M 163 153 
L 94 978 
Q 697 1019 1325 1078 
L 1325 1659 
L 131 1659 
L 131 2416 
Q 356 3056 534 3791 
L 106 3791 
L 106 4528 
L 697 4528 
Q 772 4906 838 5309 
L 1656 5253 
Q 1578 4891 1491 4528 
L 2713 4528 
L 2713 3791 
L 1303 3791 
Q 1116 3094 894 2397 
L 1325 2397 
L 1325 3453 
L 2075 3453 
L 2075 2397 
L 2750 2397 
L 2750 1659 
L 2075 1659 
L 2075 1153 
L 2863 1241 
Q 2819 859 2806 459 
L 2075 381 
L 2075 -859 
L 1325 -859 
L 1325 294 
L 163 153 
z
M 2956 359 
L 3400 1016 
Q 3928 772 4509 478 
L 5219 1316 
L 3113 1316 
L 3113 1922 
L 3281 2572 
L 2713 2572 
L 2713 3272 
L 3453 3272 
L 3581 3828 
L 2988 3828 
L 2988 4528 
L 3731 4528 
L 3881 5297 
L 4775 5297 
L 4619 4528 
L 6075 4528 
L 6075 3828 
L 4466 3828 
Q 4403 3541 4338 3272 
L 6300 3272 
L 6300 2572 
L 4166 2572 
Q 4094 2284 4019 2016 
L 6188 2016 
L 6188 1359 
L 5216 116 
Q 5484 -22 5763 -172 
L 5281 -878 
Q 4119 -203 2956 359 
z
" transform="scale(0.015625)"/>
     <path id="MicrosoftYaHei-Bold-8fd0" d="M 1000 5353 
Q 1469 4778 1906 4153 
L 1138 3647 
Q 744 4303 288 4897 
L 1000 5353 
z
M 5838 4209 
L 2344 4209 
L 2344 5022 
L 5838 5022 
L 5838 4209 
z
M 5031 2591 
Q 5631 1759 6194 772 
L 5438 372 
Q 5319 597 5197 816 
Q 3209 700 2294 578 
L 1956 1278 
Q 2522 1750 2978 2647 
L 1950 2647 
L 1950 3459 
L 6200 3459 
L 6200 2647 
L 3997 2647 
Q 3638 2022 3194 1453 
Q 3813 1475 4784 1538 
Q 4572 1884 4356 2209 
L 5031 2591 
z
M 6313 134 
L 6031 -684 
Q 2466 -709 1978 -592 
Q 1491 -475 1188 -78 
Q 800 -447 431 -847 
L 81 128 
Q 372 394 700 650 
L 700 2378 
L 131 2378 
L 131 3203 
L 1563 3203 
L 1563 659 
Q 1763 419 2014 287 
Q 2266 156 2536 125 
Q 2806 94 3691 97 
Q 4666 97 6313 134 
z
" transform="scale(0.015625)"/>
     <path id="MicrosoftYaHei-Bold-5546" d="M 238 4791 
L 2694 4791 
L 2563 5303 
L 3613 5341 
L 3675 4791 
L 6175 4791 
L 6175 4103 
L 238 4103 
L 238 4791 
z
M 475 3516 
L 1713 3516 
L 1356 3953 
L 2375 3953 
L 2703 3516 
L 3697 3516 
Q 3931 3797 4050 3953 
L 5063 3953 
Q 4863 3728 4666 3516 
L 5956 3516 
L 5956 303 
Q 5956 -131 5786 -389 
Q 5616 -647 5314 -720 
Q 5013 -794 4025 -803 
Q 3938 -303 3863 -22 
Q 4219 -59 4556 -59 
Q 5125 -59 5125 466 
L 5125 1594 
L 4925 1341 
L 4469 1659 
L 4469 109 
L 2713 109 
L 2713 -191 
L 1950 -191 
L 1950 1581 
L 1550 1297 
Q 1541 1313 1300 1625 
L 1300 -797 
L 475 -797 
L 475 3516 
z
M 2494 2816 
L 2944 2322 
Q 2694 2128 2441 1941 
L 4056 1941 
L 3475 2322 
L 3881 2797 
Q 4519 2438 5125 2056 
L 5125 2853 
L 1300 2853 
L 1300 1969 
Q 1956 2413 2494 2816 
z
M 3706 797 
L 3706 1291 
L 2713 1291 
L 2713 797 
L 3706 797 
z
" transform="scale(0.015625)"/>
     <path id="MicrosoftYaHei-Bold-7ec4" d="M 244 -559 
L 94 272 
Q 1200 397 2388 566 
Q 2375 384 2369 203 
L 2694 203 
L 2694 3769 
Q 2003 2625 1363 1728 
L 2463 1859 
Q 2406 1409 2394 1109 
Q 788 941 488 834 
L 181 1584 
Q 500 1766 1144 2734 
Q 538 2703 325 2634 
L 75 3366 
Q 413 3578 1231 5366 
L 2025 5059 
Q 1513 4153 1038 3409 
L 1584 3438 
Q 1791 3788 1994 4172 
L 2694 3838 
L 2694 5059 
L 5913 5059 
L 5913 203 
L 6306 203 
L 6306 -603 
L 2256 -603 
L 2256 -263 
L 244 -559 
z
M 5038 4253 
L 3569 4253 
L 3569 3434 
L 5038 3434 
L 5038 4253 
z
M 3569 1828 
L 5038 1828 
L 5038 2647 
L 3569 2647 
L 3569 1828 
z
M 3569 203 
L 5038 203 
L 5038 1041 
L 3569 1041 
L 3569 203 
z
" transform="scale(0.015625)"/>
     <path id="MicrosoftYaHei-Bold-5408" d="M 875 -872 
L 875 2028 
L 5525 2028 
L 5525 -872 
L 4675 -872 
L 4675 -584 
L 1725 -584 
L 1725 -872 
L 875 -872 
z
M 3988 5316 
L 3763 5041 
Q 4619 3947 6306 3228 
Q 5975 2809 5738 2484 
Q 5338 2672 4975 2897 
L 4975 2553 
L 1425 2553 
L 1425 2922 
Q 1063 2684 644 2441 
Q 388 2828 88 3178 
Q 2031 4178 2800 5316 
L 3988 5316 
z
M 4675 1216 
L 1725 1216 
L 1725 228 
L 4675 228 
L 4675 1216 
z
M 3194 4409 
Q 2756 3891 2031 3353 
L 4313 3353 
Q 3694 3822 3194 4409 
z
" transform="scale(0.015625)"/>
     <path id="MicrosoftYaHei-Bold-9009" d="M 5419 2003 
Q 5781 1834 6169 1691 
Q 6059 981 5973 786 
Q 5888 591 5697 487 
Q 5506 384 5219 384 
L 4781 384 
Q 4038 384 4038 1216 
L 4038 2216 
L 3566 2216 
Q 3525 1400 3262 1004 
Q 3000 609 2481 291 
Q 2256 572 1919 909 
Q 2213 1084 2466 1364 
Q 2719 1644 2759 2216 
L 1869 2216 
L 1869 2953 
L 3694 2953 
L 3694 3647 
L 2841 3647 
Q 2722 3344 2606 3097 
Q 2300 3253 1906 3434 
Q 2263 4159 2550 5147 
L 3281 4909 
L 3109 4384 
L 3694 4384 
L 3694 5316 
L 4525 5316 
L 4525 4384 
L 5963 4384 
L 5963 3647 
L 4525 3647 
L 4525 2953 
L 6194 2953 
L 6194 2216 
L 4844 2216 
L 4844 1391 
Q 4844 1134 5031 1134 
L 5106 1134 
Q 5278 1134 5325 1254 
Q 5372 1375 5419 2003 
z
M 1025 5228 
Q 1494 4616 1869 4078 
L 1138 3584 
Q 756 4234 356 4816 
L 1025 5228 
z
M 6294 122 
Q 6131 -378 6031 -716 
L 3181 -697 
Q 1841 -697 1238 -103 
L 513 -841 
L 156 109 
Q 494 391 781 644 
L 781 2222 
L 200 2222 
L 200 3016 
L 1600 3016 
L 1600 638 
Q 2088 97 3131 97 
L 4409 91 
Q 5144 91 6294 122 
z
" transform="scale(0.015625)"/>
     <path id="MicrosoftYaHei-Bold-62e9" d="M 138 4203 
L 813 4203 
L 813 5259 
L 1631 5259 
L 1631 4203 
L 2213 4203 
L 2213 3422 
L 1631 3422 
L 1631 2450 
L 2238 2572 
Q 2163 2047 2156 1728 
L 1631 1631 
L 1631 22 
Q 1631 -359 1481 -556 
Q 1331 -753 1038 -766 
L 300 -797 
Q 238 -434 131 34 
Q 369 16 606 16 
Q 813 16 813 284 
L 813 1469 
L 156 1328 
L 106 2222 
Q 422 2253 813 2309 
L 813 3422 
L 138 3422 
L 138 4203 
z
M 5925 5066 
L 5925 4372 
Q 5522 3794 4925 3350 
Q 5547 3131 6300 3066 
Q 6100 2641 5969 2309 
Q 4938 2491 4159 2878 
Q 3403 2494 2425 2266 
Q 2294 2609 2094 2991 
Q 2834 3141 3406 3353 
Q 2975 3691 2656 4122 
L 3097 4372 
L 2350 4372 
L 2350 5066 
L 5925 5066 
z
M 4166 3706 
Q 4672 4000 4963 4372 
L 3344 4372 
Q 3706 3981 4166 3706 
z
M 1969 872 
L 3725 872 
L 3725 1322 
L 2281 1322 
L 2281 2022 
L 3725 2022 
L 3725 2434 
L 4569 2434 
L 4569 2022 
L 6013 2022 
L 6013 1322 
L 4569 1322 
L 4569 872 
L 6244 872 
L 6244 172 
L 4569 172 
L 4569 -841 
L 3725 -841 
L 3725 172 
L 1969 172 
L 1969 872 
z
" transform="scale(0.015625)"/>
     <path id="MicrosoftYaHei-Bold-7b97" d="M 100 697 
L 1575 697 
Q 1603 844 1613 1003 
L 706 1003 
L 706 3694 
Q 572 3581 431 3478 
Q 325 3803 75 4228 
Q 700 4634 1119 5341 
L 2006 5341 
Q 1888 5122 1759 4922 
L 3113 4922 
L 3113 4381 
Q 3563 4788 3800 5347 
L 4619 5347 
Q 4541 5125 4450 4922 
L 6213 4922 
L 6213 4347 
L 5338 4347 
L 5513 3972 
L 4738 3816 
L 5719 3816 
L 5719 1003 
L 4906 1003 
L 4906 697 
L 6300 697 
L 6300 97 
L 4906 97 
L 4906 -809 
L 4081 -809 
L 4081 97 
L 2281 97 
Q 2050 -534 1388 -897 
Q 994 -616 581 -384 
Q 1031 -209 1291 97 
L 100 97 
L 100 697 
z
M 2575 3972 
L 1800 3816 
L 3519 3816 
Q 3203 4013 2856 4178 
Q 2969 4259 3069 4347 
L 2403 4347 
Q 2494 4156 2575 3972 
z
M 3694 3816 
L 4703 3816 
Q 4603 4106 4484 4347 
L 4131 4347 
Q 3934 4056 3694 3816 
z
M 841 3816 
L 1766 3816 
Q 1703 4031 1572 4347 
L 1344 4347 
Q 1106 4059 841 3816 
z
M 4900 3303 
L 1525 3303 
L 1525 2991 
L 4900 2991 
L 4900 3303 
z
M 1525 2253 
L 4900 2253 
L 4900 2566 
L 1525 2566 
L 1525 2253 
z
M 4900 1516 
L 4900 1828 
L 1525 1828 
L 1525 1516 
L 4900 1516 
z
M 2406 697 
L 4081 697 
L 4081 1003 
L 2428 1003 
Q 2425 856 2406 697 
z
" transform="scale(0.015625)"/>
     <path id="MicrosoftYaHei-Bold-6cd5" d="M 5006 1441 
Q 5763 478 6313 -453 
L 5525 -897 
L 5275 -472 
Q 2816 -559 2088 -647 
L 1769 72 
Q 2419 616 3081 1747 
L 1775 1747 
L 1775 2491 
L 3581 2491 
L 3581 3603 
L 2050 3603 
L 2050 4347 
L 3581 4347 
L 3581 5347 
L 4444 5347 
L 4444 4347 
L 6013 4347 
L 6013 3603 
L 4444 3603 
L 4444 2491 
L 6288 2491 
L 6288 1747 
L 4122 1747 
Q 3622 928 3019 216 
Q 3825 238 4806 288 
Q 4541 697 4294 1041 
L 5006 1441 
z
M 844 5222 
Q 1419 4828 1950 4403 
L 1388 3766 
Q 838 4259 306 4647 
L 844 5222 
z
M 631 3591 
Q 1175 3216 1706 2753 
L 1119 2103 
Q 669 2553 88 3003 
L 631 3591 
z
M 994 1903 
Q 1356 1722 1813 1578 
Q 1406 409 1069 -803 
Q 625 -634 219 -509 
Q 619 572 994 1903 
z
" transform="scale(0.015625)"/>
     <path id="MicrosoftYaHei-Bold-5bf9" d="M 3050 4234 
L 4850 4234 
L 4850 5309 
L 5744 5309 
L 5744 4234 
L 6319 4234 
L 6319 3409 
L 5744 3409 
L 5744 216 
Q 5744 -250 5539 -490 
Q 5334 -731 4987 -754 
Q 4641 -778 3656 -778 
Q 3594 -359 3450 147 
Q 3931 109 4409 109 
Q 4850 109 4850 516 
L 4850 3409 
L 3050 3409 
L 3050 4234 
z
M 863 3772 
L 1691 2509 
Q 1934 3206 2025 4016 
L 188 4016 
L 188 4834 
L 2900 4834 
L 2900 4028 
Q 2709 2722 2247 1669 
L 3169 278 
L 2394 -228 
L 1781 778 
Q 1269 -47 550 -684 
Q 369 -316 88 153 
Q 816 772 1278 1594 
L 181 3341 
L 863 3772 
z
M 3463 3047 
Q 4069 2278 4588 1528 
L 3844 1041 
Q 3375 1841 2813 2609 
L 3463 3047 
z
" transform="scale(0.015625)"/>
     <path id="MicrosoftYaHei-Bold-6bd4" d="M 5481 4441 
L 6294 3803 
Q 5234 2791 4119 1894 
L 4119 547 
Q 4119 153 4438 153 
L 4875 153 
Q 5119 153 5197 325 
Q 5275 497 5363 1597 
Q 5856 1409 6294 1278 
Q 6231 688 6131 248 
Q 6031 -191 5900 -358 
Q 5769 -525 5511 -617 
Q 5253 -709 4881 -709 
L 4094 -709 
Q 3194 -709 3194 247 
L 3194 5316 
L 4119 5316 
L 4119 3009 
Q 4797 3656 5481 4441 
z
M 1419 5241 
L 1419 3453 
L 2850 3453 
L 2850 2591 
L 1419 2591 
L 1419 372 
L 2869 866 
Q 2856 372 2888 -78 
Q 1500 -503 725 -922 
L 275 -184 
Q 494 -16 494 366 
L 494 5241 
L 1419 5241 
z
" transform="scale(0.015625)"/>
     <path id="MicrosoftYaHei-Bold-5206" d="M 6350 3028 
Q 6088 2703 5750 2228 
Q 5519 2409 5303 2603 
Q 5219 606 5172 190 
Q 5125 -225 4862 -451 
Q 4600 -678 4128 -678 
Q 3484 -678 2913 -659 
Q 2856 -141 2781 284 
Q 3594 216 3956 216 
Q 4172 216 4230 408 
Q 4288 600 4325 1978 
L 2781 1978 
Q 2728 1100 2529 631 
Q 2331 163 1907 -215 
Q 1484 -594 844 -872 
Q 456 -353 194 -78 
Q 750 144 1111 414 
Q 1472 684 1630 989 
Q 1788 1294 1841 1978 
L 950 1978 
L 950 2475 
Q 794 2356 631 2247 
Q 344 2653 63 2953 
Q 1475 3947 2194 5316 
L 3031 4953 
Q 2378 3722 1391 2841 
L 5047 2841 
Q 4088 3766 3463 4903 
L 4238 5303 
Q 5038 3922 6350 3028 
z
" transform="scale(0.015625)"/>
     <path id="MicrosoftYaHei-Bold-6790" d="M 94 1559 
Q 653 2478 878 3297 
L 150 3297 
L 150 4116 
L 888 4116 
L 888 5266 
L 1725 5266 
L 1725 4116 
L 2363 4116 
L 2363 3297 
L 1725 3297 
L 1725 2722 
Q 2256 2453 2594 2253 
L 2181 1528 
Q 1978 1678 1725 1841 
L 1725 -822 
L 888 -822 
L 888 1563 
Q 653 1003 319 459 
Q 225 997 94 1559 
z
M 5963 5191 
L 6238 4353 
Q 5244 4178 3506 4041 
L 3506 3091 
L 6306 3091 
L 6306 2266 
L 5275 2266 
L 5275 -791 
L 4425 -791 
L 4425 2266 
L 3506 2266 
Q 3506 281 2656 -859 
Q 2331 -453 1988 -141 
Q 2656 716 2656 2216 
L 2656 4859 
Q 4756 4966 5963 5191 
z
" transform="scale(0.015625)"/>
    </defs>
    <use xlink:href="#MicrosoftYaHei-Bold-8f6c"/>
    <use xlink:href="#MicrosoftYaHei-Bold-8fd0" transform="translate(100 0)"/>
    <use xlink:href="#MicrosoftYaHei-Bold-5546" transform="translate(200 0)"/>
    <use xlink:href="#MicrosoftYaHei-Bold-7ec4" transform="translate(300 0)"/>
    <use xlink:href="#MicrosoftYaHei-Bold-5408" transform="translate(400 0)"/>
    <use xlink:href="#MicrosoftYaHei-Bold-9009" transform="translate(500 0)"/>
    <use xlink:href="#MicrosoftYaHei-Bold-62e9" transform="translate(600 0)"/>
    <use xlink:href="#MicrosoftYaHei-Bold-7b97" transform="translate(700 0)"/>
    <use xlink:href="#MicrosoftYaHei-Bold-6cd5" transform="translate(800 0)"/>
    <use xlink:href="#MicrosoftYaHei-Bold-5bf9" transform="translate(900 0)"/>
    <use xlink:href="#MicrosoftYaHei-Bold-6bd4" transform="translate(1000 0)"/>
    <use xlink:href="#MicrosoftYaHei-Bold-5206" transform="translate(1100 0)"/>
    <use xlink:href="#MicrosoftYaHei-Bold-6790" transform="translate(1200 0)"/>
   </g>
  </g>
 </g>
 <defs>
  <clipPath id="p6e9ac1df2a">
   <rect x="42.815625" y="43.89" width="521.395" height="367.655"/>
  </clipPath>
  <clipPath id="pd800dbb499">
   <rect x="615.170625" y="43.89" width="521.395" height="367.655"/>
  </clipPath>
  <clipPath id="p32808ccb56">
   <rect x="42.815625" y="456.945" width="521.395" height="367.655"/>
  </clipPath>
  <clipPath id="p33668bb7b0">
   <rect x="615.170625" y="456.945" width="521.395" height="367.655"/>
  </clipPath>
 </defs>
</svg>
