<?xml version="1.0" encoding="utf-8" standalone="no"?>
<!DOCTYPE svg PUBLIC "-//W3C//DTD SVG 1.1//EN"
  "http://www.w3.org/Graphics/SVG/1.1/DTD/svg11.dtd">
<svg xmlns:xlink="http://www.w3.org/1999/xlink" width="856.44375pt" height="566.532375pt" viewBox="0 0 856.44375 566.532375" xmlns="http://www.w3.org/2000/svg" version="1.1">
 <metadata>
  <rdf:RDF xmlns:dc="http://purl.org/dc/elements/1.1/" xmlns:cc="http://creativecommons.org/ns#" xmlns:rdf="http://www.w3.org/1999/02/22-rdf-syntax-ns#">
   <cc:Work>
    <dc:type rdf:resource="http://purl.org/dc/dcmitype/StillImage"/>
    <dc:date>2025-08-02T20:05:32.071656</dc:date>
    <dc:format>image/svg+xml</dc:format>
    <dc:creator>
     <cc:Agent>
      <dc:title>Matplotlib v3.10.5, https://matplotlib.org/</dc:title>
     </cc:Agent>
    </dc:creator>
   </cc:Work>
  </rdf:RDF>
 </metadata>
 <defs>
  <style type="text/css">*{stroke-linejoin: round; stroke-linecap: butt}</style>
 </defs>
 <g id="figure_1">
  <g id="patch_1">
   <path d="M 0 566.532375 
L 856.44375 566.532375 
L 856.44375 0 
L 0 0 
z
" style="fill: #ffffff"/>
  </g>
  <g id="axes_1">
   <g id="patch_2">
    <path d="M 42.50375 525.277062 
L 849.24375 525.277062 
L 849.24375 41.301062 
L 42.50375 41.301062 
z
" style="fill: #ffffff"/>
   </g>
   <g id="PathCollection_1">
    <path d="M 445.87375 158.54722 
C 471.133616 158.54722 495.362303 148.511369 513.223725 130.649947 
C 531.085148 112.788525 541.120999 88.559837 541.120999 63.299972 
C 541.120999 38.040106 531.085148 13.811418 513.223725 -4.050004 
C 495.362303 -21.911426 471.133616 -31.947277 445.87375 -31.947277 
C 420.613884 -31.947277 396.385197 -21.911426 378.523775 -4.050004 
C 360.662352 13.811418 350.626501 38.040106 350.626501 63.299972 
C 350.626501 88.559837 360.662352 112.788525 378.523775 130.649947 
C 396.385197 148.511369 420.613884 158.54722 445.87375 158.54722 
z
" clip-path="url(#pa35c949a01)" style="fill: #ff0000; fill-opacity: 0.6; stroke: #ff0000; stroke-opacity: 0.6"/>
    <path d="M 445.87375 187.52376 
C 470.798239 187.52376 494.705242 177.621155 512.329517 159.99688 
C 529.953793 142.372604 539.856397 118.465602 539.856397 93.541113 
C 539.856397 68.616623 529.953793 44.709621 512.329517 27.085346 
C 494.705242 9.46107 470.798239 -0.441534 445.87375 -0.441534 
C 420.949261 -0.441534 397.042258 9.46107 379.417983 27.085346 
C 361.793707 44.709621 351.891103 68.616623 351.891103 93.541113 
C 351.891103 118.465602 361.793707 142.372604 379.417983 159.99688 
C 397.042258 177.621155 420.949261 187.52376 445.87375 187.52376 
z
" clip-path="url(#pa35c949a01)" style="fill: #008000; fill-opacity: 0.6; stroke: #008000; stroke-opacity: 0.6"/>
    <path d="M 445.87375 361.035671 
C 468.659857 361.035671 490.515772 351.982654 506.627983 335.870443 
C 522.740194 319.758232 531.79321 297.902318 531.79321 275.11621 
C 531.79321 252.330103 522.740194 230.474188 506.627983 214.361977 
C 490.515772 198.249766 468.659857 189.19675 445.87375 189.19675 
C 423.087643 189.19675 401.231728 198.249766 385.119517 214.361977 
C 369.007306 230.474188 359.95429 252.330103 359.95429 275.11621 
C 359.95429 297.902318 369.007306 319.758232 385.119517 335.870443 
C 401.231728 351.982654 423.087643 361.035671 445.87375 361.035671 
z
" clip-path="url(#pa35c949a01)" style="fill: #0000ff; fill-opacity: 0.6; stroke: #0000ff; stroke-opacity: 0.6"/>
    <path d="M 445.87375 373.036816 
C 468.535489 373.036816 490.272114 364.033212 506.296383 348.008942 
C 522.320653 331.984673 531.324257 310.248048 531.324257 287.586309 
C 531.324257 264.92457 522.320653 243.187946 506.296383 227.163676 
C 490.272114 211.139406 468.535489 202.135802 445.87375 202.135802 
C 423.212011 202.135802 401.475386 211.139406 385.451117 227.163676 
C 369.426847 243.187946 360.423243 264.92457 360.423243 287.586309 
C 360.423243 310.248048 369.426847 331.984673 385.451117 348.008942 
C 401.475386 364.033212 423.212011 373.036816 445.87375 373.036816 
z
" clip-path="url(#pa35c949a01)" style="fill: #ff0000; fill-opacity: 0.6; stroke: #ff0000; stroke-opacity: 0.6"/>
    <path d="M 445.87375 375.18947 
C 468.507157 375.18947 490.216606 366.197122 506.220841 350.192886 
C 522.225077 334.188651 531.217425 312.479202 531.217425 289.845795 
C 531.217425 267.212388 522.225077 245.50294 506.220841 229.498704 
C 490.216606 213.494468 468.507157 204.50212 445.87375 204.50212 
C 423.240343 204.50212 401.530894 213.494468 385.526659 229.498704 
C 369.522423 245.50294 360.530075 267.212388 360.530075 289.845795 
C 360.530075 312.479202 369.522423 334.188651 385.526659 350.192886 
C 401.530894 366.197122 423.240343 375.18947 445.87375 375.18947 
z
" clip-path="url(#pa35c949a01)" style="fill: #ff0000; fill-opacity: 0.6; stroke: #ff0000; stroke-opacity: 0.6"/>
    <path d="M 445.87375 372.529091 
C 468.400052 372.529091 490.006767 363.579297 505.935268 347.650796 
C 521.863768 331.722295 530.813563 310.11558 530.813563 287.589278 
C 530.813563 265.062977 521.863768 243.456261 505.935268 227.527761 
C 490.006767 211.59926 468.400052 202.649465 445.87375 202.649465 
C 423.347448 202.649465 401.740733 211.59926 385.812232 227.527761 
C 369.883732 243.456261 360.933937 265.062977 360.933937 287.589278 
C 360.933937 310.11558 369.883732 331.722295 385.812232 347.650796 
C 401.740733 363.579297 423.347448 372.529091 445.87375 372.529091 
z
" clip-path="url(#pa35c949a01)" style="fill: #ff0000; fill-opacity: 0.6; stroke: #ff0000; stroke-opacity: 0.6"/>
    <path d="M 445.87375 329.733155 
C 468.342626 329.733155 489.89426 320.806176 505.782155 304.918281 
C 521.67005 289.030386 530.597029 267.478752 530.597029 245.009876 
C 530.597029 222.541 521.67005 200.989366 505.782155 185.101471 
C 489.89426 169.213576 468.342626 160.286597 445.87375 160.286597 
C 423.404874 160.286597 401.85324 169.213576 385.965345 185.101471 
C 370.07745 200.989366 361.150471 222.541 361.150471 245.009876 
C 361.150471 267.478752 370.07745 289.030386 385.965345 304.918281 
C 401.85324 320.806176 423.404874 329.733155 445.87375 329.733155 
z
" clip-path="url(#pa35c949a01)" style="fill: #0000ff; fill-opacity: 0.6; stroke: #0000ff; stroke-opacity: 0.6"/>
    <path d="M 445.87375 398.017657 
C 468.170213 398.017657 489.556473 389.159179 505.322453 373.393198 
C 521.088433 357.627218 529.946912 336.240959 529.946912 313.944496 
C 529.946912 291.648032 521.088433 270.261773 505.322453 254.495793 
C 489.556473 238.729812 468.170213 229.871334 445.87375 229.871334 
C 423.577287 229.871334 402.191027 238.729812 386.425047 254.495793 
C 370.659067 270.261773 361.800588 291.648032 361.800588 313.944496 
C 361.800588 336.240959 370.659067 357.627218 386.425047 373.393198 
C 402.191027 389.159179 423.577287 398.017657 445.87375 398.017657 
z
" clip-path="url(#pa35c949a01)" style="fill: #0000ff; fill-opacity: 0.6; stroke: #0000ff; stroke-opacity: 0.6"/>
    <path d="M 445.87375 404.166532 
C 468.130531 404.166532 489.478728 395.323819 505.216649 379.585898 
C 520.95457 363.847978 529.797283 342.49978 529.797283 320.242999 
C 529.797283 297.986218 520.95457 276.638021 505.216649 260.9001 
C 489.478728 245.162179 468.130531 236.319467 445.87375 236.319467 
C 423.616969 236.319467 402.268772 245.162179 386.530851 260.9001 
C 370.79293 276.638021 361.950217 297.986218 361.950217 320.242999 
C 361.950217 342.49978 370.79293 363.847978 386.530851 379.585898 
C 402.268772 395.323819 423.616969 404.166532 445.87375 404.166532 
z
" clip-path="url(#pa35c949a01)" style="fill: #008000; fill-opacity: 0.6; stroke: #008000; stroke-opacity: 0.6"/>
    <path d="M 445.87375 275.192993 
C 468.124464 275.192993 489.466842 266.35269 505.200473 250.61906 
C 520.934103 234.885429 529.774406 213.543051 529.774406 191.292337 
C 529.774406 169.041623 520.934103 147.699245 505.200473 131.965614 
C 489.466842 116.231984 468.124464 107.391681 445.87375 107.391681 
C 423.623036 107.391681 402.280658 116.231984 386.547027 131.965614 
C 370.813397 147.699245 361.973094 169.041623 361.973094 191.292337 
C 361.973094 213.543051 370.813397 234.885429 386.547027 250.61906 
C 402.280658 266.35269 423.623036 275.192993 445.87375 275.192993 
z
" clip-path="url(#pa35c949a01)" style="fill: #0000ff; fill-opacity: 0.6; stroke: #0000ff; stroke-opacity: 0.6"/>
    <path d="M 445.87375 408.18268 
C 468.077382 408.18268 489.3746 399.361083 505.074939 383.660744 
C 520.775278 367.960405 529.596875 346.663187 529.596875 324.459555 
C 529.596875 302.255922 520.775278 280.958704 505.074939 265.258365 
C 489.3746 249.558026 468.077382 240.73643 445.87375 240.73643 
C 423.670118 240.73643 402.3729 249.558026 386.672561 265.258365 
C 370.972222 280.958704 362.150625 302.255922 362.150625 324.459555 
C 362.150625 346.663187 370.972222 367.960405 386.672561 383.660744 
C 402.3729 399.361083 423.670118 408.18268 445.87375 408.18268 
z
" clip-path="url(#pa35c949a01)" style="fill: #008000; fill-opacity: 0.6; stroke: #008000; stroke-opacity: 0.6"/>
    <path d="M 445.87375 434.985971 
C 467.718219 434.985971 488.670935 426.307072 504.117307 410.8607 
C 519.563679 395.414328 528.242579 374.461611 528.242579 352.617143 
C 528.242579 330.772674 519.563679 309.819957 504.117307 294.373585 
C 488.670935 278.927213 467.718219 270.248314 445.87375 270.248314 
C 424.029281 270.248314 403.076565 278.927213 387.630193 294.373585 
C 372.183821 309.819957 363.504921 330.772674 363.504921 352.617143 
C 363.504921 374.461611 372.183821 395.414328 387.630193 410.8607 
C 403.076565 426.307072 424.029281 434.985971 445.87375 434.985971 
z
" clip-path="url(#pa35c949a01)" style="fill: #008000; fill-opacity: 0.6; stroke: #008000; stroke-opacity: 0.6"/>
    <path d="M 445.87375 423.058244 
C 467.605825 423.058244 488.450736 414.423999 503.817634 399.057101 
C 519.184531 383.690204 527.818776 362.845293 527.818776 341.113218 
C 527.818776 319.381143 519.184531 298.536232 503.817634 283.169334 
C 488.450736 267.802437 467.605825 259.168192 445.87375 259.168192 
C 424.141675 259.168192 403.296764 267.802437 387.929866 283.169334 
C 372.562969 298.536232 363.928724 319.381143 363.928724 341.113218 
C 363.928724 362.845293 372.562969 383.690204 387.929866 399.057101 
C 403.296764 414.423999 424.141675 423.058244 445.87375 423.058244 
z
" clip-path="url(#pa35c949a01)" style="fill: #008000; fill-opacity: 0.6; stroke: #008000; stroke-opacity: 0.6"/>
    <path d="M 445.87375 448.673025 
C 467.527782 448.673025 488.297836 440.069787 503.609549 424.758074 
C 518.921262 409.446361 527.5245 388.676307 527.5245 367.022275 
C 527.5245 345.368243 518.921262 324.598188 503.609549 309.286476 
C 488.297836 293.974763 467.527782 285.371525 445.87375 285.371525 
C 424.219718 285.371525 403.449664 293.974763 388.137951 309.286476 
C 372.826238 324.598188 364.223 345.368243 364.223 367.022275 
C 364.223 388.676307 372.826238 409.446361 388.137951 424.758074 
C 403.449664 440.069787 424.219718 448.673025 445.87375 448.673025 
z
" clip-path="url(#pa35c949a01)" style="fill: #ff0000; fill-opacity: 0.6; stroke: #ff0000; stroke-opacity: 0.6"/>
    <path d="M 445.87375 483.694846 
C 467.052505 483.694846 487.366684 475.280437 502.342325 460.304796 
C 517.317966 445.329155 525.732375 425.014976 525.732375 403.836221 
C 525.732375 382.657466 517.317966 362.343287 502.342325 347.367646 
C 487.366684 332.392005 467.052505 323.977596 445.87375 323.977596 
C 424.694995 323.977596 404.380816 332.392005 389.405175 347.367646 
C 374.429534 362.343287 366.015125 382.657466 366.015125 403.836221 
C 366.015125 425.014976 374.429534 445.329155 389.405175 460.304796 
C 404.380816 475.280437 424.694995 483.694846 445.87375 483.694846 
z
" clip-path="url(#pa35c949a01)" style="fill: #008000; fill-opacity: 0.6; stroke: #008000; stroke-opacity: 0.6"/>
    <path d="M 445.87375 396.378133 
C 467.002507 396.378133 487.26873 387.983588 502.209018 373.043301 
C 517.149305 358.103013 525.54385 337.83679 525.54385 316.708033 
C 525.54385 295.579276 517.149305 275.313053 502.209018 260.372765 
C 487.26873 245.432478 467.002507 237.037934 445.87375 237.037934 
C 424.744993 237.037934 404.47877 245.432478 389.538482 260.372765 
C 374.598195 275.313053 366.20365 295.579276 366.20365 316.708033 
C 366.20365 337.83679 374.598195 358.103013 389.538482 373.043301 
C 404.47877 387.983588 424.744993 396.378133 445.87375 396.378133 
z
" clip-path="url(#pa35c949a01)" style="fill: #008000; fill-opacity: 0.6; stroke: #008000; stroke-opacity: 0.6"/>
    <path d="M 445.87375 500.0412 
C 466.823522 500.0412 486.918065 491.717768 501.731791 476.904042 
C 516.545516 462.090317 524.868949 441.995773 524.868949 421.046001 
C 524.868949 400.09623 516.545516 380.001686 501.731791 365.187961 
C 486.918065 350.374235 466.823522 342.050803 445.87375 342.050803 
C 424.923978 342.050803 404.829435 350.374235 390.015709 365.187961 
C 375.201984 380.001686 366.878551 400.09623 366.878551 421.046001 
C 366.878551 441.995773 375.201984 462.090317 390.015709 476.904042 
C 404.829435 491.717768 424.923978 500.0412 445.87375 500.0412 
z
" clip-path="url(#pa35c949a01)" style="fill: #008000; fill-opacity: 0.6; stroke: #008000; stroke-opacity: 0.6"/>
    <path d="M 445.87375 501.023016 
C 466.80228 501.023016 486.876449 492.708023 501.675154 477.909318 
C 516.47386 463.110613 524.788853 443.036444 524.788853 422.107914 
C 524.788853 401.179384 516.47386 381.105215 501.675154 366.306509 
C 486.876449 351.507804 466.80228 343.192811 445.87375 343.192811 
C 424.94522 343.192811 404.871051 351.507804 390.072346 366.306509 
C 375.27364 381.105215 366.958647 401.179384 366.958647 422.107914 
C 366.958647 443.036444 375.27364 463.110613 390.072346 477.909318 
C 404.871051 492.708023 424.94522 501.023016 445.87375 501.023016 
z
" clip-path="url(#pa35c949a01)" style="fill: #0000ff; fill-opacity: 0.6; stroke: #0000ff; stroke-opacity: 0.6"/>
    <path d="M 445.87375 440.346012 
C 466.76995 440.346012 486.813109 432.043864 501.588954 417.268019 
C 516.364799 402.492174 524.666947 382.449015 524.666947 361.552815 
C 524.666947 340.656615 516.364799 320.613456 501.588954 305.837611 
C 486.813109 291.061766 466.76995 282.759618 445.87375 282.759618 
C 424.97755 282.759618 404.934391 291.061766 390.158546 305.837611 
C 375.382701 320.613456 367.080553 340.656615 367.080553 361.552815 
C 367.080553 382.449015 375.382701 402.492174 390.158546 417.268019 
C 404.934391 432.043864 424.97755 440.346012 445.87375 440.346012 
z
" clip-path="url(#pa35c949a01)" style="fill: #0000ff; fill-opacity: 0.6; stroke: #0000ff; stroke-opacity: 0.6"/>
    <path d="M 445.87375 447.133824 
C 466.657057 447.133824 486.591932 438.876528 501.287949 424.180511 
C 515.983967 409.484493 524.241262 389.549619 524.241262 368.766311 
C 524.241262 347.983004 515.983967 328.04813 501.287949 313.352112 
C 486.591932 298.656095 466.657057 290.398799 445.87375 290.398799 
C 425.090443 290.398799 405.155568 298.656095 390.459551 313.352112 
C 375.763533 328.04813 367.506238 347.983004 367.506238 368.766311 
C 367.506238 389.549619 375.763533 409.484493 390.459551 424.180511 
C 405.155568 438.876528 425.090443 447.133824 445.87375 447.133824 
z
" clip-path="url(#pa35c949a01)" style="fill: #0000ff; fill-opacity: 0.6; stroke: #0000ff; stroke-opacity: 0.6"/>
    <path d="M 445.87375 524.741983 
C 466.472379 524.741983 486.230115 516.558061 500.795546 501.992631 
C 515.360976 487.4272 523.544898 467.669464 523.544898 447.070835 
C 523.544898 426.472206 515.360976 406.71447 500.795546 392.14904 
C 486.230115 377.583609 466.472379 369.399687 445.87375 369.399687 
C 425.275121 369.399687 405.517385 377.583609 390.951954 392.14904 
C 376.386524 406.71447 368.202602 426.472206 368.202602 447.070835 
C 368.202602 467.669464 376.386524 487.4272 390.951954 501.992631 
C 405.517385 516.558061 425.275121 524.741983 445.87375 524.741983 
z
" clip-path="url(#pa35c949a01)" style="fill: #008000; fill-opacity: 0.6; stroke: #008000; stroke-opacity: 0.6"/>
    <path d="M 445.87375 489.162442 
C 466.429869 489.162442 486.146829 480.99541 500.6822 466.460039 
C 515.217571 451.924668 523.384603 432.207707 523.384603 411.651589 
C 523.384603 391.09547 515.217571 371.378509 500.6822 356.843139 
C 486.146829 342.307768 466.429869 334.140735 445.87375 334.140735 
C 425.317631 334.140735 405.600671 342.307768 391.0653 356.843139 
C 376.529929 371.378509 368.362897 391.09547 368.362897 411.651589 
C 368.362897 432.207707 376.529929 451.924668 391.0653 466.460039 
C 405.600671 480.99541 425.317631 489.162442 445.87375 489.162442 
z
" clip-path="url(#pa35c949a01)" style="fill: #ff0000; fill-opacity: 0.6; stroke: #ff0000; stroke-opacity: 0.6"/>
    <path d="M 445.87375 524.532447 
C 466.398243 524.532447 486.08487 516.377979 500.597878 501.864971 
C 515.110887 487.351962 523.265355 467.665336 523.265355 447.140843 
C 523.265355 426.616349 515.110887 406.929723 500.597878 392.416714 
C 486.08487 377.903706 466.398243 369.749238 445.87375 369.749238 
C 425.349257 369.749238 405.66263 377.903706 391.149622 392.416714 
C 376.636613 406.929723 368.482145 426.616349 368.482145 447.140843 
C 368.482145 467.665336 376.636613 487.351962 391.149622 501.864971 
C 405.66263 516.377979 425.349257 524.532447 445.87375 524.532447 
z
" clip-path="url(#pa35c949a01)" style="fill: #0000ff; fill-opacity: 0.6; stroke: #0000ff; stroke-opacity: 0.6"/>
    <path d="M 445.87375 523.788034 
C 466.29062 523.788034 485.874017 515.676325 500.310924 501.239418 
C 514.747831 486.802511 522.85954 467.219114 522.85954 446.802244 
C 522.85954 426.385374 514.747831 406.801977 500.310924 392.36507 
C 485.874017 377.928163 466.29062 369.816454 445.87375 369.816454 
C 425.45688 369.816454 405.873483 377.928163 391.436576 392.36507 
C 376.999669 406.801977 368.88796 426.385374 368.88796 446.802244 
C 368.88796 467.219114 376.999669 486.802511 391.436576 501.239418 
C 405.873483 515.676325 425.45688 523.788034 445.87375 523.788034 
z
" clip-path="url(#pa35c949a01)" style="fill: #0000ff; fill-opacity: 0.6; stroke: #0000ff; stroke-opacity: 0.6"/>
    <path d="M 445.87375 538.181299 
C 466.279186 538.181299 485.851615 530.074133 500.280437 515.645311 
C 514.70926 501.216489 522.816425 481.64406 522.816425 461.238624 
C 522.816425 440.833188 514.70926 421.260758 500.280437 406.831936 
C 485.851615 392.403114 466.279186 384.295948 445.87375 384.295948 
C 425.468314 384.295948 405.895885 392.403114 391.467063 406.831936 
C 377.03824 421.260758 368.931075 440.833188 368.931075 461.238624 
C 368.931075 481.64406 377.03824 501.216489 391.467063 515.645311 
C 405.895885 530.074133 425.468314 538.181299 445.87375 538.181299 
z
" clip-path="url(#pa35c949a01)" style="fill: #ff0000; fill-opacity: 0.6; stroke: #ff0000; stroke-opacity: 0.6"/>
    <path d="M 445.87375 538.110419 
C 466.279076 538.110419 485.851399 530.003297 500.280143 515.574553 
C 514.708888 501.145809 522.816009 481.573485 522.816009 461.168159 
C 522.816009 440.762834 514.708888 421.19051 500.280143 406.761766 
C 485.851399 392.333022 466.279076 384.2259 445.87375 384.2259 
C 425.468424 384.2259 405.896101 392.333022 391.467357 406.761766 
C 377.038612 421.19051 368.931491 440.762834 368.931491 461.168159 
C 368.931491 481.573485 377.038612 501.145809 391.467357 515.574553 
C 405.896101 530.003297 425.468424 538.110419 445.87375 538.110419 
z
" clip-path="url(#pa35c949a01)" style="fill: #ff0000; fill-opacity: 0.6; stroke: #ff0000; stroke-opacity: 0.6"/>
    <path d="M 445.87375 457.079541 
C 466.196219 457.079541 485.689068 449.005339 500.059224 434.635183 
C 514.429379 420.265027 522.503582 400.772178 522.503582 380.449709 
C 522.503582 360.127241 514.429379 340.634392 500.059224 326.264236 
C 485.689068 311.89408 466.196219 303.819878 445.87375 303.819878 
C 425.551281 303.819878 406.058432 311.89408 391.688276 326.264236 
C 377.318121 340.634392 369.243918 360.127241 369.243918 380.449709 
C 369.243918 400.772178 377.318121 420.265027 391.688276 434.635183 
C 406.058432 449.005339 425.551281 457.079541 445.87375 457.079541 
z
" clip-path="url(#pa35c949a01)" style="fill: #0000ff; fill-opacity: 0.6; stroke: #0000ff; stroke-opacity: 0.6"/>
    <path d="M 445.87375 539.036487 
C 466.090302 539.036487 485.481558 531.004366 499.776819 516.709105 
C 514.07208 502.413844 522.104201 483.022588 522.104201 462.806036 
C 522.104201 442.589484 514.07208 423.198228 499.776819 408.902967 
C 485.481558 394.607705 466.090302 386.575584 445.87375 386.575584 
C 425.657198 386.575584 406.265942 394.607705 391.970681 408.902967 
C 377.67542 423.198228 369.643299 442.589484 369.643299 462.806036 
C 369.643299 483.022588 377.67542 502.413844 391.970681 516.709105 
C 406.265942 531.004366 425.657198 539.036487 445.87375 539.036487 
z
" clip-path="url(#pa35c949a01)" style="fill: #008000; fill-opacity: 0.6; stroke: #008000; stroke-opacity: 0.6"/>
    <path d="M 445.87375 523.234584 
C 466.084914 523.234584 485.471002 515.204603 499.762453 500.913152 
C 514.053905 486.621701 522.083885 467.235613 522.083885 447.024449 
C 522.083885 426.813285 514.053905 407.427197 499.762453 393.135745 
C 485.471002 378.844294 466.084914 370.814314 445.87375 370.814314 
C 425.662586 370.814314 406.276498 378.844294 391.985047 393.135745 
C 377.693595 407.427197 369.663615 426.813285 369.663615 447.024449 
C 369.663615 467.235613 377.693595 486.621701 391.985047 500.913152 
C 406.276498 515.204603 425.662586 523.234584 445.87375 523.234584 
z
" clip-path="url(#pa35c949a01)" style="fill: #008000; fill-opacity: 0.6; stroke: #008000; stroke-opacity: 0.6"/>
    <path d="M 445.87375 540.408405 
C 466.072654 540.408405 485.446983 532.383296 499.729765 518.100514 
C 514.012547 503.817732 522.037656 484.443403 522.037656 464.244499 
C 522.037656 444.045595 514.012547 424.671267 499.729765 410.388485 
C 485.446983 396.105703 466.072654 388.080593 445.87375 388.080593 
C 425.674846 388.080593 406.300517 396.105703 392.017735 410.388485 
C 377.734953 424.671267 369.709844 444.045595 369.709844 464.244499 
C 369.709844 484.443403 377.734953 503.817732 392.017735 518.100514 
C 406.300517 532.383296 425.674846 540.408405 445.87375 540.408405 
z
" clip-path="url(#pa35c949a01)" style="fill: #008000; fill-opacity: 0.6; stroke: #008000; stroke-opacity: 0.6"/>
    <path d="M 445.87375 535.736331 
C 466.025619 535.736331 485.354833 527.729909 499.604356 513.480385 
C 513.853879 499.230862 521.860302 479.901648 521.860302 459.749779 
C 521.860302 439.59791 513.853879 420.268697 499.604356 406.019173 
C 485.354833 391.76965 466.025619 383.763227 445.87375 383.763227 
C 425.721881 383.763227 406.392667 391.76965 392.143144 406.019173 
C 377.893621 420.268697 369.887198 439.59791 369.887198 459.749779 
C 369.887198 479.901648 377.893621 499.230862 392.143144 513.480385 
C 406.392667 527.729909 425.721881 535.736331 445.87375 535.736331 
z
" clip-path="url(#pa35c949a01)" style="fill: #0000ff; fill-opacity: 0.6; stroke: #0000ff; stroke-opacity: 0.6"/>
    <path d="M 445.87375 550.200987 
C 465.886385 550.200987 485.082049 542.249883 499.23312 528.098813 
C 513.38419 513.947742 521.335294 494.752078 521.335294 474.739443 
C 521.335294 454.726807 513.38419 435.531143 499.23312 421.380073 
C 485.082049 407.229003 465.886385 399.277899 445.87375 399.277899 
C 425.861115 399.277899 406.665451 407.229003 392.51438 421.380073 
C 378.36331 435.531143 370.412206 454.726807 370.412206 474.739443 
C 370.412206 494.752078 378.36331 513.947742 392.51438 528.098813 
C 406.665451 542.249883 425.861115 550.200987 445.87375 550.200987 
z
" clip-path="url(#pa35c949a01)" style="fill: #ff0000; fill-opacity: 0.6; stroke: #ff0000; stroke-opacity: 0.6"/>
    <path d="M 445.87375 546.259511 
C 465.838497 546.259511 484.988228 538.327433 499.105436 524.210225 
C 513.222644 510.093017 521.154723 490.943286 521.154723 470.978539 
C 521.154723 451.013791 513.222644 431.864061 499.105436 417.746853 
C 484.988228 403.629644 465.838497 395.697566 445.87375 395.697566 
C 425.909003 395.697566 406.759272 403.629644 392.642064 417.746853 
C 378.524856 431.864061 370.592777 451.013791 370.592777 470.978539 
C 370.592777 490.943286 378.524856 510.093017 392.642064 524.210225 
C 406.759272 538.327433 425.909003 546.259511 445.87375 546.259511 
z
" clip-path="url(#pa35c949a01)" style="fill: #008000; fill-opacity: 0.6; stroke: #008000; stroke-opacity: 0.6"/>
    <path d="M 445.87375 557.169354 
C 465.817861 557.169354 484.947797 549.245474 499.050413 535.142859 
C 513.153029 521.040243 521.076909 501.910306 521.076909 481.966195 
C 521.076909 462.022084 513.153029 442.892148 499.050413 428.789532 
C 484.947797 414.686916 465.817861 406.763036 445.87375 406.763036 
C 425.929639 406.763036 406.799703 414.686916 392.697087 428.789532 
C 378.594471 442.892148 370.670591 462.022084 370.670591 481.966195 
C 370.670591 501.910306 378.594471 521.040243 392.697087 535.142859 
C 406.799703 549.245474 425.929639 557.169354 445.87375 557.169354 
z
" clip-path="url(#pa35c949a01)" style="fill: #008000; fill-opacity: 0.6; stroke: #008000; stroke-opacity: 0.6"/>
    <path d="M 445.87375 557.418404 
C 465.808474 557.418404 484.929407 549.498254 499.025386 535.402276 
C 513.121364 521.306297 521.041514 502.185364 521.041514 482.25064 
C 521.041514 462.315916 513.121364 443.194983 499.025386 429.099005 
C 484.929407 415.003026 465.808474 407.082876 445.87375 407.082876 
C 425.939026 407.082876 406.818093 415.003026 392.722114 429.099005 
C 378.626136 443.194983 370.705986 462.315916 370.705986 482.25064 
C 370.705986 502.185364 378.626136 521.306297 392.722114 535.402276 
C 406.818093 549.498254 425.939026 557.418404 445.87375 557.418404 
z
" clip-path="url(#pa35c949a01)" style="fill: #008000; fill-opacity: 0.6; stroke: #008000; stroke-opacity: 0.6"/>
    <path d="M 445.87375 543.612821 
C 465.760467 543.612821 484.835353 535.711745 498.897385 521.649712 
C 512.959417 507.58768 520.860494 488.512794 520.860494 468.626077 
C 520.860494 448.73936 512.959417 429.664475 498.897385 415.602442 
C 484.835353 401.54041 465.760467 393.639333 445.87375 393.639333 
C 425.987033 393.639333 406.912147 401.54041 392.850115 415.602442 
C 378.788083 429.664475 370.887006 448.73936 370.887006 468.626077 
C 370.887006 488.512794 378.788083 507.58768 392.850115 521.649712 
C 406.912147 535.711745 425.987033 543.612821 445.87375 543.612821 
z
" clip-path="url(#pa35c949a01)" style="fill: #0000ff; fill-opacity: 0.6; stroke: #0000ff; stroke-opacity: 0.6"/>
    <path d="M 445.87375 559.898197 
C 465.73661 559.898197 484.788612 552.006599 498.833775 537.961436 
C 512.878937 523.916273 520.770535 504.864271 520.770535 485.001411 
C 520.770535 465.138552 512.878937 446.08655 498.833775 432.041387 
C 484.788612 417.996224 465.73661 410.104626 445.87375 410.104626 
C 426.01089 410.104626 406.958888 417.996224 392.913725 432.041387 
C 378.868563 446.08655 370.976965 465.138552 370.976965 485.001411 
C 370.976965 504.864271 378.868563 523.916273 392.913725 537.961436 
C 406.958888 552.006599 426.01089 559.898197 445.87375 559.898197 
z
" clip-path="url(#pa35c949a01)" style="fill: #008000; fill-opacity: 0.6; stroke: #008000; stroke-opacity: 0.6"/>
    <path d="M 445.87375 559.677199 
C 465.637459 559.677199 484.594358 551.824994 498.56941 537.849942 
C 512.544463 523.874889 520.396667 504.91799 520.396667 485.154282 
C 520.396667 465.390573 512.544463 446.433674 498.56941 432.458621 
C 484.594358 418.483569 465.637459 410.631364 445.87375 410.631364 
C 426.110041 410.631364 407.153142 418.483569 393.17809 432.458621 
C 379.203037 446.433674 371.350833 465.390573 371.350833 485.154282 
C 371.350833 504.91799 379.203037 523.874889 393.17809 537.849942 
C 407.153142 551.824994 426.110041 559.677199 445.87375 559.677199 
z
" clip-path="url(#pa35c949a01)" style="fill: #ff0000; fill-opacity: 0.6; stroke: #ff0000; stroke-opacity: 0.6"/>
    <path d="M 445.87375 565.926569 
C 465.553562 565.926569 484.429989 558.107696 498.345717 544.191968 
C 512.261445 530.27624 520.080317 511.399813 520.080317 491.720001 
C 520.080317 472.04019 512.261445 453.163763 498.345717 439.248034 
C 484.429989 425.332306 465.553562 417.513434 445.87375 417.513434 
C 426.193938 417.513434 407.317511 425.332306 393.401783 439.248034 
C 379.486055 453.163763 371.667183 472.04019 371.667183 491.720001 
C 371.667183 511.399813 379.486055 530.27624 393.401783 544.191968 
C 407.317511 558.107696 426.193938 565.926569 445.87375 565.926569 
z
" clip-path="url(#pa35c949a01)" style="fill: #0000ff; fill-opacity: 0.6; stroke: #0000ff; stroke-opacity: 0.6"/>
    <path d="M 445.87375 571.270274 
C 465.394926 571.270274 484.119194 563.514429 497.92275 549.710873 
C 511.726306 535.907316 519.482152 517.183049 519.482152 497.661873 
C 519.482152 478.140696 511.726306 459.416429 497.92275 445.612873 
C 484.119194 431.809316 465.394926 424.053471 445.87375 424.053471 
C 426.352574 424.053471 407.628306 431.809316 393.82475 445.612873 
C 380.021194 459.416429 372.265348 478.140696 372.265348 497.661873 
C 372.265348 517.183049 380.021194 535.907316 393.82475 549.710873 
C 407.628306 563.514429 426.352574 571.270274 445.87375 571.270274 
z
" clip-path="url(#pa35c949a01)" style="fill: #ff0000; fill-opacity: 0.6; stroke: #ff0000; stroke-opacity: 0.6"/>
    <path d="M 445.87375 571.219497 
C 465.392873 571.219497 484.115172 563.464467 497.917276 549.662363 
C 511.71938 535.860258 519.47441 517.13796 519.47441 497.618837 
C 519.47441 478.099714 511.71938 459.377415 497.917276 445.575311 
C 484.115172 431.773206 465.392873 424.018177 445.87375 424.018177 
C 426.354627 424.018177 407.632328 431.773206 393.830224 445.575311 
C 380.02812 459.377415 372.27309 478.099714 372.27309 497.618837 
C 372.27309 517.13796 380.02812 535.860258 393.830224 549.662363 
C 407.632328 563.464467 426.354627 571.219497 445.87375 571.219497 
z
" clip-path="url(#pa35c949a01)" style="fill: #008000; fill-opacity: 0.6; stroke: #008000; stroke-opacity: 0.6"/>
    <path d="M 445.87375 573.012869 
C 465.339981 573.012869 484.011547 565.278853 497.776251 551.514149 
C 511.540956 537.749444 519.274971 519.077879 519.274971 499.611647 
C 519.274971 480.145416 511.540956 461.47385 497.776251 447.709146 
C 484.011547 433.944442 465.339981 426.210426 445.87375 426.210426 
C 426.407519 426.210426 407.735953 433.944442 393.971249 447.709146 
C 380.206544 461.47385 372.472529 480.145416 372.472529 499.611647 
C 372.472529 519.077879 380.206544 537.749444 393.971249 551.514149 
C 407.735953 565.278853 426.407519 573.012869 445.87375 573.012869 
z
" clip-path="url(#pa35c949a01)" style="fill: #0000ff; fill-opacity: 0.6; stroke: #0000ff; stroke-opacity: 0.6"/>
    <path d="M 445.87375 573.039959 
C 465.33904 573.039959 484.009703 565.306317 497.773742 551.542278 
C 511.537781 537.778239 519.271423 519.107576 519.271423 499.642286 
C 519.271423 480.176995 511.537781 461.506332 497.773742 447.742294 
C 484.009703 433.978255 465.33904 426.244613 445.87375 426.244613 
C 426.40846 426.244613 407.737797 433.978255 393.973758 447.742294 
C 380.209719 461.506332 372.476077 480.176995 372.476077 499.642286 
C 372.476077 519.107576 380.209719 537.778239 393.973758 551.542278 
C 407.737797 565.306317 426.40846 573.039959 445.87375 573.039959 
z
" clip-path="url(#pa35c949a01)" style="fill: #0000ff; fill-opacity: 0.6; stroke: #0000ff; stroke-opacity: 0.6"/>
    <path d="M 445.87375 573.143799 
C 465.334612 573.143799 484.001027 565.411917 497.761934 551.65101 
C 511.522841 537.890103 519.254724 519.223687 519.254724 499.762826 
C 519.254724 480.301964 511.522841 461.635549 497.761934 447.874642 
C 484.001027 434.113734 465.334612 426.381852 445.87375 426.381852 
C 426.412888 426.381852 407.746473 434.113734 393.985566 447.874642 
C 380.224659 461.635549 372.492776 480.301964 372.492776 499.762826 
C 372.492776 519.223687 380.224659 537.890103 393.985566 551.65101 
C 407.746473 565.411917 426.412888 573.143799 445.87375 573.143799 
z
" clip-path="url(#pa35c949a01)" style="fill: #0000ff; fill-opacity: 0.6; stroke: #0000ff; stroke-opacity: 0.6"/>
    <path d="M 445.87375 574.544284 
C 465.292156 574.544284 483.917848 566.829269 497.648734 553.098383 
C 511.37962 539.367497 519.094635 520.741805 519.094635 501.323399 
C 519.094635 481.904993 511.37962 463.279301 497.648734 449.548415 
C 483.917848 435.817529 465.292156 428.102514 445.87375 428.102514 
C 426.455344 428.102514 407.829652 435.817529 394.098766 449.548415 
C 380.36788 463.279301 372.652865 481.904993 372.652865 501.323399 
C 372.652865 520.741805 380.36788 539.367497 394.098766 553.098383 
C 407.829652 566.829269 426.455344 574.544284 445.87375 574.544284 
z
" clip-path="url(#pa35c949a01)" style="fill: #0000ff; fill-opacity: 0.6; stroke: #0000ff; stroke-opacity: 0.6"/>
    <path d="M 445.87375 574.634085 
C 465.289543 574.634085 483.91273 566.920108 497.641769 553.191069 
C 511.370808 539.46203 519.084784 520.838844 519.084784 501.42305 
C 519.084784 482.007257 511.370808 463.384071 497.641769 449.655032 
C 483.91273 435.925993 465.289543 428.212016 445.87375 428.212016 
C 426.457957 428.212016 407.83477 435.925993 394.105731 449.655032 
C 380.376692 463.384071 372.662716 482.007257 372.662716 501.42305 
C 372.662716 520.838844 380.376692 539.46203 394.105731 553.191069 
C 407.83477 566.920108 426.457957 574.634085 445.87375 574.634085 
z
" clip-path="url(#pa35c949a01)" style="fill: #0000ff; fill-opacity: 0.6; stroke: #0000ff; stroke-opacity: 0.6"/>
    <path d="M 445.87375 574.930307 
C 465.281054 574.930307 483.896098 567.219704 497.619134 553.496668 
C 511.34217 539.773631 519.052774 521.158587 519.052774 501.751283 
C 519.052774 482.343979 511.34217 463.728936 497.619134 450.005899 
C 483.896098 436.282863 465.281054 428.572259 445.87375 428.572259 
C 426.466446 428.572259 407.851402 436.282863 394.128366 450.005899 
C 380.40533 463.728936 372.694726 482.343979 372.694726 501.751283 
C 372.694726 521.158587 380.40533 539.773631 394.128366 553.496668 
C 407.851402 567.219704 426.466446 574.930307 445.87375 574.930307 
z
" clip-path="url(#pa35c949a01)" style="fill: #008000; fill-opacity: 0.6; stroke: #008000; stroke-opacity: 0.6"/>
    <path d="M 445.87375 575.595154 
C 465.260632 575.595154 483.856087 567.892665 497.564682 554.184069 
C 511.273278 540.475474 518.975768 521.880018 518.975768 502.493137 
C 518.975768 483.106255 511.273278 464.5108 497.564682 450.802204 
C 483.856087 437.093609 465.260632 429.391119 445.87375 429.391119 
C 426.486868 429.391119 407.891413 437.093609 394.182818 450.802204 
C 380.474222 464.5108 372.771732 483.106255 372.771732 502.493137 
C 372.771732 521.880018 380.474222 540.475474 394.182818 554.184069 
C 407.891413 567.892665 426.486868 575.595154 445.87375 575.595154 
z
" clip-path="url(#pa35c949a01)" style="fill: #ff0000; fill-opacity: 0.6; stroke: #ff0000; stroke-opacity: 0.6"/>
    <path d="M 445.87375 575.975834 
C 465.248751 575.975834 483.83281 568.278064 497.533004 554.57787 
C 511.233199 540.877675 518.930968 522.293616 518.930968 502.918615 
C 518.930968 483.543615 511.233199 464.959555 497.533004 451.259361 
C 483.83281 437.559166 465.248751 429.861397 445.87375 429.861397 
C 426.498749 429.861397 407.91469 437.559166 394.214496 451.259361 
C 380.514301 464.959555 372.816532 483.543615 372.816532 502.918615 
C 372.816532 522.293616 380.514301 540.877675 394.214496 554.57787 
C 407.91469 568.278064 426.498749 575.975834 445.87375 575.975834 
z
" clip-path="url(#pa35c949a01)" style="fill: #0000ff; fill-opacity: 0.6; stroke: #0000ff; stroke-opacity: 0.6"/>
    <path d="M 445.87375 576.301412 
C 465.239745 576.301412 483.815165 568.607221 497.508992 554.913395 
C 511.202818 541.219569 518.897009 522.644148 518.897009 503.278153 
C 518.897009 483.912159 511.202818 465.336738 497.508992 451.642912 
C 483.815165 437.949086 465.239745 430.254894 445.87375 430.254894 
C 426.507755 430.254894 407.932335 437.949086 394.238508 451.642912 
C 380.544682 465.336738 372.850491 483.912159 372.850491 503.278153 
C 372.850491 522.644148 380.544682 541.219569 394.238508 554.913395 
C 407.932335 568.607221 426.507755 576.301412 445.87375 576.301412 
z
" clip-path="url(#pa35c949a01)" style="fill: #0000ff; fill-opacity: 0.6; stroke: #0000ff; stroke-opacity: 0.6"/>
   </g>
   <g id="PathCollection_2"/>
   <g id="PathCollection_3"/>
   <g id="PathCollection_4"/>
   <g id="matplotlib.axis_1">
    <g id="xtick_1">
     <g id="line2d_1">
      <path d="M 152.51375 525.277062 
L 152.51375 41.301062 
" clip-path="url(#pa35c949a01)" style="fill: none; stroke: #b0b0b0; stroke-opacity: 0.3; stroke-width: 0.8; stroke-linecap: square"/>
     </g>
     <g id="line2d_2">
      <defs>
       <path id="me9abd4b14f" d="M 0 0 
L 0 3.5 
" style="stroke: #000000; stroke-width: 0.8"/>
      </defs>
      <g>
       <use xlink:href="#me9abd4b14f" x="152.51375" y="525.277062" style="stroke: #000000; stroke-width: 0.8"/>
      </g>
     </g>
     <g id="text_1">
      <!-- 0.96 -->
      <g transform="translate(142.51375 540.270812) scale(0.1 -0.1)">
       <defs>
        <path id="MicrosoftYaHei-30" d="M 284 2325 
Q 284 3606 709 4264 
Q 1134 4922 1941 4922 
Q 3478 4922 3478 2441 
Q 3478 1216 3045 567 
Q 2613 -81 1831 -81 
Q 1094 -81 689 534 
Q 284 1150 284 2325 
z
M 909 2353 
Q 909 425 1888 425 
Q 2850 425 2850 2384 
Q 2850 4413 1906 4413 
Q 909 4413 909 2353 
z
" transform="scale(0.015625)"/>
        <path id="MicrosoftYaHei-2e" d="M 372 322 
Q 372 491 487 606 
Q 603 722 775 722 
Q 950 722 1065 605 
Q 1181 488 1181 322 
Q 1181 159 1065 42 
Q 950 -75 772 -75 
Q 600 -75 486 42 
Q 372 159 372 322 
z
" transform="scale(0.015625)"/>
        <path id="MicrosoftYaHei-39" d="M 578 656 
Q 978 425 1441 425 
Q 2091 425 2448 937 
Q 2806 1450 2806 2394 
Q 2800 2388 2794 2394 
Q 2475 1788 1722 1788 
Q 1113 1788 713 2206 
Q 313 2625 313 3294 
Q 313 4006 750 4464 
Q 1188 4922 1884 4922 
Q 2606 4922 3012 4355 
Q 3419 3788 3419 2703 
Q 3419 1363 2894 641 
Q 2369 -81 1441 -81 
Q 931 -81 578 84 
L 578 656 
z
M 931 3372 
Q 931 2884 1181 2598 
Q 1431 2313 1872 2313 
Q 2253 2313 2512 2573 
Q 2772 2834 2772 3206 
Q 2772 3728 2514 4070 
Q 2256 4413 1834 4413 
Q 1444 4413 1187 4116 
Q 931 3819 931 3372 
z
" transform="scale(0.015625)"/>
        <path id="MicrosoftYaHei-36" d="M 3181 4219 
Q 2803 4413 2391 4413 
Q 1763 4413 1381 3866 
Q 1000 3319 994 2372 
L 1009 2372 
Q 1353 3038 2106 3038 
Q 2734 3038 3109 2628 
Q 3484 2219 3484 1541 
Q 3484 831 3051 375 
Q 2619 -81 1947 -81 
Q 1209 -81 789 495 
Q 369 1072 369 2131 
Q 369 3413 920 4167 
Q 1472 4922 2372 4922 
Q 2888 4922 3181 4781 
L 3181 4219 
z
M 1031 1584 
Q 1031 1106 1286 765 
Q 1541 425 1963 425 
Q 2363 425 2613 719 
Q 2863 1013 2863 1475 
Q 2863 1975 2627 2253 
Q 2391 2531 1956 2531 
Q 1544 2531 1287 2250 
Q 1031 1969 1031 1584 
z
" transform="scale(0.015625)"/>
       </defs>
       <use xlink:href="#MicrosoftYaHei-30"/>
       <use xlink:href="#MicrosoftYaHei-2e" transform="translate(58.642578 0)"/>
       <use xlink:href="#MicrosoftYaHei-39" transform="translate(82.714844 0)"/>
       <use xlink:href="#MicrosoftYaHei-36" transform="translate(141.357422 0)"/>
      </g>
     </g>
    </g>
    <g id="xtick_2">
     <g id="line2d_3">
      <path d="M 299.19375 525.277062 
L 299.19375 41.301062 
" clip-path="url(#pa35c949a01)" style="fill: none; stroke: #b0b0b0; stroke-opacity: 0.3; stroke-width: 0.8; stroke-linecap: square"/>
     </g>
     <g id="line2d_4">
      <g>
       <use xlink:href="#me9abd4b14f" x="299.19375" y="525.277062" style="stroke: #000000; stroke-width: 0.8"/>
      </g>
     </g>
     <g id="text_2">
      <!-- 0.98 -->
      <g transform="translate(289.19375 540.270812) scale(0.1 -0.1)">
       <defs>
        <path id="MicrosoftYaHei-38" d="M 306 1350 
Q 306 1769 556 2122 
Q 806 2475 1200 2625 
Q 884 2803 700 3081 
Q 516 3359 516 3684 
Q 516 4028 692 4312 
Q 869 4597 1183 4759 
Q 1497 4922 1875 4922 
Q 2256 4922 2572 4761 
Q 2888 4600 3063 4315 
Q 3238 4031 3238 3684 
Q 3238 3366 3058 3086 
Q 2878 2806 2559 2625 
Q 2953 2472 3200 2119 
Q 3447 1766 3447 1350 
Q 3447 938 3250 611 
Q 3053 284 2690 103 
Q 2328 -78 1875 -78 
Q 1425 -78 1065 103 
Q 706 284 506 612 
Q 306 941 306 1350 
z
M 906 1378 
Q 906 947 1172 687 
Q 1438 428 1878 428 
Q 2309 428 2582 692 
Q 2856 956 2856 1378 
Q 2856 1778 2579 2051 
Q 2303 2325 1878 2325 
Q 1456 2325 1181 2058 
Q 906 1791 906 1378 
z
M 1081 3634 
Q 1081 3309 1312 3076 
Q 1544 2844 1878 2844 
Q 2206 2844 2445 3078 
Q 2684 3313 2684 3634 
Q 2684 3963 2454 4191 
Q 2225 4419 1878 4419 
Q 1534 4419 1307 4195 
Q 1081 3972 1081 3634 
z
" transform="scale(0.015625)"/>
       </defs>
       <use xlink:href="#MicrosoftYaHei-30"/>
       <use xlink:href="#MicrosoftYaHei-2e" transform="translate(58.642578 0)"/>
       <use xlink:href="#MicrosoftYaHei-39" transform="translate(82.714844 0)"/>
       <use xlink:href="#MicrosoftYaHei-38" transform="translate(141.357422 0)"/>
      </g>
     </g>
    </g>
    <g id="xtick_3">
     <g id="line2d_5">
      <path d="M 445.87375 525.277062 
L 445.87375 41.301062 
" clip-path="url(#pa35c949a01)" style="fill: none; stroke: #b0b0b0; stroke-opacity: 0.3; stroke-width: 0.8; stroke-linecap: square"/>
     </g>
     <g id="line2d_6">
      <g>
       <use xlink:href="#me9abd4b14f" x="445.87375" y="525.277062" style="stroke: #000000; stroke-width: 0.8"/>
      </g>
     </g>
     <g id="text_3">
      <!-- 1.00 -->
      <g transform="translate(435.87375 540.270812) scale(0.1 -0.1)">
       <defs>
        <path id="MicrosoftYaHei-31" d="M 1781 0 
L 1781 4141 
Q 1638 3997 1295 3819 
Q 953 3641 663 3569 
L 663 4169 
Q 1047 4275 1484 4508 
Q 1922 4741 2156 4947 
L 2388 4947 
L 2388 0 
L 1781 0 
z
" transform="scale(0.015625)"/>
       </defs>
       <use xlink:href="#MicrosoftYaHei-31"/>
       <use xlink:href="#MicrosoftYaHei-2e" transform="translate(58.642578 0)"/>
       <use xlink:href="#MicrosoftYaHei-30" transform="translate(82.714844 0)"/>
       <use xlink:href="#MicrosoftYaHei-30" transform="translate(141.357422 0)"/>
      </g>
     </g>
    </g>
    <g id="xtick_4">
     <g id="line2d_7">
      <path d="M 592.55375 525.277062 
L 592.55375 41.301062 
" clip-path="url(#pa35c949a01)" style="fill: none; stroke: #b0b0b0; stroke-opacity: 0.3; stroke-width: 0.8; stroke-linecap: square"/>
     </g>
     <g id="line2d_8">
      <g>
       <use xlink:href="#me9abd4b14f" x="592.55375" y="525.277062" style="stroke: #000000; stroke-width: 0.8"/>
      </g>
     </g>
     <g id="text_4">
      <!-- 1.02 -->
      <g transform="translate(582.55375 540.270812) scale(0.1 -0.1)">
       <defs>
        <path id="MicrosoftYaHei-32" d="M 2666 3572 
Q 2666 3963 2419 4186 
Q 2172 4409 1747 4409 
Q 1447 4409 1140 4256 
Q 834 4103 569 3819 
L 569 4413 
Q 806 4659 1107 4790 
Q 1409 4922 1816 4922 
Q 2472 4922 2872 4570 
Q 3272 4219 3272 3619 
Q 3272 3084 3026 2693 
Q 2781 2303 2188 1894 
Q 1581 1475 1376 1294 
Q 1172 1113 1090 947 
Q 1009 781 1009 544 
L 3416 544 
L 3416 0 
L 372 0 
L 372 241 
Q 372 659 486 951 
Q 600 1244 862 1520 
Q 1125 1797 1681 2184 
Q 2250 2584 2458 2886 
Q 2666 3188 2666 3572 
z
" transform="scale(0.015625)"/>
       </defs>
       <use xlink:href="#MicrosoftYaHei-31"/>
       <use xlink:href="#MicrosoftYaHei-2e" transform="translate(58.642578 0)"/>
       <use xlink:href="#MicrosoftYaHei-30" transform="translate(82.714844 0)"/>
       <use xlink:href="#MicrosoftYaHei-32" transform="translate(141.357422 0)"/>
      </g>
     </g>
    </g>
    <g id="xtick_5">
     <g id="line2d_9">
      <path d="M 739.23375 525.277062 
L 739.23375 41.301062 
" clip-path="url(#pa35c949a01)" style="fill: none; stroke: #b0b0b0; stroke-opacity: 0.3; stroke-width: 0.8; stroke-linecap: square"/>
     </g>
     <g id="line2d_10">
      <g>
       <use xlink:href="#me9abd4b14f" x="739.23375" y="525.277062" style="stroke: #000000; stroke-width: 0.8"/>
      </g>
     </g>
     <g id="text_5">
      <!-- 1.04 -->
      <g transform="translate(729.23375 540.270812) scale(0.1 -0.1)">
       <defs>
        <path id="MicrosoftYaHei-34" d="M 2906 4841 
L 2906 1644 
L 3631 1644 
L 3631 1138 
L 2906 1138 
L 2906 0 
L 2313 0 
L 2313 1138 
L 53 1138 
L 53 1616 
Q 656 2294 1265 3178 
Q 1875 4063 2272 4841 
L 2906 4841 
z
M 741 1644 
L 2313 1644 
L 2313 3950 
Q 1988 3366 1616 2817 
Q 1244 2269 741 1644 
z
" transform="scale(0.015625)"/>
       </defs>
       <use xlink:href="#MicrosoftYaHei-31"/>
       <use xlink:href="#MicrosoftYaHei-2e" transform="translate(58.642578 0)"/>
       <use xlink:href="#MicrosoftYaHei-30" transform="translate(82.714844 0)"/>
       <use xlink:href="#MicrosoftYaHei-34" transform="translate(141.357422 0)"/>
      </g>
     </g>
    </g>
    <g id="text_6">
     <!-- 一致性得分 -->
     <g transform="translate(415.87375 556.34925) scale(0.12 -0.12)">
      <defs>
       <path id="MicrosoftYaHei-4e00" d="M 100 2703 
L 6313 2703 
L 6313 2153 
L 100 2153 
L 100 2703 
z
" transform="scale(0.015625)"/>
       <path id="MicrosoftYaHei-81f4" d="M 3006 3053 
Q 3606 4109 3994 5366 
L 4450 5209 
Q 4269 4694 4066 4216 
L 6213 4216 
L 6213 3772 
L 5638 3772 
Q 5575 1784 4875 725 
Q 5463 47 6344 -353 
Q 6138 -603 5963 -809 
Q 5088 -306 4572 316 
Q 4044 -306 3025 -872 
Q 2925 -716 2713 -453 
Q 3778 94 4284 697 
Q 3663 1581 3509 3078 
Q 3409 2897 3306 2722 
Q 3194 2859 3006 3053 
z
M 188 4978 
L 3138 4978 
L 3138 4534 
L 1706 4534 
Q 1266 3628 938 3097 
Q 1694 3134 2288 3169 
Q 2116 3544 1931 3909 
L 2325 4097 
Q 2763 3278 3119 2478 
Q 2875 2359 2675 2266 
Q 2575 2516 2469 2763 
Q 1550 2691 856 2622 
Q 606 2578 413 2516 
L 181 2947 
Q 406 3072 556 3297 
Q 863 3791 1191 4534 
L 188 4534 
L 188 4978 
z
M 106 47 
Q 738 106 1388 175 
L 1388 1234 
L 244 1234 
L 244 1678 
L 1388 1678 
L 1388 2459 
L 1875 2459 
L 1875 1678 
L 3063 1678 
L 3063 1234 
L 1875 1234 
L 1875 231 
Q 2488 303 3119 384 
Q 3125 253 3150 -59 
Q 1813 -241 231 -434 
L 106 47 
z
M 4575 1109 
Q 5109 2028 5153 3772 
L 3891 3772 
Q 3978 1997 4575 1109 
z
" transform="scale(0.015625)"/>
       <path id="MicrosoftYaHei-6027" d="M 1963 -153 
L 3988 -153 
L 3988 1522 
L 2375 1522 
L 2375 1959 
L 3988 1959 
L 3988 3472 
L 2975 3472 
Q 2744 2878 2438 2291 
Q 2169 2509 2019 2578 
Q 2644 3709 2894 4891 
L 3388 4759 
Q 3281 4328 3138 3909 
L 3988 3909 
L 3988 5284 
L 4481 5284 
L 4481 3909 
L 6125 3909 
L 6125 3472 
L 4481 3472 
L 4481 1959 
L 6000 1959 
L 6000 1522 
L 4481 1522 
L 4481 -153 
L 6319 -153 
L 6319 -591 
L 1963 -591 
L 1963 -153 
z
M 988 5291 
L 1469 5291 
L 1469 4091 
L 1738 4241 
Q 2063 3734 2294 3291 
L 1906 3041 
Q 1688 3503 1469 3859 
L 1469 -872 
L 988 -872 
L 988 5291 
z
M 406 3878 
L 819 3784 
Q 706 3028 506 2178 
Q 338 2241 75 2297 
Q 263 2978 406 3878 
z
" transform="scale(0.015625)"/>
       <path id="MicrosoftYaHei-5f97" d="M 2531 5034 
L 5725 5034 
L 5725 2547 
L 5275 2547 
L 5275 2759 
L 2981 2759 
L 2981 2547 
L 2531 2547 
L 2531 5034 
z
M 1925 1322 
L 4925 1322 
L 4925 1834 
L 2188 1834 
L 2188 2247 
L 6163 2247 
L 6163 1834 
L 5400 1834 
L 5400 1322 
L 6313 1322 
L 6313 909 
L 5400 909 
L 5400 3 
Q 5400 -741 4650 -741 
Q 4313 -741 3719 -734 
Q 3688 -528 3625 -228 
Q 4038 -272 4538 -272 
Q 4925 -272 4925 122 
L 4925 909 
L 1925 909 
L 1925 1322 
z
M 81 1634 
Q 869 2378 1594 3684 
L 2031 3459 
Q 1750 2984 1469 2572 
L 1469 -834 
L 1000 -834 
L 1000 1928 
Q 653 1491 300 1134 
Q 206 1378 81 1634 
z
M 2981 3153 
L 5275 3153 
L 5275 3709 
L 2981 3709 
L 2981 3153 
z
M 5275 4641 
L 2981 4641 
L 2981 4091 
L 5275 4091 
L 5275 4641 
z
M 106 3578 
Q 988 4278 1594 5334 
L 2038 5078 
Q 1269 3928 363 3134 
Q 250 3353 106 3578 
z
M 2525 622 
L 2881 891 
Q 3244 509 3563 122 
L 3175 -159 
Q 2875 228 2525 622 
z
" transform="scale(0.015625)"/>
       <path id="MicrosoftYaHei-5206" d="M 900 2559 
L 5056 2559 
Q 5025 1497 4963 484 
Q 4888 -684 3856 -678 
Q 3350 -684 2788 -647 
Q 2750 -384 2700 -116 
Q 3181 -184 3775 -191 
Q 4400 -203 4463 541 
Q 4513 1216 4538 2097 
L 2616 2097 
Q 2541 1053 2181 416 
Q 1706 -422 588 -878 
Q 425 -666 231 -459 
Q 1269 -72 1725 666 
Q 2053 1225 2103 2097 
L 900 2097 
L 900 2559 
z
M 3488 5159 
L 3938 5353 
Q 4625 3678 6350 2847 
Q 6069 2553 5944 2372 
Q 4225 3366 3488 5159 
z
M 50 2766 
Q 1338 3678 2250 5253 
L 2694 5009 
Q 1744 3347 413 2341 
Q 281 2534 50 2766 
z
" transform="scale(0.015625)"/>
      </defs>
      <use xlink:href="#MicrosoftYaHei-4e00"/>
      <use xlink:href="#MicrosoftYaHei-81f4" transform="translate(100 0)"/>
      <use xlink:href="#MicrosoftYaHei-6027" transform="translate(200 0)"/>
      <use xlink:href="#MicrosoftYaHei-5f97" transform="translate(300 0)"/>
      <use xlink:href="#MicrosoftYaHei-5206" transform="translate(400 0)"/>
     </g>
    </g>
   </g>
   <g id="matplotlib.axis_2">
    <g id="ytick_1">
     <g id="line2d_11">
      <path d="M 42.50375 492.350446 
L 849.24375 492.350446 
" clip-path="url(#pa35c949a01)" style="fill: none; stroke: #b0b0b0; stroke-opacity: 0.3; stroke-width: 0.8; stroke-linecap: square"/>
     </g>
     <g id="line2d_12">
      <defs>
       <path id="mfa6d7da2aa" d="M 0 0 
L -3.5 0 
" style="stroke: #000000; stroke-width: 0.8"/>
      </defs>
      <g>
       <use xlink:href="#mfa6d7da2aa" x="42.50375" y="492.350446" style="stroke: #000000; stroke-width: 0.8"/>
      </g>
     </g>
     <g id="text_7">
      <!-- 30 -->
      <g transform="translate(23.775625 496.347321) scale(0.1 -0.1)">
       <defs>
        <path id="MicrosoftYaHei-33" d="M 447 809 
Q 944 425 1569 425 
Q 2069 425 2361 670 
Q 2653 916 2653 1328 
Q 2653 2247 1338 2247 
L 934 2247 
L 934 2753 
L 1319 2753 
Q 2484 2753 2484 3616 
Q 2484 4413 1594 4413 
Q 1084 4413 634 4069 
L 634 4647 
Q 1109 4922 1744 4922 
Q 2363 4922 2738 4598 
Q 3113 4275 3113 3759 
Q 3113 2809 2144 2538 
L 2144 2525 
Q 2669 2469 2973 2155 
Q 3278 1841 3278 1372 
Q 3278 719 2808 319 
Q 2338 -81 1556 -81 
Q 869 -81 447 175 
L 447 809 
z
" transform="scale(0.015625)"/>
       </defs>
       <use xlink:href="#MicrosoftYaHei-33"/>
       <use xlink:href="#MicrosoftYaHei-30" transform="translate(58.642578 0)"/>
      </g>
     </g>
    </g>
    <g id="ytick_2">
     <g id="line2d_13">
      <path d="M 42.50375 426.230433 
L 849.24375 426.230433 
" clip-path="url(#pa35c949a01)" style="fill: none; stroke: #b0b0b0; stroke-opacity: 0.3; stroke-width: 0.8; stroke-linecap: square"/>
     </g>
     <g id="line2d_14">
      <g>
       <use xlink:href="#mfa6d7da2aa" x="42.50375" y="426.230433" style="stroke: #000000; stroke-width: 0.8"/>
      </g>
     </g>
     <g id="text_8">
      <!-- 40 -->
      <g transform="translate(23.775625 430.227308) scale(0.1 -0.1)">
       <use xlink:href="#MicrosoftYaHei-34"/>
       <use xlink:href="#MicrosoftYaHei-30" transform="translate(58.642578 0)"/>
      </g>
     </g>
    </g>
    <g id="ytick_3">
     <g id="line2d_15">
      <path d="M 42.50375 360.110419 
L 849.24375 360.110419 
" clip-path="url(#pa35c949a01)" style="fill: none; stroke: #b0b0b0; stroke-opacity: 0.3; stroke-width: 0.8; stroke-linecap: square"/>
     </g>
     <g id="line2d_16">
      <g>
       <use xlink:href="#mfa6d7da2aa" x="42.50375" y="360.110419" style="stroke: #000000; stroke-width: 0.8"/>
      </g>
     </g>
     <g id="text_9">
      <!-- 50 -->
      <g transform="translate(23.775625 364.107294) scale(0.1 -0.1)">
       <defs>
        <path id="MicrosoftYaHei-35" d="M 3294 1494 
Q 3294 784 2823 350 
Q 2353 -84 1559 -84 
Q 878 -84 544 119 
L 544 744 
Q 1034 425 1544 425 
Q 2050 425 2361 704 
Q 2672 984 2672 1447 
Q 2672 1909 2348 2167 
Q 2025 2425 1434 2425 
Q 978 2425 613 2384 
L 791 4841 
L 3053 4841 
L 3053 4303 
L 1306 4303 
L 1206 2931 
L 1647 2950 
Q 2416 2950 2855 2567 
Q 3294 2184 3294 1494 
z
" transform="scale(0.015625)"/>
       </defs>
       <use xlink:href="#MicrosoftYaHei-35"/>
       <use xlink:href="#MicrosoftYaHei-30" transform="translate(58.642578 0)"/>
      </g>
     </g>
    </g>
    <g id="ytick_4">
     <g id="line2d_17">
      <path d="M 42.50375 293.990406 
L 849.24375 293.990406 
" clip-path="url(#pa35c949a01)" style="fill: none; stroke: #b0b0b0; stroke-opacity: 0.3; stroke-width: 0.8; stroke-linecap: square"/>
     </g>
     <g id="line2d_18">
      <g>
       <use xlink:href="#mfa6d7da2aa" x="42.50375" y="293.990406" style="stroke: #000000; stroke-width: 0.8"/>
      </g>
     </g>
     <g id="text_10">
      <!-- 60 -->
      <g transform="translate(23.775625 297.987281) scale(0.1 -0.1)">
       <use xlink:href="#MicrosoftYaHei-36"/>
       <use xlink:href="#MicrosoftYaHei-30" transform="translate(58.642578 0)"/>
      </g>
     </g>
    </g>
    <g id="ytick_5">
     <g id="line2d_19">
      <path d="M 42.50375 227.870392 
L 849.24375 227.870392 
" clip-path="url(#pa35c949a01)" style="fill: none; stroke: #b0b0b0; stroke-opacity: 0.3; stroke-width: 0.8; stroke-linecap: square"/>
     </g>
     <g id="line2d_20">
      <g>
       <use xlink:href="#mfa6d7da2aa" x="42.50375" y="227.870392" style="stroke: #000000; stroke-width: 0.8"/>
      </g>
     </g>
     <g id="text_11">
      <!-- 70 -->
      <g transform="translate(23.775625 231.867267) scale(0.1 -0.1)">
       <defs>
        <path id="MicrosoftYaHei-37" d="M 3422 4463 
Q 2659 3131 2223 1998 
Q 1788 866 1684 0 
L 1047 0 
Q 1163 853 1594 1947 
Q 2025 3041 2747 4300 
L 347 4300 
L 347 4841 
L 3422 4841 
L 3422 4463 
z
" transform="scale(0.015625)"/>
       </defs>
       <use xlink:href="#MicrosoftYaHei-37"/>
       <use xlink:href="#MicrosoftYaHei-30" transform="translate(58.642578 0)"/>
      </g>
     </g>
    </g>
    <g id="ytick_6">
     <g id="line2d_21">
      <path d="M 42.50375 161.750379 
L 849.24375 161.750379 
" clip-path="url(#pa35c949a01)" style="fill: none; stroke: #b0b0b0; stroke-opacity: 0.3; stroke-width: 0.8; stroke-linecap: square"/>
     </g>
     <g id="line2d_22">
      <g>
       <use xlink:href="#mfa6d7da2aa" x="42.50375" y="161.750379" style="stroke: #000000; stroke-width: 0.8"/>
      </g>
     </g>
     <g id="text_12">
      <!-- 80 -->
      <g transform="translate(23.775625 165.747254) scale(0.1 -0.1)">
       <use xlink:href="#MicrosoftYaHei-38"/>
       <use xlink:href="#MicrosoftYaHei-30" transform="translate(58.642578 0)"/>
      </g>
     </g>
    </g>
    <g id="ytick_7">
     <g id="line2d_23">
      <path d="M 42.50375 95.630366 
L 849.24375 95.630366 
" clip-path="url(#pa35c949a01)" style="fill: none; stroke: #b0b0b0; stroke-opacity: 0.3; stroke-width: 0.8; stroke-linecap: square"/>
     </g>
     <g id="line2d_24">
      <g>
       <use xlink:href="#mfa6d7da2aa" x="42.50375" y="95.630366" style="stroke: #000000; stroke-width: 0.8"/>
      </g>
     </g>
     <g id="text_13">
      <!-- 90 -->
      <g transform="translate(23.775625 99.627241) scale(0.1 -0.1)">
       <use xlink:href="#MicrosoftYaHei-39"/>
       <use xlink:href="#MicrosoftYaHei-30" transform="translate(58.642578 0)"/>
      </g>
     </g>
    </g>
    <g id="text_14">
     <!-- 可靠性得分 -->
     <g transform="translate(16.7925 313.289062) rotate(-90) scale(0.12 -0.12)">
      <defs>
       <path id="MicrosoftYaHei-53ef" d="M 813 3409 
L 3569 3409 
L 3569 941 
L 1306 941 
L 1306 497 
L 813 497 
L 813 3409 
z
M 119 4809 
L 6294 4809 
L 6294 4334 
L 5256 4334 
L 5256 103 
Q 5256 -741 4438 -747 
Q 3850 -747 3294 -741 
Q 3263 -453 3194 -172 
Q 3900 -222 4269 -222 
Q 4731 -222 4731 278 
L 4731 4334 
L 119 4334 
L 119 4809 
z
M 3075 2966 
L 1306 2966 
L 1306 1384 
L 3075 1384 
L 3075 2966 
z
" transform="scale(0.015625)"/>
       <path id="MicrosoftYaHei-9760" d="M 1050 3272 
L 5350 3272 
L 5350 1947 
L 4900 1947 
L 4900 2078 
L 1500 2078 
L 1500 1947 
L 1050 1947 
L 1050 3272 
z
M 163 4034 
L 2963 4034 
L 2963 4472 
L 1375 4472 
Q 1169 4269 950 4084 
Q 769 4253 575 4359 
Q 1169 4784 1563 5328 
L 2000 5159 
Q 1863 4991 1722 4834 
L 2963 4834 
L 2963 5322 
L 3438 5322 
L 3438 4834 
L 5706 4834 
L 5706 4472 
L 3438 4472 
L 3438 4034 
L 6238 4034 
L 6238 3659 
L 163 3659 
L 163 4034 
z
M 3650 -828 
L 3650 1959 
L 4113 1959 
L 4113 1659 
L 6088 1659 
L 6088 1284 
L 4113 1284 
L 4113 891 
L 5950 891 
L 5950 547 
L 4113 547 
L 4113 141 
L 6275 141 
L 6275 -272 
L 4113 -272 
L 4113 -828 
L 3650 -828 
z
M 2294 -828 
L 2294 -253 
L 150 -253 
L 150 122 
L 2294 122 
L 2294 528 
L 463 528 
L 463 891 
L 2294 891 
L 2294 1284 
L 331 1284 
L 331 1659 
L 2294 1659 
L 2294 1959 
L 2756 1959 
L 2756 -828 
L 2294 -828 
z
M 4900 2909 
L 1500 2909 
L 1500 2441 
L 4900 2441 
L 4900 2909 
z
" transform="scale(0.015625)"/>
      </defs>
      <use xlink:href="#MicrosoftYaHei-53ef"/>
      <use xlink:href="#MicrosoftYaHei-9760" transform="translate(100 0)"/>
      <use xlink:href="#MicrosoftYaHei-6027" transform="translate(200 0)"/>
      <use xlink:href="#MicrosoftYaHei-5f97" transform="translate(300 0)"/>
      <use xlink:href="#MicrosoftYaHei-5206" transform="translate(400 0)"/>
     </g>
    </g>
   </g>
   <g id="patch_3">
    <path d="M 42.50375 525.277062 
L 42.50375 41.301063 
" style="fill: none; stroke: #000000; stroke-width: 0.8; stroke-linejoin: miter; stroke-linecap: square"/>
   </g>
   <g id="patch_4">
    <path d="M 849.24375 525.277062 
L 849.24375 41.301063 
" style="fill: none; stroke: #000000; stroke-width: 0.8; stroke-linejoin: miter; stroke-linecap: square"/>
   </g>
   <g id="patch_5">
    <path d="M 42.50375 525.277062 
L 849.24375 525.277062 
" style="fill: none; stroke: #000000; stroke-width: 0.8; stroke-linejoin: miter; stroke-linecap: square"/>
   </g>
   <g id="patch_6">
    <path d="M 42.50375 41.301062 
L 849.24375 41.301062 
" style="fill: none; stroke: #000000; stroke-width: 0.8; stroke-linejoin: miter; stroke-linecap: square"/>
   </g>
   <g id="text_15">
    <!-- TOP50供应商权重一致性 vs 可靠性分布 -->
    <g transform="translate(320.155937 18.39125) scale(0.14 -0.14)">
     <defs>
      <path id="MicrosoftYaHei-Bold-54" d="M 3900 3997 
L 2519 3997 
L 2519 0 
L 1484 0 
L 1484 3997 
L 106 3997 
L 106 4841 
L 3900 4841 
L 3900 3997 
z
" transform="scale(0.015625)"/>
      <path id="MicrosoftYaHei-Bold-4f" d="M 256 2356 
Q 256 3494 920 4208 
Q 1584 4922 2675 4922 
Q 3713 4922 4345 4231 
Q 4978 3541 4978 2456 
Q 4978 1325 4320 620 
Q 3663 -84 2597 -84 
Q 1556 -84 906 598 
Q 256 1281 256 2356 
z
M 1341 2413 
Q 1341 1706 1681 1257 
Q 2022 809 2616 809 
Q 3222 809 3559 1239 
Q 3897 1669 3897 2394 
Q 3897 3150 3569 3589 
Q 3241 4028 2644 4028 
Q 2038 4028 1689 3578 
Q 1341 3128 1341 2413 
z
" transform="scale(0.015625)"/>
      <path id="MicrosoftYaHei-Bold-50" d="M 1591 1688 
L 1591 0 
L 559 0 
L 559 4841 
L 2225 4841 
Q 4031 4841 4031 3309 
Q 4031 2566 3486 2117 
Q 2941 1669 2122 1688 
L 1591 1688 
z
M 1591 4041 
L 1591 2478 
L 2038 2478 
Q 2947 2478 2947 3269 
Q 2947 4041 2047 4041 
L 1591 4041 
z
" transform="scale(0.015625)"/>
      <path id="MicrosoftYaHei-Bold-35" d="M 541 125 
L 541 997 
Q 1044 691 1613 691 
Q 2041 691 2283 902 
Q 2525 1113 2525 1472 
Q 2525 2225 1494 2225 
Q 1113 2225 616 2169 
L 797 4841 
L 3359 4841 
L 3359 4009 
L 1613 4009 
L 1544 2991 
Q 1803 3013 2022 3013 
Q 2731 3013 3142 2625 
Q 3553 2238 3553 1575 
Q 3553 844 3056 380 
Q 2559 -84 1706 -84 
Q 1016 -84 541 125 
z
" transform="scale(0.015625)"/>
      <path id="MicrosoftYaHei-Bold-30" d="M 244 2341 
Q 244 3597 706 4259 
Q 1169 4922 2044 4922 
Q 3713 4922 3713 2453 
Q 3713 1238 3259 577 
Q 2806 -84 1950 -84 
Q 244 -84 244 2341 
z
M 1266 2366 
Q 1266 691 1981 691 
Q 2684 691 2684 2416 
Q 2684 4147 2000 4147 
Q 1266 4147 1266 2366 
z
" transform="scale(0.015625)"/>
      <path id="MicrosoftYaHei-Bold-4f9b" d="M 1288 5278 
L 2081 5047 
Q 1869 4359 1613 3728 
L 1613 -778 
L 844 -778 
L 844 2141 
Q 613 1734 356 1359 
Q 275 1859 106 2484 
Q 806 3578 1288 5278 
z
M 1888 1991 
L 2769 1991 
L 2769 3328 
L 2088 3328 
L 2088 4128 
L 2769 4128 
L 2769 5253 
L 3619 5253 
L 3619 4128 
L 4588 4128 
L 4588 5253 
L 5438 5253 
L 5438 4128 
L 6131 4128 
L 6131 3328 
L 5438 3328 
L 5438 1991 
L 6306 1991 
L 6306 1191 
L 1888 1191 
L 1888 1991 
z
M 3619 1991 
L 4588 1991 
L 4588 3328 
L 3619 3328 
L 3619 1991 
z
M 1900 -291 
Q 2569 353 3106 1109 
L 3813 641 
Q 3275 -78 2538 -841 
Q 2281 -597 1900 -291 
z
M 4988 1084 
Q 5638 441 6288 -284 
L 5563 -828 
Q 5050 -116 4344 628 
L 4988 1084 
z
" transform="scale(0.015625)"/>
      <path id="MicrosoftYaHei-Bold-5e94" d="M 1438 2491 
Q 1438 119 794 -866 
Q 506 -597 88 -266 
Q 619 622 613 2603 
L 613 4566 
L 3009 4566 
Q 2894 4853 2781 5116 
L 3788 5353 
Q 3928 5016 4103 4566 
L 6225 4566 
L 6225 3797 
L 1438 3797 
L 1438 2491 
z
M 3013 3309 
L 3794 3541 
Q 4125 2678 4513 1316 
L 3669 1084 
Q 3300 2416 3013 3309 
z
M 1325 316 
L 4300 316 
Q 4681 1541 5200 3453 
L 6069 3228 
Q 5744 2006 5184 316 
L 6250 316 
L 6250 -553 
L 1325 -553 
L 1325 316 
z
M 1475 2984 
L 2225 3303 
Q 2775 2103 3244 828 
L 2406 516 
Q 2006 1684 1475 2984 
z
" transform="scale(0.015625)"/>
      <path id="MicrosoftYaHei-Bold-5546" d="M 238 4791 
L 2694 4791 
L 2563 5303 
L 3613 5341 
L 3675 4791 
L 6175 4791 
L 6175 4103 
L 238 4103 
L 238 4791 
z
M 475 3516 
L 1713 3516 
L 1356 3953 
L 2375 3953 
L 2703 3516 
L 3697 3516 
Q 3931 3797 4050 3953 
L 5063 3953 
Q 4863 3728 4666 3516 
L 5956 3516 
L 5956 303 
Q 5956 -131 5786 -389 
Q 5616 -647 5314 -720 
Q 5013 -794 4025 -803 
Q 3938 -303 3863 -22 
Q 4219 -59 4556 -59 
Q 5125 -59 5125 466 
L 5125 1594 
L 4925 1341 
L 4469 1659 
L 4469 109 
L 2713 109 
L 2713 -191 
L 1950 -191 
L 1950 1581 
L 1550 1297 
Q 1541 1313 1300 1625 
L 1300 -797 
L 475 -797 
L 475 3516 
z
M 2494 2816 
L 2944 2322 
Q 2694 2128 2441 1941 
L 4056 1941 
L 3475 2322 
L 3881 2797 
Q 4519 2438 5125 2056 
L 5125 2853 
L 1300 2853 
L 1300 1969 
Q 1956 2413 2494 2816 
z
M 3706 797 
L 3706 1291 
L 2713 1291 
L 2713 797 
L 3706 797 
z
" transform="scale(0.015625)"/>
      <path id="MicrosoftYaHei-Bold-6743" d="M 81 1597 
Q 528 2284 816 3372 
L 138 3372 
L 138 4203 
L 850 4203 
L 850 5322 
L 1663 5322 
L 1663 4203 
L 2319 4203 
L 2319 3372 
L 1663 3372 
L 1663 2616 
L 1856 2791 
Q 2281 2397 2731 1941 
L 2144 1409 
Q 1906 1713 1663 1984 
L 1663 -828 
L 850 -828 
L 850 1425 
Q 634 903 369 491 
Q 231 1053 81 1597 
z
M 3344 4159 
Q 3594 2841 4241 1875 
Q 4913 2875 5113 4228 
L 2363 4228 
L 2363 5028 
L 5994 5028 
L 5994 4241 
Q 5725 2459 4806 1175 
Q 5438 519 6319 84 
Q 6025 -347 5769 -803 
Q 4878 -278 4213 463 
Q 3459 -316 2406 -866 
Q 2163 -403 1894 -41 
Q 2947 438 3663 1169 
Q 2906 2297 2556 3816 
L 3344 4159 
z
" transform="scale(0.015625)"/>
      <path id="MicrosoftYaHei-Bold-91cd" d="M 106 -78 
L 2788 -78 
L 2788 241 
L 513 241 
L 513 766 
L 2788 766 
L 2788 1072 
L 731 1072 
L 731 3272 
L 2788 3272 
L 2788 3578 
L 125 3578 
L 125 4141 
L 2788 4141 
L 2788 4453 
L 663 4416 
Q 613 4691 544 4978 
Q 3200 5009 5731 5122 
Q 5738 5103 5850 4534 
L 3613 4475 
L 3613 4141 
L 6313 4141 
L 6313 3578 
L 3613 3578 
L 3613 3272 
L 5694 3272 
L 5694 1072 
L 3613 1072 
L 3613 766 
L 5925 766 
L 5925 241 
L 3613 241 
L 3613 -78 
L 6313 -78 
L 6313 -641 
L 106 -641 
L 106 -78 
z
M 4888 2753 
L 3613 2753 
L 3613 2397 
L 4888 2397 
L 4888 2753 
z
M 1538 2397 
L 2788 2397 
L 2788 2753 
L 1538 2753 
L 1538 2397 
z
M 4888 1591 
L 4888 1947 
L 3613 1947 
L 3613 1591 
L 4888 1591 
z
M 1538 1591 
L 2788 1591 
L 2788 1947 
L 1538 1947 
L 1538 1591 
z
" transform="scale(0.015625)"/>
      <path id="MicrosoftYaHei-Bold-4e00" d="M 188 2716 
L 6225 2716 
L 6225 1791 
L 188 1791 
L 188 2716 
z
" transform="scale(0.015625)"/>
      <path id="MicrosoftYaHei-Bold-81f4" d="M 238 -709 
L 138 166 
L 1275 281 
L 1275 1016 
L 200 1016 
L 200 1866 
L 1275 1866 
L 1275 2428 
L 2138 2428 
L 2138 1866 
L 3100 1866 
L 3100 1016 
L 2138 1016 
L 2138 378 
L 3294 522 
Q 3272 400 3250 175 
Q 3759 475 4138 872 
Q 3794 1534 3628 2366 
Q 3534 2209 3431 2066 
Q 3375 2128 3172 2384 
L 2806 2209 
L 2594 2619 
Q 1263 2516 388 2416 
L 113 3059 
Q 400 3266 916 4191 
L 188 4191 
L 188 5003 
L 3138 5003 
L 3138 4191 
L 1775 4191 
L 1163 3228 
Q 1619 3244 2228 3294 
L 1950 3778 
L 2575 4109 
Q 2850 3672 3147 3150 
Q 3619 3984 3831 5328 
L 4650 5216 
Q 4566 4772 4456 4366 
L 6294 4366 
L 6294 3534 
L 5934 3534 
Q 5772 1884 5150 831 
Q 5603 369 6319 16 
Q 6056 -341 5775 -816 
Q 5119 -431 4634 138 
Q 4069 -481 3306 -866 
Q 3159 -584 3009 -338 
L 238 -709 
z
M 4631 1563 
Q 4991 2281 5138 3534 
L 4191 3534 
L 4184 3516 
Q 4316 2238 4631 1563 
z
" transform="scale(0.015625)"/>
      <path id="MicrosoftYaHei-Bold-6027" d="M 2250 216 
L 3975 216 
L 3975 1378 
L 2563 1378 
L 2563 2191 
L 3975 2191 
L 3975 3303 
L 3213 3303 
Q 3075 2734 2913 2272 
Q 2538 2491 2175 2684 
Q 2563 3684 2738 4947 
L 3506 4891 
Q 3447 4484 3381 4116 
L 3975 4116 
L 3975 5316 
L 4825 5316 
L 4825 4116 
L 6125 4116 
L 6125 3303 
L 4825 3303 
L 4825 2191 
L 6100 2191 
L 6100 1378 
L 4825 1378 
L 4825 216 
L 6313 216 
L 6313 -597 
L 2250 -597 
L 2250 216 
z
M 1788 5316 
L 1788 4456 
Q 2125 4316 2494 4134 
L 2175 3453 
L 1788 3713 
L 1788 -841 
L 950 -841 
L 950 5316 
L 1788 5316 
z
M 269 4103 
L 800 4041 
Q 719 3009 619 2178 
Q 350 2284 106 2316 
Q 225 3284 269 4103 
z
" transform="scale(0.015625)"/>
      <path id="MicrosoftYaHei-Bold-20" transform="scale(0.015625)"/>
      <path id="MicrosoftYaHei-Bold-76" d="M 3688 3456 
L 2391 0 
L 1250 0 
L 16 3456 
L 1097 3456 
L 1731 1281 
Q 1834 925 1847 684 
L 1863 684 
Q 1888 931 1984 1263 
L 2631 3456 
L 3688 3456 
z
" transform="scale(0.015625)"/>
      <path id="MicrosoftYaHei-Bold-73" d="M 369 928 
Q 888 613 1384 613 
Q 2009 613 2009 947 
Q 2009 1184 1494 1344 
Q 850 1544 609 1789 
Q 369 2034 369 2453 
Q 369 2963 781 3252 
Q 1194 3541 1863 3541 
Q 2338 3541 2778 3400 
L 2778 2606 
Q 2375 2844 1891 2844 
Q 1650 2844 1503 2758 
Q 1356 2672 1356 2531 
Q 1356 2294 1794 2147 
Q 2263 1991 2498 1862 
Q 2734 1734 2857 1525 
Q 2981 1316 2981 1041 
Q 2981 506 2553 211 
Q 2125 -84 1409 -84 
Q 847 -84 369 94 
L 369 928 
z
" transform="scale(0.015625)"/>
      <path id="MicrosoftYaHei-Bold-53ef" d="M 156 4934 
L 6256 4934 
L 6256 4097 
L 5556 4097 
L 5556 241 
Q 5556 -156 5382 -390 
Q 5209 -625 4878 -697 
Q 4547 -769 3300 -778 
Q 3206 -322 3063 184 
Q 3781 147 4088 147 
Q 4606 147 4606 628 
L 4606 4097 
L 156 4097 
L 156 4934 
z
M 825 3466 
L 3750 3466 
L 3750 791 
L 1700 791 
L 1700 428 
L 825 428 
L 825 3466 
z
M 2875 1534 
L 2875 2722 
L 1700 2722 
L 1700 1534 
L 2875 1534 
z
" transform="scale(0.015625)"/>
      <path id="MicrosoftYaHei-Bold-9760" d="M 2800 5359 
L 3638 5359 
L 3638 4909 
L 5800 4909 
L 5800 4378 
L 3638 4378 
L 3638 4072 
L 6250 4072 
L 6250 3534 
L 169 3534 
L 169 4072 
L 884 4072 
Q 713 4178 506 4297 
Q 1006 4753 1281 5353 
L 2138 5297 
Q 2034 5094 1931 4909 
L 2800 4909 
L 2800 5359 
z
M 1372 4072 
L 2800 4072 
L 2800 4378 
L 1600 4378 
Q 1488 4216 1372 4072 
z
M 6088 334 
L 4319 334 
L 4319 53 
L 6294 53 
L 6294 -466 
L 4319 -466 
L 4319 -859 
L 3494 -859 
L 3494 1934 
L 2888 1934 
L 2888 -859 
L 2063 -859 
L 2063 -466 
L 125 -466 
L 125 53 
L 2063 53 
L 2063 334 
L 319 334 
L 319 853 
L 2063 853 
L 2063 1134 
L 231 1134 
L 231 1653 
L 2063 1653 
L 2063 1934 
L 788 1934 
L 788 3266 
L 5594 3266 
L 5594 1934 
L 4319 1934 
L 4319 1653 
L 6200 1653 
L 6200 1134 
L 4319 1134 
L 4319 853 
L 6088 853 
L 6088 334 
z
M 1625 2441 
L 4756 2441 
L 4756 2759 
L 1625 2759 
L 1625 2441 
z
" transform="scale(0.015625)"/>
      <path id="MicrosoftYaHei-Bold-5206" d="M 6350 3028 
Q 6088 2703 5750 2228 
Q 5519 2409 5303 2603 
Q 5219 606 5172 190 
Q 5125 -225 4862 -451 
Q 4600 -678 4128 -678 
Q 3484 -678 2913 -659 
Q 2856 -141 2781 284 
Q 3594 216 3956 216 
Q 4172 216 4230 408 
Q 4288 600 4325 1978 
L 2781 1978 
Q 2728 1100 2529 631 
Q 2331 163 1907 -215 
Q 1484 -594 844 -872 
Q 456 -353 194 -78 
Q 750 144 1111 414 
Q 1472 684 1630 989 
Q 1788 1294 1841 1978 
L 950 1978 
L 950 2475 
Q 794 2356 631 2247 
Q 344 2653 63 2953 
Q 1475 3947 2194 5316 
L 3031 4953 
Q 2378 3722 1391 2841 
L 5047 2841 
Q 4088 3766 3463 4903 
L 4238 5303 
Q 5038 3922 6350 3028 
z
" transform="scale(0.015625)"/>
      <path id="MicrosoftYaHei-Bold-5e03" d="M 3919 -834 
L 3050 -834 
L 3050 2034 
L 2063 2034 
L 2063 -359 
L 1200 -359 
L 1200 1641 
Q 825 1238 400 866 
Q 244 1403 113 1741 
Q 1128 2669 1731 3709 
L 200 3709 
L 200 4541 
L 2141 4541 
Q 2294 4916 2400 5303 
L 3275 5203 
Q 3169 4866 3038 4541 
L 6250 4541 
L 6250 3709 
L 2659 3709 
Q 2406 3222 2094 2766 
L 3050 2766 
L 3050 3566 
L 3919 3566 
L 3919 2766 
L 5800 2766 
L 5800 741 
Q 5800 338 5628 112 
Q 5456 -113 5178 -164 
Q 4900 -216 4306 -216 
Q 4225 291 4156 609 
Q 4456 584 4544 584 
Q 4950 584 4950 1034 
L 4950 2034 
L 3919 2034 
L 3919 -834 
z
" transform="scale(0.015625)"/>
     </defs>
     <use xlink:href="#MicrosoftYaHei-Bold-54"/>
     <use xlink:href="#MicrosoftYaHei-Bold-4f" transform="translate(58.423828 0)"/>
     <use xlink:href="#MicrosoftYaHei-Bold-50" transform="translate(140.259766 0)"/>
     <use xlink:href="#MicrosoftYaHei-Bold-35" transform="translate(205.982422 0)"/>
     <use xlink:href="#MicrosoftYaHei-Bold-30" transform="translate(267.652344 0)"/>
     <use xlink:href="#MicrosoftYaHei-Bold-4f9b" transform="translate(329.322266 0)"/>
     <use xlink:href="#MicrosoftYaHei-Bold-5e94" transform="translate(429.322266 0)"/>
     <use xlink:href="#MicrosoftYaHei-Bold-5546" transform="translate(529.322266 0)"/>
     <use xlink:href="#MicrosoftYaHei-Bold-6743" transform="translate(629.322266 0)"/>
     <use xlink:href="#MicrosoftYaHei-Bold-91cd" transform="translate(729.322266 0)"/>
     <use xlink:href="#MicrosoftYaHei-Bold-4e00" transform="translate(829.322266 0)"/>
     <use xlink:href="#MicrosoftYaHei-Bold-81f4" transform="translate(929.322266 0)"/>
     <use xlink:href="#MicrosoftYaHei-Bold-6027" transform="translate(1029.322266 0)"/>
     <use xlink:href="#MicrosoftYaHei-Bold-20" transform="translate(1129.322266 0)"/>
     <use xlink:href="#MicrosoftYaHei-Bold-76" transform="translate(1159.107422 0)"/>
     <use xlink:href="#MicrosoftYaHei-Bold-73" transform="translate(1216.822266 0)"/>
     <use xlink:href="#MicrosoftYaHei-Bold-20" transform="translate(1266.1875 0)"/>
     <use xlink:href="#MicrosoftYaHei-Bold-53ef" transform="translate(1295.972656 0)"/>
     <use xlink:href="#MicrosoftYaHei-Bold-9760" transform="translate(1395.972656 0)"/>
     <use xlink:href="#MicrosoftYaHei-Bold-6027" transform="translate(1495.972656 0)"/>
     <use xlink:href="#MicrosoftYaHei-Bold-5206" transform="translate(1595.972656 0)"/>
     <use xlink:href="#MicrosoftYaHei-Bold-5e03" transform="translate(1695.972656 0)"/>
    </g>
    <!-- (气泡大小表示最终权重) -->
    <g transform="translate(370.418125 35.301062) scale(0.14 -0.14)">
     <defs>
      <path id="MicrosoftYaHei-Bold-28" d="M 1606 -1100 
Q 525 97 525 1853 
Q 525 3550 1606 4841 
L 2431 4841 
Q 1406 3497 1406 1853 
Q 1406 216 2438 -1100 
L 1606 -1100 
z
" transform="scale(0.015625)"/>
      <path id="MicrosoftYaHei-Bold-6c14" d="M 1281 5316 
L 2238 5316 
Q 2134 5053 2006 4791 
L 5988 4791 
L 5988 4053 
L 1606 4053 
Q 1166 3328 544 2597 
Q 294 3147 81 3522 
Q 919 4459 1281 5316 
z
M 1413 3678 
L 5575 3678 
L 5575 2966 
L 1413 2966 
L 1413 3678 
z
M 738 1841 
L 738 2578 
L 5138 2578 
L 5138 1534 
Q 5138 122 5475 122 
Q 5719 122 5775 1141 
Q 6063 928 6319 822 
Q 6247 -47 6056 -444 
Q 5866 -841 5500 -841 
Q 4891 -841 4595 -292 
Q 4300 256 4300 1453 
L 4300 1841 
L 738 1841 
z
" transform="scale(0.015625)"/>
      <path id="MicrosoftYaHei-Bold-6ce1" d="M 5684 1122 
Q 6003 956 6331 816 
Q 6188 -241 5905 -469 
Q 5622 -697 5150 -697 
L 3106 -697 
Q 2125 -697 2125 341 
L 2125 2803 
L 1988 2634 
Q 1738 2972 1456 3272 
Q 2213 4184 2600 5347 
L 3413 5178 
Q 3341 4963 3256 4753 
L 5913 4753 
L 5888 2178 
Q 5891 1466 5684 1122 
z
M 2581 3441 
L 4531 3441 
L 4531 1506 
Q 4847 1497 4931 1558 
Q 5016 1619 5042 1736 
Q 5069 1853 5075 2534 
L 5088 4022 
L 2919 4022 
Q 2763 3725 2581 3441 
z
M 3738 1891 
L 3738 2766 
L 2919 2766 
L 2919 1891 
L 3738 1891 
z
M 3281 59 
L 4838 59 
Q 5066 59 5202 111 
Q 5338 163 5394 297 
Q 5450 431 5522 931 
Q 5322 766 4956 750 
Q 4591 734 4075 734 
Q 4031 975 3969 1216 
L 2919 1216 
L 2919 441 
Q 2919 59 3281 59 
z
M 838 5234 
Q 1325 4903 1906 4434 
L 1356 3809 
Q 769 4341 313 4672 
L 838 5234 
z
M 606 3572 
Q 1150 3197 1681 2734 
L 1119 2103 
Q 669 2553 88 3003 
L 606 3572 
z
M 994 1903 
Q 1369 1716 1813 1578 
Q 1406 397 1069 -803 
Q 600 -628 219 -509 
Q 619 572 994 1903 
z
" transform="scale(0.015625)"/>
      <path id="MicrosoftYaHei-Bold-5927" d="M 213 3728 
L 2681 3728 
Q 2725 4409 2719 5303 
L 3669 5303 
Q 3650 4375 3619 3728 
L 6200 3728 
L 6200 2866 
L 3691 2866 
Q 4228 778 6288 59 
Q 5844 -447 5575 -803 
Q 3872 -3 3203 1775 
Q 2684 147 806 -847 
Q 556 -528 100 -47 
Q 2375 984 2591 2866 
L 213 2866 
L 213 3728 
z
" transform="scale(0.015625)"/>
      <path id="MicrosoftYaHei-Bold-5c0f" d="M 2788 5272 
L 3763 5272 
L 3763 541 
Q 3763 -75 3570 -367 
Q 3378 -659 3076 -712 
Q 2775 -766 1700 -766 
Q 1606 -234 1469 222 
Q 1969 166 2344 166 
Q 2788 166 2788 684 
L 2788 5272 
z
M 5206 3922 
Q 5800 2553 6356 1041 
L 5369 659 
Q 4856 2278 4325 3628 
L 5206 3922 
z
M 1069 3916 
L 2006 3691 
Q 1550 2016 1038 622 
L 113 972 
Q 663 2397 1069 3916 
z
" transform="scale(0.015625)"/>
      <path id="MicrosoftYaHei-Bold-8868" d="M 5925 1259 
L 4825 684 
Q 5459 291 6313 109 
Q 5994 -291 5744 -666 
Q 4638 -309 3894 344 
Q 3878 -91 3888 -328 
Q 2419 -678 1856 -884 
L 1500 -172 
Q 1675 3 1675 403 
L 1675 522 
Q 1078 94 363 -278 
Q 219 203 69 591 
Q 1206 1109 2044 1891 
L 150 1891 
L 150 2591 
L 2750 2591 
L 2750 3003 
L 625 3003 
L 625 3703 
L 2750 3703 
L 2750 4116 
L 363 4116 
L 363 4816 
L 2750 4816 
L 2750 5353 
L 3631 5353 
L 3631 4816 
L 6044 4816 
L 6044 4116 
L 3631 4116 
L 3631 3703 
L 5750 3703 
L 5750 3003 
L 3631 3003 
L 3631 2591 
L 6244 2591 
L 6244 1891 
L 5453 1891 
L 5925 1259 
z
M 4209 1169 
Q 4600 1391 5284 1891 
L 3647 1891 
Q 3888 1488 4209 1169 
z
M 2916 1619 
Q 2722 1406 2506 1203 
L 2506 166 
L 3713 513 
Q 3225 994 2916 1619 
z
" transform="scale(0.015625)"/>
      <path id="MicrosoftYaHei-Bold-793a" d="M 769 4966 
L 5669 4966 
L 5669 4078 
L 769 4078 
L 769 4966 
z
M 206 3259 
L 6206 3259 
L 6206 2372 
L 3794 2372 
L 3794 303 
Q 3794 -216 3612 -430 
Q 3431 -644 3173 -711 
Q 2916 -778 1850 -778 
Q 1744 -241 1638 159 
Q 2116 109 2431 109 
Q 2850 109 2850 447 
L 2850 2372 
L 206 2372 
L 206 3259 
z
M 1438 2103 
L 2244 1678 
Q 1488 459 825 -353 
Q 513 -97 88 197 
Q 850 1097 1438 2103 
z
M 4869 2072 
Q 5606 1178 6319 203 
Q 5981 -16 5506 -341 
Q 4944 578 4175 1609 
L 4869 2072 
z
" transform="scale(0.015625)"/>
      <path id="MicrosoftYaHei-Bold-6700" d="M 838 5109 
L 5563 5109 
L 5563 3134 
L 838 3134 
L 838 5109 
z
M 4700 4609 
L 1700 4609 
L 1700 4341 
L 4700 4341 
L 4700 4609 
z
M 4700 3634 
L 4700 3903 
L 1700 3903 
L 1700 3634 
L 4700 3634 
z
M 6038 1909 
L 6038 1328 
Q 5772 741 5366 294 
Q 5794 100 6313 -3 
Q 6156 -266 5938 -766 
Q 5284 -584 4747 -244 
Q 4256 -588 3631 -797 
Q 3534 -644 3363 -341 
Q 3259 -353 3163 -359 
L 3163 -866 
L 2400 -866 
L 2400 -428 
L 250 -641 
L 144 59 
L 613 84 
L 613 2241 
L 94 2241 
L 94 2853 
L 6306 2853 
L 6306 2241 
L 3163 2241 
L 3163 291 
L 3513 328 
Q 3488 169 3472 6 
Q 3819 109 4106 256 
Q 3741 609 3450 1066 
L 3813 1309 
L 3338 1309 
L 3338 1909 
L 6038 1909 
z
M 1375 1891 
L 2400 1891 
L 2400 2241 
L 1375 2241 
L 1375 1891 
z
M 1375 1066 
L 2400 1066 
L 2400 1416 
L 1375 1416 
L 1375 1066 
z
M 4722 672 
Q 5031 950 5238 1309 
L 4088 1309 
Q 4359 944 4722 672 
z
M 2400 219 
L 2400 591 
L 1375 591 
L 1375 138 
L 2400 219 
z
" transform="scale(0.015625)"/>
      <path id="MicrosoftYaHei-Bold-7ec8" d="M 5956 4759 
L 5956 4091 
Q 5569 3341 4919 2741 
Q 5544 2453 6369 2297 
Q 6213 1928 6050 1497 
Q 4963 1797 4250 2241 
Q 3506 1778 2519 1478 
Q 2350 1866 2138 2222 
Q 2981 2434 3613 2747 
Q 3338 3022 3106 3347 
Q 2888 3053 2656 2784 
Q 2406 3053 2119 3316 
Q 2963 4266 3381 5353 
L 4175 5209 
Q 4069 4978 3963 4759 
L 5956 4759 
z
M 913 3403 
Q 1075 3409 1344 3422 
Q 1525 3784 1731 4222 
L 2438 3928 
Q 1869 2859 1238 1772 
Q 1681 1828 2181 1897 
Q 2125 1572 2106 1147 
Q 1131 1084 425 922 
L 213 1628 
Q 525 1934 969 2716 
Q 625 2691 300 2659 
L 88 3347 
Q 413 3728 1019 5341 
L 1788 5109 
Q 1319 4128 913 3403 
z
M 2669 578 
Q 4344 291 5781 3 
L 5588 -809 
Q 4000 -472 2463 -184 
L 2669 578 
z
M 100 347 
Q 1319 528 2275 691 
Q 2244 166 2250 -172 
Q 1063 -366 225 -528 
L 100 347 
z
M 3288 1703 
Q 4719 1453 5481 1303 
L 5300 578 
Q 4231 809 3094 1022 
L 3288 1703 
z
M 3525 3966 
Q 3800 3484 4250 3134 
Q 4788 3541 5075 4047 
L 3569 4047 
Q 3550 4003 3525 3966 
z
" transform="scale(0.015625)"/>
      <path id="MicrosoftYaHei-Bold-29" d="M 59 -1100 
Q 1097 216 1097 1853 
Q 1097 3484 59 4841 
L 888 4841 
Q 1978 3544 1978 1853 
Q 1978 113 881 -1100 
L 59 -1100 
z
" transform="scale(0.015625)"/>
     </defs>
     <use xlink:href="#MicrosoftYaHei-Bold-28"/>
     <use xlink:href="#MicrosoftYaHei-Bold-6c14" transform="translate(38.964844 0)"/>
     <use xlink:href="#MicrosoftYaHei-Bold-6ce1" transform="translate(138.964844 0)"/>
     <use xlink:href="#MicrosoftYaHei-Bold-5927" transform="translate(238.964844 0)"/>
     <use xlink:href="#MicrosoftYaHei-Bold-5c0f" transform="translate(338.964844 0)"/>
     <use xlink:href="#MicrosoftYaHei-Bold-8868" transform="translate(438.964844 0)"/>
     <use xlink:href="#MicrosoftYaHei-Bold-793a" transform="translate(538.964844 0)"/>
     <use xlink:href="#MicrosoftYaHei-Bold-6700" transform="translate(638.964844 0)"/>
     <use xlink:href="#MicrosoftYaHei-Bold-7ec8" transform="translate(738.964844 0)"/>
     <use xlink:href="#MicrosoftYaHei-Bold-6743" transform="translate(838.964844 0)"/>
     <use xlink:href="#MicrosoftYaHei-Bold-91cd" transform="translate(938.964844 0)"/>
     <use xlink:href="#MicrosoftYaHei-Bold-29" transform="translate(1038.964844 0)"/>
    </g>
   </g>
   <g id="legend_1">
    <g id="patch_7">
     <path d="M 773.207812 95.740125 
L 842.24375 95.740125 
Q 844.24375 95.740125 844.24375 93.740125 
L 844.24375 48.301062 
Q 844.24375 46.301062 842.24375 46.301062 
L 773.207812 46.301062 
Q 771.207812 46.301062 771.207812 48.301062 
L 771.207812 93.740125 
Q 771.207812 95.740125 773.207812 95.740125 
z
" style="fill: #ffffff; opacity: 0.8; stroke: #cccccc; stroke-linejoin: miter"/>
    </g>
    <g id="PathCollection_5">
     <defs>
      <path id="m04172f3bad" d="M 0 3 
C 0.795609 3 1.55874 2.683901 2.12132 2.12132 
C 2.683901 1.55874 3 0.795609 3 0 
C 3 -0.795609 2.683901 -1.55874 2.12132 -2.12132 
C 1.55874 -2.683901 0.795609 -3 0 -3 
C -0.795609 -3 -1.55874 -2.683901 -2.12132 -2.12132 
C -2.683901 -1.55874 -3 -0.795609 -3 0 
C -3 0.795609 -2.683901 1.55874 -2.12132 2.12132 
C -1.55874 2.683901 -0.795609 3 0 3 
z
" style="stroke: #ff0000; stroke-opacity: 0.6"/>
     </defs>
     <g>
      <use xlink:href="#m04172f3bad" x="785.207812" y="55.669812" style="fill: #ff0000; fill-opacity: 0.6; stroke: #ff0000; stroke-opacity: 0.6"/>
     </g>
    </g>
    <g id="text_16">
     <!-- A类材料 -->
     <g transform="translate(803.207812 58.294812) scale(0.1 -0.1)">
      <defs>
       <path id="MicrosoftYaHei-41" d="M 4428 0 
L 3738 0 
L 3244 1325 
L 1228 1325 
L 763 0 
L 72 0 
L 1916 4841 
L 2584 4841 
L 4428 0 
z
M 3050 1872 
L 2319 3884 
Q 2284 3981 2244 4222 
L 2228 4222 
Q 2194 4003 2150 3884 
L 1425 1872 
L 3050 1872 
z
" transform="scale(0.015625)"/>
       <path id="MicrosoftYaHei-7c7b" d="M 6338 -359 
Q 6213 -503 6006 -853 
Q 3975 -459 3200 884 
Q 2644 -497 400 -897 
Q 288 -684 131 -434 
Q 2244 -147 2744 1047 
L 275 1047 
L 275 1484 
L 2875 1484 
Q 2925 1691 2956 1978 
L 3456 1978 
Q 3413 1697 3369 1484 
L 6125 1484 
L 6125 1047 
L 3619 1047 
Q 4450 -159 6338 -359 
z
M 325 3741 
L 2975 3741 
L 2975 5303 
L 3450 5303 
L 3450 3741 
L 6075 3741 
L 6075 3322 
L 3450 3322 
L 3450 2953 
L 3625 3191 
Q 5325 2528 6231 2128 
L 6013 1722 
Q 4956 2266 3450 2847 
L 3450 2197 
L 2975 2197 
L 2975 3241 
Q 1863 2191 450 1741 
Q 319 1934 144 2153 
Q 1569 2553 2538 3322 
L 325 3322 
L 325 3741 
z
M 5550 4784 
Q 5163 4459 4394 3891 
L 4069 4222 
Q 4569 4578 5194 5122 
L 5550 4784 
z
M 900 4791 
L 1206 5122 
Q 1875 4647 2306 4266 
L 1969 3897 
Q 1581 4284 900 4791 
z
" transform="scale(0.015625)"/>
       <path id="MicrosoftYaHei-6750" d="M 2863 3997 
L 4925 3997 
L 4925 5278 
L 5419 5278 
L 5419 3997 
L 6306 3997 
L 6306 3541 
L 5419 3541 
L 5419 166 
Q 5419 -716 4600 -716 
Q 4244 -716 3625 -709 
Q 3594 -478 3525 -159 
Q 4144 -203 4450 -203 
Q 4925 -203 4925 191 
L 4925 3003 
Q 4138 1297 2588 59 
Q 2438 241 2219 478 
Q 3856 1716 4681 3541 
L 2863 3541 
L 2863 3997 
z
M 88 1309 
Q 819 2341 1138 3572 
L 188 3572 
L 188 4016 
L 1219 4016 
L 1219 5278 
L 1700 5278 
L 1700 4016 
L 2606 4016 
L 2606 3572 
L 1700 3572 
L 1700 2728 
L 1956 2959 
Q 2481 2472 2938 2003 
L 2563 1659 
Q 2144 2153 1700 2597 
L 1700 -834 
L 1219 -834 
L 1219 2578 
Q 838 1484 331 759 
Q 219 1028 88 1309 
z
" transform="scale(0.015625)"/>
       <path id="MicrosoftYaHei-6599" d="M 88 541 
Q 756 1397 1113 2472 
L 150 2472 
L 150 2897 
L 1194 2897 
L 1194 5297 
L 1656 5297 
L 1656 2897 
L 2675 2897 
L 2675 2472 
L 1656 2472 
L 1656 1853 
L 1938 2078 
Q 2363 1628 2706 1216 
L 2350 928 
Q 2025 1372 1656 1778 
L 1656 -828 
L 1194 -828 
L 1194 1691 
Q 800 641 281 41 
Q 200 297 88 541 
z
M 2850 1353 
L 4850 1597 
L 4850 5297 
L 5331 5297 
L 5331 1653 
L 6281 1772 
L 6319 1322 
L 5331 1197 
L 5331 -828 
L 4850 -828 
L 4850 1141 
L 2913 903 
L 2850 1353 
z
M 2981 2778 
L 3250 3109 
Q 3844 2716 4356 2309 
L 4050 1934 
Q 3569 2347 2981 2778 
z
M 1806 3347 
Q 2094 4053 2288 4653 
L 2731 4516 
Q 2500 3897 2194 3184 
L 1806 3347 
z
M 3119 4366 
L 3406 4697 
Q 3944 4309 4463 3859 
L 4150 3491 
Q 3744 3884 3119 4366 
z
M 144 4516 
L 519 4666 
Q 750 4128 1025 3416 
L 594 3222 
Q 313 4066 144 4516 
z
" transform="scale(0.015625)"/>
      </defs>
      <use xlink:href="#MicrosoftYaHei-41"/>
      <use xlink:href="#MicrosoftYaHei-7c7b" transform="translate(70.361328 0)"/>
      <use xlink:href="#MicrosoftYaHei-6750" transform="translate(170.361328 0)"/>
      <use xlink:href="#MicrosoftYaHei-6599" transform="translate(270.361328 0)"/>
     </g>
    </g>
    <g id="PathCollection_6">
     <defs>
      <path id="m2714f5e213" d="M 0 3 
C 0.795609 3 1.55874 2.683901 2.12132 2.12132 
C 2.683901 1.55874 3 0.795609 3 0 
C 3 -0.795609 2.683901 -1.55874 2.12132 -2.12132 
C 1.55874 -2.683901 0.795609 -3 0 -3 
C -0.795609 -3 -1.55874 -2.683901 -2.12132 -2.12132 
C -2.683901 -1.55874 -3 -0.795609 -3 0 
C -3 0.795609 -2.683901 1.55874 -2.12132 2.12132 
C -1.55874 2.683901 -0.795609 3 0 3 
z
" style="stroke: #0000ff; stroke-opacity: 0.6"/>
     </defs>
     <g>
      <use xlink:href="#m2714f5e213" x="785.207812" y="71.1495" style="fill: #0000ff; fill-opacity: 0.6; stroke: #0000ff; stroke-opacity: 0.6"/>
     </g>
    </g>
    <g id="text_17">
     <!-- B类材料 -->
     <g transform="translate(803.207812 73.7745) scale(0.1 -0.1)">
      <defs>
       <path id="MicrosoftYaHei-42" d="M 625 0 
L 625 4841 
L 2047 4841 
Q 2684 4841 3065 4536 
Q 3447 4231 3447 3728 
Q 3447 3328 3220 3022 
Q 2994 2716 2597 2588 
L 2597 2575 
Q 3091 2519 3386 2201 
Q 3681 1884 3681 1397 
Q 3681 772 3232 386 
Q 2784 0 2084 0 
L 625 0 
z
M 1250 4294 
L 1250 2778 
L 1819 2778 
Q 2272 2778 2530 2998 
Q 2788 3219 2788 3609 
Q 2788 4294 1875 4294 
L 1250 4294 
z
M 1250 2234 
L 1250 547 
L 2000 547 
Q 2491 547 2758 773 
Q 3025 1000 3025 1403 
Q 3025 2234 1897 2234 
L 1250 2234 
z
" transform="scale(0.015625)"/>
      </defs>
      <use xlink:href="#MicrosoftYaHei-42"/>
      <use xlink:href="#MicrosoftYaHei-7c7b" transform="translate(62.744141 0)"/>
      <use xlink:href="#MicrosoftYaHei-6750" transform="translate(162.744141 0)"/>
      <use xlink:href="#MicrosoftYaHei-6599" transform="translate(262.744141 0)"/>
     </g>
    </g>
    <g id="PathCollection_7">
     <defs>
      <path id="m57255c43cd" d="M 0 3 
C 0.795609 3 1.55874 2.683901 2.12132 2.12132 
C 2.683901 1.55874 3 0.795609 3 0 
C 3 -0.795609 2.683901 -1.55874 2.12132 -2.12132 
C 1.55874 -2.683901 0.795609 -3 0 -3 
C -0.795609 -3 -1.55874 -2.683901 -2.12132 -2.12132 
C -2.683901 -1.55874 -3 -0.795609 -3 0 
C -3 0.795609 -2.683901 1.55874 -2.12132 2.12132 
C -1.55874 2.683901 -0.795609 3 0 3 
z
" style="stroke: #008000; stroke-opacity: 0.6"/>
     </defs>
     <g>
      <use xlink:href="#m57255c43cd" x="785.207812" y="86.629188" style="fill: #008000; fill-opacity: 0.6; stroke: #008000; stroke-opacity: 0.6"/>
     </g>
    </g>
    <g id="text_18">
     <!-- C类材料 -->
     <g transform="translate(803.207812 89.254188) scale(0.1 -0.1)">
      <defs>
       <path id="MicrosoftYaHei-43" d="M 3938 200 
Q 3403 -81 2597 -81 
Q 1556 -81 934 580 
Q 313 1241 313 2328 
Q 313 3497 1013 4209 
Q 1713 4922 2791 4922 
Q 3484 4922 3938 4725 
L 3938 4072 
Q 3419 4359 2797 4359 
Q 1988 4359 1478 3820 
Q 969 3281 969 2366 
Q 969 1497 1444 986 
Q 1919 475 2688 475 
Q 3406 475 3938 800 
L 3938 200 
z
" transform="scale(0.015625)"/>
      </defs>
      <use xlink:href="#MicrosoftYaHei-43"/>
      <use xlink:href="#MicrosoftYaHei-7c7b" transform="translate(66.894531 0)"/>
      <use xlink:href="#MicrosoftYaHei-6750" transform="translate(166.894531 0)"/>
      <use xlink:href="#MicrosoftYaHei-6599" transform="translate(266.894531 0)"/>
     </g>
    </g>
   </g>
  </g>
 </g>
 <defs>
  <clipPath id="pa35c949a01">
   <rect x="42.50375" y="41.301062" width="806.74" height="483.976"/>
  </clipPath>
 </defs>
</svg>
