<?xml version="1.0" encoding="utf-8" standalone="no"?>
<!DOCTYPE svg PUBLIC "-//W3C//DTD SVG 1.1//EN"
  "http://www.w3.org/Graphics/SVG/1.1/DTD/svg11.dtd">
<svg xmlns:xlink="http://www.w3.org/1999/xlink" width="856.525625pt" height="566.532375pt" viewBox="0 0 856.525625 566.532375" xmlns="http://www.w3.org/2000/svg" version="1.1">
 <metadata>
  <rdf:RDF xmlns:dc="http://purl.org/dc/elements/1.1/" xmlns:cc="http://creativecommons.org/ns#" xmlns:rdf="http://www.w3.org/1999/02/22-rdf-syntax-ns#">
   <cc:Work>
    <dc:type rdf:resource="http://purl.org/dc/dcmitype/StillImage"/>
    <dc:date>2025-08-02T20:05:33.007562</dc:date>
    <dc:format>image/svg+xml</dc:format>
    <dc:creator>
     <cc:Agent>
      <dc:title>Matplotlib v3.10.5, https://matplotlib.org/</dc:title>
     </cc:Agent>
    </dc:creator>
   </cc:Work>
  </rdf:RDF>
 </metadata>
 <defs>
  <style type="text/css">*{stroke-linejoin: round; stroke-linecap: butt}</style>
 </defs>
 <g id="figure_1">
  <g id="patch_1">
   <path d="M -0 566.532375 
L 856.525625 566.532375 
L 856.525625 0 
L -0 0 
z
" style="fill: #ffffff"/>
  </g>
  <g id="axes_1">
   <g id="patch_2">
    <path d="M 50.775625 525.277062 
L 849.325625 525.277062 
L 849.325625 41.301062 
L 50.775625 41.301062 
z
" style="fill: #ffffff"/>
   </g>
   <g id="matplotlib.axis_1">
    <g id="xtick_1">
     <g id="line2d_1">
      <path d="M 87.073352 525.277062 
L 87.073352 41.301062 
" clip-path="url(#pec63fe89cb)" style="fill: none; stroke: #b0b0b0; stroke-opacity: 0.3; stroke-width: 0.8; stroke-linecap: square"/>
     </g>
     <g id="line2d_2">
      <defs>
       <path id="mf1de5db594" d="M 0 0 
L 0 3.5 
" style="stroke: #000000; stroke-width: 0.8"/>
      </defs>
      <g>
       <use xlink:href="#mf1de5db594" x="87.073352" y="525.277062" style="stroke: #000000; stroke-width: 0.8"/>
      </g>
     </g>
     <g id="text_1">
      <!-- 1.0 -->
      <g transform="translate(80.005384 540.270812) scale(0.1 -0.1)">
       <defs>
        <path id="MicrosoftYaHei-31" d="M 1781 0 
L 1781 4141 
Q 1638 3997 1295 3819 
Q 953 3641 663 3569 
L 663 4169 
Q 1047 4275 1484 4508 
Q 1922 4741 2156 4947 
L 2388 4947 
L 2388 0 
L 1781 0 
z
" transform="scale(0.015625)"/>
        <path id="MicrosoftYaHei-2e" d="M 372 322 
Q 372 491 487 606 
Q 603 722 775 722 
Q 950 722 1065 605 
Q 1181 488 1181 322 
Q 1181 159 1065 42 
Q 950 -75 772 -75 
Q 600 -75 486 42 
Q 372 159 372 322 
z
" transform="scale(0.015625)"/>
        <path id="MicrosoftYaHei-30" d="M 284 2325 
Q 284 3606 709 4264 
Q 1134 4922 1941 4922 
Q 3478 4922 3478 2441 
Q 3478 1216 3045 567 
Q 2613 -81 1831 -81 
Q 1094 -81 689 534 
Q 284 1150 284 2325 
z
M 909 2353 
Q 909 425 1888 425 
Q 2850 425 2850 2384 
Q 2850 4413 1906 4413 
Q 909 4413 909 2353 
z
" transform="scale(0.015625)"/>
       </defs>
       <use xlink:href="#MicrosoftYaHei-31"/>
       <use xlink:href="#MicrosoftYaHei-2e" transform="translate(58.642578 0)"/>
       <use xlink:href="#MicrosoftYaHei-30" transform="translate(82.714844 0)"/>
      </g>
     </g>
    </g>
    <g id="xtick_2">
     <g id="line2d_3">
      <path d="M 177.81767 525.277062 
L 177.81767 41.301062 
" clip-path="url(#pec63fe89cb)" style="fill: none; stroke: #b0b0b0; stroke-opacity: 0.3; stroke-width: 0.8; stroke-linecap: square"/>
     </g>
     <g id="line2d_4">
      <g>
       <use xlink:href="#mf1de5db594" x="177.81767" y="525.277062" style="stroke: #000000; stroke-width: 0.8"/>
      </g>
     </g>
     <g id="text_2">
      <!-- 1.5 -->
      <g transform="translate(170.749702 540.270812) scale(0.1 -0.1)">
       <defs>
        <path id="MicrosoftYaHei-35" d="M 3294 1494 
Q 3294 784 2823 350 
Q 2353 -84 1559 -84 
Q 878 -84 544 119 
L 544 744 
Q 1034 425 1544 425 
Q 2050 425 2361 704 
Q 2672 984 2672 1447 
Q 2672 1909 2348 2167 
Q 2025 2425 1434 2425 
Q 978 2425 613 2384 
L 791 4841 
L 3053 4841 
L 3053 4303 
L 1306 4303 
L 1206 2931 
L 1647 2950 
Q 2416 2950 2855 2567 
Q 3294 2184 3294 1494 
z
" transform="scale(0.015625)"/>
       </defs>
       <use xlink:href="#MicrosoftYaHei-31"/>
       <use xlink:href="#MicrosoftYaHei-2e" transform="translate(58.642578 0)"/>
       <use xlink:href="#MicrosoftYaHei-35" transform="translate(82.714844 0)"/>
      </g>
     </g>
    </g>
    <g id="xtick_3">
     <g id="line2d_5">
      <path d="M 268.561989 525.277062 
L 268.561989 41.301062 
" clip-path="url(#pec63fe89cb)" style="fill: none; stroke: #b0b0b0; stroke-opacity: 0.3; stroke-width: 0.8; stroke-linecap: square"/>
     </g>
     <g id="line2d_6">
      <g>
       <use xlink:href="#mf1de5db594" x="268.561989" y="525.277062" style="stroke: #000000; stroke-width: 0.8"/>
      </g>
     </g>
     <g id="text_3">
      <!-- 2.0 -->
      <g transform="translate(261.49402 540.270812) scale(0.1 -0.1)">
       <defs>
        <path id="MicrosoftYaHei-32" d="M 2666 3572 
Q 2666 3963 2419 4186 
Q 2172 4409 1747 4409 
Q 1447 4409 1140 4256 
Q 834 4103 569 3819 
L 569 4413 
Q 806 4659 1107 4790 
Q 1409 4922 1816 4922 
Q 2472 4922 2872 4570 
Q 3272 4219 3272 3619 
Q 3272 3084 3026 2693 
Q 2781 2303 2188 1894 
Q 1581 1475 1376 1294 
Q 1172 1113 1090 947 
Q 1009 781 1009 544 
L 3416 544 
L 3416 0 
L 372 0 
L 372 241 
Q 372 659 486 951 
Q 600 1244 862 1520 
Q 1125 1797 1681 2184 
Q 2250 2584 2458 2886 
Q 2666 3188 2666 3572 
z
" transform="scale(0.015625)"/>
       </defs>
       <use xlink:href="#MicrosoftYaHei-32"/>
       <use xlink:href="#MicrosoftYaHei-2e" transform="translate(58.642578 0)"/>
       <use xlink:href="#MicrosoftYaHei-30" transform="translate(82.714844 0)"/>
      </g>
     </g>
    </g>
    <g id="xtick_4">
     <g id="line2d_7">
      <path d="M 359.306307 525.277062 
L 359.306307 41.301062 
" clip-path="url(#pec63fe89cb)" style="fill: none; stroke: #b0b0b0; stroke-opacity: 0.3; stroke-width: 0.8; stroke-linecap: square"/>
     </g>
     <g id="line2d_8">
      <g>
       <use xlink:href="#mf1de5db594" x="359.306307" y="525.277062" style="stroke: #000000; stroke-width: 0.8"/>
      </g>
     </g>
     <g id="text_4">
      <!-- 2.5 -->
      <g transform="translate(352.238338 540.270812) scale(0.1 -0.1)">
       <use xlink:href="#MicrosoftYaHei-32"/>
       <use xlink:href="#MicrosoftYaHei-2e" transform="translate(58.642578 0)"/>
       <use xlink:href="#MicrosoftYaHei-35" transform="translate(82.714844 0)"/>
      </g>
     </g>
    </g>
    <g id="xtick_5">
     <g id="line2d_9">
      <path d="M 450.050625 525.277062 
L 450.050625 41.301062 
" clip-path="url(#pec63fe89cb)" style="fill: none; stroke: #b0b0b0; stroke-opacity: 0.3; stroke-width: 0.8; stroke-linecap: square"/>
     </g>
     <g id="line2d_10">
      <g>
       <use xlink:href="#mf1de5db594" x="450.050625" y="525.277062" style="stroke: #000000; stroke-width: 0.8"/>
      </g>
     </g>
     <g id="text_5">
      <!-- 3.0 -->
      <g transform="translate(442.982656 540.270812) scale(0.1 -0.1)">
       <defs>
        <path id="MicrosoftYaHei-33" d="M 447 809 
Q 944 425 1569 425 
Q 2069 425 2361 670 
Q 2653 916 2653 1328 
Q 2653 2247 1338 2247 
L 934 2247 
L 934 2753 
L 1319 2753 
Q 2484 2753 2484 3616 
Q 2484 4413 1594 4413 
Q 1084 4413 634 4069 
L 634 4647 
Q 1109 4922 1744 4922 
Q 2363 4922 2738 4598 
Q 3113 4275 3113 3759 
Q 3113 2809 2144 2538 
L 2144 2525 
Q 2669 2469 2973 2155 
Q 3278 1841 3278 1372 
Q 3278 719 2808 319 
Q 2338 -81 1556 -81 
Q 869 -81 447 175 
L 447 809 
z
" transform="scale(0.015625)"/>
       </defs>
       <use xlink:href="#MicrosoftYaHei-33"/>
       <use xlink:href="#MicrosoftYaHei-2e" transform="translate(58.642578 0)"/>
       <use xlink:href="#MicrosoftYaHei-30" transform="translate(82.714844 0)"/>
      </g>
     </g>
    </g>
    <g id="xtick_6">
     <g id="line2d_11">
      <path d="M 540.794943 525.277062 
L 540.794943 41.301062 
" clip-path="url(#pec63fe89cb)" style="fill: none; stroke: #b0b0b0; stroke-opacity: 0.3; stroke-width: 0.8; stroke-linecap: square"/>
     </g>
     <g id="line2d_12">
      <g>
       <use xlink:href="#mf1de5db594" x="540.794943" y="525.277062" style="stroke: #000000; stroke-width: 0.8"/>
      </g>
     </g>
     <g id="text_6">
      <!-- 3.5 -->
      <g transform="translate(533.726974 540.270812) scale(0.1 -0.1)">
       <use xlink:href="#MicrosoftYaHei-33"/>
       <use xlink:href="#MicrosoftYaHei-2e" transform="translate(58.642578 0)"/>
       <use xlink:href="#MicrosoftYaHei-35" transform="translate(82.714844 0)"/>
      </g>
     </g>
    </g>
    <g id="xtick_7">
     <g id="line2d_13">
      <path d="M 631.539261 525.277062 
L 631.539261 41.301062 
" clip-path="url(#pec63fe89cb)" style="fill: none; stroke: #b0b0b0; stroke-opacity: 0.3; stroke-width: 0.8; stroke-linecap: square"/>
     </g>
     <g id="line2d_14">
      <g>
       <use xlink:href="#mf1de5db594" x="631.539261" y="525.277062" style="stroke: #000000; stroke-width: 0.8"/>
      </g>
     </g>
     <g id="text_7">
      <!-- 4.0 -->
      <g transform="translate(624.471293 540.270812) scale(0.1 -0.1)">
       <defs>
        <path id="MicrosoftYaHei-34" d="M 2906 4841 
L 2906 1644 
L 3631 1644 
L 3631 1138 
L 2906 1138 
L 2906 0 
L 2313 0 
L 2313 1138 
L 53 1138 
L 53 1616 
Q 656 2294 1265 3178 
Q 1875 4063 2272 4841 
L 2906 4841 
z
M 741 1644 
L 2313 1644 
L 2313 3950 
Q 1988 3366 1616 2817 
Q 1244 2269 741 1644 
z
" transform="scale(0.015625)"/>
       </defs>
       <use xlink:href="#MicrosoftYaHei-34"/>
       <use xlink:href="#MicrosoftYaHei-2e" transform="translate(58.642578 0)"/>
       <use xlink:href="#MicrosoftYaHei-30" transform="translate(82.714844 0)"/>
      </g>
     </g>
    </g>
    <g id="xtick_8">
     <g id="line2d_15">
      <path d="M 722.28358 525.277062 
L 722.28358 41.301062 
" clip-path="url(#pec63fe89cb)" style="fill: none; stroke: #b0b0b0; stroke-opacity: 0.3; stroke-width: 0.8; stroke-linecap: square"/>
     </g>
     <g id="line2d_16">
      <g>
       <use xlink:href="#mf1de5db594" x="722.28358" y="525.277062" style="stroke: #000000; stroke-width: 0.8"/>
      </g>
     </g>
     <g id="text_8">
      <!-- 4.5 -->
      <g transform="translate(715.215611 540.270812) scale(0.1 -0.1)">
       <use xlink:href="#MicrosoftYaHei-34"/>
       <use xlink:href="#MicrosoftYaHei-2e" transform="translate(58.642578 0)"/>
       <use xlink:href="#MicrosoftYaHei-35" transform="translate(82.714844 0)"/>
      </g>
     </g>
    </g>
    <g id="xtick_9">
     <g id="line2d_17">
      <path d="M 813.027898 525.277062 
L 813.027898 41.301062 
" clip-path="url(#pec63fe89cb)" style="fill: none; stroke: #b0b0b0; stroke-opacity: 0.3; stroke-width: 0.8; stroke-linecap: square"/>
     </g>
     <g id="line2d_18">
      <g>
       <use xlink:href="#mf1de5db594" x="813.027898" y="525.277062" style="stroke: #000000; stroke-width: 0.8"/>
      </g>
     </g>
     <g id="text_9">
      <!-- 5.0 -->
      <g transform="translate(805.959929 540.270812) scale(0.1 -0.1)">
       <use xlink:href="#MicrosoftYaHei-35"/>
       <use xlink:href="#MicrosoftYaHei-2e" transform="translate(58.642578 0)"/>
       <use xlink:href="#MicrosoftYaHei-30" transform="translate(82.714844 0)"/>
      </g>
     </g>
    </g>
    <g id="text_10">
     <!-- 年份 -->
     <g transform="translate(438.050625 556.34925) scale(0.12 -0.12)">
      <defs>
       <path id="MicrosoftYaHei-5e74" d="M 119 1278 
L 1125 1278 
L 1125 3066 
L 3338 3066 
L 3338 4178 
L 1500 4178 
Q 1078 3419 556 2778 
Q 394 2953 169 3128 
Q 1056 4128 1500 5372 
L 2013 5228 
Q 1881 4919 1738 4628 
L 6038 4628 
L 6038 4178 
L 3844 4178 
L 3844 3066 
L 5931 3066 
L 5931 2628 
L 3844 2628 
L 3844 1278 
L 6319 1278 
L 6319 828 
L 3844 828 
L 3844 -859 
L 3338 -859 
L 3338 828 
L 119 828 
L 119 1278 
z
M 1619 1278 
L 3338 1278 
L 3338 2628 
L 1619 2628 
L 1619 1278 
z
" transform="scale(0.015625)"/>
       <path id="MicrosoftYaHei-4efd" d="M 2269 2653 
L 5394 2653 
Q 5388 2566 5300 366 
Q 5275 -709 4319 -722 
Q 3806 -722 3425 -703 
Q 3394 -416 3331 -184 
Q 3763 -241 4200 -253 
Q 4806 -297 4813 422 
Q 4863 1259 4888 2216 
L 3481 2216 
Q 3463 1222 3181 572 
Q 2844 -172 2019 -822 
Q 1856 -622 1656 -416 
Q 2450 203 2713 772 
Q 2969 1275 2997 2216 
L 2269 2216 
L 2269 2653 
z
M 75 2353 
Q 969 3534 1525 5284 
L 2013 5116 
Q 1709 4284 1350 3559 
L 1350 -809 
L 875 -809 
L 875 2691 
Q 588 2216 275 1797 
Q 181 2066 75 2353 
z
M 4006 5116 
L 4419 5291 
Q 5038 3703 6325 2972 
Q 6088 2697 5969 2516 
Q 4575 3472 4006 5116 
z
M 1588 2741 
Q 2563 3597 3163 5034 
L 3606 4866 
Q 3025 3409 1963 2397 
Q 1738 2628 1588 2741 
z
" transform="scale(0.015625)"/>
      </defs>
      <use xlink:href="#MicrosoftYaHei-5e74"/>
      <use xlink:href="#MicrosoftYaHei-4efd" transform="translate(100 0)"/>
     </g>
    </g>
   </g>
   <g id="matplotlib.axis_2">
    <g id="ytick_1">
     <g id="line2d_19">
      <path d="M 50.775625 466.86988 
L 849.325625 466.86988 
" clip-path="url(#pec63fe89cb)" style="fill: none; stroke: #b0b0b0; stroke-opacity: 0.3; stroke-width: 0.8; stroke-linecap: square"/>
     </g>
     <g id="line2d_20">
      <defs>
       <path id="m608a61a1e4" d="M 0 0 
L -3.5 0 
" style="stroke: #000000; stroke-width: 0.8"/>
      </defs>
      <g>
       <use xlink:href="#m608a61a1e4" x="50.775625" y="466.86988" style="stroke: #000000; stroke-width: 0.8"/>
      </g>
     </g>
     <g id="text_11">
      <!-- 0.33 -->
      <g transform="translate(23.775625 470.866755) scale(0.1 -0.1)">
       <use xlink:href="#MicrosoftYaHei-30"/>
       <use xlink:href="#MicrosoftYaHei-2e" transform="translate(58.642578 0)"/>
       <use xlink:href="#MicrosoftYaHei-33" transform="translate(82.714844 0)"/>
       <use xlink:href="#MicrosoftYaHei-33" transform="translate(141.357422 0)"/>
      </g>
     </g>
    </g>
    <g id="ytick_2">
     <g id="line2d_21">
      <path d="M 50.775625 369.000534 
L 849.325625 369.000534 
" clip-path="url(#pec63fe89cb)" style="fill: none; stroke: #b0b0b0; stroke-opacity: 0.3; stroke-width: 0.8; stroke-linecap: square"/>
     </g>
     <g id="line2d_22">
      <g>
       <use xlink:href="#m608a61a1e4" x="50.775625" y="369.000534" style="stroke: #000000; stroke-width: 0.8"/>
      </g>
     </g>
     <g id="text_12">
      <!-- 0.34 -->
      <g transform="translate(23.775625 372.997409) scale(0.1 -0.1)">
       <use xlink:href="#MicrosoftYaHei-30"/>
       <use xlink:href="#MicrosoftYaHei-2e" transform="translate(58.642578 0)"/>
       <use xlink:href="#MicrosoftYaHei-33" transform="translate(82.714844 0)"/>
       <use xlink:href="#MicrosoftYaHei-34" transform="translate(141.357422 0)"/>
      </g>
     </g>
    </g>
    <g id="ytick_3">
     <g id="line2d_23">
      <path d="M 50.775625 271.131189 
L 849.325625 271.131189 
" clip-path="url(#pec63fe89cb)" style="fill: none; stroke: #b0b0b0; stroke-opacity: 0.3; stroke-width: 0.8; stroke-linecap: square"/>
     </g>
     <g id="line2d_24">
      <g>
       <use xlink:href="#m608a61a1e4" x="50.775625" y="271.131189" style="stroke: #000000; stroke-width: 0.8"/>
      </g>
     </g>
     <g id="text_13">
      <!-- 0.35 -->
      <g transform="translate(23.775625 275.128064) scale(0.1 -0.1)">
       <use xlink:href="#MicrosoftYaHei-30"/>
       <use xlink:href="#MicrosoftYaHei-2e" transform="translate(58.642578 0)"/>
       <use xlink:href="#MicrosoftYaHei-33" transform="translate(82.714844 0)"/>
       <use xlink:href="#MicrosoftYaHei-35" transform="translate(141.357422 0)"/>
      </g>
     </g>
    </g>
    <g id="ytick_4">
     <g id="line2d_25">
      <path d="M 50.775625 173.261844 
L 849.325625 173.261844 
" clip-path="url(#pec63fe89cb)" style="fill: none; stroke: #b0b0b0; stroke-opacity: 0.3; stroke-width: 0.8; stroke-linecap: square"/>
     </g>
     <g id="line2d_26">
      <g>
       <use xlink:href="#m608a61a1e4" x="50.775625" y="173.261844" style="stroke: #000000; stroke-width: 0.8"/>
      </g>
     </g>
     <g id="text_14">
      <!-- 0.36 -->
      <g transform="translate(23.775625 177.258719) scale(0.1 -0.1)">
       <defs>
        <path id="MicrosoftYaHei-36" d="M 3181 4219 
Q 2803 4413 2391 4413 
Q 1763 4413 1381 3866 
Q 1000 3319 994 2372 
L 1009 2372 
Q 1353 3038 2106 3038 
Q 2734 3038 3109 2628 
Q 3484 2219 3484 1541 
Q 3484 831 3051 375 
Q 2619 -81 1947 -81 
Q 1209 -81 789 495 
Q 369 1072 369 2131 
Q 369 3413 920 4167 
Q 1472 4922 2372 4922 
Q 2888 4922 3181 4781 
L 3181 4219 
z
M 1031 1584 
Q 1031 1106 1286 765 
Q 1541 425 1963 425 
Q 2363 425 2613 719 
Q 2863 1013 2863 1475 
Q 2863 1975 2627 2253 
Q 2391 2531 1956 2531 
Q 1544 2531 1287 2250 
Q 1031 1969 1031 1584 
z
" transform="scale(0.015625)"/>
       </defs>
       <use xlink:href="#MicrosoftYaHei-30"/>
       <use xlink:href="#MicrosoftYaHei-2e" transform="translate(58.642578 0)"/>
       <use xlink:href="#MicrosoftYaHei-33" transform="translate(82.714844 0)"/>
       <use xlink:href="#MicrosoftYaHei-36" transform="translate(141.357422 0)"/>
      </g>
     </g>
    </g>
    <g id="ytick_5">
     <g id="line2d_27">
      <path d="M 50.775625 75.392498 
L 849.325625 75.392498 
" clip-path="url(#pec63fe89cb)" style="fill: none; stroke: #b0b0b0; stroke-opacity: 0.3; stroke-width: 0.8; stroke-linecap: square"/>
     </g>
     <g id="line2d_28">
      <g>
       <use xlink:href="#m608a61a1e4" x="50.775625" y="75.392498" style="stroke: #000000; stroke-width: 0.8"/>
      </g>
     </g>
     <g id="text_15">
      <!-- 0.37 -->
      <g transform="translate(23.775625 79.389373) scale(0.1 -0.1)">
       <defs>
        <path id="MicrosoftYaHei-37" d="M 3422 4463 
Q 2659 3131 2223 1998 
Q 1788 866 1684 0 
L 1047 0 
Q 1163 853 1594 1947 
Q 2025 3041 2747 4300 
L 347 4300 
L 347 4841 
L 3422 4841 
L 3422 4463 
z
" transform="scale(0.015625)"/>
       </defs>
       <use xlink:href="#MicrosoftYaHei-30"/>
       <use xlink:href="#MicrosoftYaHei-2e" transform="translate(58.642578 0)"/>
       <use xlink:href="#MicrosoftYaHei-33" transform="translate(82.714844 0)"/>
       <use xlink:href="#MicrosoftYaHei-37" transform="translate(141.357422 0)"/>
      </g>
     </g>
    </g>
    <g id="text_16">
     <!-- 平均权重值 -->
     <g transform="translate(16.7925 313.289062) rotate(-90) scale(0.12 -0.12)">
      <defs>
       <path id="MicrosoftYaHei-5e73" d="M 169 1934 
L 2938 1934 
L 2938 4547 
L 450 4547 
L 450 5028 
L 5975 5028 
L 5975 4547 
L 3463 4547 
L 3463 1934 
L 6250 1934 
L 6250 1453 
L 3463 1453 
L 3463 -847 
L 2938 -847 
L 2938 1453 
L 169 1453 
L 169 1934 
z
M 3950 2559 
Q 4638 3284 5188 4159 
L 5656 3859 
Q 4950 2891 4338 2234 
L 3950 2559 
z
M 769 3859 
L 1163 4134 
Q 1863 3316 2369 2553 
L 1925 2222 
Q 1444 3003 769 3859 
z
" transform="scale(0.015625)"/>
       <path id="MicrosoftYaHei-5747" d="M 2244 2803 
Q 2931 3953 3338 5322 
L 3838 5172 
Q 3691 4744 3531 4347 
L 6013 4347 
Q 5925 1053 5875 297 
Q 5831 -697 4806 -697 
Q 4188 -697 3706 -672 
Q 3669 -422 3606 -141 
L 3625 -141 
Q 4250 -209 4775 -209 
Q 5350 -209 5394 378 
Q 5456 1447 5513 3891 
L 3341 3891 
Q 3028 3172 2675 2572 
Q 2481 2691 2244 2803 
z
M 81 428 
Q 559 600 1006 769 
L 1006 3253 
L 169 3253 
L 169 3697 
L 1006 3697 
L 1006 5259 
L 1469 5259 
L 1469 3697 
L 2281 3697 
L 2281 3253 
L 1469 3253 
L 1469 947 
Q 1922 1125 2338 1303 
Q 2350 991 2369 784 
Q 1363 403 250 -53 
L 81 428 
z
M 2513 853 
Q 3769 1353 5119 1934 
Q 5150 1641 5188 1434 
Q 4031 947 2706 359 
L 2513 853 
z
M 3138 2909 
L 3481 3216 
Q 4025 2716 4531 2216 
L 4125 1859 
Q 3644 2409 3138 2909 
z
" transform="scale(0.015625)"/>
       <path id="MicrosoftYaHei-6743" d="M 2331 4416 
L 2331 4884 
L 5881 4884 
L 5881 4428 
Q 5588 2253 4556 922 
Q 5231 241 6344 -203 
Q 6075 -497 5925 -722 
Q 4850 -166 4213 516 
Q 3500 -228 2225 -872 
Q 2088 -647 1875 -397 
Q 3194 222 3888 916 
Q 2944 2103 2719 4416 
L 2331 4416 
z
M 63 1347 
Q 700 2322 1019 3528 
L 125 3528 
L 125 3966 
L 1100 3966 
L 1100 5291 
L 1575 5291 
L 1575 3966 
L 2456 3966 
L 2456 3528 
L 1575 3528 
L 1575 2703 
L 1844 2953 
Q 2406 2422 2750 2009 
L 2375 1659 
Q 1956 2191 1575 2591 
L 1575 -853 
L 1100 -853 
L 1100 2572 
Q 763 1522 275 797 
Q 188 1066 63 1347 
z
M 5350 4416 
L 3219 4416 
Q 3406 2397 4225 1309 
Q 5088 2466 5350 4416 
z
" transform="scale(0.015625)"/>
       <path id="MicrosoftYaHei-91cd" d="M 113 -203 
L 2975 -203 
L 2975 259 
L 600 259 
L 600 628 
L 2975 628 
L 2975 1153 
L 1288 1153 
L 1288 928 
L 850 928 
L 850 3278 
L 2975 3278 
L 2975 3728 
L 163 3728 
L 163 4116 
L 2975 4116 
L 2975 4606 
Q 1841 4572 625 4547 
Q 588 4747 538 4972 
Q 3706 5009 5669 5141 
L 5744 4716 
Q 4631 4663 3425 4619 
L 3425 4116 
L 6263 4116 
L 6263 3728 
L 3425 3728 
L 3425 3278 
L 5569 3278 
L 5569 934 
L 5131 934 
L 5131 1153 
L 3425 1153 
L 3425 628 
L 5806 628 
L 5806 259 
L 3425 259 
L 3425 -203 
L 6263 -203 
L 6263 -591 
L 113 -591 
L 113 -203 
z
M 3425 1516 
L 5131 1516 
L 5131 2053 
L 3425 2053 
L 3425 1516 
z
M 1288 1516 
L 2975 1516 
L 2975 2053 
L 1288 2053 
L 1288 1516 
z
M 5131 2916 
L 3425 2916 
L 3425 2384 
L 5131 2384 
L 5131 2916 
z
M 1288 2384 
L 2975 2384 
L 2975 2916 
L 1288 2916 
L 1288 2384 
z
" transform="scale(0.015625)"/>
       <path id="MicrosoftYaHei-503c" d="M 1619 -216 
L 2250 -216 
L 2250 3653 
L 3725 3653 
L 3725 4222 
L 1913 4222 
L 1913 4647 
L 3725 4647 
L 3725 5309 
L 4200 5309 
L 4200 4647 
L 6169 4647 
L 6169 4222 
L 4200 4222 
L 4200 3653 
L 5713 3653 
L 5713 -216 
L 6306 -216 
L 6306 -641 
L 1619 -641 
L 1619 -216 
z
M 69 2247 
Q 906 3497 1369 5278 
L 1831 5141 
Q 1581 4334 1288 3628 
L 1288 -816 
L 831 -816 
L 831 2666 
Q 563 2166 263 1734 
Q 175 1997 69 2247 
z
M 2713 -216 
L 5250 -216 
L 5250 353 
L 2713 353 
L 2713 -216 
z
M 5250 3241 
L 2713 3241 
L 2713 2678 
L 5250 2678 
L 5250 3241 
z
M 2713 1716 
L 5250 1716 
L 5250 2278 
L 2713 2278 
L 2713 1716 
z
M 2713 753 
L 5250 753 
L 5250 1316 
L 2713 1316 
L 2713 753 
z
" transform="scale(0.015625)"/>
      </defs>
      <use xlink:href="#MicrosoftYaHei-5e73"/>
      <use xlink:href="#MicrosoftYaHei-5747" transform="translate(100 0)"/>
      <use xlink:href="#MicrosoftYaHei-6743" transform="translate(200 0)"/>
      <use xlink:href="#MicrosoftYaHei-91cd" transform="translate(300 0)"/>
      <use xlink:href="#MicrosoftYaHei-503c" transform="translate(400 0)"/>
     </g>
    </g>
   </g>
   <g id="line2d_29">
    <path d="M 87.073352 63.299972 
L 268.561989 63.299972 
L 450.050625 63.299972 
L 631.539261 63.299972 
L 813.027898 63.299972 
" clip-path="url(#pec63fe89cb)" style="fill: none; stroke: #ff0000; stroke-width: 3; stroke-linecap: square"/>
    <defs>
     <path id="m821b99f5d8" d="M 0 4 
C 1.060812 4 2.078319 3.578535 2.828427 2.828427 
C 3.578535 2.078319 4 1.060812 4 0 
C 4 -1.060812 3.578535 -2.078319 2.828427 -2.828427 
C 2.078319 -3.578535 1.060812 -4 0 -4 
C -1.060812 -4 -2.078319 -3.578535 -2.828427 -2.828427 
C -3.578535 -2.078319 -4 -1.060812 -4 0 
C -4 1.060812 -3.578535 2.078319 -2.828427 2.828427 
C -2.078319 3.578535 -1.060812 4 0 4 
z
" style="stroke: #ff0000"/>
    </defs>
    <g clip-path="url(#pec63fe89cb)">
     <use xlink:href="#m821b99f5d8" x="87.073352" y="63.299972" style="fill: #ff0000; stroke: #ff0000"/>
     <use xlink:href="#m821b99f5d8" x="268.561989" y="63.299972" style="fill: #ff0000; stroke: #ff0000"/>
     <use xlink:href="#m821b99f5d8" x="450.050625" y="63.299972" style="fill: #ff0000; stroke: #ff0000"/>
     <use xlink:href="#m821b99f5d8" x="631.539261" y="63.299972" style="fill: #ff0000; stroke: #ff0000"/>
     <use xlink:href="#m821b99f5d8" x="813.027898" y="63.299972" style="fill: #ff0000; stroke: #ff0000"/>
    </g>
   </g>
   <g id="line2d_30">
    <path d="M 87.073352 503.278153 
L 268.561989 503.278153 
L 450.050625 503.278153 
L 631.539261 503.278153 
L 813.027898 503.278153 
" clip-path="url(#pec63fe89cb)" style="fill: none; stroke: #0000ff; stroke-width: 3; stroke-linecap: square"/>
    <defs>
     <path id="m85a6122184" d="M 0 4 
C 1.060812 4 2.078319 3.578535 2.828427 2.828427 
C 3.578535 2.078319 4 1.060812 4 0 
C 4 -1.060812 3.578535 -2.078319 2.828427 -2.828427 
C 2.078319 -3.578535 1.060812 -4 0 -4 
C -1.060812 -4 -2.078319 -3.578535 -2.828427 -2.828427 
C -3.578535 -2.078319 -4 -1.060812 -4 0 
C -4 1.060812 -3.578535 2.078319 -2.828427 2.828427 
C -2.078319 3.578535 -1.060812 4 0 4 
z
" style="stroke: #0000ff"/>
    </defs>
    <g clip-path="url(#pec63fe89cb)">
     <use xlink:href="#m85a6122184" x="87.073352" y="503.278153" style="fill: #0000ff; stroke: #0000ff"/>
     <use xlink:href="#m85a6122184" x="268.561989" y="503.278153" style="fill: #0000ff; stroke: #0000ff"/>
     <use xlink:href="#m85a6122184" x="450.050625" y="503.278153" style="fill: #0000ff; stroke: #0000ff"/>
     <use xlink:href="#m85a6122184" x="631.539261" y="503.278153" style="fill: #0000ff; stroke: #0000ff"/>
     <use xlink:href="#m85a6122184" x="813.027898" y="503.278153" style="fill: #0000ff; stroke: #0000ff"/>
    </g>
   </g>
   <g id="line2d_31">
    <path d="M 87.073352 230.937501 
L 268.561989 230.937501 
L 450.050625 230.937501 
L 631.539261 230.937501 
L 813.027898 230.937501 
" clip-path="url(#pec63fe89cb)" style="fill: none; stroke: #008000; stroke-width: 3; stroke-linecap: square"/>
    <defs>
     <path id="md9bd878db2" d="M 0 4 
C 1.060812 4 2.078319 3.578535 2.828427 2.828427 
C 3.578535 2.078319 4 1.060812 4 0 
C 4 -1.060812 3.578535 -2.078319 2.828427 -2.828427 
C 2.078319 -3.578535 1.060812 -4 0 -4 
C -1.060812 -4 -2.078319 -3.578535 -2.828427 -2.828427 
C -3.578535 -2.078319 -4 -1.060812 -4 0 
C -4 1.060812 -3.578535 2.078319 -2.828427 2.828427 
C -2.078319 3.578535 -1.060812 4 0 4 
z
" style="stroke: #008000"/>
    </defs>
    <g clip-path="url(#pec63fe89cb)">
     <use xlink:href="#md9bd878db2" x="87.073352" y="230.937501" style="fill: #008000; stroke: #008000"/>
     <use xlink:href="#md9bd878db2" x="268.561989" y="230.937501" style="fill: #008000; stroke: #008000"/>
     <use xlink:href="#md9bd878db2" x="450.050625" y="230.937501" style="fill: #008000; stroke: #008000"/>
     <use xlink:href="#md9bd878db2" x="631.539261" y="230.937501" style="fill: #008000; stroke: #008000"/>
     <use xlink:href="#md9bd878db2" x="813.027898" y="230.937501" style="fill: #008000; stroke: #008000"/>
    </g>
   </g>
   <g id="patch_3">
    <path d="M 50.775625 525.277062 
L 50.775625 41.301063 
" style="fill: none; stroke: #000000; stroke-width: 0.8; stroke-linejoin: miter; stroke-linecap: square"/>
   </g>
   <g id="patch_4">
    <path d="M 849.325625 525.277062 
L 849.325625 41.301063 
" style="fill: none; stroke: #000000; stroke-width: 0.8; stroke-linejoin: miter; stroke-linecap: square"/>
   </g>
   <g id="patch_5">
    <path d="M 50.775625 525.277062 
L 849.325625 525.277062 
" style="fill: none; stroke: #000000; stroke-width: 0.8; stroke-linejoin: miter; stroke-linecap: square"/>
   </g>
   <g id="patch_6">
    <path d="M 50.775625 41.301062 
L 849.325625 41.301062 
" style="fill: none; stroke: #000000; stroke-width: 0.8; stroke-linejoin: miter; stroke-linecap: square"/>
   </g>
   <g id="text_17">
    <!-- 各材料类型5年平均权重变化趋势 -->
    <g transform="translate(347.733594 18.39125) scale(0.14 -0.14)">
     <defs>
      <path id="MicrosoftYaHei-Bold-5404" d="M 5669 4747 
L 5669 4028 
Q 5081 3400 4266 2925 
Q 5178 2700 6306 2678 
Q 6100 2184 5956 1797 
Q 4394 1953 3241 2428 
Q 2028 1941 444 1709 
Q 313 2047 100 2516 
Q 1313 2622 2291 2919 
Q 1831 3213 1463 3578 
Q 1078 3206 631 2891 
Q 419 3209 119 3578 
Q 1256 4322 1844 5347 
L 2713 5197 
Q 2581 4966 2434 4747 
L 5669 4747 
z
M 3244 3272 
Q 3934 3588 4475 4022 
L 2059 4022 
Q 2572 3572 3244 3272 
z
M 1000 -841 
L 1000 1703 
L 5475 1703 
L 5475 -841 
L 4638 -841 
L 4638 -547 
L 1838 -547 
L 1838 -841 
L 1000 -841 
z
M 4638 1003 
L 1838 1003 
L 1838 153 
L 4638 153 
L 4638 1003 
z
" transform="scale(0.015625)"/>
      <path id="MicrosoftYaHei-Bold-6750" d="M 75 1509 
Q 656 2359 1038 3378 
L 188 3378 
L 188 4209 
L 1088 4209 
L 1088 5328 
L 1900 5328 
L 1900 4209 
L 2713 4209 
L 2713 3378 
L 1900 3378 
L 1900 2847 
Q 2466 2544 2981 2234 
L 2544 1472 
Q 2219 1716 1900 1944 
L 1900 -809 
L 1088 -809 
L 1088 1744 
Q 772 1006 369 403 
L 75 1509 
z
M 2963 4234 
L 4756 4234 
L 4756 5297 
L 5631 5297 
L 5631 4234 
L 6300 4234 
L 6300 3409 
L 5631 3409 
L 5631 272 
Q 5631 -222 5403 -476 
Q 5175 -731 4779 -751 
Q 4384 -772 3569 -772 
Q 3488 -322 3363 116 
Q 3788 91 4275 91 
Q 4756 91 4756 553 
L 4756 2606 
Q 3950 1006 2763 -28 
Q 2456 391 2144 716 
Q 3484 1728 4306 3409 
L 2963 3409 
L 2963 4234 
z
" transform="scale(0.015625)"/>
      <path id="MicrosoftYaHei-Bold-6599" d="M 113 3047 
L 1125 3047 
L 1125 5284 
L 1938 5284 
L 1938 3047 
L 2913 3047 
L 2913 2303 
L 1938 2303 
L 1938 1709 
L 2194 1941 
Q 2469 1697 2894 1297 
L 2875 1409 
L 4694 1578 
L 4694 3997 
Q 4369 3691 4169 3478 
Q 3744 3928 3225 4347 
L 3750 4878 
Q 4206 4534 4694 4103 
L 4694 5297 
L 5575 5297 
L 5575 1659 
L 6269 1728 
L 6331 947 
L 5575 872 
L 5575 -847 
L 4694 -847 
L 4694 791 
L 2981 628 
L 2919 1109 
Q 2650 859 2450 659 
Q 2263 884 1938 1209 
L 1938 -841 
L 1125 -841 
L 1125 997 
Q 825 428 388 -116 
Q 275 278 100 822 
Q 663 1516 1038 2303 
L 113 2303 
L 113 3047 
z
M 3513 3259 
Q 4000 2897 4513 2434 
Q 4150 2084 3931 1859 
Q 3506 2309 2988 2728 
L 3513 3259 
z
M 2481 4828 
Q 2569 4797 3113 4603 
Q 2838 3884 2594 3316 
L 2013 3528 
Q 2263 4128 2481 4828 
z
M 619 4834 
Q 813 4309 1019 3553 
L 438 3372 
Q 200 4197 50 4666 
L 619 4834 
z
" transform="scale(0.015625)"/>
      <path id="MicrosoftYaHei-Bold-7c7b" d="M 331 3953 
L 1781 3953 
Q 1319 4347 838 4728 
L 1306 5247 
Q 1863 4866 2431 4422 
Q 2425 4409 1975 3953 
L 2763 3953 
L 2763 5303 
L 3613 5303 
L 3613 3953 
L 4456 3953 
L 4038 4372 
Q 4513 4753 5106 5259 
L 5663 4728 
Q 5138 4297 4688 3953 
L 6069 3953 
L 6069 3216 
L 3925 3216 
Q 5069 2809 6025 2441 
L 5675 1734 
Q 4844 2122 3613 2653 
L 3613 2141 
L 2763 2141 
L 2763 2722 
Q 2038 2116 813 1747 
Q 644 2122 400 2509 
Q 1588 2747 2256 3216 
L 331 3216 
L 331 3953 
z
M 225 1603 
L 2719 1603 
Q 2744 1772 2750 1966 
L 3606 1966 
Q 3588 1772 3563 1603 
L 6181 1603 
L 6181 841 
L 4013 841 
Q 4788 66 6238 -91 
Q 5863 -603 5681 -891 
Q 4006 -528 3225 734 
Q 2850 -359 694 -872 
Q 388 -391 169 -109 
Q 1844 134 2419 841 
L 225 841 
L 225 1603 
z
" transform="scale(0.015625)"/>
      <path id="MicrosoftYaHei-Bold-578b" d="M 5963 5216 
L 5963 2547 
Q 5963 2141 5752 1928 
Q 5541 1716 5095 1700 
Q 4650 1684 4269 1684 
Q 4231 2059 4150 2447 
Q 4469 2428 4813 2428 
Q 5150 2428 5150 2709 
L 5150 5216 
L 5963 5216 
z
M 150 3491 
L 891 3491 
Q 900 3616 900 4341 
L 325 4341 
L 325 5066 
L 3625 5066 
L 3625 4341 
L 3113 4341 
L 3113 3491 
L 3750 3491 
L 3750 2766 
L 3113 2766 
L 3113 2091 
L 3656 2091 
L 3656 1441 
L 5781 1441 
L 5781 678 
L 3656 678 
L 3656 103 
L 6294 103 
L 6294 -647 
L 138 -647 
L 138 103 
L 2763 103 
L 2763 678 
L 650 678 
L 650 1441 
L 2763 1441 
L 2763 1766 
L 2350 1766 
L 2350 2766 
L 1559 2766 
Q 1375 2016 888 1522 
Q 675 1697 275 2009 
Q 584 2334 741 2766 
L 150 2766 
L 150 3491 
z
M 1663 3491 
L 2350 3491 
L 2350 4341 
L 1669 4341 
Q 1669 3753 1663 3491 
z
M 3900 4866 
L 4650 4866 
L 4650 2753 
L 3900 2753 
L 3900 4866 
z
" transform="scale(0.015625)"/>
      <path id="MicrosoftYaHei-Bold-35" d="M 541 125 
L 541 997 
Q 1044 691 1613 691 
Q 2041 691 2283 902 
Q 2525 1113 2525 1472 
Q 2525 2225 1494 2225 
Q 1113 2225 616 2169 
L 797 4841 
L 3359 4841 
L 3359 4009 
L 1613 4009 
L 1544 2991 
Q 1803 3013 2022 3013 
Q 2731 3013 3142 2625 
Q 3553 2238 3553 1575 
Q 3553 844 3056 380 
Q 2559 -84 1706 -84 
Q 1016 -84 541 125 
z
" transform="scale(0.015625)"/>
      <path id="MicrosoftYaHei-Bold-5e74" d="M 5819 3059 
L 5819 2266 
L 4050 2266 
L 4050 1284 
L 6244 1284 
L 6244 491 
L 4050 491 
L 4050 -828 
L 3138 -828 
L 3138 491 
L 175 491 
L 175 1284 
L 1050 1284 
L 1050 2813 
Q 881 2634 700 2466 
Q 463 2822 138 3266 
Q 1088 4047 1600 5353 
L 2569 5209 
Q 2459 4938 2334 4678 
L 6056 4678 
L 6056 3884 
L 4050 3884 
L 4050 3059 
L 5819 3059 
z
M 1272 3059 
L 3138 3059 
L 3138 3884 
L 1888 3884 
Q 1606 3450 1272 3059 
z
M 1925 1284 
L 3138 1284 
L 3138 2266 
L 1925 2266 
L 1925 1284 
z
" transform="scale(0.015625)"/>
      <path id="MicrosoftYaHei-Bold-5e73" d="M 175 1959 
L 2719 1959 
L 2719 4253 
L 450 4253 
L 450 5078 
L 5975 5078 
L 5975 4253 
L 3669 4253 
L 3669 1959 
L 6250 1959 
L 6250 1134 
L 3669 1134 
L 3669 -809 
L 2719 -809 
L 2719 1134 
L 175 1134 
L 175 1959 
z
M 538 3691 
L 1194 4134 
Q 1794 3434 2438 2584 
L 1681 2084 
Q 1050 3041 538 3691 
z
M 5988 3628 
Q 5325 2834 4588 2066 
L 3950 2584 
Q 4675 3334 5250 4128 
L 5988 3628 
z
" transform="scale(0.015625)"/>
      <path id="MicrosoftYaHei-Bold-5747" d="M 250 -397 
L 88 547 
Q 425 628 794 725 
L 794 2847 
L 213 2847 
L 213 3703 
L 794 3703 
L 794 5322 
L 1638 5322 
L 1638 3703 
L 2156 3703 
L 2156 3269 
Q 2794 4313 3075 5366 
L 3925 5266 
Q 3809 4866 3669 4491 
L 6069 4491 
L 6016 1816 
L 5966 303 
Q 5944 -194 5730 -450 
Q 5516 -706 5167 -745 
Q 4819 -784 3775 -797 
Q 3700 -397 3556 153 
Q 4178 103 4625 103 
Q 4819 103 4955 208 
Q 5091 313 5105 575 
Q 5119 838 5141 1619 
L 5181 3703 
L 3341 3703 
Q 3059 3088 2706 2541 
Q 2463 2763 2156 3003 
L 2156 2847 
L 1638 2847 
L 1638 959 
L 2288 1153 
Q 2275 878 2269 253 
Q 963 -134 250 -397 
z
M 3556 3353 
Q 4106 2922 4588 2466 
L 4006 1891 
Q 3500 2403 3019 2822 
L 3556 3353 
z
M 2719 209 
L 2500 1128 
Q 3650 1534 4938 2059 
Q 4956 1566 5000 1153 
Q 3894 728 2719 209 
z
" transform="scale(0.015625)"/>
      <path id="MicrosoftYaHei-Bold-6743" d="M 81 1597 
Q 528 2284 816 3372 
L 138 3372 
L 138 4203 
L 850 4203 
L 850 5322 
L 1663 5322 
L 1663 4203 
L 2319 4203 
L 2319 3372 
L 1663 3372 
L 1663 2616 
L 1856 2791 
Q 2281 2397 2731 1941 
L 2144 1409 
Q 1906 1713 1663 1984 
L 1663 -828 
L 850 -828 
L 850 1425 
Q 634 903 369 491 
Q 231 1053 81 1597 
z
M 3344 4159 
Q 3594 2841 4241 1875 
Q 4913 2875 5113 4228 
L 2363 4228 
L 2363 5028 
L 5994 5028 
L 5994 4241 
Q 5725 2459 4806 1175 
Q 5438 519 6319 84 
Q 6025 -347 5769 -803 
Q 4878 -278 4213 463 
Q 3459 -316 2406 -866 
Q 2163 -403 1894 -41 
Q 2947 438 3663 1169 
Q 2906 2297 2556 3816 
L 3344 4159 
z
" transform="scale(0.015625)"/>
      <path id="MicrosoftYaHei-Bold-91cd" d="M 106 -78 
L 2788 -78 
L 2788 241 
L 513 241 
L 513 766 
L 2788 766 
L 2788 1072 
L 731 1072 
L 731 3272 
L 2788 3272 
L 2788 3578 
L 125 3578 
L 125 4141 
L 2788 4141 
L 2788 4453 
L 663 4416 
Q 613 4691 544 4978 
Q 3200 5009 5731 5122 
Q 5738 5103 5850 4534 
L 3613 4475 
L 3613 4141 
L 6313 4141 
L 6313 3578 
L 3613 3578 
L 3613 3272 
L 5694 3272 
L 5694 1072 
L 3613 1072 
L 3613 766 
L 5925 766 
L 5925 241 
L 3613 241 
L 3613 -78 
L 6313 -78 
L 6313 -641 
L 106 -641 
L 106 -78 
z
M 4888 2753 
L 3613 2753 
L 3613 2397 
L 4888 2397 
L 4888 2753 
z
M 1538 2397 
L 2788 2397 
L 2788 2753 
L 1538 2753 
L 1538 2397 
z
M 4888 1591 
L 4888 1947 
L 3613 1947 
L 3613 1591 
L 4888 1591 
z
M 1538 1591 
L 2788 1591 
L 2788 1947 
L 1538 1947 
L 1538 1591 
z
" transform="scale(0.015625)"/>
      <path id="MicrosoftYaHei-Bold-53d8" d="M 231 4616 
L 2734 4616 
L 2525 5128 
L 3425 5353 
L 3741 4616 
L 6175 4616 
L 6175 3878 
L 4350 3878 
L 4350 2434 
L 3550 2434 
L 3550 3878 
L 2850 3878 
L 2850 2434 
L 2050 2434 
L 2050 3878 
L 231 3878 
L 231 4616 
z
M 1488 3778 
L 2019 3228 
Q 1338 2684 550 2184 
Q 325 2541 88 2828 
Q 844 3272 1488 3778 
z
M 4881 3728 
Q 5538 3328 6306 2778 
L 5769 2159 
Q 5119 2666 4406 3178 
L 4881 3728 
z
M 5300 2272 
L 5300 1566 
Q 4847 913 4144 422 
Q 5063 147 6288 84 
Q 6194 -84 5825 -822 
Q 4297 -663 3200 -116 
Q 2088 -634 544 -884 
Q 363 -497 94 -66 
Q 1359 84 2338 425 
Q 1741 894 1331 1534 
L 900 1534 
L 900 2272 
L 5300 2272 
z
M 3213 794 
Q 3834 1113 4300 1534 
L 2238 1534 
Q 2631 1100 3213 794 
z
" transform="scale(0.015625)"/>
      <path id="MicrosoftYaHei-Bold-5316" d="M 1625 5297 
L 2494 5009 
Q 2200 4284 1856 3641 
L 1856 -797 
L 956 -797 
L 956 2191 
Q 653 1775 325 1403 
Q 219 1991 88 2497 
Q 1063 3728 1625 5297 
z
M 5456 4447 
L 6238 3847 
Q 5306 2809 4106 1900 
L 4106 622 
Q 4106 153 4513 153 
L 4781 153 
Q 5091 153 5189 359 
Q 5288 566 5350 1597 
Q 5863 1434 6300 1322 
Q 6188 419 6105 37 
Q 6022 -344 5705 -542 
Q 5388 -741 4831 -741 
L 4294 -741 
Q 3169 -741 3169 378 
L 3169 1234 
Q 2806 994 2425 766 
Q 2225 1097 1875 1584 
Q 2553 1947 3169 2378 
L 3169 5272 
L 4106 5272 
L 4106 3100 
Q 4834 3719 5456 4447 
z
" transform="scale(0.015625)"/>
      <path id="MicrosoftYaHei-Bold-8d8b" d="M 3175 2366 
L 5175 2366 
L 5175 2903 
L 3125 2903 
L 3125 3241 
L 3038 3147 
Q 2669 3553 2513 3697 
Q 2569 3753 2625 3816 
L 1956 3816 
L 1956 3191 
L 2900 3191 
L 2900 2447 
L 2231 2447 
L 2231 1784 
L 2888 1784 
L 2888 1022 
L 2231 1022 
L 2231 163 
Q 2369 97 3875 97 
Q 4819 97 6306 122 
Q 6144 -359 6050 -716 
Q 3291 -716 2342 -667 
Q 1394 -619 959 72 
Q 853 -513 675 -853 
Q 400 -572 75 -259 
Q 394 503 400 2184 
L 1131 2184 
Q 1122 1647 1091 1191 
Q 1209 794 1469 544 
L 1469 2447 
L 125 2447 
L 125 3191 
L 1163 3191 
L 1163 3816 
L 300 3816 
L 300 4559 
L 1163 4559 
L 1163 5322 
L 1956 5322 
L 1956 4559 
L 2706 4559 
L 2706 3906 
Q 3225 4497 3669 5359 
L 4444 5197 
Q 4369 5031 4281 4872 
L 5631 4872 
L 5631 4247 
L 5188 3566 
L 5950 3566 
L 5950 503 
L 3038 503 
L 3038 1166 
L 5175 1166 
L 5175 1716 
L 3175 1716 
L 3175 2366 
z
M 3403 3566 
L 4306 3566 
L 4781 4209 
L 3888 4209 
Q 3666 3881 3403 3566 
z
" transform="scale(0.015625)"/>
      <path id="MicrosoftYaHei-Bold-52bf" d="M 3400 -766 
Q 3325 -309 3244 34 
Q 4075 -9 4269 -9 
Q 4475 -9 4628 87 
Q 4781 184 4815 401 
Q 4850 619 4875 909 
L 3038 909 
Q 2613 -469 538 -909 
Q 275 -372 88 -72 
Q 1763 169 2134 909 
L 538 909 
L 538 1628 
L 2353 1628 
Q 2372 1741 2388 1866 
L 2675 1866 
Q 2475 2138 2231 2397 
Q 2709 2638 2988 2997 
Q 2753 3131 2519 3259 
L 2850 3797 
L 3288 3584 
Q 3347 3791 3363 4022 
L 2713 4022 
L 2713 4722 
L 3391 4722 
Q 3400 5069 3400 5328 
L 4163 5328 
Q 4163 5063 4153 4722 
L 5500 4722 
L 5488 3453 
Q 5488 2653 5644 2653 
Q 5731 2653 5800 3478 
Q 6063 3384 6350 3309 
Q 6213 1828 5550 1828 
Q 5166 1828 4970 2093 
Q 4775 2359 4761 2871 
Q 4747 3384 4744 4022 
L 4122 4022 
Q 4084 3609 3959 3247 
L 4669 2878 
L 4231 2234 
L 3641 2606 
Q 3359 2188 2919 1866 
L 3231 1866 
Q 3219 1747 3200 1628 
L 5781 1628 
L 5684 263 
Q 5656 -88 5492 -336 
Q 5328 -584 5012 -684 
Q 4697 -784 3400 -766 
z
M 200 3491 
L 1088 3566 
L 1088 3947 
L 313 3947 
L 313 4647 
L 1088 4647 
L 1088 5316 
L 1850 5316 
L 1850 4647 
L 2475 4647 
L 2475 3947 
L 1850 3947 
L 1850 3647 
L 2494 3722 
Q 2500 3372 2500 3009 
L 1850 2938 
L 1850 2753 
Q 1850 2391 1719 2162 
Q 1588 1934 1355 1854 
Q 1122 1775 419 1766 
Q 363 2128 281 2447 
Q 419 2428 763 2428 
Q 1088 2428 1088 2766 
L 1088 2853 
L 313 2766 
L 200 3491 
z
" transform="scale(0.015625)"/>
     </defs>
     <use xlink:href="#MicrosoftYaHei-Bold-5404"/>
     <use xlink:href="#MicrosoftYaHei-Bold-6750" transform="translate(100 0)"/>
     <use xlink:href="#MicrosoftYaHei-Bold-6599" transform="translate(200 0)"/>
     <use xlink:href="#MicrosoftYaHei-Bold-7c7b" transform="translate(300 0)"/>
     <use xlink:href="#MicrosoftYaHei-Bold-578b" transform="translate(400 0)"/>
     <use xlink:href="#MicrosoftYaHei-Bold-35" transform="translate(500 0)"/>
     <use xlink:href="#MicrosoftYaHei-Bold-5e74" transform="translate(561.669922 0)"/>
     <use xlink:href="#MicrosoftYaHei-Bold-5e73" transform="translate(661.669922 0)"/>
     <use xlink:href="#MicrosoftYaHei-Bold-5747" transform="translate(761.669922 0)"/>
     <use xlink:href="#MicrosoftYaHei-Bold-6743" transform="translate(861.669922 0)"/>
     <use xlink:href="#MicrosoftYaHei-Bold-91cd" transform="translate(961.669922 0)"/>
     <use xlink:href="#MicrosoftYaHei-Bold-53d8" transform="translate(1061.669922 0)"/>
     <use xlink:href="#MicrosoftYaHei-Bold-5316" transform="translate(1161.669922 0)"/>
     <use xlink:href="#MicrosoftYaHei-Bold-8d8b" transform="translate(1261.669922 0)"/>
     <use xlink:href="#MicrosoftYaHei-Bold-52bf" transform="translate(1361.669922 0)"/>
    </g>
    <!-- (基于TOP50供应商) -->
    <g transform="translate(386.542031 35.301062) scale(0.14 -0.14)">
     <defs>
      <path id="MicrosoftYaHei-Bold-28" d="M 1606 -1100 
Q 525 97 525 1853 
Q 525 3550 1606 4841 
L 2431 4841 
Q 1406 3497 1406 1853 
Q 1406 216 2438 -1100 
L 1606 -1100 
z
" transform="scale(0.015625)"/>
      <path id="MicrosoftYaHei-Bold-57fa" d="M 6319 853 
Q 6063 484 5856 159 
Q 5369 428 4925 791 
L 4925 384 
L 3631 384 
L 3631 3 
L 5875 3 
L 5875 -653 
L 525 -653 
L 525 3 
L 2775 3 
L 2775 384 
L 1450 384 
L 1450 766 
Q 1016 422 544 159 
Q 363 447 75 847 
Q 856 1141 1397 1584 
L 156 1584 
L 156 2241 
L 1244 2241 
L 1244 4141 
L 338 4141 
L 338 4797 
L 1244 4797 
L 1244 5341 
L 2100 5341 
L 2100 4797 
L 4313 4797 
L 4313 5341 
L 5163 5341 
L 5163 4797 
L 6069 4797 
L 6069 4141 
L 5163 4141 
L 5163 2241 
L 6244 2241 
L 6244 1584 
L 5013 1584 
Q 5675 1091 6319 853 
z
M 2100 3828 
L 4313 3828 
L 4313 4141 
L 2100 4141 
L 2100 3828 
z
M 2100 3028 
L 4313 3028 
L 4313 3341 
L 2100 3341 
L 2100 3028 
z
M 2100 2241 
L 4313 2241 
L 4313 2553 
L 2100 2553 
L 2100 2241 
z
M 2775 1466 
L 3631 1466 
L 3631 1028 
L 4647 1028 
Q 4359 1284 4091 1584 
L 2319 1584 
Q 2050 1284 1759 1028 
L 2775 1028 
L 2775 1466 
z
" transform="scale(0.015625)"/>
      <path id="MicrosoftYaHei-Bold-4e8e" d="M 163 2841 
L 2800 2841 
L 2800 4078 
L 625 4078 
L 625 4966 
L 5800 4966 
L 5800 4078 
L 3750 4078 
L 3750 2841 
L 6244 2841 
L 6244 1953 
L 3750 1953 
L 3750 584 
Q 3750 -44 3495 -358 
Q 3241 -672 2755 -683 
Q 2269 -694 1438 -697 
Q 1350 -228 1213 253 
Q 1750 197 2281 197 
Q 2800 197 2800 716 
L 2800 1953 
L 163 1953 
L 163 2841 
z
" transform="scale(0.015625)"/>
      <path id="MicrosoftYaHei-Bold-54" d="M 3900 3997 
L 2519 3997 
L 2519 0 
L 1484 0 
L 1484 3997 
L 106 3997 
L 106 4841 
L 3900 4841 
L 3900 3997 
z
" transform="scale(0.015625)"/>
      <path id="MicrosoftYaHei-Bold-4f" d="M 256 2356 
Q 256 3494 920 4208 
Q 1584 4922 2675 4922 
Q 3713 4922 4345 4231 
Q 4978 3541 4978 2456 
Q 4978 1325 4320 620 
Q 3663 -84 2597 -84 
Q 1556 -84 906 598 
Q 256 1281 256 2356 
z
M 1341 2413 
Q 1341 1706 1681 1257 
Q 2022 809 2616 809 
Q 3222 809 3559 1239 
Q 3897 1669 3897 2394 
Q 3897 3150 3569 3589 
Q 3241 4028 2644 4028 
Q 2038 4028 1689 3578 
Q 1341 3128 1341 2413 
z
" transform="scale(0.015625)"/>
      <path id="MicrosoftYaHei-Bold-50" d="M 1591 1688 
L 1591 0 
L 559 0 
L 559 4841 
L 2225 4841 
Q 4031 4841 4031 3309 
Q 4031 2566 3486 2117 
Q 2941 1669 2122 1688 
L 1591 1688 
z
M 1591 4041 
L 1591 2478 
L 2038 2478 
Q 2947 2478 2947 3269 
Q 2947 4041 2047 4041 
L 1591 4041 
z
" transform="scale(0.015625)"/>
      <path id="MicrosoftYaHei-Bold-30" d="M 244 2341 
Q 244 3597 706 4259 
Q 1169 4922 2044 4922 
Q 3713 4922 3713 2453 
Q 3713 1238 3259 577 
Q 2806 -84 1950 -84 
Q 244 -84 244 2341 
z
M 1266 2366 
Q 1266 691 1981 691 
Q 2684 691 2684 2416 
Q 2684 4147 2000 4147 
Q 1266 4147 1266 2366 
z
" transform="scale(0.015625)"/>
      <path id="MicrosoftYaHei-Bold-4f9b" d="M 1288 5278 
L 2081 5047 
Q 1869 4359 1613 3728 
L 1613 -778 
L 844 -778 
L 844 2141 
Q 613 1734 356 1359 
Q 275 1859 106 2484 
Q 806 3578 1288 5278 
z
M 1888 1991 
L 2769 1991 
L 2769 3328 
L 2088 3328 
L 2088 4128 
L 2769 4128 
L 2769 5253 
L 3619 5253 
L 3619 4128 
L 4588 4128 
L 4588 5253 
L 5438 5253 
L 5438 4128 
L 6131 4128 
L 6131 3328 
L 5438 3328 
L 5438 1991 
L 6306 1991 
L 6306 1191 
L 1888 1191 
L 1888 1991 
z
M 3619 1991 
L 4588 1991 
L 4588 3328 
L 3619 3328 
L 3619 1991 
z
M 1900 -291 
Q 2569 353 3106 1109 
L 3813 641 
Q 3275 -78 2538 -841 
Q 2281 -597 1900 -291 
z
M 4988 1084 
Q 5638 441 6288 -284 
L 5563 -828 
Q 5050 -116 4344 628 
L 4988 1084 
z
" transform="scale(0.015625)"/>
      <path id="MicrosoftYaHei-Bold-5e94" d="M 1438 2491 
Q 1438 119 794 -866 
Q 506 -597 88 -266 
Q 619 622 613 2603 
L 613 4566 
L 3009 4566 
Q 2894 4853 2781 5116 
L 3788 5353 
Q 3928 5016 4103 4566 
L 6225 4566 
L 6225 3797 
L 1438 3797 
L 1438 2491 
z
M 3013 3309 
L 3794 3541 
Q 4125 2678 4513 1316 
L 3669 1084 
Q 3300 2416 3013 3309 
z
M 1325 316 
L 4300 316 
Q 4681 1541 5200 3453 
L 6069 3228 
Q 5744 2006 5184 316 
L 6250 316 
L 6250 -553 
L 1325 -553 
L 1325 316 
z
M 1475 2984 
L 2225 3303 
Q 2775 2103 3244 828 
L 2406 516 
Q 2006 1684 1475 2984 
z
" transform="scale(0.015625)"/>
      <path id="MicrosoftYaHei-Bold-5546" d="M 238 4791 
L 2694 4791 
L 2563 5303 
L 3613 5341 
L 3675 4791 
L 6175 4791 
L 6175 4103 
L 238 4103 
L 238 4791 
z
M 475 3516 
L 1713 3516 
L 1356 3953 
L 2375 3953 
L 2703 3516 
L 3697 3516 
Q 3931 3797 4050 3953 
L 5063 3953 
Q 4863 3728 4666 3516 
L 5956 3516 
L 5956 303 
Q 5956 -131 5786 -389 
Q 5616 -647 5314 -720 
Q 5013 -794 4025 -803 
Q 3938 -303 3863 -22 
Q 4219 -59 4556 -59 
Q 5125 -59 5125 466 
L 5125 1594 
L 4925 1341 
L 4469 1659 
L 4469 109 
L 2713 109 
L 2713 -191 
L 1950 -191 
L 1950 1581 
L 1550 1297 
Q 1541 1313 1300 1625 
L 1300 -797 
L 475 -797 
L 475 3516 
z
M 2494 2816 
L 2944 2322 
Q 2694 2128 2441 1941 
L 4056 1941 
L 3475 2322 
L 3881 2797 
Q 4519 2438 5125 2056 
L 5125 2853 
L 1300 2853 
L 1300 1969 
Q 1956 2413 2494 2816 
z
M 3706 797 
L 3706 1291 
L 2713 1291 
L 2713 797 
L 3706 797 
z
" transform="scale(0.015625)"/>
      <path id="MicrosoftYaHei-Bold-29" d="M 59 -1100 
Q 1097 216 1097 1853 
Q 1097 3484 59 4841 
L 888 4841 
Q 1978 3544 1978 1853 
Q 1978 113 881 -1100 
L 59 -1100 
z
" transform="scale(0.015625)"/>
     </defs>
     <use xlink:href="#MicrosoftYaHei-Bold-28"/>
     <use xlink:href="#MicrosoftYaHei-Bold-57fa" transform="translate(38.964844 0)"/>
     <use xlink:href="#MicrosoftYaHei-Bold-4e8e" transform="translate(138.964844 0)"/>
     <use xlink:href="#MicrosoftYaHei-Bold-54" transform="translate(238.964844 0)"/>
     <use xlink:href="#MicrosoftYaHei-Bold-4f" transform="translate(297.388672 0)"/>
     <use xlink:href="#MicrosoftYaHei-Bold-50" transform="translate(379.224609 0)"/>
     <use xlink:href="#MicrosoftYaHei-Bold-35" transform="translate(444.947266 0)"/>
     <use xlink:href="#MicrosoftYaHei-Bold-30" transform="translate(506.617188 0)"/>
     <use xlink:href="#MicrosoftYaHei-Bold-4f9b" transform="translate(568.287109 0)"/>
     <use xlink:href="#MicrosoftYaHei-Bold-5e94" transform="translate(668.287109 0)"/>
     <use xlink:href="#MicrosoftYaHei-Bold-5546" transform="translate(768.287109 0)"/>
     <use xlink:href="#MicrosoftYaHei-Bold-29" transform="translate(868.287109 0)"/>
    </g>
   </g>
   <g id="legend_1">
    <g id="patch_7">
     <path d="M 773.289688 308.008594 
L 842.325625 308.008594 
Q 844.325625 308.008594 844.325625 306.008594 
L 844.325625 260.569531 
Q 844.325625 258.569531 842.325625 258.569531 
L 773.289688 258.569531 
Q 771.289688 258.569531 771.289688 260.569531 
L 771.289688 306.008594 
Q 771.289688 308.008594 773.289688 308.008594 
z
" style="fill: #ffffff; opacity: 0.8; stroke: #cccccc; stroke-linejoin: miter"/>
    </g>
    <g id="line2d_32">
     <path d="M 775.289688 267.063281 
L 785.289688 267.063281 
L 795.289688 267.063281 
" style="fill: none; stroke: #ff0000; stroke-width: 3; stroke-linecap: square"/>
     <g>
      <use xlink:href="#m821b99f5d8" x="785.289688" y="267.063281" style="fill: #ff0000; stroke: #ff0000"/>
     </g>
    </g>
    <g id="text_18">
     <!-- A类材料 -->
     <g transform="translate(803.289688 270.563281) scale(0.1 -0.1)">
      <defs>
       <path id="MicrosoftYaHei-41" d="M 4428 0 
L 3738 0 
L 3244 1325 
L 1228 1325 
L 763 0 
L 72 0 
L 1916 4841 
L 2584 4841 
L 4428 0 
z
M 3050 1872 
L 2319 3884 
Q 2284 3981 2244 4222 
L 2228 4222 
Q 2194 4003 2150 3884 
L 1425 1872 
L 3050 1872 
z
" transform="scale(0.015625)"/>
       <path id="MicrosoftYaHei-7c7b" d="M 6338 -359 
Q 6213 -503 6006 -853 
Q 3975 -459 3200 884 
Q 2644 -497 400 -897 
Q 288 -684 131 -434 
Q 2244 -147 2744 1047 
L 275 1047 
L 275 1484 
L 2875 1484 
Q 2925 1691 2956 1978 
L 3456 1978 
Q 3413 1697 3369 1484 
L 6125 1484 
L 6125 1047 
L 3619 1047 
Q 4450 -159 6338 -359 
z
M 325 3741 
L 2975 3741 
L 2975 5303 
L 3450 5303 
L 3450 3741 
L 6075 3741 
L 6075 3322 
L 3450 3322 
L 3450 2953 
L 3625 3191 
Q 5325 2528 6231 2128 
L 6013 1722 
Q 4956 2266 3450 2847 
L 3450 2197 
L 2975 2197 
L 2975 3241 
Q 1863 2191 450 1741 
Q 319 1934 144 2153 
Q 1569 2553 2538 3322 
L 325 3322 
L 325 3741 
z
M 5550 4784 
Q 5163 4459 4394 3891 
L 4069 4222 
Q 4569 4578 5194 5122 
L 5550 4784 
z
M 900 4791 
L 1206 5122 
Q 1875 4647 2306 4266 
L 1969 3897 
Q 1581 4284 900 4791 
z
" transform="scale(0.015625)"/>
       <path id="MicrosoftYaHei-6750" d="M 2863 3997 
L 4925 3997 
L 4925 5278 
L 5419 5278 
L 5419 3997 
L 6306 3997 
L 6306 3541 
L 5419 3541 
L 5419 166 
Q 5419 -716 4600 -716 
Q 4244 -716 3625 -709 
Q 3594 -478 3525 -159 
Q 4144 -203 4450 -203 
Q 4925 -203 4925 191 
L 4925 3003 
Q 4138 1297 2588 59 
Q 2438 241 2219 478 
Q 3856 1716 4681 3541 
L 2863 3541 
L 2863 3997 
z
M 88 1309 
Q 819 2341 1138 3572 
L 188 3572 
L 188 4016 
L 1219 4016 
L 1219 5278 
L 1700 5278 
L 1700 4016 
L 2606 4016 
L 2606 3572 
L 1700 3572 
L 1700 2728 
L 1956 2959 
Q 2481 2472 2938 2003 
L 2563 1659 
Q 2144 2153 1700 2597 
L 1700 -834 
L 1219 -834 
L 1219 2578 
Q 838 1484 331 759 
Q 219 1028 88 1309 
z
" transform="scale(0.015625)"/>
       <path id="MicrosoftYaHei-6599" d="M 88 541 
Q 756 1397 1113 2472 
L 150 2472 
L 150 2897 
L 1194 2897 
L 1194 5297 
L 1656 5297 
L 1656 2897 
L 2675 2897 
L 2675 2472 
L 1656 2472 
L 1656 1853 
L 1938 2078 
Q 2363 1628 2706 1216 
L 2350 928 
Q 2025 1372 1656 1778 
L 1656 -828 
L 1194 -828 
L 1194 1691 
Q 800 641 281 41 
Q 200 297 88 541 
z
M 2850 1353 
L 4850 1597 
L 4850 5297 
L 5331 5297 
L 5331 1653 
L 6281 1772 
L 6319 1322 
L 5331 1197 
L 5331 -828 
L 4850 -828 
L 4850 1141 
L 2913 903 
L 2850 1353 
z
M 2981 2778 
L 3250 3109 
Q 3844 2716 4356 2309 
L 4050 1934 
Q 3569 2347 2981 2778 
z
M 1806 3347 
Q 2094 4053 2288 4653 
L 2731 4516 
Q 2500 3897 2194 3184 
L 1806 3347 
z
M 3119 4366 
L 3406 4697 
Q 3944 4309 4463 3859 
L 4150 3491 
Q 3744 3884 3119 4366 
z
M 144 4516 
L 519 4666 
Q 750 4128 1025 3416 
L 594 3222 
Q 313 4066 144 4516 
z
" transform="scale(0.015625)"/>
      </defs>
      <use xlink:href="#MicrosoftYaHei-41"/>
      <use xlink:href="#MicrosoftYaHei-7c7b" transform="translate(70.361328 0)"/>
      <use xlink:href="#MicrosoftYaHei-6750" transform="translate(170.361328 0)"/>
      <use xlink:href="#MicrosoftYaHei-6599" transform="translate(270.361328 0)"/>
     </g>
    </g>
    <g id="line2d_33">
     <path d="M 775.289688 282.542969 
L 785.289688 282.542969 
L 795.289688 282.542969 
" style="fill: none; stroke: #0000ff; stroke-width: 3; stroke-linecap: square"/>
     <g>
      <use xlink:href="#m85a6122184" x="785.289688" y="282.542969" style="fill: #0000ff; stroke: #0000ff"/>
     </g>
    </g>
    <g id="text_19">
     <!-- B类材料 -->
     <g transform="translate(803.289688 286.042969) scale(0.1 -0.1)">
      <defs>
       <path id="MicrosoftYaHei-42" d="M 625 0 
L 625 4841 
L 2047 4841 
Q 2684 4841 3065 4536 
Q 3447 4231 3447 3728 
Q 3447 3328 3220 3022 
Q 2994 2716 2597 2588 
L 2597 2575 
Q 3091 2519 3386 2201 
Q 3681 1884 3681 1397 
Q 3681 772 3232 386 
Q 2784 0 2084 0 
L 625 0 
z
M 1250 4294 
L 1250 2778 
L 1819 2778 
Q 2272 2778 2530 2998 
Q 2788 3219 2788 3609 
Q 2788 4294 1875 4294 
L 1250 4294 
z
M 1250 2234 
L 1250 547 
L 2000 547 
Q 2491 547 2758 773 
Q 3025 1000 3025 1403 
Q 3025 2234 1897 2234 
L 1250 2234 
z
" transform="scale(0.015625)"/>
      </defs>
      <use xlink:href="#MicrosoftYaHei-42"/>
      <use xlink:href="#MicrosoftYaHei-7c7b" transform="translate(62.744141 0)"/>
      <use xlink:href="#MicrosoftYaHei-6750" transform="translate(162.744141 0)"/>
      <use xlink:href="#MicrosoftYaHei-6599" transform="translate(262.744141 0)"/>
     </g>
    </g>
    <g id="line2d_34">
     <path d="M 775.289688 298.022656 
L 785.289688 298.022656 
L 795.289688 298.022656 
" style="fill: none; stroke: #008000; stroke-width: 3; stroke-linecap: square"/>
     <g>
      <use xlink:href="#md9bd878db2" x="785.289688" y="298.022656" style="fill: #008000; stroke: #008000"/>
     </g>
    </g>
    <g id="text_20">
     <!-- C类材料 -->
     <g transform="translate(803.289688 301.522656) scale(0.1 -0.1)">
      <defs>
       <path id="MicrosoftYaHei-43" d="M 3938 200 
Q 3403 -81 2597 -81 
Q 1556 -81 934 580 
Q 313 1241 313 2328 
Q 313 3497 1013 4209 
Q 1713 4922 2791 4922 
Q 3484 4922 3938 4725 
L 3938 4072 
Q 3419 4359 2797 4359 
Q 1988 4359 1478 3820 
Q 969 3281 969 2366 
Q 969 1497 1444 986 
Q 1919 475 2688 475 
Q 3406 475 3938 800 
L 3938 200 
z
" transform="scale(0.015625)"/>
      </defs>
      <use xlink:href="#MicrosoftYaHei-43"/>
      <use xlink:href="#MicrosoftYaHei-7c7b" transform="translate(66.894531 0)"/>
      <use xlink:href="#MicrosoftYaHei-6750" transform="translate(166.894531 0)"/>
      <use xlink:href="#MicrosoftYaHei-6599" transform="translate(266.894531 0)"/>
     </g>
    </g>
   </g>
  </g>
 </g>
 <defs>
  <clipPath id="pec63fe89cb">
   <rect x="50.775625" y="41.301062" width="798.55" height="483.976"/>
  </clipPath>
 </defs>
</svg>
