<?xml version="1.0" encoding="utf-8" standalone="no"?>
<!DOCTYPE svg PUBLIC "-//W3C//DTD SVG 1.1//EN"
  "http://www.w3.org/Graphics/SVG/1.1/DTD/svg11.dtd">
<svg xmlns:xlink="http://www.w3.org/1999/xlink" width="1075.53225pt" height="711.925312pt" viewBox="0 0 1075.53225 711.925312" xmlns="http://www.w3.org/2000/svg" version="1.1">
 <metadata>
  <rdf:RDF xmlns:dc="http://purl.org/dc/elements/1.1/" xmlns:cc="http://creativecommons.org/ns#" xmlns:rdf="http://www.w3.org/1999/02/22-rdf-syntax-ns#">
   <cc:Work>
    <dc:type rdf:resource="http://purl.org/dc/dcmitype/StillImage"/>
    <dc:date>2025-08-02T20:05:31.427809</dc:date>
    <dc:format>image/svg+xml</dc:format>
    <dc:creator>
     <cc:Agent>
      <dc:title>Matplotlib v3.10.5, https://matplotlib.org/</dc:title>
     </cc:Agent>
    </dc:creator>
   </cc:Work>
  </rdf:RDF>
 </metadata>
 <defs>
  <style type="text/css">*{stroke-linejoin: round; stroke-linecap: butt}</style>
 </defs>
 <g id="figure_1">
  <g id="patch_1">
   <path d="M 0 711.925312 
L 1075.53225 711.925312 
L 1075.53225 0 
L 0 0 
z
" style="fill: #ffffff"/>
  </g>
  <g id="axes_1">
   <g id="patch_2">
    <path d="M 50.775625 670.67 
L 942.695625 670.67 
L 942.695625 25.99 
L 50.775625 25.99 
z
" style="fill: #ffffff"/>
   </g>
   <g id="matplotlib.axis_1">
    <g id="xtick_1">
     <g id="line2d_1">
      <path d="M 91.317443 670.67 
L 91.317443 25.99 
" clip-path="url(#p931a56de4a)" style="fill: none; stroke: #b0b0b0; stroke-opacity: 0.3; stroke-width: 0.8; stroke-linecap: square"/>
     </g>
     <g id="line2d_2">
      <defs>
       <path id="m876347bcb5" d="M 0 0 
L 0 3.5 
" style="stroke: #000000; stroke-width: 0.8"/>
      </defs>
      <g>
       <use xlink:href="#m876347bcb5" x="91.317443" y="670.67" style="stroke: #000000; stroke-width: 0.8"/>
      </g>
     </g>
     <g id="text_1">
      <!-- 1.0 -->
      <g transform="translate(84.249474 685.66375) scale(0.1 -0.1)">
       <defs>
        <path id="MicrosoftYaHei-31" d="M 1781 0 
L 1781 4141 
Q 1638 3997 1295 3819 
Q 953 3641 663 3569 
L 663 4169 
Q 1047 4275 1484 4508 
Q 1922 4741 2156 4947 
L 2388 4947 
L 2388 0 
L 1781 0 
z
" transform="scale(0.015625)"/>
        <path id="MicrosoftYaHei-2e" d="M 372 322 
Q 372 491 487 606 
Q 603 722 775 722 
Q 950 722 1065 605 
Q 1181 488 1181 322 
Q 1181 159 1065 42 
Q 950 -75 772 -75 
Q 600 -75 486 42 
Q 372 159 372 322 
z
" transform="scale(0.015625)"/>
        <path id="MicrosoftYaHei-30" d="M 284 2325 
Q 284 3606 709 4264 
Q 1134 4922 1941 4922 
Q 3478 4922 3478 2441 
Q 3478 1216 3045 567 
Q 2613 -81 1831 -81 
Q 1094 -81 689 534 
Q 284 1150 284 2325 
z
M 909 2353 
Q 909 425 1888 425 
Q 2850 425 2850 2384 
Q 2850 4413 1906 4413 
Q 909 4413 909 2353 
z
" transform="scale(0.015625)"/>
       </defs>
       <use xlink:href="#MicrosoftYaHei-31"/>
       <use xlink:href="#MicrosoftYaHei-2e" transform="translate(58.642578 0)"/>
       <use xlink:href="#MicrosoftYaHei-30" transform="translate(82.714844 0)"/>
      </g>
     </g>
    </g>
    <g id="xtick_2">
     <g id="line2d_3">
      <path d="M 192.671989 670.67 
L 192.671989 25.99 
" clip-path="url(#p931a56de4a)" style="fill: none; stroke: #b0b0b0; stroke-opacity: 0.3; stroke-width: 0.8; stroke-linecap: square"/>
     </g>
     <g id="line2d_4">
      <g>
       <use xlink:href="#m876347bcb5" x="192.671989" y="670.67" style="stroke: #000000; stroke-width: 0.8"/>
      </g>
     </g>
     <g id="text_2">
      <!-- 1.5 -->
      <g transform="translate(185.60402 685.66375) scale(0.1 -0.1)">
       <defs>
        <path id="MicrosoftYaHei-35" d="M 3294 1494 
Q 3294 784 2823 350 
Q 2353 -84 1559 -84 
Q 878 -84 544 119 
L 544 744 
Q 1034 425 1544 425 
Q 2050 425 2361 704 
Q 2672 984 2672 1447 
Q 2672 1909 2348 2167 
Q 2025 2425 1434 2425 
Q 978 2425 613 2384 
L 791 4841 
L 3053 4841 
L 3053 4303 
L 1306 4303 
L 1206 2931 
L 1647 2950 
Q 2416 2950 2855 2567 
Q 3294 2184 3294 1494 
z
" transform="scale(0.015625)"/>
       </defs>
       <use xlink:href="#MicrosoftYaHei-31"/>
       <use xlink:href="#MicrosoftYaHei-2e" transform="translate(58.642578 0)"/>
       <use xlink:href="#MicrosoftYaHei-35" transform="translate(82.714844 0)"/>
      </g>
     </g>
    </g>
    <g id="xtick_3">
     <g id="line2d_5">
      <path d="M 294.026534 670.67 
L 294.026534 25.99 
" clip-path="url(#p931a56de4a)" style="fill: none; stroke: #b0b0b0; stroke-opacity: 0.3; stroke-width: 0.8; stroke-linecap: square"/>
     </g>
     <g id="line2d_6">
      <g>
       <use xlink:href="#m876347bcb5" x="294.026534" y="670.67" style="stroke: #000000; stroke-width: 0.8"/>
      </g>
     </g>
     <g id="text_3">
      <!-- 2.0 -->
      <g transform="translate(286.958565 685.66375) scale(0.1 -0.1)">
       <defs>
        <path id="MicrosoftYaHei-32" d="M 2666 3572 
Q 2666 3963 2419 4186 
Q 2172 4409 1747 4409 
Q 1447 4409 1140 4256 
Q 834 4103 569 3819 
L 569 4413 
Q 806 4659 1107 4790 
Q 1409 4922 1816 4922 
Q 2472 4922 2872 4570 
Q 3272 4219 3272 3619 
Q 3272 3084 3026 2693 
Q 2781 2303 2188 1894 
Q 1581 1475 1376 1294 
Q 1172 1113 1090 947 
Q 1009 781 1009 544 
L 3416 544 
L 3416 0 
L 372 0 
L 372 241 
Q 372 659 486 951 
Q 600 1244 862 1520 
Q 1125 1797 1681 2184 
Q 2250 2584 2458 2886 
Q 2666 3188 2666 3572 
z
" transform="scale(0.015625)"/>
       </defs>
       <use xlink:href="#MicrosoftYaHei-32"/>
       <use xlink:href="#MicrosoftYaHei-2e" transform="translate(58.642578 0)"/>
       <use xlink:href="#MicrosoftYaHei-30" transform="translate(82.714844 0)"/>
      </g>
     </g>
    </g>
    <g id="xtick_4">
     <g id="line2d_7">
      <path d="M 395.38108 670.67 
L 395.38108 25.99 
" clip-path="url(#p931a56de4a)" style="fill: none; stroke: #b0b0b0; stroke-opacity: 0.3; stroke-width: 0.8; stroke-linecap: square"/>
     </g>
     <g id="line2d_8">
      <g>
       <use xlink:href="#m876347bcb5" x="395.38108" y="670.67" style="stroke: #000000; stroke-width: 0.8"/>
      </g>
     </g>
     <g id="text_4">
      <!-- 2.5 -->
      <g transform="translate(388.313111 685.66375) scale(0.1 -0.1)">
       <use xlink:href="#MicrosoftYaHei-32"/>
       <use xlink:href="#MicrosoftYaHei-2e" transform="translate(58.642578 0)"/>
       <use xlink:href="#MicrosoftYaHei-35" transform="translate(82.714844 0)"/>
      </g>
     </g>
    </g>
    <g id="xtick_5">
     <g id="line2d_9">
      <path d="M 496.735625 670.67 
L 496.735625 25.99 
" clip-path="url(#p931a56de4a)" style="fill: none; stroke: #b0b0b0; stroke-opacity: 0.3; stroke-width: 0.8; stroke-linecap: square"/>
     </g>
     <g id="line2d_10">
      <g>
       <use xlink:href="#m876347bcb5" x="496.735625" y="670.67" style="stroke: #000000; stroke-width: 0.8"/>
      </g>
     </g>
     <g id="text_5">
      <!-- 3.0 -->
      <g transform="translate(489.667656 685.66375) scale(0.1 -0.1)">
       <defs>
        <path id="MicrosoftYaHei-33" d="M 447 809 
Q 944 425 1569 425 
Q 2069 425 2361 670 
Q 2653 916 2653 1328 
Q 2653 2247 1338 2247 
L 934 2247 
L 934 2753 
L 1319 2753 
Q 2484 2753 2484 3616 
Q 2484 4413 1594 4413 
Q 1084 4413 634 4069 
L 634 4647 
Q 1109 4922 1744 4922 
Q 2363 4922 2738 4598 
Q 3113 4275 3113 3759 
Q 3113 2809 2144 2538 
L 2144 2525 
Q 2669 2469 2973 2155 
Q 3278 1841 3278 1372 
Q 3278 719 2808 319 
Q 2338 -81 1556 -81 
Q 869 -81 447 175 
L 447 809 
z
" transform="scale(0.015625)"/>
       </defs>
       <use xlink:href="#MicrosoftYaHei-33"/>
       <use xlink:href="#MicrosoftYaHei-2e" transform="translate(58.642578 0)"/>
       <use xlink:href="#MicrosoftYaHei-30" transform="translate(82.714844 0)"/>
      </g>
     </g>
    </g>
    <g id="xtick_6">
     <g id="line2d_11">
      <path d="M 598.09017 670.67 
L 598.09017 25.99 
" clip-path="url(#p931a56de4a)" style="fill: none; stroke: #b0b0b0; stroke-opacity: 0.3; stroke-width: 0.8; stroke-linecap: square"/>
     </g>
     <g id="line2d_12">
      <g>
       <use xlink:href="#m876347bcb5" x="598.09017" y="670.67" style="stroke: #000000; stroke-width: 0.8"/>
      </g>
     </g>
     <g id="text_6">
      <!-- 3.5 -->
      <g transform="translate(591.022202 685.66375) scale(0.1 -0.1)">
       <use xlink:href="#MicrosoftYaHei-33"/>
       <use xlink:href="#MicrosoftYaHei-2e" transform="translate(58.642578 0)"/>
       <use xlink:href="#MicrosoftYaHei-35" transform="translate(82.714844 0)"/>
      </g>
     </g>
    </g>
    <g id="xtick_7">
     <g id="line2d_13">
      <path d="M 699.444716 670.67 
L 699.444716 25.99 
" clip-path="url(#p931a56de4a)" style="fill: none; stroke: #b0b0b0; stroke-opacity: 0.3; stroke-width: 0.8; stroke-linecap: square"/>
     </g>
     <g id="line2d_14">
      <g>
       <use xlink:href="#m876347bcb5" x="699.444716" y="670.67" style="stroke: #000000; stroke-width: 0.8"/>
      </g>
     </g>
     <g id="text_7">
      <!-- 4.0 -->
      <g transform="translate(692.376747 685.66375) scale(0.1 -0.1)">
       <defs>
        <path id="MicrosoftYaHei-34" d="M 2906 4841 
L 2906 1644 
L 3631 1644 
L 3631 1138 
L 2906 1138 
L 2906 0 
L 2313 0 
L 2313 1138 
L 53 1138 
L 53 1616 
Q 656 2294 1265 3178 
Q 1875 4063 2272 4841 
L 2906 4841 
z
M 741 1644 
L 2313 1644 
L 2313 3950 
Q 1988 3366 1616 2817 
Q 1244 2269 741 1644 
z
" transform="scale(0.015625)"/>
       </defs>
       <use xlink:href="#MicrosoftYaHei-34"/>
       <use xlink:href="#MicrosoftYaHei-2e" transform="translate(58.642578 0)"/>
       <use xlink:href="#MicrosoftYaHei-30" transform="translate(82.714844 0)"/>
      </g>
     </g>
    </g>
    <g id="xtick_8">
     <g id="line2d_15">
      <path d="M 800.799261 670.67 
L 800.799261 25.99 
" clip-path="url(#p931a56de4a)" style="fill: none; stroke: #b0b0b0; stroke-opacity: 0.3; stroke-width: 0.8; stroke-linecap: square"/>
     </g>
     <g id="line2d_16">
      <g>
       <use xlink:href="#m876347bcb5" x="800.799261" y="670.67" style="stroke: #000000; stroke-width: 0.8"/>
      </g>
     </g>
     <g id="text_8">
      <!-- 4.5 -->
      <g transform="translate(793.731293 685.66375) scale(0.1 -0.1)">
       <use xlink:href="#MicrosoftYaHei-34"/>
       <use xlink:href="#MicrosoftYaHei-2e" transform="translate(58.642578 0)"/>
       <use xlink:href="#MicrosoftYaHei-35" transform="translate(82.714844 0)"/>
      </g>
     </g>
    </g>
    <g id="xtick_9">
     <g id="line2d_17">
      <path d="M 902.153807 670.67 
L 902.153807 25.99 
" clip-path="url(#p931a56de4a)" style="fill: none; stroke: #b0b0b0; stroke-opacity: 0.3; stroke-width: 0.8; stroke-linecap: square"/>
     </g>
     <g id="line2d_18">
      <g>
       <use xlink:href="#m876347bcb5" x="902.153807" y="670.67" style="stroke: #000000; stroke-width: 0.8"/>
      </g>
     </g>
     <g id="text_9">
      <!-- 5.0 -->
      <g transform="translate(895.085838 685.66375) scale(0.1 -0.1)">
       <use xlink:href="#MicrosoftYaHei-35"/>
       <use xlink:href="#MicrosoftYaHei-2e" transform="translate(58.642578 0)"/>
       <use xlink:href="#MicrosoftYaHei-30" transform="translate(82.714844 0)"/>
      </g>
     </g>
    </g>
    <g id="text_10">
     <!-- 年份 -->
     <g transform="translate(484.735625 701.742187) scale(0.12 -0.12)">
      <defs>
       <path id="MicrosoftYaHei-5e74" d="M 119 1278 
L 1125 1278 
L 1125 3066 
L 3338 3066 
L 3338 4178 
L 1500 4178 
Q 1078 3419 556 2778 
Q 394 2953 169 3128 
Q 1056 4128 1500 5372 
L 2013 5228 
Q 1881 4919 1738 4628 
L 6038 4628 
L 6038 4178 
L 3844 4178 
L 3844 3066 
L 5931 3066 
L 5931 2628 
L 3844 2628 
L 3844 1278 
L 6319 1278 
L 6319 828 
L 3844 828 
L 3844 -859 
L 3338 -859 
L 3338 828 
L 119 828 
L 119 1278 
z
M 1619 1278 
L 3338 1278 
L 3338 2628 
L 1619 2628 
L 1619 1278 
z
" transform="scale(0.015625)"/>
       <path id="MicrosoftYaHei-4efd" d="M 2269 2653 
L 5394 2653 
Q 5388 2566 5300 366 
Q 5275 -709 4319 -722 
Q 3806 -722 3425 -703 
Q 3394 -416 3331 -184 
Q 3763 -241 4200 -253 
Q 4806 -297 4813 422 
Q 4863 1259 4888 2216 
L 3481 2216 
Q 3463 1222 3181 572 
Q 2844 -172 2019 -822 
Q 1856 -622 1656 -416 
Q 2450 203 2713 772 
Q 2969 1275 2997 2216 
L 2269 2216 
L 2269 2653 
z
M 75 2353 
Q 969 3534 1525 5284 
L 2013 5116 
Q 1709 4284 1350 3559 
L 1350 -809 
L 875 -809 
L 875 2691 
Q 588 2216 275 1797 
Q 181 2066 75 2353 
z
M 4006 5116 
L 4419 5291 
Q 5038 3703 6325 2972 
Q 6088 2697 5969 2516 
Q 4575 3472 4006 5116 
z
M 1588 2741 
Q 2563 3597 3163 5034 
L 3606 4866 
Q 3025 3409 1963 2397 
Q 1738 2628 1588 2741 
z
" transform="scale(0.015625)"/>
      </defs>
      <use xlink:href="#MicrosoftYaHei-5e74"/>
      <use xlink:href="#MicrosoftYaHei-4efd" transform="translate(100 0)"/>
     </g>
    </g>
   </g>
   <g id="matplotlib.axis_2">
    <g id="ytick_1">
     <g id="line2d_19">
      <path d="M 50.775625 651.211927 
L 942.695625 651.211927 
" clip-path="url(#p931a56de4a)" style="fill: none; stroke: #b0b0b0; stroke-opacity: 0.3; stroke-width: 0.8; stroke-linecap: square"/>
     </g>
     <g id="line2d_20">
      <defs>
       <path id="mf871d5c14d" d="M 0 0 
L -3.5 0 
" style="stroke: #000000; stroke-width: 0.8"/>
      </defs>
      <g>
       <use xlink:href="#mf871d5c14d" x="50.775625" y="651.211927" style="stroke: #000000; stroke-width: 0.8"/>
      </g>
     </g>
     <g id="text_11">
      <!-- 0.35 -->
      <g transform="translate(23.775625 655.208802) scale(0.1 -0.1)">
       <use xlink:href="#MicrosoftYaHei-30"/>
       <use xlink:href="#MicrosoftYaHei-2e" transform="translate(58.642578 0)"/>
       <use xlink:href="#MicrosoftYaHei-33" transform="translate(82.714844 0)"/>
       <use xlink:href="#MicrosoftYaHei-35" transform="translate(141.357422 0)"/>
      </g>
     </g>
    </g>
    <g id="ytick_2">
     <g id="line2d_21">
      <path d="M 50.775625 509.308335 
L 942.695625 509.308335 
" clip-path="url(#p931a56de4a)" style="fill: none; stroke: #b0b0b0; stroke-opacity: 0.3; stroke-width: 0.8; stroke-linecap: square"/>
     </g>
     <g id="line2d_22">
      <g>
       <use xlink:href="#mf871d5c14d" x="50.775625" y="509.308335" style="stroke: #000000; stroke-width: 0.8"/>
      </g>
     </g>
     <g id="text_12">
      <!-- 0.40 -->
      <g transform="translate(23.775625 513.30521) scale(0.1 -0.1)">
       <use xlink:href="#MicrosoftYaHei-30"/>
       <use xlink:href="#MicrosoftYaHei-2e" transform="translate(58.642578 0)"/>
       <use xlink:href="#MicrosoftYaHei-34" transform="translate(82.714844 0)"/>
       <use xlink:href="#MicrosoftYaHei-30" transform="translate(141.357422 0)"/>
      </g>
     </g>
    </g>
    <g id="ytick_3">
     <g id="line2d_23">
      <path d="M 50.775625 367.404744 
L 942.695625 367.404744 
" clip-path="url(#p931a56de4a)" style="fill: none; stroke: #b0b0b0; stroke-opacity: 0.3; stroke-width: 0.8; stroke-linecap: square"/>
     </g>
     <g id="line2d_24">
      <g>
       <use xlink:href="#mf871d5c14d" x="50.775625" y="367.404744" style="stroke: #000000; stroke-width: 0.8"/>
      </g>
     </g>
     <g id="text_13">
      <!-- 0.45 -->
      <g transform="translate(23.775625 371.401619) scale(0.1 -0.1)">
       <use xlink:href="#MicrosoftYaHei-30"/>
       <use xlink:href="#MicrosoftYaHei-2e" transform="translate(58.642578 0)"/>
       <use xlink:href="#MicrosoftYaHei-34" transform="translate(82.714844 0)"/>
       <use xlink:href="#MicrosoftYaHei-35" transform="translate(141.357422 0)"/>
      </g>
     </g>
    </g>
    <g id="ytick_4">
     <g id="line2d_25">
      <path d="M 50.775625 225.501152 
L 942.695625 225.501152 
" clip-path="url(#p931a56de4a)" style="fill: none; stroke: #b0b0b0; stroke-opacity: 0.3; stroke-width: 0.8; stroke-linecap: square"/>
     </g>
     <g id="line2d_26">
      <g>
       <use xlink:href="#mf871d5c14d" x="50.775625" y="225.501152" style="stroke: #000000; stroke-width: 0.8"/>
      </g>
     </g>
     <g id="text_14">
      <!-- 0.50 -->
      <g transform="translate(23.775625 229.498027) scale(0.1 -0.1)">
       <use xlink:href="#MicrosoftYaHei-30"/>
       <use xlink:href="#MicrosoftYaHei-2e" transform="translate(58.642578 0)"/>
       <use xlink:href="#MicrosoftYaHei-35" transform="translate(82.714844 0)"/>
       <use xlink:href="#MicrosoftYaHei-30" transform="translate(141.357422 0)"/>
      </g>
     </g>
    </g>
    <g id="ytick_5">
     <g id="line2d_27">
      <path d="M 50.775625 83.597561 
L 942.695625 83.597561 
" clip-path="url(#p931a56de4a)" style="fill: none; stroke: #b0b0b0; stroke-opacity: 0.3; stroke-width: 0.8; stroke-linecap: square"/>
     </g>
     <g id="line2d_28">
      <g>
       <use xlink:href="#mf871d5c14d" x="50.775625" y="83.597561" style="stroke: #000000; stroke-width: 0.8"/>
      </g>
     </g>
     <g id="text_15">
      <!-- 0.55 -->
      <g transform="translate(23.775625 87.594436) scale(0.1 -0.1)">
       <use xlink:href="#MicrosoftYaHei-30"/>
       <use xlink:href="#MicrosoftYaHei-2e" transform="translate(58.642578 0)"/>
       <use xlink:href="#MicrosoftYaHei-35" transform="translate(82.714844 0)"/>
       <use xlink:href="#MicrosoftYaHei-35" transform="translate(141.357422 0)"/>
      </g>
     </g>
    </g>
    <g id="text_16">
     <!-- 权重值 -->
     <g transform="translate(16.7925 366.33) rotate(-90) scale(0.12 -0.12)">
      <defs>
       <path id="MicrosoftYaHei-6743" d="M 2331 4416 
L 2331 4884 
L 5881 4884 
L 5881 4428 
Q 5588 2253 4556 922 
Q 5231 241 6344 -203 
Q 6075 -497 5925 -722 
Q 4850 -166 4213 516 
Q 3500 -228 2225 -872 
Q 2088 -647 1875 -397 
Q 3194 222 3888 916 
Q 2944 2103 2719 4416 
L 2331 4416 
z
M 63 1347 
Q 700 2322 1019 3528 
L 125 3528 
L 125 3966 
L 1100 3966 
L 1100 5291 
L 1575 5291 
L 1575 3966 
L 2456 3966 
L 2456 3528 
L 1575 3528 
L 1575 2703 
L 1844 2953 
Q 2406 2422 2750 2009 
L 2375 1659 
Q 1956 2191 1575 2591 
L 1575 -853 
L 1100 -853 
L 1100 2572 
Q 763 1522 275 797 
Q 188 1066 63 1347 
z
M 5350 4416 
L 3219 4416 
Q 3406 2397 4225 1309 
Q 5088 2466 5350 4416 
z
" transform="scale(0.015625)"/>
       <path id="MicrosoftYaHei-91cd" d="M 113 -203 
L 2975 -203 
L 2975 259 
L 600 259 
L 600 628 
L 2975 628 
L 2975 1153 
L 1288 1153 
L 1288 928 
L 850 928 
L 850 3278 
L 2975 3278 
L 2975 3728 
L 163 3728 
L 163 4116 
L 2975 4116 
L 2975 4606 
Q 1841 4572 625 4547 
Q 588 4747 538 4972 
Q 3706 5009 5669 5141 
L 5744 4716 
Q 4631 4663 3425 4619 
L 3425 4116 
L 6263 4116 
L 6263 3728 
L 3425 3728 
L 3425 3278 
L 5569 3278 
L 5569 934 
L 5131 934 
L 5131 1153 
L 3425 1153 
L 3425 628 
L 5806 628 
L 5806 259 
L 3425 259 
L 3425 -203 
L 6263 -203 
L 6263 -591 
L 113 -591 
L 113 -203 
z
M 3425 1516 
L 5131 1516 
L 5131 2053 
L 3425 2053 
L 3425 1516 
z
M 1288 1516 
L 2975 1516 
L 2975 2053 
L 1288 2053 
L 1288 1516 
z
M 5131 2916 
L 3425 2916 
L 3425 2384 
L 5131 2384 
L 5131 2916 
z
M 1288 2384 
L 2975 2384 
L 2975 2916 
L 1288 2916 
L 1288 2384 
z
" transform="scale(0.015625)"/>
       <path id="MicrosoftYaHei-503c" d="M 1619 -216 
L 2250 -216 
L 2250 3653 
L 3725 3653 
L 3725 4222 
L 1913 4222 
L 1913 4647 
L 3725 4647 
L 3725 5309 
L 4200 5309 
L 4200 4647 
L 6169 4647 
L 6169 4222 
L 4200 4222 
L 4200 3653 
L 5713 3653 
L 5713 -216 
L 6306 -216 
L 6306 -641 
L 1619 -641 
L 1619 -216 
z
M 69 2247 
Q 906 3497 1369 5278 
L 1831 5141 
Q 1581 4334 1288 3628 
L 1288 -816 
L 831 -816 
L 831 2666 
Q 563 2166 263 1734 
Q 175 1997 69 2247 
z
M 2713 -216 
L 5250 -216 
L 5250 353 
L 2713 353 
L 2713 -216 
z
M 5250 3241 
L 2713 3241 
L 2713 2678 
L 5250 2678 
L 5250 3241 
z
M 2713 1716 
L 5250 1716 
L 5250 2278 
L 2713 2278 
L 2713 1716 
z
M 2713 753 
L 5250 753 
L 5250 1316 
L 2713 1316 
L 2713 753 
z
" transform="scale(0.015625)"/>
      </defs>
      <use xlink:href="#MicrosoftYaHei-6743"/>
      <use xlink:href="#MicrosoftYaHei-91cd" transform="translate(100 0)"/>
      <use xlink:href="#MicrosoftYaHei-503c" transform="translate(200 0)"/>
     </g>
    </g>
   </g>
   <g id="line2d_29">
    <path d="M 91.317443 55.293636 
L 294.026534 55.293636 
L 496.735625 55.293636 
L 699.444716 55.293636 
L 902.153807 55.293636 
" clip-path="url(#p931a56de4a)" style="fill: none; stroke: #1f77b4; stroke-width: 2; stroke-linecap: square"/>
    <defs>
     <path id="me542954a53" d="M 0 3 
C 0.795609 3 1.55874 2.683901 2.12132 2.12132 
C 2.683901 1.55874 3 0.795609 3 0 
C 3 -0.795609 2.683901 -1.55874 2.12132 -2.12132 
C 1.55874 -2.683901 0.795609 -3 0 -3 
C -0.795609 -3 -1.55874 -2.683901 -2.12132 -2.12132 
C -2.683901 -1.55874 -3 -0.795609 -3 0 
C -3 0.795609 -2.683901 1.55874 -2.12132 2.12132 
C -1.55874 2.683901 -0.795609 3 0 3 
z
" style="stroke: #1f77b4"/>
    </defs>
    <g clip-path="url(#p931a56de4a)">
     <use xlink:href="#me542954a53" x="91.317443" y="55.293636" style="fill: #1f77b4; stroke: #1f77b4"/>
     <use xlink:href="#me542954a53" x="294.026534" y="55.293636" style="fill: #1f77b4; stroke: #1f77b4"/>
     <use xlink:href="#me542954a53" x="496.735625" y="55.293636" style="fill: #1f77b4; stroke: #1f77b4"/>
     <use xlink:href="#me542954a53" x="699.444716" y="55.293636" style="fill: #1f77b4; stroke: #1f77b4"/>
     <use xlink:href="#me542954a53" x="902.153807" y="55.293636" style="fill: #1f77b4; stroke: #1f77b4"/>
    </g>
   </g>
   <g id="line2d_30">
    <path d="M 91.317443 102.579158 
L 294.026534 102.579158 
L 496.735625 102.579158 
L 699.444716 102.579158 
L 902.153807 102.579158 
" clip-path="url(#p931a56de4a)" style="fill: none; stroke: #ff7f0e; stroke-width: 2; stroke-linecap: square"/>
    <defs>
     <path id="m253054e6fb" d="M 0 3 
C 0.795609 3 1.55874 2.683901 2.12132 2.12132 
C 2.683901 1.55874 3 0.795609 3 0 
C 3 -0.795609 2.683901 -1.55874 2.12132 -2.12132 
C 1.55874 -2.683901 0.795609 -3 0 -3 
C -0.795609 -3 -1.55874 -2.683901 -2.12132 -2.12132 
C -2.683901 -1.55874 -3 -0.795609 -3 0 
C -3 0.795609 -2.683901 1.55874 -2.12132 2.12132 
C -1.55874 2.683901 -0.795609 3 0 3 
z
" style="stroke: #ff7f0e"/>
    </defs>
    <g clip-path="url(#p931a56de4a)">
     <use xlink:href="#m253054e6fb" x="91.317443" y="102.579158" style="fill: #ff7f0e; stroke: #ff7f0e"/>
     <use xlink:href="#m253054e6fb" x="294.026534" y="102.579158" style="fill: #ff7f0e; stroke: #ff7f0e"/>
     <use xlink:href="#m253054e6fb" x="496.735625" y="102.579158" style="fill: #ff7f0e; stroke: #ff7f0e"/>
     <use xlink:href="#m253054e6fb" x="699.444716" y="102.579158" style="fill: #ff7f0e; stroke: #ff7f0e"/>
     <use xlink:href="#m253054e6fb" x="902.153807" y="102.579158" style="fill: #ff7f0e; stroke: #ff7f0e"/>
    </g>
   </g>
   <g id="line2d_31">
    <path d="M 91.317443 391.702316 
L 294.026534 391.702316 
L 496.735625 391.702316 
L 699.444716 391.702316 
L 902.153807 391.702316 
" clip-path="url(#p931a56de4a)" style="fill: none; stroke: #2ca02c; stroke-width: 2; stroke-linecap: square"/>
    <defs>
     <path id="m9f58adcca9" d="M 0 3 
C 0.795609 3 1.55874 2.683901 2.12132 2.12132 
C 2.683901 1.55874 3 0.795609 3 0 
C 3 -0.795609 2.683901 -1.55874 2.12132 -2.12132 
C 1.55874 -2.683901 0.795609 -3 0 -3 
C -0.795609 -3 -1.55874 -2.683901 -2.12132 -2.12132 
C -2.683901 -1.55874 -3 -0.795609 -3 0 
C -3 0.795609 -2.683901 1.55874 -2.12132 2.12132 
C -1.55874 2.683901 -0.795609 3 0 3 
z
" style="stroke: #2ca02c"/>
    </defs>
    <g clip-path="url(#p931a56de4a)">
     <use xlink:href="#m9f58adcca9" x="91.317443" y="391.702316" style="fill: #2ca02c; stroke: #2ca02c"/>
     <use xlink:href="#m9f58adcca9" x="294.026534" y="391.702316" style="fill: #2ca02c; stroke: #2ca02c"/>
     <use xlink:href="#m9f58adcca9" x="496.735625" y="391.702316" style="fill: #2ca02c; stroke: #2ca02c"/>
     <use xlink:href="#m9f58adcca9" x="699.444716" y="391.702316" style="fill: #2ca02c; stroke: #2ca02c"/>
     <use xlink:href="#m9f58adcca9" x="902.153807" y="391.702316" style="fill: #2ca02c; stroke: #2ca02c"/>
    </g>
   </g>
   <g id="line2d_32">
    <path d="M 91.317443 404.271194 
L 294.026534 404.271194 
L 496.735625 404.271194 
L 699.444716 404.271194 
L 902.153807 404.271194 
" clip-path="url(#p931a56de4a)" style="fill: none; stroke: #d62728; stroke-width: 2; stroke-linecap: square"/>
    <defs>
     <path id="mef069f8a7e" d="M 0 3 
C 0.795609 3 1.55874 2.683901 2.12132 2.12132 
C 2.683901 1.55874 3 0.795609 3 0 
C 3 -0.795609 2.683901 -1.55874 2.12132 -2.12132 
C 1.55874 -2.683901 0.795609 -3 0 -3 
C -0.795609 -3 -1.55874 -2.683901 -2.12132 -2.12132 
C -2.683901 -1.55874 -3 -0.795609 -3 0 
C -3 0.795609 -2.683901 1.55874 -2.12132 2.12132 
C -1.55874 2.683901 -0.795609 3 0 3 
z
" style="stroke: #d62728"/>
    </defs>
    <g clip-path="url(#p931a56de4a)">
     <use xlink:href="#mef069f8a7e" x="91.317443" y="404.271194" style="fill: #d62728; stroke: #d62728"/>
     <use xlink:href="#mef069f8a7e" x="294.026534" y="404.271194" style="fill: #d62728; stroke: #d62728"/>
     <use xlink:href="#mef069f8a7e" x="496.735625" y="404.271194" style="fill: #d62728; stroke: #d62728"/>
     <use xlink:href="#mef069f8a7e" x="699.444716" y="404.271194" style="fill: #d62728; stroke: #d62728"/>
     <use xlink:href="#mef069f8a7e" x="902.153807" y="404.271194" style="fill: #d62728; stroke: #d62728"/>
    </g>
   </g>
   <g id="line2d_33">
    <path d="M 91.317443 407.942987 
L 294.026534 407.942987 
L 496.735625 407.942987 
L 699.444716 407.942987 
L 902.153807 407.942987 
" clip-path="url(#p931a56de4a)" style="fill: none; stroke: #9467bd; stroke-width: 2; stroke-linecap: square"/>
    <defs>
     <path id="md6dc17028d" d="M 0 3 
C 0.795609 3 1.55874 2.683901 2.12132 2.12132 
C 2.683901 1.55874 3 0.795609 3 0 
C 3 -0.795609 2.683901 -1.55874 2.12132 -2.12132 
C 1.55874 -2.683901 0.795609 -3 0 -3 
C -0.795609 -3 -1.55874 -2.683901 -2.12132 -2.12132 
C -2.683901 -1.55874 -3 -0.795609 -3 0 
C -3 0.795609 -2.683901 1.55874 -2.12132 2.12132 
C -1.55874 2.683901 -0.795609 3 0 3 
z
" style="stroke: #9467bd"/>
    </defs>
    <g clip-path="url(#p931a56de4a)">
     <use xlink:href="#md6dc17028d" x="91.317443" y="407.942987" style="fill: #9467bd; stroke: #9467bd"/>
     <use xlink:href="#md6dc17028d" x="294.026534" y="407.942987" style="fill: #9467bd; stroke: #9467bd"/>
     <use xlink:href="#md6dc17028d" x="496.735625" y="407.942987" style="fill: #9467bd; stroke: #9467bd"/>
     <use xlink:href="#md6dc17028d" x="699.444716" y="407.942987" style="fill: #9467bd; stroke: #9467bd"/>
     <use xlink:href="#md6dc17028d" x="902.153807" y="407.942987" style="fill: #9467bd; stroke: #9467bd"/>
    </g>
   </g>
   <g id="line2d_34">
    <path d="M 91.317443 437.19515 
L 294.026534 437.19515 
L 496.735625 437.19515 
L 699.444716 437.19515 
L 902.153807 437.19515 
" clip-path="url(#p931a56de4a)" style="fill: none; stroke: #8c564b; stroke-width: 2; stroke-linecap: square"/>
    <defs>
     <path id="me101c2bd95" d="M 0 3 
C 0.795609 3 1.55874 2.683901 2.12132 2.12132 
C 2.683901 1.55874 3 0.795609 3 0 
C 3 -0.795609 2.683901 -1.55874 2.12132 -2.12132 
C 1.55874 -2.683901 0.795609 -3 0 -3 
C -0.795609 -3 -1.55874 -2.683901 -2.12132 -2.12132 
C -2.683901 -1.55874 -3 -0.795609 -3 0 
C -3 0.795609 -2.683901 1.55874 -2.12132 2.12132 
C -1.55874 2.683901 -0.795609 3 0 3 
z
" style="stroke: #8c564b"/>
    </defs>
    <g clip-path="url(#p931a56de4a)">
     <use xlink:href="#me101c2bd95" x="91.317443" y="437.19515" style="fill: #8c564b; stroke: #8c564b"/>
     <use xlink:href="#me101c2bd95" x="294.026534" y="437.19515" style="fill: #8c564b; stroke: #8c564b"/>
     <use xlink:href="#me101c2bd95" x="496.735625" y="437.19515" style="fill: #8c564b; stroke: #8c564b"/>
     <use xlink:href="#me101c2bd95" x="699.444716" y="437.19515" style="fill: #8c564b; stroke: #8c564b"/>
     <use xlink:href="#me101c2bd95" x="902.153807" y="437.19515" style="fill: #8c564b; stroke: #8c564b"/>
    </g>
   </g>
   <g id="line2d_35">
    <path d="M 91.317443 512.018347 
L 294.026534 512.018347 
L 496.735625 512.018347 
L 699.444716 512.018347 
L 902.153807 512.018347 
" clip-path="url(#p931a56de4a)" style="fill: none; stroke: #e377c2; stroke-width: 2; stroke-linecap: square"/>
    <defs>
     <path id="md8429c9e9f" d="M 0 3 
C 0.795609 3 1.55874 2.683901 2.12132 2.12132 
C 2.683901 1.55874 3 0.795609 3 0 
C 3 -0.795609 2.683901 -1.55874 2.12132 -2.12132 
C 1.55874 -2.683901 0.795609 -3 0 -3 
C -0.795609 -3 -1.55874 -2.683901 -2.12132 -2.12132 
C -2.683901 -1.55874 -3 -0.795609 -3 0 
C -3 0.795609 -2.683901 1.55874 -2.12132 2.12132 
C -1.55874 2.683901 -0.795609 3 0 3 
z
" style="stroke: #e377c2"/>
    </defs>
    <g clip-path="url(#p931a56de4a)">
     <use xlink:href="#md8429c9e9f" x="91.317443" y="512.018347" style="fill: #e377c2; stroke: #e377c2"/>
     <use xlink:href="#md8429c9e9f" x="294.026534" y="512.018347" style="fill: #e377c2; stroke: #e377c2"/>
     <use xlink:href="#md8429c9e9f" x="496.735625" y="512.018347" style="fill: #e377c2; stroke: #e377c2"/>
     <use xlink:href="#md8429c9e9f" x="699.444716" y="512.018347" style="fill: #e377c2; stroke: #e377c2"/>
     <use xlink:href="#md8429c9e9f" x="902.153807" y="512.018347" style="fill: #e377c2; stroke: #e377c2"/>
    </g>
   </g>
   <g id="line2d_36">
    <path d="M 91.317443 454.914596 
L 294.026534 454.914596 
L 496.735625 454.914596 
L 699.444716 454.914596 
L 902.153807 454.914596 
" clip-path="url(#p931a56de4a)" style="fill: none; stroke: #7f7f7f; stroke-width: 2; stroke-linecap: square"/>
    <defs>
     <path id="me092fec287" d="M 0 3 
C 0.795609 3 1.55874 2.683901 2.12132 2.12132 
C 2.683901 1.55874 3 0.795609 3 0 
C 3 -0.795609 2.683901 -1.55874 2.12132 -2.12132 
C 1.55874 -2.683901 0.795609 -3 0 -3 
C -0.795609 -3 -1.55874 -2.683901 -2.12132 -2.12132 
C -2.683901 -1.55874 -3 -0.795609 -3 0 
C -3 0.795609 -2.683901 1.55874 -2.12132 2.12132 
C -1.55874 2.683901 -0.795609 3 0 3 
z
" style="stroke: #7f7f7f"/>
    </defs>
    <g clip-path="url(#p931a56de4a)">
     <use xlink:href="#me092fec287" x="91.317443" y="454.914596" style="fill: #7f7f7f; stroke: #7f7f7f"/>
     <use xlink:href="#me092fec287" x="294.026534" y="454.914596" style="fill: #7f7f7f; stroke: #7f7f7f"/>
     <use xlink:href="#me092fec287" x="496.735625" y="454.914596" style="fill: #7f7f7f; stroke: #7f7f7f"/>
     <use xlink:href="#me092fec287" x="699.444716" y="454.914596" style="fill: #7f7f7f; stroke: #7f7f7f"/>
     <use xlink:href="#me092fec287" x="902.153807" y="454.914596" style="fill: #7f7f7f; stroke: #7f7f7f"/>
    </g>
   </g>
   <g id="line2d_37">
    <path d="M 91.317443 455.415056 
L 294.026534 455.415056 
L 496.735625 455.415056 
L 699.444716 455.415056 
L 902.153807 455.415056 
" clip-path="url(#p931a56de4a)" style="fill: none; stroke: #bcbd22; stroke-width: 2; stroke-linecap: square"/>
    <defs>
     <path id="m718e407db5" d="M 0 3 
C 0.795609 3 1.55874 2.683901 2.12132 2.12132 
C 2.683901 1.55874 3 0.795609 3 0 
C 3 -0.795609 2.683901 -1.55874 2.12132 -2.12132 
C 1.55874 -2.683901 0.795609 -3 0 -3 
C -0.795609 -3 -1.55874 -2.683901 -2.12132 -2.12132 
C -2.683901 -1.55874 -3 -0.795609 -3 0 
C -3 0.795609 -2.683901 1.55874 -2.12132 2.12132 
C -1.55874 2.683901 -0.795609 3 0 3 
z
" style="stroke: #bcbd22"/>
    </defs>
    <g clip-path="url(#p931a56de4a)">
     <use xlink:href="#m718e407db5" x="91.317443" y="455.415056" style="fill: #bcbd22; stroke: #bcbd22"/>
     <use xlink:href="#m718e407db5" x="294.026534" y="455.415056" style="fill: #bcbd22; stroke: #bcbd22"/>
     <use xlink:href="#m718e407db5" x="496.735625" y="455.415056" style="fill: #bcbd22; stroke: #bcbd22"/>
     <use xlink:href="#m718e407db5" x="699.444716" y="455.415056" style="fill: #bcbd22; stroke: #bcbd22"/>
     <use xlink:href="#m718e407db5" x="902.153807" y="455.415056" style="fill: #bcbd22; stroke: #bcbd22"/>
    </g>
   </g>
   <g id="line2d_38">
    <path d="M 91.317443 641.366364 
L 294.026534 641.366364 
L 496.735625 641.366364 
L 699.444716 641.366364 
L 902.153807 641.366364 
" clip-path="url(#p931a56de4a)" style="fill: none; stroke: #17becf; stroke-width: 2; stroke-linecap: square"/>
    <defs>
     <path id="m8e8faa7a3e" d="M 0 3 
C 0.795609 3 1.55874 2.683901 2.12132 2.12132 
C 2.683901 1.55874 3 0.795609 3 0 
C 3 -0.795609 2.683901 -1.55874 2.12132 -2.12132 
C 1.55874 -2.683901 0.795609 -3 0 -3 
C -0.795609 -3 -1.55874 -2.683901 -2.12132 -2.12132 
C -2.683901 -1.55874 -3 -0.795609 -3 0 
C -3 0.795609 -2.683901 1.55874 -2.12132 2.12132 
C -1.55874 2.683901 -0.795609 3 0 3 
z
" style="stroke: #17becf"/>
    </defs>
    <g clip-path="url(#p931a56de4a)">
     <use xlink:href="#m8e8faa7a3e" x="91.317443" y="641.366364" style="fill: #17becf; stroke: #17becf"/>
     <use xlink:href="#m8e8faa7a3e" x="294.026534" y="641.366364" style="fill: #17becf; stroke: #17becf"/>
     <use xlink:href="#m8e8faa7a3e" x="496.735625" y="641.366364" style="fill: #17becf; stroke: #17becf"/>
     <use xlink:href="#m8e8faa7a3e" x="699.444716" y="641.366364" style="fill: #17becf; stroke: #17becf"/>
     <use xlink:href="#m8e8faa7a3e" x="902.153807" y="641.366364" style="fill: #17becf; stroke: #17becf"/>
    </g>
   </g>
   <g id="patch_3">
    <path d="M 50.775625 670.67 
L 50.775625 25.99 
" style="fill: none; stroke: #000000; stroke-width: 0.8; stroke-linejoin: miter; stroke-linecap: square"/>
   </g>
   <g id="patch_4">
    <path d="M 942.695625 670.67 
L 942.695625 25.99 
" style="fill: none; stroke: #000000; stroke-width: 0.8; stroke-linejoin: miter; stroke-linecap: square"/>
   </g>
   <g id="patch_5">
    <path d="M 50.775625 670.67 
L 942.695625 670.67 
" style="fill: none; stroke: #000000; stroke-width: 0.8; stroke-linejoin: miter; stroke-linecap: square"/>
   </g>
   <g id="patch_6">
    <path d="M 50.775625 25.99 
L 942.695625 25.99 
" style="fill: none; stroke: #000000; stroke-width: 0.8; stroke-linejoin: miter; stroke-linecap: square"/>
   </g>
   <g id="text_17">
    <!-- TOP10供应商5年权重变化趋势 -->
    <g transform="translate(385.455625 19.99) scale(0.16 -0.16)">
     <defs>
      <path id="MicrosoftYaHei-Bold-54" d="M 3900 3997 
L 2519 3997 
L 2519 0 
L 1484 0 
L 1484 3997 
L 106 3997 
L 106 4841 
L 3900 4841 
L 3900 3997 
z
" transform="scale(0.015625)"/>
      <path id="MicrosoftYaHei-Bold-4f" d="M 256 2356 
Q 256 3494 920 4208 
Q 1584 4922 2675 4922 
Q 3713 4922 4345 4231 
Q 4978 3541 4978 2456 
Q 4978 1325 4320 620 
Q 3663 -84 2597 -84 
Q 1556 -84 906 598 
Q 256 1281 256 2356 
z
M 1341 2413 
Q 1341 1706 1681 1257 
Q 2022 809 2616 809 
Q 3222 809 3559 1239 
Q 3897 1669 3897 2394 
Q 3897 3150 3569 3589 
Q 3241 4028 2644 4028 
Q 2038 4028 1689 3578 
Q 1341 3128 1341 2413 
z
" transform="scale(0.015625)"/>
      <path id="MicrosoftYaHei-Bold-50" d="M 1591 1688 
L 1591 0 
L 559 0 
L 559 4841 
L 2225 4841 
Q 4031 4841 4031 3309 
Q 4031 2566 3486 2117 
Q 2941 1669 2122 1688 
L 1591 1688 
z
M 1591 4041 
L 1591 2478 
L 2038 2478 
Q 2947 2478 2947 3269 
Q 2947 4041 2047 4041 
L 1591 4041 
z
" transform="scale(0.015625)"/>
      <path id="MicrosoftYaHei-Bold-31" d="M 2716 4947 
L 2716 0 
L 1700 0 
L 1700 3809 
Q 1513 3647 1188 3517 
Q 863 3388 591 3356 
L 591 4222 
Q 1447 4472 2072 4947 
L 2716 4947 
z
" transform="scale(0.015625)"/>
      <path id="MicrosoftYaHei-Bold-30" d="M 244 2341 
Q 244 3597 706 4259 
Q 1169 4922 2044 4922 
Q 3713 4922 3713 2453 
Q 3713 1238 3259 577 
Q 2806 -84 1950 -84 
Q 244 -84 244 2341 
z
M 1266 2366 
Q 1266 691 1981 691 
Q 2684 691 2684 2416 
Q 2684 4147 2000 4147 
Q 1266 4147 1266 2366 
z
" transform="scale(0.015625)"/>
      <path id="MicrosoftYaHei-Bold-4f9b" d="M 1288 5278 
L 2081 5047 
Q 1869 4359 1613 3728 
L 1613 -778 
L 844 -778 
L 844 2141 
Q 613 1734 356 1359 
Q 275 1859 106 2484 
Q 806 3578 1288 5278 
z
M 1888 1991 
L 2769 1991 
L 2769 3328 
L 2088 3328 
L 2088 4128 
L 2769 4128 
L 2769 5253 
L 3619 5253 
L 3619 4128 
L 4588 4128 
L 4588 5253 
L 5438 5253 
L 5438 4128 
L 6131 4128 
L 6131 3328 
L 5438 3328 
L 5438 1991 
L 6306 1991 
L 6306 1191 
L 1888 1191 
L 1888 1991 
z
M 3619 1991 
L 4588 1991 
L 4588 3328 
L 3619 3328 
L 3619 1991 
z
M 1900 -291 
Q 2569 353 3106 1109 
L 3813 641 
Q 3275 -78 2538 -841 
Q 2281 -597 1900 -291 
z
M 4988 1084 
Q 5638 441 6288 -284 
L 5563 -828 
Q 5050 -116 4344 628 
L 4988 1084 
z
" transform="scale(0.015625)"/>
      <path id="MicrosoftYaHei-Bold-5e94" d="M 1438 2491 
Q 1438 119 794 -866 
Q 506 -597 88 -266 
Q 619 622 613 2603 
L 613 4566 
L 3009 4566 
Q 2894 4853 2781 5116 
L 3788 5353 
Q 3928 5016 4103 4566 
L 6225 4566 
L 6225 3797 
L 1438 3797 
L 1438 2491 
z
M 3013 3309 
L 3794 3541 
Q 4125 2678 4513 1316 
L 3669 1084 
Q 3300 2416 3013 3309 
z
M 1325 316 
L 4300 316 
Q 4681 1541 5200 3453 
L 6069 3228 
Q 5744 2006 5184 316 
L 6250 316 
L 6250 -553 
L 1325 -553 
L 1325 316 
z
M 1475 2984 
L 2225 3303 
Q 2775 2103 3244 828 
L 2406 516 
Q 2006 1684 1475 2984 
z
" transform="scale(0.015625)"/>
      <path id="MicrosoftYaHei-Bold-5546" d="M 238 4791 
L 2694 4791 
L 2563 5303 
L 3613 5341 
L 3675 4791 
L 6175 4791 
L 6175 4103 
L 238 4103 
L 238 4791 
z
M 475 3516 
L 1713 3516 
L 1356 3953 
L 2375 3953 
L 2703 3516 
L 3697 3516 
Q 3931 3797 4050 3953 
L 5063 3953 
Q 4863 3728 4666 3516 
L 5956 3516 
L 5956 303 
Q 5956 -131 5786 -389 
Q 5616 -647 5314 -720 
Q 5013 -794 4025 -803 
Q 3938 -303 3863 -22 
Q 4219 -59 4556 -59 
Q 5125 -59 5125 466 
L 5125 1594 
L 4925 1341 
L 4469 1659 
L 4469 109 
L 2713 109 
L 2713 -191 
L 1950 -191 
L 1950 1581 
L 1550 1297 
Q 1541 1313 1300 1625 
L 1300 -797 
L 475 -797 
L 475 3516 
z
M 2494 2816 
L 2944 2322 
Q 2694 2128 2441 1941 
L 4056 1941 
L 3475 2322 
L 3881 2797 
Q 4519 2438 5125 2056 
L 5125 2853 
L 1300 2853 
L 1300 1969 
Q 1956 2413 2494 2816 
z
M 3706 797 
L 3706 1291 
L 2713 1291 
L 2713 797 
L 3706 797 
z
" transform="scale(0.015625)"/>
      <path id="MicrosoftYaHei-Bold-35" d="M 541 125 
L 541 997 
Q 1044 691 1613 691 
Q 2041 691 2283 902 
Q 2525 1113 2525 1472 
Q 2525 2225 1494 2225 
Q 1113 2225 616 2169 
L 797 4841 
L 3359 4841 
L 3359 4009 
L 1613 4009 
L 1544 2991 
Q 1803 3013 2022 3013 
Q 2731 3013 3142 2625 
Q 3553 2238 3553 1575 
Q 3553 844 3056 380 
Q 2559 -84 1706 -84 
Q 1016 -84 541 125 
z
" transform="scale(0.015625)"/>
      <path id="MicrosoftYaHei-Bold-5e74" d="M 5819 3059 
L 5819 2266 
L 4050 2266 
L 4050 1284 
L 6244 1284 
L 6244 491 
L 4050 491 
L 4050 -828 
L 3138 -828 
L 3138 491 
L 175 491 
L 175 1284 
L 1050 1284 
L 1050 2813 
Q 881 2634 700 2466 
Q 463 2822 138 3266 
Q 1088 4047 1600 5353 
L 2569 5209 
Q 2459 4938 2334 4678 
L 6056 4678 
L 6056 3884 
L 4050 3884 
L 4050 3059 
L 5819 3059 
z
M 1272 3059 
L 3138 3059 
L 3138 3884 
L 1888 3884 
Q 1606 3450 1272 3059 
z
M 1925 1284 
L 3138 1284 
L 3138 2266 
L 1925 2266 
L 1925 1284 
z
" transform="scale(0.015625)"/>
      <path id="MicrosoftYaHei-Bold-6743" d="M 81 1597 
Q 528 2284 816 3372 
L 138 3372 
L 138 4203 
L 850 4203 
L 850 5322 
L 1663 5322 
L 1663 4203 
L 2319 4203 
L 2319 3372 
L 1663 3372 
L 1663 2616 
L 1856 2791 
Q 2281 2397 2731 1941 
L 2144 1409 
Q 1906 1713 1663 1984 
L 1663 -828 
L 850 -828 
L 850 1425 
Q 634 903 369 491 
Q 231 1053 81 1597 
z
M 3344 4159 
Q 3594 2841 4241 1875 
Q 4913 2875 5113 4228 
L 2363 4228 
L 2363 5028 
L 5994 5028 
L 5994 4241 
Q 5725 2459 4806 1175 
Q 5438 519 6319 84 
Q 6025 -347 5769 -803 
Q 4878 -278 4213 463 
Q 3459 -316 2406 -866 
Q 2163 -403 1894 -41 
Q 2947 438 3663 1169 
Q 2906 2297 2556 3816 
L 3344 4159 
z
" transform="scale(0.015625)"/>
      <path id="MicrosoftYaHei-Bold-91cd" d="M 106 -78 
L 2788 -78 
L 2788 241 
L 513 241 
L 513 766 
L 2788 766 
L 2788 1072 
L 731 1072 
L 731 3272 
L 2788 3272 
L 2788 3578 
L 125 3578 
L 125 4141 
L 2788 4141 
L 2788 4453 
L 663 4416 
Q 613 4691 544 4978 
Q 3200 5009 5731 5122 
Q 5738 5103 5850 4534 
L 3613 4475 
L 3613 4141 
L 6313 4141 
L 6313 3578 
L 3613 3578 
L 3613 3272 
L 5694 3272 
L 5694 1072 
L 3613 1072 
L 3613 766 
L 5925 766 
L 5925 241 
L 3613 241 
L 3613 -78 
L 6313 -78 
L 6313 -641 
L 106 -641 
L 106 -78 
z
M 4888 2753 
L 3613 2753 
L 3613 2397 
L 4888 2397 
L 4888 2753 
z
M 1538 2397 
L 2788 2397 
L 2788 2753 
L 1538 2753 
L 1538 2397 
z
M 4888 1591 
L 4888 1947 
L 3613 1947 
L 3613 1591 
L 4888 1591 
z
M 1538 1591 
L 2788 1591 
L 2788 1947 
L 1538 1947 
L 1538 1591 
z
" transform="scale(0.015625)"/>
      <path id="MicrosoftYaHei-Bold-53d8" d="M 231 4616 
L 2734 4616 
L 2525 5128 
L 3425 5353 
L 3741 4616 
L 6175 4616 
L 6175 3878 
L 4350 3878 
L 4350 2434 
L 3550 2434 
L 3550 3878 
L 2850 3878 
L 2850 2434 
L 2050 2434 
L 2050 3878 
L 231 3878 
L 231 4616 
z
M 1488 3778 
L 2019 3228 
Q 1338 2684 550 2184 
Q 325 2541 88 2828 
Q 844 3272 1488 3778 
z
M 4881 3728 
Q 5538 3328 6306 2778 
L 5769 2159 
Q 5119 2666 4406 3178 
L 4881 3728 
z
M 5300 2272 
L 5300 1566 
Q 4847 913 4144 422 
Q 5063 147 6288 84 
Q 6194 -84 5825 -822 
Q 4297 -663 3200 -116 
Q 2088 -634 544 -884 
Q 363 -497 94 -66 
Q 1359 84 2338 425 
Q 1741 894 1331 1534 
L 900 1534 
L 900 2272 
L 5300 2272 
z
M 3213 794 
Q 3834 1113 4300 1534 
L 2238 1534 
Q 2631 1100 3213 794 
z
" transform="scale(0.015625)"/>
      <path id="MicrosoftYaHei-Bold-5316" d="M 1625 5297 
L 2494 5009 
Q 2200 4284 1856 3641 
L 1856 -797 
L 956 -797 
L 956 2191 
Q 653 1775 325 1403 
Q 219 1991 88 2497 
Q 1063 3728 1625 5297 
z
M 5456 4447 
L 6238 3847 
Q 5306 2809 4106 1900 
L 4106 622 
Q 4106 153 4513 153 
L 4781 153 
Q 5091 153 5189 359 
Q 5288 566 5350 1597 
Q 5863 1434 6300 1322 
Q 6188 419 6105 37 
Q 6022 -344 5705 -542 
Q 5388 -741 4831 -741 
L 4294 -741 
Q 3169 -741 3169 378 
L 3169 1234 
Q 2806 994 2425 766 
Q 2225 1097 1875 1584 
Q 2553 1947 3169 2378 
L 3169 5272 
L 4106 5272 
L 4106 3100 
Q 4834 3719 5456 4447 
z
" transform="scale(0.015625)"/>
      <path id="MicrosoftYaHei-Bold-8d8b" d="M 3175 2366 
L 5175 2366 
L 5175 2903 
L 3125 2903 
L 3125 3241 
L 3038 3147 
Q 2669 3553 2513 3697 
Q 2569 3753 2625 3816 
L 1956 3816 
L 1956 3191 
L 2900 3191 
L 2900 2447 
L 2231 2447 
L 2231 1784 
L 2888 1784 
L 2888 1022 
L 2231 1022 
L 2231 163 
Q 2369 97 3875 97 
Q 4819 97 6306 122 
Q 6144 -359 6050 -716 
Q 3291 -716 2342 -667 
Q 1394 -619 959 72 
Q 853 -513 675 -853 
Q 400 -572 75 -259 
Q 394 503 400 2184 
L 1131 2184 
Q 1122 1647 1091 1191 
Q 1209 794 1469 544 
L 1469 2447 
L 125 2447 
L 125 3191 
L 1163 3191 
L 1163 3816 
L 300 3816 
L 300 4559 
L 1163 4559 
L 1163 5322 
L 1956 5322 
L 1956 4559 
L 2706 4559 
L 2706 3906 
Q 3225 4497 3669 5359 
L 4444 5197 
Q 4369 5031 4281 4872 
L 5631 4872 
L 5631 4247 
L 5188 3566 
L 5950 3566 
L 5950 503 
L 3038 503 
L 3038 1166 
L 5175 1166 
L 5175 1716 
L 3175 1716 
L 3175 2366 
z
M 3403 3566 
L 4306 3566 
L 4781 4209 
L 3888 4209 
Q 3666 3881 3403 3566 
z
" transform="scale(0.015625)"/>
      <path id="MicrosoftYaHei-Bold-52bf" d="M 3400 -766 
Q 3325 -309 3244 34 
Q 4075 -9 4269 -9 
Q 4475 -9 4628 87 
Q 4781 184 4815 401 
Q 4850 619 4875 909 
L 3038 909 
Q 2613 -469 538 -909 
Q 275 -372 88 -72 
Q 1763 169 2134 909 
L 538 909 
L 538 1628 
L 2353 1628 
Q 2372 1741 2388 1866 
L 2675 1866 
Q 2475 2138 2231 2397 
Q 2709 2638 2988 2997 
Q 2753 3131 2519 3259 
L 2850 3797 
L 3288 3584 
Q 3347 3791 3363 4022 
L 2713 4022 
L 2713 4722 
L 3391 4722 
Q 3400 5069 3400 5328 
L 4163 5328 
Q 4163 5063 4153 4722 
L 5500 4722 
L 5488 3453 
Q 5488 2653 5644 2653 
Q 5731 2653 5800 3478 
Q 6063 3384 6350 3309 
Q 6213 1828 5550 1828 
Q 5166 1828 4970 2093 
Q 4775 2359 4761 2871 
Q 4747 3384 4744 4022 
L 4122 4022 
Q 4084 3609 3959 3247 
L 4669 2878 
L 4231 2234 
L 3641 2606 
Q 3359 2188 2919 1866 
L 3231 1866 
Q 3219 1747 3200 1628 
L 5781 1628 
L 5684 263 
Q 5656 -88 5492 -336 
Q 5328 -584 5012 -684 
Q 4697 -784 3400 -766 
z
M 200 3491 
L 1088 3566 
L 1088 3947 
L 313 3947 
L 313 4647 
L 1088 4647 
L 1088 5316 
L 1850 5316 
L 1850 4647 
L 2475 4647 
L 2475 3947 
L 1850 3947 
L 1850 3647 
L 2494 3722 
Q 2500 3372 2500 3009 
L 1850 2938 
L 1850 2753 
Q 1850 2391 1719 2162 
Q 1588 1934 1355 1854 
Q 1122 1775 419 1766 
Q 363 2128 281 2447 
Q 419 2428 763 2428 
Q 1088 2428 1088 2766 
L 1088 2853 
L 313 2766 
L 200 3491 
z
" transform="scale(0.015625)"/>
     </defs>
     <use xlink:href="#MicrosoftYaHei-Bold-54"/>
     <use xlink:href="#MicrosoftYaHei-Bold-4f" transform="translate(58.423828 0)"/>
     <use xlink:href="#MicrosoftYaHei-Bold-50" transform="translate(140.259766 0)"/>
     <use xlink:href="#MicrosoftYaHei-Bold-31" transform="translate(205.982422 0)"/>
     <use xlink:href="#MicrosoftYaHei-Bold-30" transform="translate(267.652344 0)"/>
     <use xlink:href="#MicrosoftYaHei-Bold-4f9b" transform="translate(329.322266 0)"/>
     <use xlink:href="#MicrosoftYaHei-Bold-5e94" transform="translate(429.322266 0)"/>
     <use xlink:href="#MicrosoftYaHei-Bold-5546" transform="translate(529.322266 0)"/>
     <use xlink:href="#MicrosoftYaHei-Bold-35" transform="translate(629.322266 0)"/>
     <use xlink:href="#MicrosoftYaHei-Bold-5e74" transform="translate(690.992188 0)"/>
     <use xlink:href="#MicrosoftYaHei-Bold-6743" transform="translate(790.992188 0)"/>
     <use xlink:href="#MicrosoftYaHei-Bold-91cd" transform="translate(890.992188 0)"/>
     <use xlink:href="#MicrosoftYaHei-Bold-53d8" transform="translate(990.992188 0)"/>
     <use xlink:href="#MicrosoftYaHei-Bold-5316" transform="translate(1090.992188 0)"/>
     <use xlink:href="#MicrosoftYaHei-Bold-8d8b" transform="translate(1190.992188 0)"/>
     <use xlink:href="#MicrosoftYaHei-Bold-52bf" transform="translate(1290.992188 0)"/>
    </g>
   </g>
   <g id="legend_1">
    <g id="patch_7">
     <path d="M 994.291625 188.786875 
L 1066.33225 188.786875 
Q 1068.33225 188.786875 1068.33225 186.786875 
L 1068.33225 32.99 
Q 1068.33225 30.99 1066.33225 30.99 
L 994.291625 30.99 
Q 992.291625 30.99 992.291625 32.99 
L 992.291625 186.786875 
Q 992.291625 188.786875 994.291625 188.786875 
z
" style="fill: #ffffff; opacity: 0.8; stroke: #cccccc; stroke-linejoin: miter"/>
    </g>
    <g id="line2d_39">
     <path d="M 996.291625 39.48375 
L 1006.291625 39.48375 
L 1016.291625 39.48375 
" style="fill: none; stroke: #1f77b4; stroke-width: 2; stroke-linecap: square"/>
     <g>
      <use xlink:href="#me542954a53" x="1006.291625" y="39.48375" style="fill: #1f77b4; stroke: #1f77b4"/>
     </g>
    </g>
    <g id="text_18">
     <!-- S229 (A) -->
     <g transform="translate(1024.291625 42.98375) scale(0.1 -0.1)">
      <defs>
       <path id="MicrosoftYaHei-53" d="M 400 909 
Q 622 716 994 591 
Q 1366 466 1700 466 
Q 2719 466 2719 1191 
Q 2719 1394 2609 1556 
Q 2500 1719 2309 1844 
Q 2119 1969 1594 2228 
Q 866 2591 634 2902 
Q 403 3213 403 3613 
Q 403 4216 887 4569 
Q 1372 4922 2109 4922 
Q 2831 4922 3169 4747 
L 3169 4066 
Q 2731 4369 2063 4369 
Q 1619 4369 1339 4183 
Q 1059 3997 1059 3666 
Q 1059 3372 1253 3187 
Q 1447 3003 2094 2684 
Q 2806 2344 3090 2003 
Q 3375 1663 3375 1238 
Q 3375 600 2912 259 
Q 2450 -81 1628 -81 
Q 1341 -81 958 -1 
Q 575 78 400 197 
L 400 909 
z
" transform="scale(0.015625)"/>
       <path id="MicrosoftYaHei-39" d="M 578 656 
Q 978 425 1441 425 
Q 2091 425 2448 937 
Q 2806 1450 2806 2394 
Q 2800 2388 2794 2394 
Q 2475 1788 1722 1788 
Q 1113 1788 713 2206 
Q 313 2625 313 3294 
Q 313 4006 750 4464 
Q 1188 4922 1884 4922 
Q 2606 4922 3012 4355 
Q 3419 3788 3419 2703 
Q 3419 1363 2894 641 
Q 2369 -81 1441 -81 
Q 931 -81 578 84 
L 578 656 
z
M 931 3372 
Q 931 2884 1181 2598 
Q 1431 2313 1872 2313 
Q 2253 2313 2512 2573 
Q 2772 2834 2772 3206 
Q 2772 3728 2514 4070 
Q 2256 4413 1834 4413 
Q 1444 4413 1187 4116 
Q 931 3819 931 3372 
z
" transform="scale(0.015625)"/>
       <path id="MicrosoftYaHei-20" transform="scale(0.015625)"/>
       <path id="MicrosoftYaHei-28" d="M 1531 -1100 
Q 478 100 478 1847 
Q 478 3594 1531 4841 
L 2072 4841 
Q 1016 3544 1016 1853 
Q 1016 166 2066 -1100 
L 1531 -1100 
z
" transform="scale(0.015625)"/>
       <path id="MicrosoftYaHei-41" d="M 4428 0 
L 3738 0 
L 3244 1325 
L 1228 1325 
L 763 0 
L 72 0 
L 1916 4841 
L 2584 4841 
L 4428 0 
z
M 3050 1872 
L 2319 3884 
Q 2284 3981 2244 4222 
L 2228 4222 
Q 2194 4003 2150 3884 
L 1425 1872 
L 3050 1872 
z
" transform="scale(0.015625)"/>
       <path id="MicrosoftYaHei-29" d="M 78 -1100 
Q 1131 163 1131 1853 
Q 1131 3547 72 4841 
L 616 4841 
Q 1672 3603 1672 1847 
Q 1672 91 616 -1100 
L 78 -1100 
z
" transform="scale(0.015625)"/>
      </defs>
      <use xlink:href="#MicrosoftYaHei-53"/>
      <use xlink:href="#MicrosoftYaHei-32" transform="translate(57.714844 0)"/>
      <use xlink:href="#MicrosoftYaHei-32" transform="translate(116.357422 0)"/>
      <use xlink:href="#MicrosoftYaHei-39" transform="translate(175 0)"/>
      <use xlink:href="#MicrosoftYaHei-20" transform="translate(233.642578 0)"/>
      <use xlink:href="#MicrosoftYaHei-28" transform="translate(263.232422 0)"/>
      <use xlink:href="#MicrosoftYaHei-41" transform="translate(296.630859 0)"/>
      <use xlink:href="#MicrosoftYaHei-29" transform="translate(366.992188 0)"/>
     </g>
    </g>
    <g id="line2d_40">
     <path d="M 996.291625 54.963437 
L 1006.291625 54.963437 
L 1016.291625 54.963437 
" style="fill: none; stroke: #ff7f0e; stroke-width: 2; stroke-linecap: square"/>
     <g>
      <use xlink:href="#m253054e6fb" x="1006.291625" y="54.963437" style="fill: #ff7f0e; stroke: #ff7f0e"/>
     </g>
    </g>
    <g id="text_19">
     <!-- S361 (C) -->
     <g transform="translate(1024.291625 58.463437) scale(0.1 -0.1)">
      <defs>
       <path id="MicrosoftYaHei-36" d="M 3181 4219 
Q 2803 4413 2391 4413 
Q 1763 4413 1381 3866 
Q 1000 3319 994 2372 
L 1009 2372 
Q 1353 3038 2106 3038 
Q 2734 3038 3109 2628 
Q 3484 2219 3484 1541 
Q 3484 831 3051 375 
Q 2619 -81 1947 -81 
Q 1209 -81 789 495 
Q 369 1072 369 2131 
Q 369 3413 920 4167 
Q 1472 4922 2372 4922 
Q 2888 4922 3181 4781 
L 3181 4219 
z
M 1031 1584 
Q 1031 1106 1286 765 
Q 1541 425 1963 425 
Q 2363 425 2613 719 
Q 2863 1013 2863 1475 
Q 2863 1975 2627 2253 
Q 2391 2531 1956 2531 
Q 1544 2531 1287 2250 
Q 1031 1969 1031 1584 
z
" transform="scale(0.015625)"/>
       <path id="MicrosoftYaHei-43" d="M 3938 200 
Q 3403 -81 2597 -81 
Q 1556 -81 934 580 
Q 313 1241 313 2328 
Q 313 3497 1013 4209 
Q 1713 4922 2791 4922 
Q 3484 4922 3938 4725 
L 3938 4072 
Q 3419 4359 2797 4359 
Q 1988 4359 1478 3820 
Q 969 3281 969 2366 
Q 969 1497 1444 986 
Q 1919 475 2688 475 
Q 3406 475 3938 800 
L 3938 200 
z
" transform="scale(0.015625)"/>
      </defs>
      <use xlink:href="#MicrosoftYaHei-53"/>
      <use xlink:href="#MicrosoftYaHei-33" transform="translate(57.714844 0)"/>
      <use xlink:href="#MicrosoftYaHei-36" transform="translate(116.357422 0)"/>
      <use xlink:href="#MicrosoftYaHei-31" transform="translate(175 0)"/>
      <use xlink:href="#MicrosoftYaHei-20" transform="translate(233.642578 0)"/>
      <use xlink:href="#MicrosoftYaHei-28" transform="translate(263.232422 0)"/>
      <use xlink:href="#MicrosoftYaHei-43" transform="translate(296.630859 0)"/>
      <use xlink:href="#MicrosoftYaHei-29" transform="translate(363.525391 0)"/>
     </g>
    </g>
    <g id="line2d_41">
     <path d="M 996.291625 70.443125 
L 1006.291625 70.443125 
L 1016.291625 70.443125 
" style="fill: none; stroke: #2ca02c; stroke-width: 2; stroke-linecap: square"/>
     <g>
      <use xlink:href="#m9f58adcca9" x="1006.291625" y="70.443125" style="fill: #2ca02c; stroke: #2ca02c"/>
     </g>
    </g>
    <g id="text_20">
     <!-- S340 (B) -->
     <g transform="translate(1024.291625 73.943125) scale(0.1 -0.1)">
      <defs>
       <path id="MicrosoftYaHei-42" d="M 625 0 
L 625 4841 
L 2047 4841 
Q 2684 4841 3065 4536 
Q 3447 4231 3447 3728 
Q 3447 3328 3220 3022 
Q 2994 2716 2597 2588 
L 2597 2575 
Q 3091 2519 3386 2201 
Q 3681 1884 3681 1397 
Q 3681 772 3232 386 
Q 2784 0 2084 0 
L 625 0 
z
M 1250 4294 
L 1250 2778 
L 1819 2778 
Q 2272 2778 2530 2998 
Q 2788 3219 2788 3609 
Q 2788 4294 1875 4294 
L 1250 4294 
z
M 1250 2234 
L 1250 547 
L 2000 547 
Q 2491 547 2758 773 
Q 3025 1000 3025 1403 
Q 3025 2234 1897 2234 
L 1250 2234 
z
" transform="scale(0.015625)"/>
      </defs>
      <use xlink:href="#MicrosoftYaHei-53"/>
      <use xlink:href="#MicrosoftYaHei-33" transform="translate(57.714844 0)"/>
      <use xlink:href="#MicrosoftYaHei-34" transform="translate(116.357422 0)"/>
      <use xlink:href="#MicrosoftYaHei-30" transform="translate(175 0)"/>
      <use xlink:href="#MicrosoftYaHei-20" transform="translate(233.642578 0)"/>
      <use xlink:href="#MicrosoftYaHei-28" transform="translate(263.232422 0)"/>
      <use xlink:href="#MicrosoftYaHei-42" transform="translate(296.630859 0)"/>
      <use xlink:href="#MicrosoftYaHei-29" transform="translate(359.375 0)"/>
     </g>
    </g>
    <g id="line2d_42">
     <path d="M 996.291625 85.922812 
L 1006.291625 85.922812 
L 1016.291625 85.922812 
" style="fill: none; stroke: #d62728; stroke-width: 2; stroke-linecap: square"/>
     <g>
      <use xlink:href="#mef069f8a7e" x="1006.291625" y="85.922812" style="fill: #d62728; stroke: #d62728"/>
     </g>
    </g>
    <g id="text_21">
     <!-- S275 (A) -->
     <g transform="translate(1024.291625 89.422812) scale(0.1 -0.1)">
      <defs>
       <path id="MicrosoftYaHei-37" d="M 3422 4463 
Q 2659 3131 2223 1998 
Q 1788 866 1684 0 
L 1047 0 
Q 1163 853 1594 1947 
Q 2025 3041 2747 4300 
L 347 4300 
L 347 4841 
L 3422 4841 
L 3422 4463 
z
" transform="scale(0.015625)"/>
      </defs>
      <use xlink:href="#MicrosoftYaHei-53"/>
      <use xlink:href="#MicrosoftYaHei-32" transform="translate(57.714844 0)"/>
      <use xlink:href="#MicrosoftYaHei-37" transform="translate(116.357422 0)"/>
      <use xlink:href="#MicrosoftYaHei-35" transform="translate(175 0)"/>
      <use xlink:href="#MicrosoftYaHei-20" transform="translate(233.642578 0)"/>
      <use xlink:href="#MicrosoftYaHei-28" transform="translate(263.232422 0)"/>
      <use xlink:href="#MicrosoftYaHei-41" transform="translate(296.630859 0)"/>
      <use xlink:href="#MicrosoftYaHei-29" transform="translate(366.992188 0)"/>
     </g>
    </g>
    <g id="line2d_43">
     <path d="M 996.291625 101.4025 
L 1006.291625 101.4025 
L 1016.291625 101.4025 
" style="fill: none; stroke: #9467bd; stroke-width: 2; stroke-linecap: square"/>
     <g>
      <use xlink:href="#md6dc17028d" x="1006.291625" y="101.4025" style="fill: #9467bd; stroke: #9467bd"/>
     </g>
    </g>
    <g id="text_22">
     <!-- S329 (A) -->
     <g transform="translate(1024.291625 104.9025) scale(0.1 -0.1)">
      <use xlink:href="#MicrosoftYaHei-53"/>
      <use xlink:href="#MicrosoftYaHei-33" transform="translate(57.714844 0)"/>
      <use xlink:href="#MicrosoftYaHei-32" transform="translate(116.357422 0)"/>
      <use xlink:href="#MicrosoftYaHei-39" transform="translate(175 0)"/>
      <use xlink:href="#MicrosoftYaHei-20" transform="translate(233.642578 0)"/>
      <use xlink:href="#MicrosoftYaHei-28" transform="translate(263.232422 0)"/>
      <use xlink:href="#MicrosoftYaHei-41" transform="translate(296.630859 0)"/>
      <use xlink:href="#MicrosoftYaHei-29" transform="translate(366.992188 0)"/>
     </g>
    </g>
    <g id="line2d_44">
     <path d="M 996.291625 116.882187 
L 1006.291625 116.882187 
L 1016.291625 116.882187 
" style="fill: none; stroke: #8c564b; stroke-width: 2; stroke-linecap: square"/>
     <g>
      <use xlink:href="#me101c2bd95" x="1006.291625" y="116.882187" style="fill: #8c564b; stroke: #8c564b"/>
     </g>
    </g>
    <g id="text_23">
     <!-- S282 (A) -->
     <g transform="translate(1024.291625 120.382187) scale(0.1 -0.1)">
      <defs>
       <path id="MicrosoftYaHei-38" d="M 306 1350 
Q 306 1769 556 2122 
Q 806 2475 1200 2625 
Q 884 2803 700 3081 
Q 516 3359 516 3684 
Q 516 4028 692 4312 
Q 869 4597 1183 4759 
Q 1497 4922 1875 4922 
Q 2256 4922 2572 4761 
Q 2888 4600 3063 4315 
Q 3238 4031 3238 3684 
Q 3238 3366 3058 3086 
Q 2878 2806 2559 2625 
Q 2953 2472 3200 2119 
Q 3447 1766 3447 1350 
Q 3447 938 3250 611 
Q 3053 284 2690 103 
Q 2328 -78 1875 -78 
Q 1425 -78 1065 103 
Q 706 284 506 612 
Q 306 941 306 1350 
z
M 906 1378 
Q 906 947 1172 687 
Q 1438 428 1878 428 
Q 2309 428 2582 692 
Q 2856 956 2856 1378 
Q 2856 1778 2579 2051 
Q 2303 2325 1878 2325 
Q 1456 2325 1181 2058 
Q 906 1791 906 1378 
z
M 1081 3634 
Q 1081 3309 1312 3076 
Q 1544 2844 1878 2844 
Q 2206 2844 2445 3078 
Q 2684 3313 2684 3634 
Q 2684 3963 2454 4191 
Q 2225 4419 1878 4419 
Q 1534 4419 1307 4195 
Q 1081 3972 1081 3634 
z
" transform="scale(0.015625)"/>
      </defs>
      <use xlink:href="#MicrosoftYaHei-53"/>
      <use xlink:href="#MicrosoftYaHei-32" transform="translate(57.714844 0)"/>
      <use xlink:href="#MicrosoftYaHei-38" transform="translate(116.357422 0)"/>
      <use xlink:href="#MicrosoftYaHei-32" transform="translate(175 0)"/>
      <use xlink:href="#MicrosoftYaHei-20" transform="translate(233.642578 0)"/>
      <use xlink:href="#MicrosoftYaHei-28" transform="translate(263.232422 0)"/>
      <use xlink:href="#MicrosoftYaHei-41" transform="translate(296.630859 0)"/>
      <use xlink:href="#MicrosoftYaHei-29" transform="translate(366.992188 0)"/>
     </g>
    </g>
    <g id="line2d_45">
     <path d="M 996.291625 132.361875 
L 1006.291625 132.361875 
L 1016.291625 132.361875 
" style="fill: none; stroke: #e377c2; stroke-width: 2; stroke-linecap: square"/>
     <g>
      <use xlink:href="#md8429c9e9f" x="1006.291625" y="132.361875" style="fill: #e377c2; stroke: #e377c2"/>
     </g>
    </g>
    <g id="text_24">
     <!-- S108 (B) -->
     <g transform="translate(1024.291625 135.861875) scale(0.1 -0.1)">
      <use xlink:href="#MicrosoftYaHei-53"/>
      <use xlink:href="#MicrosoftYaHei-31" transform="translate(57.714844 0)"/>
      <use xlink:href="#MicrosoftYaHei-30" transform="translate(116.357422 0)"/>
      <use xlink:href="#MicrosoftYaHei-38" transform="translate(175 0)"/>
      <use xlink:href="#MicrosoftYaHei-20" transform="translate(233.642578 0)"/>
      <use xlink:href="#MicrosoftYaHei-28" transform="translate(263.232422 0)"/>
      <use xlink:href="#MicrosoftYaHei-42" transform="translate(296.630859 0)"/>
      <use xlink:href="#MicrosoftYaHei-29" transform="translate(359.375 0)"/>
     </g>
    </g>
    <g id="line2d_46">
     <path d="M 996.291625 147.841562 
L 1006.291625 147.841562 
L 1016.291625 147.841562 
" style="fill: none; stroke: #7f7f7f; stroke-width: 2; stroke-linecap: square"/>
     <g>
      <use xlink:href="#me092fec287" x="1006.291625" y="147.841562" style="fill: #7f7f7f; stroke: #7f7f7f"/>
     </g>
    </g>
    <g id="text_25">
     <!-- S131 (B) -->
     <g transform="translate(1024.291625 151.341562) scale(0.1 -0.1)">
      <use xlink:href="#MicrosoftYaHei-53"/>
      <use xlink:href="#MicrosoftYaHei-31" transform="translate(57.714844 0)"/>
      <use xlink:href="#MicrosoftYaHei-33" transform="translate(116.357422 0)"/>
      <use xlink:href="#MicrosoftYaHei-31" transform="translate(175 0)"/>
      <use xlink:href="#MicrosoftYaHei-20" transform="translate(233.642578 0)"/>
      <use xlink:href="#MicrosoftYaHei-28" transform="translate(263.232422 0)"/>
      <use xlink:href="#MicrosoftYaHei-42" transform="translate(296.630859 0)"/>
      <use xlink:href="#MicrosoftYaHei-29" transform="translate(359.375 0)"/>
     </g>
    </g>
    <g id="line2d_47">
     <path d="M 996.291625 163.32125 
L 1006.291625 163.32125 
L 1016.291625 163.32125 
" style="fill: none; stroke: #bcbd22; stroke-width: 2; stroke-linecap: square"/>
     <g>
      <use xlink:href="#m718e407db5" x="1006.291625" y="163.32125" style="fill: #bcbd22; stroke: #bcbd22"/>
     </g>
    </g>
    <g id="text_26">
     <!-- S268 (C) -->
     <g transform="translate(1024.291625 166.82125) scale(0.1 -0.1)">
      <use xlink:href="#MicrosoftYaHei-53"/>
      <use xlink:href="#MicrosoftYaHei-32" transform="translate(57.714844 0)"/>
      <use xlink:href="#MicrosoftYaHei-36" transform="translate(116.357422 0)"/>
      <use xlink:href="#MicrosoftYaHei-38" transform="translate(175 0)"/>
      <use xlink:href="#MicrosoftYaHei-20" transform="translate(233.642578 0)"/>
      <use xlink:href="#MicrosoftYaHei-28" transform="translate(263.232422 0)"/>
      <use xlink:href="#MicrosoftYaHei-43" transform="translate(296.630859 0)"/>
      <use xlink:href="#MicrosoftYaHei-29" transform="translate(363.525391 0)"/>
     </g>
    </g>
    <g id="line2d_48">
     <path d="M 996.291625 178.800937 
L 1006.291625 178.800937 
L 1016.291625 178.800937 
" style="fill: none; stroke: #17becf; stroke-width: 2; stroke-linecap: square"/>
     <g>
      <use xlink:href="#m8e8faa7a3e" x="1006.291625" y="178.800937" style="fill: #17becf; stroke: #17becf"/>
     </g>
    </g>
    <g id="text_27">
     <!-- S140 (B) -->
     <g transform="translate(1024.291625 182.300937) scale(0.1 -0.1)">
      <use xlink:href="#MicrosoftYaHei-53"/>
      <use xlink:href="#MicrosoftYaHei-31" transform="translate(57.714844 0)"/>
      <use xlink:href="#MicrosoftYaHei-34" transform="translate(116.357422 0)"/>
      <use xlink:href="#MicrosoftYaHei-30" transform="translate(175 0)"/>
      <use xlink:href="#MicrosoftYaHei-20" transform="translate(233.642578 0)"/>
      <use xlink:href="#MicrosoftYaHei-28" transform="translate(263.232422 0)"/>
      <use xlink:href="#MicrosoftYaHei-42" transform="translate(296.630859 0)"/>
      <use xlink:href="#MicrosoftYaHei-29" transform="translate(359.375 0)"/>
     </g>
    </g>
   </g>
  </g>
 </g>
 <defs>
  <clipPath id="p931a56de4a">
   <rect x="50.775625" y="25.99" width="891.92" height="644.68"/>
  </clipPath>
 </defs>
</svg>
