<?xml version="1.0" encoding="utf-8" standalone="no"?>
<!DOCTYPE svg PUBLIC "-//W3C//DTD SVG 1.1//EN"
  "http://www.w3.org/Graphics/SVG/1.1/DTD/svg11.dtd">
<svg xmlns:xlink="http://www.w3.org/1999/xlink" width="712.354167pt" height="423.793125pt" viewBox="0 0 712.354167 423.793125" xmlns="http://www.w3.org/2000/svg" version="1.1">
 <metadata>
  <rdf:RDF xmlns:dc="http://purl.org/dc/elements/1.1/" xmlns:cc="http://creativecommons.org/ns#" xmlns:rdf="http://www.w3.org/1999/02/22-rdf-syntax-ns#">
   <cc:Work>
    <dc:type rdf:resource="http://purl.org/dc/dcmitype/StillImage"/>
    <dc:date>2025-08-05T16:28:05.726342</dc:date>
    <dc:format>image/svg+xml</dc:format>
    <dc:creator>
     <cc:Agent>
      <dc:title>Matplotlib v3.10.5, https://matplotlib.org/</dc:title>
     </cc:Agent>
    </dc:creator>
   </cc:Work>
  </rdf:RDF>
 </metadata>
 <defs>
  <style type="text/css">*{stroke-linejoin: round; stroke-linecap: butt}</style>
 </defs>
 <g id="figure_1">
  <g id="patch_1">
   <path d="M 0 423.793125 
L 712.354167 423.793125 
L 712.354167 0 
L 0 0 
z
" style="fill: #ffffff"/>
  </g>
  <g id="axes_1">
   <g id="patch_2">
    <path d="M 168.243443 76.88212 
C 137.314945 76.88212 107.39732 88.019317 83.997576 108.243659 
C 60.597833 128.468 45.245575 156.457456 40.766729 187.059938 
C 36.287883 217.66242 42.975224 248.877496 59.597797 274.95933 
C 76.22037 301.041163 101.691585 320.284829 131.322893 329.148099 
L 168.243443 205.716875 
z
" style="fill: #ff6b6b"/>
   </g>
   <g id="patch_3">
    <path d="M 131.322893 329.148099 
C 150.381958 334.849016 170.504971 336.05884 190.109777 332.682451 
C 209.714582 329.306062 228.273547 321.434329 244.327486 309.686161 
C 260.381425 297.937994 273.498272 282.629575 282.646724 264.964519 
C 291.795177 247.299462 296.729018 227.753195 297.060329 207.862529 
L 168.243443 205.716875 
z
" style="fill: #4ecdc4"/>
   </g>
   <g id="patch_4">
    <path d="M 297.060329 207.862529 
C 297.345101 190.765931 294.223449 173.782459 287.877792 157.904569 
C 281.532135 142.026679 272.088535 127.569798 260.098842 115.378735 
C 248.10915 103.187671 233.81155 93.504611 218.041545 86.895399 
C 202.271539 80.286187 185.342413 76.88212 168.243443 76.88212 
L 168.243443 205.716875 
z
" style="fill: #45b7d1"/>
   </g>
   <g id="matplotlib.axis_1"/>
   <g id="matplotlib.axis_2"/>
   <g id="text_1">
    <!-- A类 -->
    <g transform="translate(13.019057 188.534088) scale(0.1 -0.1)">
     <defs>
      <path id="SimHei-41" d="M 3075 125 
L 2475 125 
L 2125 1450 
L 1025 1450 
L 675 125 
L 75 125 
L 1325 4450 
L 1825 4450 
L 3075 125 
z
M 2000 1925 
L 1600 3450 
L 1550 3450 
L 1150 1925 
L 2000 1925 
z
" transform="scale(0.015625)"/>
      <path id="SimHei-7c7b" d="M 2125 3875 
Q 1750 4375 1325 4725 
Q 1525 4875 1675 5050 
L 2525 4225 
Q 2400 4125 2200 3875 
L 3025 3875 
L 3025 4550 
Q 3025 4900 3000 5125 
L 3525 5125 
Q 3500 4850 3500 4550 
L 3500 3875 
L 4325 3875 
Q 4125 4050 4000 4150 
Q 4450 4575 4800 5175 
Q 5000 5000 5275 4825 
Q 5100 4675 4912 4475 
Q 4725 4275 4400 3875 
L 5025 3875 
Q 5425 3875 5900 3900 
L 5900 3450 
Q 5425 3475 5025 3475 
L 3500 3475 
L 3500 3050 
Q 3500 2650 3525 2175 
L 3175 2175 
Q 3475 2075 3675 2000 
Q 3575 1875 3525 1575 
L 5025 1575 
Q 5525 1575 6025 1600 
L 6025 1150 
Q 5550 1175 5050 1175 
L 3675 1175 
Q 4050 600 4712 275 
Q 5375 -50 6050 -175 
Q 5850 -350 5725 -675 
Q 4975 -450 4350 -37 
Q 3725 375 3300 950 
Q 3050 350 2425 -50 
Q 1800 -450 775 -700 
Q 650 -425 475 -225 
Q 1375 -100 2012 225 
Q 2650 550 2900 1175 
L 1625 1175 
Q 1025 1175 525 1150 
L 525 1600 
Q 950 1575 1600 1575 
L 3025 1575 
Q 3075 1825 3100 2175 
L 3000 2175 
Q 3025 2675 3025 3050 
L 3025 3325 
Q 2725 2900 2237 2550 
Q 1750 2200 925 1825 
Q 850 2025 625 2275 
Q 1175 2400 1725 2737 
Q 2275 3075 2600 3475 
L 1550 3475 
Q 1050 3475 600 3425 
L 600 3900 
Q 1075 3875 1550 3875 
L 2125 3875 
z
M 4100 3450 
Q 4850 3000 5800 2350 
Q 5575 2125 5425 1925 
Q 4700 2550 3825 3075 
Q 3975 3250 4100 3450 
z
" transform="scale(0.015625)"/>
     </defs>
     <use xlink:href="#SimHei-41"/>
     <use xlink:href="#SimHei-7c7b" transform="translate(50 0)"/>
    </g>
   </g>
   <g id="text_2">
    <!-- 45.4% -->
    <g transform="translate(79.257415 197.335213) scale(0.1 -0.1)">
     <defs>
      <path id="SimHei-34" d="M 2000 1100 
L 75 1100 
L 75 1525 
L 2100 4450 
L 2475 4450 
L 2475 1525 
L 3075 1525 
L 3075 1100 
L 2475 1100 
L 2475 150 
L 2000 150 
L 2000 1100 
z
M 2000 1525 
L 2000 3500 
L 600 1525 
L 2000 1525 
z
" transform="scale(0.015625)"/>
      <path id="SimHei-35" d="M 550 1325 
Q 725 650 1150 575 
Q 1575 500 1837 662 
Q 2100 825 2212 1087 
Q 2325 1350 2312 1675 
Q 2300 2000 2137 2225 
Q 1975 2450 1725 2525 
Q 1475 2600 1162 2525 
Q 850 2450 650 2175 
L 225 2225 
Q 275 2375 700 4375 
L 2675 4375 
L 2675 3925 
L 1075 3925 
Q 950 3250 825 2850 
Q 1200 3025 1525 3012 
Q 1850 3000 2150 2862 
Q 2450 2725 2587 2487 
Q 2725 2250 2787 2012 
Q 2850 1775 2837 1500 
Q 2825 1225 2725 937 
Q 2625 650 2425 462 
Q 2225 275 1937 162 
Q 1650 50 1275 75 
Q 900 100 562 350 
Q 225 600 100 1200 
L 550 1325 
z
" transform="scale(0.015625)"/>
      <path id="SimHei-2e" d="M 1075 125 
L 500 125 
L 500 675 
L 1075 675 
L 1075 125 
z
" transform="scale(0.015625)"/>
      <path id="SimHei-25" d="M 1400 3325 
Q 1400 2600 1187 2400 
Q 975 2200 775 2200 
Q 575 2200 362 2400 
Q 150 2600 150 3325 
Q 150 4050 362 4250 
Q 575 4450 775 4450 
Q 975 4450 1187 4250 
Q 1400 4050 1400 3325 
z
M 2625 4375 
L 700 75 
L 500 150 
L 2425 4450 
L 2625 4375 
z
M 2975 1200 
Q 2975 475 2762 275 
Q 2550 75 2350 75 
Q 2150 75 1937 275 
Q 1725 475 1725 1200 
Q 1725 1925 1937 2125 
Q 2150 2325 2350 2325 
Q 2550 2325 2762 2125 
Q 2975 1925 2975 1200 
z
M 1000 3325 
Q 1000 3775 950 3925 
Q 900 4075 775 4075 
Q 650 4075 600 3925 
Q 550 3775 550 3325 
Q 550 2875 600 2725 
Q 650 2575 775 2575 
Q 900 2575 950 2725 
Q 1000 2875 1000 3325 
z
M 2575 1200 
Q 2575 1650 2525 1800 
Q 2475 1950 2350 1950 
Q 2225 1950 2175 1800 
Q 2125 1650 2125 1200 
Q 2125 750 2175 600 
Q 2225 450 2350 450 
Q 2475 450 2525 600 
Q 2575 750 2575 1200 
z
" transform="scale(0.015625)"/>
     </defs>
     <use xlink:href="#SimHei-34"/>
     <use xlink:href="#SimHei-35" transform="translate(50 0)"/>
     <use xlink:href="#SimHei-2e" transform="translate(100 0)"/>
     <use xlink:href="#SimHei-34" transform="translate(150 0)"/>
     <use xlink:href="#SimHei-25" transform="translate(200 0)"/>
    </g>
   </g>
   <g id="text_3">
    <!-- B类 -->
    <g transform="translate(251.93589 323.422933) scale(0.1 -0.1)">
     <defs>
      <path id="SimHei-42" d="M 2950 1400 
Q 2950 675 2550 400 
Q 2150 125 1525 125 
L 275 125 
L 275 4400 
L 1575 4400 
Q 2200 4400 2512 4075 
Q 2825 3750 2825 3300 
Q 2825 2850 2612 2637 
Q 2400 2425 2175 2350 
Q 2475 2275 2712 2037 
Q 2950 1800 2950 1400 
z
M 2250 3300 
Q 2250 3625 2062 3775 
Q 1875 3925 1600 3925 
L 850 3925 
L 850 2600 
L 1575 2600 
Q 1850 2600 2050 2762 
Q 2250 2925 2250 3300 
z
M 2350 1400 
Q 2350 1800 2087 1962 
Q 1825 2125 1500 2125 
L 850 2125 
L 850 600 
L 1425 600 
Q 1875 600 2112 775 
Q 2350 950 2350 1400 
z
" transform="scale(0.015625)"/>
     </defs>
     <use xlink:href="#SimHei-42"/>
     <use xlink:href="#SimHei-7c7b" transform="translate(50 0)"/>
    </g>
   </g>
   <g id="text_4">
    <!-- 29.4% -->
    <g transform="translate(201.393869 270.910947) scale(0.1 -0.1)">
     <defs>
      <path id="SimHei-32" d="M 300 250 
Q 325 625 650 925 
Q 975 1225 1475 1862 
Q 1975 2500 2125 2850 
Q 2275 3200 2237 3450 
Q 2200 3700 2000 3862 
Q 1800 4025 1537 4000 
Q 1275 3975 1037 3800 
Q 800 3625 675 3275 
L 200 3350 
Q 400 3925 712 4187 
Q 1025 4450 1450 4475 
Q 1700 4500 1900 4462 
Q 2100 4425 2312 4287 
Q 2525 4150 2662 3875 
Q 2800 3600 2762 3212 
Q 2725 2825 2375 2287 
Q 2025 1750 1025 600 
L 2825 600 
L 2825 150 
L 300 150 
L 300 250 
z
" transform="scale(0.015625)"/>
      <path id="SimHei-39" d="M 800 75 
Q 1350 1000 1700 1750 
Q 1075 1650 662 1912 
Q 250 2175 162 2625 
Q 75 3075 175 3437 
Q 275 3800 487 4037 
Q 700 4275 1000 4375 
Q 1300 4475 1537 4475 
Q 1775 4475 2025 4375 
Q 2275 4275 2475 4075 
Q 2675 3875 2750 3662 
Q 2825 3450 2825 3112 
Q 2825 2775 2575 2250 
Q 2325 1725 1350 75 
L 800 75 
z
M 662 2875 
Q 700 2550 937 2337 
Q 1175 2125 1450 2150 
Q 1725 2175 1887 2300 
Q 2050 2425 2200 2725 
Q 2300 3100 2250 3362 
Q 2200 3625 1987 3800 
Q 1775 3975 1525 3975 
Q 1375 4000 1137 3900 
Q 900 3800 762 3500 
Q 625 3200 662 2875 
z
" transform="scale(0.015625)"/>
     </defs>
     <use xlink:href="#SimHei-32"/>
     <use xlink:href="#SimHei-39" transform="translate(50 0)"/>
     <use xlink:href="#SimHei-2e" transform="translate(100 0)"/>
     <use xlink:href="#SimHei-34" transform="translate(150 0)"/>
     <use xlink:href="#SimHei-25" transform="translate(200 0)"/>
    </g>
   </g>
   <g id="text_5">
    <!-- C类 -->
    <g transform="translate(269.284382 109.684764) scale(0.1 -0.1)">
     <defs>
      <path id="SimHei-43" d="M 2975 1825 
Q 2950 875 2575 475 
Q 2200 75 1675 75 
Q 1075 75 650 562 
Q 225 1050 225 2125 
Q 225 3300 637 3875 
Q 1050 4450 1700 4450 
Q 2250 4450 2612 4037 
Q 2975 3625 2950 2875 
L 2400 2875 
Q 2400 3425 2225 3700 
Q 2050 3975 1700 3975 
Q 1300 3975 1062 3562 
Q 825 3150 825 2175 
Q 825 1275 1062 912 
Q 1300 550 1675 550 
Q 1950 550 2175 812 
Q 2400 1075 2400 1825 
L 2975 1825 
z
" transform="scale(0.015625)"/>
     </defs>
     <use xlink:href="#SimHei-43"/>
     <use xlink:href="#SimHei-7c7b" transform="translate(50 0)"/>
    </g>
   </g>
   <g id="text_6">
    <!-- 25.3% -->
    <g transform="translate(210.856683 154.326491) scale(0.1 -0.1)">
     <defs>
      <path id="SimHei-33" d="M 250 1225 
L 700 1300 
Q 800 975 1025 762 
Q 1250 550 1587 562 
Q 1925 575 2125 837 
Q 2325 1100 2300 1437 
Q 2275 1775 2037 1962 
Q 1800 2150 1275 2225 
L 1275 2550 
Q 1800 2600 2037 2825 
Q 2275 3050 2250 3412 
Q 2225 3775 1925 3937 
Q 1625 4100 1287 3975 
Q 950 3850 750 3275 
L 300 3350 
Q 450 3800 712 4100 
Q 975 4400 1425 4450 
Q 1875 4500 2212 4337 
Q 2550 4175 2687 3837 
Q 2825 3500 2725 3100 
Q 2625 2700 2150 2400 
Q 2500 2250 2687 1950 
Q 2875 1650 2812 1162 
Q 2750 675 2375 375 
Q 2000 75 1525 87 
Q 1050 100 700 387 
Q 350 675 250 1225 
z
" transform="scale(0.015625)"/>
     </defs>
     <use xlink:href="#SimHei-32"/>
     <use xlink:href="#SimHei-35" transform="translate(50 0)"/>
     <use xlink:href="#SimHei-2e" transform="translate(100 0)"/>
     <use xlink:href="#SimHei-33" transform="translate(150 0)"/>
     <use xlink:href="#SimHei-25" transform="translate(200 0)"/>
    </g>
   </g>
   <g id="text_7">
    <!-- 优先级驱动策略 - 材料类型分布 -->
    <g transform="translate(81.243443 38.673432) scale(0.12 -0.12)">
     <defs>
      <path id="SimHei-4f18" d="M 4650 350 
Q 4625 100 4825 50 
Q 5025 0 5200 12 
Q 5375 25 5462 125 
Q 5550 225 5650 800 
Q 5825 625 6200 525 
Q 6050 -25 5912 -200 
Q 5775 -375 5475 -400 
L 4700 -400 
Q 4175 -400 4175 200 
L 4175 3050 
L 3850 3050 
Q 3725 600 2375 -550 
Q 2200 -325 1875 -225 
Q 3175 675 3350 3050 
L 2900 3050 
Q 2350 3050 1975 3025 
L 1975 3475 
Q 2350 3450 2900 3450 
L 3375 3450 
Q 3375 4700 3350 5150 
Q 3525 5100 3925 5075 
Q 3850 4700 3850 3450 
L 5200 3450 
Q 5475 3450 5925 3475 
L 5925 3025 
Q 5500 3050 5225 3050 
L 4650 3050 
L 4650 350 
z
M 200 2375 
Q 525 2700 1000 3612 
Q 1475 4525 1600 5200 
Q 1850 5050 2225 4925 
Q 2000 4700 1700 3825 
L 1700 600 
Q 1700 -150 1725 -525 
L 1200 -525 
Q 1225 -175 1225 575 
L 1225 2975 
Q 900 2425 550 1975 
Q 425 2200 200 2375 
z
M 4850 5025 
Q 5000 4800 5150 4587 
Q 5300 4375 5450 4200 
Q 5250 4075 5025 3875 
Q 4875 4175 4450 4725 
Q 4625 4850 4850 5025 
z
" transform="scale(0.015625)"/>
      <path id="SimHei-5148" d="M 2125 4725 
Q 2000 4575 1925 4387 
Q 1850 4200 1750 3975 
L 2950 3975 
Q 2950 4725 2925 5075 
L 3500 5075 
Q 3475 4775 3475 3975 
L 4325 3975 
Q 4825 3975 5300 4000 
L 5300 3500 
Q 4850 3525 4350 3525 
L 3475 3525 
L 3475 2550 
L 5200 2550 
Q 5675 2550 6050 2575 
L 6050 2075 
Q 5675 2100 5200 2100 
L 4175 2100 
L 4175 300 
Q 4150 -75 4500 -75 
L 5000 -75 
Q 5225 -75 5312 125 
Q 5400 325 5425 725 
Q 5725 500 6050 475 
Q 5825 -250 5662 -375 
Q 5500 -500 5250 -525 
L 4300 -525 
Q 3725 -525 3675 25 
L 3675 2100 
L 2675 2100 
Q 2575 225 850 -650 
Q 700 -450 350 -225 
Q 1975 225 2150 2100 
L 1225 2100 
Q 700 2100 350 2075 
L 350 2575 
Q 725 2550 1225 2550 
L 2950 2550 
L 2950 3525 
L 1575 3525 
Q 1475 3300 1175 2750 
Q 975 2925 675 2975 
Q 1275 3850 1525 4925 
Q 1825 4800 2125 4725 
z
" transform="scale(0.015625)"/>
      <path id="SimHei-7ea7" d="M 5350 4750 
Q 5125 3925 4900 2975 
L 5775 2975 
Q 5650 2325 5462 1750 
Q 5275 1175 4900 575 
Q 5150 325 5462 112 
Q 5775 -100 6150 -250 
Q 5875 -475 5800 -700 
Q 5175 -350 4600 250 
Q 4425 75 4062 -187 
Q 3700 -450 3125 -700 
Q 3000 -500 2775 -350 
Q 3300 -175 3675 75 
Q 4050 325 4325 600 
Q 4025 950 3500 1950 
Q 3425 1400 3125 800 
Q 2850 175 2125 -475 
Q 1975 -350 1700 -200 
Q 2200 150 2525 637 
Q 2850 1125 2987 1687 
Q 3125 2250 3150 2912 
Q 3175 3575 3175 4350 
Q 2900 4350 2525 4325 
L 2525 4775 
Q 2975 4750 3725 4750 
L 5350 4750 
z
M 1900 4850 
Q 1750 4650 1512 4212 
Q 1275 3775 900 3250 
L 1775 3300 
Q 2025 3700 2175 4125 
Q 2300 4025 2625 3825 
Q 2475 3575 2175 3100 
Q 1875 2625 1200 1725 
Q 1950 1825 2400 1900 
Q 2325 1600 2325 1450 
Q 2075 1425 1562 1350 
Q 1050 1275 575 1150 
Q 500 1400 400 1600 
Q 625 1725 925 2037 
Q 1225 2350 1550 2900 
Q 1275 2875 1012 2850 
Q 750 2825 500 2725 
Q 425 2950 300 3250 
Q 625 3450 937 4025 
Q 1250 4600 1400 5125 
Q 1575 5000 1900 4850 
z
M 3575 3125 
Q 3575 2950 3575 2775 
Q 3750 2325 4100 1750 
Q 4450 1150 4600 975 
Q 5025 1625 5225 2575 
L 4325 2575 
Q 4575 3400 4750 4350 
L 3600 4350 
Q 3600 3750 3575 3125 
z
M 2375 1000 
Q 2300 750 2325 550 
Q 1825 425 1425 312 
Q 1025 200 550 50 
Q 475 300 325 525 
Q 675 600 1112 687 
Q 1550 775 2375 1000 
z
" transform="scale(0.015625)"/>
      <path id="SimHei-9a71" d="M 2650 0 
Q 2625 -450 2350 -537 
Q 2075 -625 1600 -675 
Q 1525 -350 1400 -125 
Q 1800 -150 2000 -137 
Q 2200 -125 2225 150 
L 2350 1750 
L 550 1750 
Q 600 2225 612 2900 
Q 625 3575 625 4025 
L 1125 4025 
Q 1075 3800 1050 2150 
L 1850 2150 
L 1950 4375 
Q 750 4375 300 4350 
L 300 4800 
Q 750 4775 1125 4775 
L 2475 4775 
Q 2425 4425 2400 4025 
L 2325 2150 
L 2875 2150 
Q 2825 1850 2775 1525 
L 2650 0 
z
M 6125 -400 
Q 5800 -375 5300 -375 
L 3100 -375 
Q 3125 -150 3125 500 
L 3125 3925 
Q 3125 4200 3100 4775 
L 5075 4775 
Q 5650 4775 5950 4800 
L 5950 4350 
Q 5600 4375 5175 4375 
L 3550 4375 
L 3550 25 
L 5175 25 
Q 5875 25 6125 50 
L 6125 -400 
z
M 5800 3700 
Q 5725 3600 5600 3250 
Q 5475 2900 5175 2275 
Q 5750 1450 5950 1075 
Q 5675 900 5500 775 
Q 5350 1150 4950 1825 
Q 4475 1025 4150 550 
Q 3950 750 3700 825 
Q 4050 1175 4625 2225 
Q 4300 2725 3725 3425 
Q 3900 3550 4050 3750 
Q 4450 3350 4875 2700 
Q 5225 3625 5275 3925 
Q 5500 3800 5800 3700 
z
M 200 1050 
Q 600 1050 1012 1075 
Q 1425 1100 2000 1175 
L 1925 750 
Q 1675 725 1175 662 
Q 675 600 375 525 
Q 275 800 200 1050 
z
" transform="scale(0.015625)"/>
      <path id="SimHei-52a8" d="M 4125 5150 
Q 4425 5075 4700 5075 
Q 4650 4825 4637 4512 
Q 4625 4200 4625 3750 
L 6025 3750 
Q 6000 3425 5975 3025 
L 5850 175 
Q 5775 -325 5437 -437 
Q 5100 -550 4675 -600 
Q 4600 -300 4425 -50 
Q 4975 -75 5175 12 
Q 5375 100 5375 350 
L 5525 3325 
L 4625 3325 
Q 4575 2225 4462 1650 
Q 4350 1075 4112 587 
Q 3875 100 3150 -675 
Q 2900 -425 2700 -350 
Q 3175 25 3475 437 
Q 3775 850 3900 1287 
Q 4025 1725 4075 2200 
Q 4125 2675 4150 3325 
L 3725 3325 
Q 3450 3325 3075 3300 
L 3075 3775 
Q 3450 3750 3775 3750 
L 4150 3750 
L 4150 4450 
Q 4150 4800 4125 5150 
z
M 275 3025 
Q 650 3000 1175 3000 
L 2125 3000 
Q 2575 3000 3150 3025 
L 3150 2575 
Q 2575 2600 2150 2600 
L 1875 2600 
Q 1725 2200 1537 1750 
Q 1350 1300 1100 850 
Q 2075 950 2575 1050 
Q 2450 1350 2175 1800 
Q 2450 1950 2575 2050 
Q 2825 1600 3000 1287 
Q 3175 975 3375 525 
Q 3175 400 2925 275 
Q 2825 500 2750 650 
Q 1950 525 1462 450 
Q 975 375 625 250 
Q 525 500 375 725 
Q 700 925 962 1525 
Q 1225 2125 1350 2600 
L 1175 2600 
Q 650 2600 275 2575 
L 275 3025 
z
M 2000 4425 
Q 2425 4425 2950 4450 
L 2950 3975 
Q 2425 4000 2000 4000 
L 1400 4000 
Q 1000 4000 625 3975 
L 625 4450 
Q 975 4425 1375 4425 
L 2000 4425 
z
" transform="scale(0.015625)"/>
      <path id="SimHei-7b56" d="M 4600 750 
Q 4525 1000 4325 1275 
Q 4625 1275 4787 1300 
Q 4950 1325 4950 1500 
L 4950 1950 
L 3425 1950 
L 3425 1575 
Q 3625 1250 3950 987 
Q 4275 725 4625 537 
Q 4975 350 5325 237 
Q 5675 125 6150 50 
Q 5850 -200 5725 -525 
Q 5375 -400 5050 -237 
Q 4725 -75 4437 100 
Q 4150 275 3887 487 
Q 3625 700 3425 950 
L 3425 275 
Q 3425 -75 3450 -675 
L 2950 -675 
Q 2975 -75 2975 275 
L 2975 1150 
Q 2700 750 2275 375 
Q 1850 0 1575 -175 
Q 1300 -350 825 -650 
Q 725 -475 350 -225 
Q 675 -100 975 50 
Q 1275 200 1650 462 
Q 2025 725 2387 1112 
Q 2750 1500 2950 1950 
L 1500 1950 
L 1500 825 
L 1000 825 
Q 1025 1325 1025 1675 
Q 1025 2025 1000 2325 
L 2975 2325 
L 2975 2825 
L 1425 2825 
Q 1000 2825 550 2800 
L 550 3250 
Q 1000 3225 1400 3225 
L 2975 3225 
Q 2975 3475 2950 3650 
L 3450 3650 
Q 3425 3450 3425 3225 
L 5175 3225 
Q 5500 3225 5925 3250 
L 5925 2800 
Q 5525 2825 5200 2825 
L 3425 2825 
L 3425 2325 
L 5425 2325 
Q 5400 2025 5400 1725 
Q 5400 1450 5375 1225 
Q 5350 1000 5137 900 
Q 4925 800 4600 750 
z
M 4525 5050 
Q 4300 4850 4200 4675 
L 5175 4675 
Q 5600 4675 6075 4700 
L 6075 4250 
Q 5600 4275 4875 4275 
Q 4950 4025 5050 3675 
Q 4775 3625 4550 3550 
Q 4500 3975 4400 4275 
L 3950 4275 
Q 3750 4000 3525 3700 
Q 3300 3850 3075 3925 
Q 3375 4225 3612 4612 
Q 3850 5000 3950 5300 
Q 4175 5150 4525 5050 
z
M 1950 5075 
Q 1700 4850 1550 4675 
L 2275 4675 
Q 2625 4675 3125 4700 
L 3125 4250 
Q 2625 4275 2200 4275 
Q 2275 4000 2375 3650 
Q 2150 3600 1925 3500 
Q 1850 3850 1750 4275 
L 1300 4275 
Q 1025 3950 650 3600 
Q 475 3750 225 3900 
Q 625 4175 925 4562 
Q 1225 4950 1425 5300 
Q 1675 5175 1950 5075 
z
" transform="scale(0.015625)"/>
      <path id="SimHei-7565" d="M 2650 4525 
Q 2625 3950 2625 3500 
L 2625 1250 
Q 2625 825 2650 225 
L 2200 225 
L 2200 550 
L 875 550 
L 875 75 
L 400 75 
Q 450 475 450 975 
L 450 3500 
Q 450 4075 400 4525 
L 2650 4525 
z
M 4250 5025 
Q 4100 4875 3950 4525 
L 5625 4525 
Q 5475 4050 5212 3575 
Q 4950 3100 4625 2750 
Q 4900 2500 5312 2362 
Q 5725 2225 6100 2175 
Q 5900 1900 5825 1675 
Q 5475 1750 5050 1937 
Q 4625 2125 4300 2425 
Q 4100 2275 3775 2050 
Q 3450 1825 2950 1600 
Q 2850 1850 2675 2050 
Q 3050 2175 3337 2312 
Q 3625 2450 4025 2775 
Q 3875 2975 3750 3200 
Q 3625 3425 3525 3625 
Q 3375 3350 3100 2950 
Q 3000 3100 2675 3250 
Q 3025 3625 3287 4187 
Q 3550 4750 3650 5250 
Q 3925 5125 4250 5025 
z
M 5500 1725 
Q 5475 1425 5475 1050 
L 5475 75 
Q 5475 -250 5500 -625 
L 5025 -625 
L 5025 -150 
L 3725 -150 
L 3725 -650 
L 3250 -650 
Q 3275 -225 3275 125 
L 3275 1025 
Q 3275 1400 3250 1725 
L 5500 1725 
z
M 5025 275 
L 5025 1325 
L 3725 1325 
L 3725 275 
L 5025 275 
z
M 4350 3075 
Q 4725 3500 5000 4150 
L 3775 4150 
Q 3975 3525 4350 3075 
z
M 1325 950 
L 1325 2375 
L 875 2375 
L 875 950 
L 1325 950 
z
M 2200 950 
L 2200 2375 
L 1750 2375 
L 1750 950 
L 2200 950 
z
M 1325 2775 
L 1325 4150 
L 875 4150 
L 875 2775 
L 1325 2775 
z
M 2200 2775 
L 2200 4150 
L 1750 4150 
L 1750 2775 
L 2200 2775 
z
" transform="scale(0.015625)"/>
      <path id="SimHei-20" transform="scale(0.015625)"/>
      <path id="SimHei-2d" d="M 2975 2125 
L 125 2125 
L 125 2525 
L 2975 2525 
L 2975 2125 
z
" transform="scale(0.015625)"/>
      <path id="SimHei-6750" d="M 4675 3750 
L 4675 4300 
Q 4675 4750 4650 5175 
L 5200 5175 
Q 5150 4750 5150 4275 
L 5150 3750 
Q 5650 3750 6100 3775 
L 6100 3300 
Q 5650 3325 5150 3325 
L 5150 125 
Q 5150 -250 4962 -375 
Q 4775 -500 4225 -625 
Q 4150 -325 4000 -50 
Q 4425 -50 4550 0 
Q 4675 50 4675 325 
L 4675 2675 
Q 4325 2000 3887 1412 
Q 3450 825 2800 225 
Q 2675 400 2400 625 
Q 2950 975 3512 1675 
Q 4075 2375 4500 3325 
L 3650 3325 
Q 3350 3325 2950 3300 
L 2950 3775 
Q 3350 3750 3650 3750 
L 4675 3750 
z
M 2200 2700 
Q 2650 2125 2850 1825 
Q 2625 1675 2450 1550 
Q 2100 2150 1925 2325 
L 1925 425 
Q 1925 -100 1950 -625 
L 1425 -625 
Q 1450 -75 1450 425 
L 1450 2175 
Q 1275 1800 1037 1400 
Q 800 1000 550 650 
Q 475 825 225 1100 
Q 525 1425 875 2062 
Q 1225 2700 1400 3325 
Q 875 3325 425 3300 
L 425 3775 
Q 925 3750 1450 3750 
L 1450 4350 
Q 1450 4725 1425 5175 
L 1950 5175 
Q 1925 4775 1925 4350 
L 1925 3750 
Q 2300 3750 2725 3775 
L 2725 3300 
Q 2300 3325 1925 3325 
L 1925 2475 
Q 2125 2600 2200 2700 
z
" transform="scale(0.015625)"/>
      <path id="SimHei-6599" d="M 1450 4400 
Q 1450 4800 1425 5100 
L 1925 5100 
Q 1900 4850 1900 4375 
L 1900 3075 
Q 2300 3075 2800 3100 
L 2800 2650 
Q 2300 2675 1900 2675 
L 1900 375 
Q 1900 -25 1925 -650 
L 1425 -650 
Q 1450 -25 1450 375 
L 1450 1875 
Q 1225 1300 600 475 
Q 425 650 225 800 
Q 600 1225 887 1712 
Q 1175 2200 1350 2675 
Q 875 2675 350 2650 
L 350 3100 
Q 875 3075 1450 3075 
L 1450 4400 
z
M 4800 4325 
Q 4800 4750 4775 5050 
L 5300 5050 
Q 5275 4750 5275 4325 
L 5275 1650 
Q 5525 1700 6125 1850 
L 6150 1400 
Q 5625 1300 5275 1225 
L 5275 325 
Q 5275 -50 5300 -650 
L 4775 -650 
Q 4800 125 4800 1125 
Q 3175 850 2750 725 
L 2600 1225 
Q 3700 1350 4800 1550 
L 4800 4325 
z
M 3350 3175 
Q 4025 2600 4450 2150 
L 4075 1775 
Q 3675 2300 3050 2800 
Q 3300 3025 3350 3175 
z
M 3550 4575 
Q 4150 4000 4575 3500 
Q 4375 3375 4175 3200 
Q 3825 3650 3250 4250 
Q 3475 4450 3550 4575 
z
M 750 4600 
Q 900 4400 1300 3625 
Q 1100 3525 875 3375 
Q 800 3600 350 4400 
Q 550 4475 750 4600 
z
M 3000 4350 
Q 2825 4075 2350 3300 
Q 2225 3425 1975 3550 
Q 2300 3925 2575 4600 
Q 2800 4450 3000 4350 
z
M 2325 2400 
Q 2650 2025 2975 1600 
Q 2800 1450 2600 1275 
Q 2300 1775 1975 2125 
Q 2175 2250 2325 2400 
z
" transform="scale(0.015625)"/>
      <path id="SimHei-578b" d="M 2625 1775 
Q 2650 2325 2650 2700 
L 2650 3000 
L 1825 3000 
Q 1725 2375 1425 2000 
Q 1125 1625 775 1425 
Q 650 1650 375 1900 
Q 850 2075 1062 2362 
Q 1275 2650 1350 3000 
Q 900 3000 375 2975 
L 375 3450 
Q 925 3425 1400 3425 
Q 1425 3950 1425 4475 
Q 1075 4475 700 4450 
L 700 4900 
Q 1050 4875 1525 4875 
L 3000 4875 
Q 3275 4875 3650 4900 
L 3650 4450 
Q 3325 4475 3125 4475 
L 3125 3425 
Q 3450 3425 3825 3450 
L 3825 2975 
Q 3450 3000 3125 3000 
L 3125 2675 
Q 3125 2225 3150 1775 
L 2625 1775 
z
M 3000 1175 
Q 3000 1375 2975 1725 
L 3500 1725 
Q 3475 1375 3475 1175 
L 4550 1175 
Q 5050 1175 5450 1200 
L 5450 725 
Q 4975 750 4550 750 
L 3475 750 
L 3475 -50 
L 5275 -50 
Q 5700 -50 6100 -25 
L 6100 -500 
Q 5725 -475 5300 -475 
L 1250 -475 
Q 775 -475 400 -500 
L 400 -25 
Q 775 -50 1250 -50 
L 3000 -50 
L 3000 750 
L 2025 750 
Q 1500 750 975 725 
L 1050 1200 
Q 1500 1175 2025 1175 
L 3000 1175 
z
M 5775 5200 
Q 5750 4775 5750 4325 
L 5750 2400 
Q 5775 1950 5612 1775 
Q 5450 1600 4900 1525 
Q 4825 1775 4675 2100 
Q 5175 2075 5237 2150 
Q 5300 2225 5300 2525 
L 5300 4325 
Q 5300 4775 5275 5200 
L 5775 5200 
z
M 4600 4750 
Q 4575 4450 4575 3975 
L 4575 3200 
Q 4575 2825 4600 2425 
L 4100 2425 
Q 4125 2825 4125 3200 
L 4125 3975 
Q 4125 4450 4100 4750 
L 4600 4750 
z
M 2650 3425 
L 2650 4475 
L 1875 4475 
Q 1850 3750 1850 3425 
L 2650 3425 
z
" transform="scale(0.015625)"/>
      <path id="SimHei-5206" d="M 1000 -650 
Q 825 -375 575 -225 
Q 975 -75 1300 137 
Q 1625 350 1875 662 
Q 2125 975 2250 1350 
Q 2375 1725 2425 2275 
Q 1850 2275 1500 2250 
L 1500 2775 
Q 1900 2750 2525 2750 
L 5025 2750 
Q 4975 2375 4950 2100 
L 4750 250 
Q 4700 -200 4350 -350 
Q 4000 -500 3575 -525 
Q 3550 -275 3325 50 
Q 3850 25 4037 87 
Q 4225 150 4275 525 
L 4450 2275 
L 2950 2275 
Q 2875 1625 2737 1187 
Q 2600 750 2350 425 
Q 2100 100 1750 -175 
Q 1400 -450 1000 -650 
z
M 3950 5175 
Q 4125 4650 4662 3975 
Q 5200 3300 6175 2800 
Q 5975 2625 5775 2275 
Q 5325 2600 4987 2887 
Q 4650 3175 4425 3425 
Q 4200 3675 3925 4137 
Q 3650 4600 3475 5000 
Q 3750 5075 3950 5175 
z
M 2700 4825 
Q 2475 4425 2325 4125 
Q 2175 3825 2025 3587 
Q 1875 3350 1575 2950 
Q 1275 2550 850 2125 
Q 625 2350 400 2475 
Q 900 2925 1187 3300 
Q 1475 3675 1737 4112 
Q 2000 4550 2200 5075 
Q 2400 4925 2700 4825 
z
" transform="scale(0.015625)"/>
      <path id="SimHei-5e03" d="M 2375 4225 
Q 2650 4775 2775 5300 
Q 3125 5175 3400 5075 
Q 3275 4975 2950 4225 
L 4800 4225 
Q 5550 4225 6025 4250 
L 6025 3800 
L 2725 3800 
Q 2325 3100 1975 2675 
L 3275 2675 
Q 3275 3225 3250 3575 
L 3775 3575 
Q 3750 3225 3750 2675 
L 5500 2675 
Q 5475 2225 5475 1775 
L 5475 750 
Q 5475 275 5212 150 
Q 4950 25 4450 -25 
Q 4400 325 4225 550 
Q 4800 550 4912 625 
Q 5025 700 5000 1025 
L 5000 2250 
L 3750 2250 
L 3750 550 
Q 3750 25 3775 -600 
L 3250 -600 
Q 3275 25 3275 550 
L 3275 2250 
L 2100 2250 
L 2100 0 
L 1600 0 
Q 1625 525 1625 1025 
L 1625 2225 
Q 1300 1850 650 1275 
Q 475 1475 200 1650 
Q 750 2025 1262 2562 
Q 1775 3100 2150 3800 
L 1550 3800 
Q 925 3800 400 3775 
L 400 4250 
Q 925 4225 1550 4225 
L 2375 4225 
z
" transform="scale(0.015625)"/>
     </defs>
     <use xlink:href="#SimHei-4f18"/>
     <use xlink:href="#SimHei-5148" transform="translate(100 0)"/>
     <use xlink:href="#SimHei-7ea7" transform="translate(200 0)"/>
     <use xlink:href="#SimHei-9a71" transform="translate(300 0)"/>
     <use xlink:href="#SimHei-52a8" transform="translate(400 0)"/>
     <use xlink:href="#SimHei-7b56" transform="translate(500 0)"/>
     <use xlink:href="#SimHei-7565" transform="translate(600 0)"/>
     <use xlink:href="#SimHei-20" transform="translate(700 0)"/>
     <use xlink:href="#SimHei-2d" transform="translate(750 0)"/>
     <use xlink:href="#SimHei-20" transform="translate(800 0)"/>
     <use xlink:href="#SimHei-6750" transform="translate(850 0)"/>
     <use xlink:href="#SimHei-6599" transform="translate(950 0)"/>
     <use xlink:href="#SimHei-7c7b" transform="translate(1050 0)"/>
     <use xlink:href="#SimHei-578b" transform="translate(1150 0)"/>
     <use xlink:href="#SimHei-5206" transform="translate(1250 0)"/>
     <use xlink:href="#SimHei-5e03" transform="translate(1350 0)"/>
    </g>
   </g>
  </g>
  <g id="axes_2">
   <g id="patch_5">
    <path d="M 379.976886 388.48375 
L 702.063773 388.48375 
L 702.063773 22.95 
L 379.976886 22.95 
z
" style="fill: #ffffff"/>
   </g>
   <g id="matplotlib.axis_3">
    <g id="xtick_1">
     <g id="line2d_1">
      <path d="M 381.886492 388.48375 
L 381.886492 22.95 
" clip-path="url(#p5870a8642f)" style="fill: none; stroke: #b0b0b0; stroke-opacity: 0.3; stroke-width: 0.8; stroke-linecap: square"/>
     </g>
     <g id="line2d_2">
      <defs>
       <path id="md371a7d3ba" d="M 0 0 
L 0 3.5 
" style="stroke: #000000; stroke-width: 0.8"/>
      </defs>
      <g>
       <use xlink:href="#md371a7d3ba" x="381.886492" y="388.48375" style="stroke: #000000; stroke-width: 0.8"/>
      </g>
     </g>
     <g id="text_8">
      <!-- 0 -->
      <g transform="translate(379.386492 402.35875) scale(0.1 -0.1)">
       <defs>
        <path id="SimHei-30" d="M 225 2537 
Q 250 3200 412 3587 
Q 575 3975 875 4225 
Q 1175 4475 1612 4475 
Q 2050 4475 2375 4112 
Q 2700 3750 2800 3200 
Q 2900 2650 2862 1937 
Q 2825 1225 2612 775 
Q 2400 325 1975 150 
Q 1550 -25 1125 187 
Q 700 400 525 750 
Q 350 1100 275 1487 
Q 200 1875 225 2537 
z
M 750 2687 
Q 675 2000 800 1462 
Q 925 925 1212 700 
Q 1500 475 1800 612 
Q 2100 750 2237 1162 
Q 2375 1575 2375 2062 
Q 2375 2550 2337 2950 
Q 2300 3350 2112 3675 
Q 1925 4000 1612 4012 
Q 1300 4025 1062 3700 
Q 825 3375 750 2687 
z
" transform="scale(0.015625)"/>
       </defs>
       <use xlink:href="#SimHei-30"/>
      </g>
     </g>
    </g>
    <g id="xtick_2">
     <g id="line2d_3">
      <path d="M 445.540027 388.48375 
L 445.540027 22.95 
" clip-path="url(#p5870a8642f)" style="fill: none; stroke: #b0b0b0; stroke-opacity: 0.3; stroke-width: 0.8; stroke-linecap: square"/>
     </g>
     <g id="line2d_4">
      <g>
       <use xlink:href="#md371a7d3ba" x="445.540027" y="388.48375" style="stroke: #000000; stroke-width: 0.8"/>
      </g>
     </g>
     <g id="text_9">
      <!-- 5 -->
      <g transform="translate(443.040027 402.35875) scale(0.1 -0.1)">
       <use xlink:href="#SimHei-35"/>
      </g>
     </g>
    </g>
    <g id="xtick_3">
     <g id="line2d_5">
      <path d="M 509.193562 388.48375 
L 509.193562 22.95 
" clip-path="url(#p5870a8642f)" style="fill: none; stroke: #b0b0b0; stroke-opacity: 0.3; stroke-width: 0.8; stroke-linecap: square"/>
     </g>
     <g id="line2d_6">
      <g>
       <use xlink:href="#md371a7d3ba" x="509.193562" y="388.48375" style="stroke: #000000; stroke-width: 0.8"/>
      </g>
     </g>
     <g id="text_10">
      <!-- 10 -->
      <g transform="translate(504.193562 402.35875) scale(0.1 -0.1)">
       <defs>
        <path id="SimHei-31" d="M 1400 3600 
Q 1075 3275 575 2975 
L 575 3450 
Q 1200 3875 1600 4450 
L 1900 4450 
L 1900 150 
L 1400 150 
L 1400 3600 
z
" transform="scale(0.015625)"/>
       </defs>
       <use xlink:href="#SimHei-31"/>
       <use xlink:href="#SimHei-30" transform="translate(50 0)"/>
      </g>
     </g>
    </g>
    <g id="xtick_4">
     <g id="line2d_7">
      <path d="M 572.847097 388.48375 
L 572.847097 22.95 
" clip-path="url(#p5870a8642f)" style="fill: none; stroke: #b0b0b0; stroke-opacity: 0.3; stroke-width: 0.8; stroke-linecap: square"/>
     </g>
     <g id="line2d_8">
      <g>
       <use xlink:href="#md371a7d3ba" x="572.847097" y="388.48375" style="stroke: #000000; stroke-width: 0.8"/>
      </g>
     </g>
     <g id="text_11">
      <!-- 15 -->
      <g transform="translate(567.847097 402.35875) scale(0.1 -0.1)">
       <use xlink:href="#SimHei-31"/>
       <use xlink:href="#SimHei-35" transform="translate(50 0)"/>
      </g>
     </g>
    </g>
    <g id="xtick_5">
     <g id="line2d_9">
      <path d="M 636.500632 388.48375 
L 636.500632 22.95 
" clip-path="url(#p5870a8642f)" style="fill: none; stroke: #b0b0b0; stroke-opacity: 0.3; stroke-width: 0.8; stroke-linecap: square"/>
     </g>
     <g id="line2d_10">
      <g>
       <use xlink:href="#md371a7d3ba" x="636.500632" y="388.48375" style="stroke: #000000; stroke-width: 0.8"/>
      </g>
     </g>
     <g id="text_12">
      <!-- 20 -->
      <g transform="translate(631.500632 402.35875) scale(0.1 -0.1)">
       <use xlink:href="#SimHei-32"/>
       <use xlink:href="#SimHei-30" transform="translate(50 0)"/>
      </g>
     </g>
    </g>
    <g id="xtick_6">
     <g id="line2d_11">
      <path d="M 700.154167 388.48375 
L 700.154167 22.95 
" clip-path="url(#p5870a8642f)" style="fill: none; stroke: #b0b0b0; stroke-opacity: 0.3; stroke-width: 0.8; stroke-linecap: square"/>
     </g>
     <g id="line2d_12">
      <g>
       <use xlink:href="#md371a7d3ba" x="700.154167" y="388.48375" style="stroke: #000000; stroke-width: 0.8"/>
      </g>
     </g>
     <g id="text_13">
      <!-- 25 -->
      <g transform="translate(695.154167 402.35875) scale(0.1 -0.1)">
       <use xlink:href="#SimHei-32"/>
       <use xlink:href="#SimHei-35" transform="translate(50 0)"/>
      </g>
     </g>
    </g>
    <g id="text_14">
     <!-- 周数 -->
     <g transform="translate(531.02033 415.343125) scale(0.1 -0.1)">
      <defs>
       <path id="SimHei-5468" d="M 5600 4925 
Q 5575 4400 5575 3800 
L 5575 50 
Q 5550 -375 5325 -462 
Q 5100 -550 4325 -600 
Q 4300 -400 4125 -75 
Q 4800 -100 4962 -37 
Q 5125 25 5100 225 
L 5100 4525 
L 1500 4525 
Q 1500 2575 1450 1887 
Q 1400 1200 1237 550 
Q 1075 -100 775 -625 
Q 625 -450 275 -225 
Q 650 225 825 1000 
Q 1000 1775 1025 2587 
Q 1050 3400 1000 4925 
L 5600 4925 
z
M 2050 325 
Q 2075 625 2075 950 
L 2075 1400 
Q 2075 1625 2050 1925 
L 4400 1925 
Q 4375 1725 4375 1450 
L 4375 875 
Q 4375 600 4400 325 
L 2050 325 
z
M 3000 3800 
Q 3000 4150 2975 4375 
L 3475 4375 
Q 3450 4075 3450 3800 
Q 4100 3800 4475 3825 
L 4475 3350 
Q 4125 3375 3450 3375 
L 3450 2800 
Q 4200 2800 4825 2825 
L 4825 2350 
Q 4175 2375 3725 2375 
L 2750 2375 
Q 2325 2375 1725 2350 
L 1725 2825 
Q 2325 2800 3000 2800 
L 3000 3375 
Q 2500 3375 1975 3350 
L 1975 3825 
Q 2475 3800 3000 3800 
z
M 3900 725 
L 3900 1525 
L 2550 1525 
L 2550 725 
L 3900 725 
z
" transform="scale(0.015625)"/>
       <path id="SimHei-6570" d="M 4525 4925 
Q 4475 4800 4400 4587 
Q 4325 4375 4175 3825 
L 5325 3825 
Q 5575 3825 5925 3850 
L 5925 3400 
Q 5650 3425 5500 3425 
Q 5500 3025 5362 2162 
Q 5225 1300 4875 675 
Q 5125 375 5437 137 
Q 5750 -100 6025 -200 
Q 5725 -425 5625 -625 
Q 5325 -450 5075 -225 
Q 4825 0 4575 325 
Q 4300 25 3987 -187 
Q 3675 -400 3200 -650 
Q 3075 -425 2850 -300 
Q 3225 -150 3650 125 
Q 4075 400 4300 675 
Q 4125 1025 3962 1425 
Q 3800 1825 3675 2475 
Q 3600 2275 3425 1950 
Q 3250 2050 3000 2150 
Q 3400 2850 3650 3675 
Q 3900 4500 3975 5100 
Q 4275 4975 4525 4925 
z
M 2100 2250 
Q 2000 2150 1875 1925 
L 3250 1925 
Q 3100 1300 2725 675 
Q 3125 525 3350 400 
Q 3225 225 3125 25 
Q 2900 175 2450 325 
Q 1950 -225 725 -650 
Q 600 -375 400 -275 
Q 1575 0 2000 475 
Q 1300 650 850 775 
Q 1000 1000 1250 1525 
Q 1000 1525 425 1500 
L 425 1950 
Q 900 1925 1400 1925 
Q 1500 2150 1550 2425 
Q 1825 2325 2100 2250 
z
M 1775 3950 
Q 1775 4550 1750 5100 
L 2250 5100 
Q 2225 4575 2225 3950 
Q 3075 3950 3425 3975 
L 3425 3525 
Q 3075 3550 2225 3550 
Q 2225 2825 2250 2425 
L 1750 2425 
Q 1775 2775 1775 3300 
Q 1650 3100 1300 2787 
Q 950 2475 650 2300 
Q 525 2525 275 2625 
Q 500 2700 875 2975 
Q 1250 3250 1450 3550 
Q 950 3550 500 3525 
L 500 3975 
Q 925 3950 1775 3950 
z
M 3975 3175 
Q 4200 1700 4600 1125 
Q 4850 1700 4937 2287 
Q 5025 2875 5050 3425 
L 4075 3425 
L 3975 3175 
z
M 1450 1000 
Q 1750 925 2275 800 
Q 2475 1050 2650 1525 
L 1725 1525 
Q 1600 1275 1450 1000 
z
M 3325 4825 
Q 3200 4625 3125 4450 
Q 3050 4275 2925 4025 
Q 2725 4125 2525 4175 
Q 2725 4500 2900 5000 
Q 3150 4875 3325 4825 
z
M 2575 3375 
Q 2900 3050 3200 2725 
Q 3050 2600 2875 2425 
Q 2525 2850 2300 3100 
Q 2450 3225 2575 3375 
z
M 925 5000 
Q 1275 4650 1500 4300 
L 1125 4075 
Q 950 4425 600 4725 
Q 825 4875 925 5000 
z
" transform="scale(0.015625)"/>
      </defs>
      <use xlink:href="#SimHei-5468"/>
      <use xlink:href="#SimHei-6570" transform="translate(100 0)"/>
     </g>
    </g>
   </g>
   <g id="matplotlib.axis_4">
    <g id="ytick_1">
     <g id="line2d_13">
      <path d="M 379.976886 354.646939 
L 702.063773 354.646939 
" clip-path="url(#p5870a8642f)" style="fill: none; stroke: #b0b0b0; stroke-opacity: 0.3; stroke-width: 0.8; stroke-linecap: square"/>
     </g>
     <g id="line2d_14">
      <defs>
       <path id="m261f19cd8d" d="M 0 0 
L -3.5 0 
" style="stroke: #000000; stroke-width: 0.8"/>
      </defs>
      <g>
       <use xlink:href="#m261f19cd8d" x="379.976886" y="354.646939" style="stroke: #000000; stroke-width: 0.8"/>
      </g>
     </g>
     <g id="text_15">
      <!-- 3000 -->
      <g transform="translate(352.976886 358.084439) scale(0.1 -0.1)">
       <use xlink:href="#SimHei-33"/>
       <use xlink:href="#SimHei-30" transform="translate(50 0)"/>
       <use xlink:href="#SimHei-30" transform="translate(100 0)"/>
       <use xlink:href="#SimHei-30" transform="translate(150 0)"/>
      </g>
     </g>
    </g>
    <g id="ytick_2">
     <g id="line2d_15">
      <path d="M 379.976886 295.709084 
L 702.063773 295.709084 
" clip-path="url(#p5870a8642f)" style="fill: none; stroke: #b0b0b0; stroke-opacity: 0.3; stroke-width: 0.8; stroke-linecap: square"/>
     </g>
     <g id="line2d_16">
      <g>
       <use xlink:href="#m261f19cd8d" x="379.976886" y="295.709084" style="stroke: #000000; stroke-width: 0.8"/>
      </g>
     </g>
     <g id="text_16">
      <!-- 4000 -->
      <g transform="translate(352.976886 299.146584) scale(0.1 -0.1)">
       <use xlink:href="#SimHei-34"/>
       <use xlink:href="#SimHei-30" transform="translate(50 0)"/>
       <use xlink:href="#SimHei-30" transform="translate(100 0)"/>
       <use xlink:href="#SimHei-30" transform="translate(150 0)"/>
      </g>
     </g>
    </g>
    <g id="ytick_3">
     <g id="line2d_17">
      <path d="M 379.976886 236.77123 
L 702.063773 236.77123 
" clip-path="url(#p5870a8642f)" style="fill: none; stroke: #b0b0b0; stroke-opacity: 0.3; stroke-width: 0.8; stroke-linecap: square"/>
     </g>
     <g id="line2d_18">
      <g>
       <use xlink:href="#m261f19cd8d" x="379.976886" y="236.77123" style="stroke: #000000; stroke-width: 0.8"/>
      </g>
     </g>
     <g id="text_17">
      <!-- 5000 -->
      <g transform="translate(352.976886 240.20873) scale(0.1 -0.1)">
       <use xlink:href="#SimHei-35"/>
       <use xlink:href="#SimHei-30" transform="translate(50 0)"/>
       <use xlink:href="#SimHei-30" transform="translate(100 0)"/>
       <use xlink:href="#SimHei-30" transform="translate(150 0)"/>
      </g>
     </g>
    </g>
    <g id="ytick_4">
     <g id="line2d_19">
      <path d="M 379.976886 177.833376 
L 702.063773 177.833376 
" clip-path="url(#p5870a8642f)" style="fill: none; stroke: #b0b0b0; stroke-opacity: 0.3; stroke-width: 0.8; stroke-linecap: square"/>
     </g>
     <g id="line2d_20">
      <g>
       <use xlink:href="#m261f19cd8d" x="379.976886" y="177.833376" style="stroke: #000000; stroke-width: 0.8"/>
      </g>
     </g>
     <g id="text_18">
      <!-- 6000 -->
      <g transform="translate(352.976886 181.270876) scale(0.1 -0.1)">
       <defs>
        <path id="SimHei-36" d="M 250 1612 
Q 275 1975 387 2225 
Q 500 2475 725 2850 
L 1750 4450 
L 2325 4450 
L 1275 2800 
Q 1950 2975 2350 2750 
Q 2750 2525 2887 2237 
Q 3025 1950 3037 1612 
Q 3050 1275 2937 950 
Q 2825 625 2537 362 
Q 2250 100 1737 75 
Q 1225 50 862 262 
Q 500 475 362 862 
Q 225 1250 250 1612 
z
M 1025 787 
Q 1250 550 1625 525 
Q 2000 500 2250 775 
Q 2500 1050 2500 1575 
Q 2500 2100 2187 2300 
Q 1875 2500 1487 2450 
Q 1100 2400 925 2075 
Q 750 1750 775 1387 
Q 800 1025 1025 787 
z
" transform="scale(0.015625)"/>
       </defs>
       <use xlink:href="#SimHei-36"/>
       <use xlink:href="#SimHei-30" transform="translate(50 0)"/>
       <use xlink:href="#SimHei-30" transform="translate(100 0)"/>
       <use xlink:href="#SimHei-30" transform="translate(150 0)"/>
      </g>
     </g>
    </g>
    <g id="ytick_5">
     <g id="line2d_21">
      <path d="M 379.976886 118.895522 
L 702.063773 118.895522 
" clip-path="url(#p5870a8642f)" style="fill: none; stroke: #b0b0b0; stroke-opacity: 0.3; stroke-width: 0.8; stroke-linecap: square"/>
     </g>
     <g id="line2d_22">
      <g>
       <use xlink:href="#m261f19cd8d" x="379.976886" y="118.895522" style="stroke: #000000; stroke-width: 0.8"/>
      </g>
     </g>
     <g id="text_19">
      <!-- 7000 -->
      <g transform="translate(352.976886 122.333022) scale(0.1 -0.1)">
       <defs>
        <path id="SimHei-37" d="M 850 150 
Q 1300 2050 2425 3925 
L 275 3925 
L 275 4375 
L 2950 4375 
L 2950 3950 
Q 1775 2050 1400 150 
L 850 150 
z
" transform="scale(0.015625)"/>
       </defs>
       <use xlink:href="#SimHei-37"/>
       <use xlink:href="#SimHei-30" transform="translate(50 0)"/>
       <use xlink:href="#SimHei-30" transform="translate(100 0)"/>
       <use xlink:href="#SimHei-30" transform="translate(150 0)"/>
      </g>
     </g>
    </g>
    <g id="ytick_6">
     <g id="line2d_23">
      <path d="M 379.976886 59.957668 
L 702.063773 59.957668 
" clip-path="url(#p5870a8642f)" style="fill: none; stroke: #b0b0b0; stroke-opacity: 0.3; stroke-width: 0.8; stroke-linecap: square"/>
     </g>
     <g id="line2d_24">
      <g>
       <use xlink:href="#m261f19cd8d" x="379.976886" y="59.957668" style="stroke: #000000; stroke-width: 0.8"/>
      </g>
     </g>
     <g id="text_20">
      <!-- 8000 -->
      <g transform="translate(352.976886 63.395168) scale(0.1 -0.1)">
       <defs>
        <path id="SimHei-38" d="M 175 1375 
Q 175 1675 325 1962 
Q 475 2250 825 2425 
Q 525 2600 425 2812 
Q 325 3025 312 3300 
Q 300 3575 387 3775 
Q 475 3975 650 4150 
Q 825 4325 1037 4387 
Q 1250 4450 1500 4450 
Q 1750 4450 1950 4400 
Q 2150 4350 2375 4187 
Q 2600 4025 2700 3725 
Q 2800 3425 2687 3025 
Q 2575 2625 2100 2400 
Q 2525 2275 2700 2012 
Q 2875 1750 2875 1375 
Q 2875 1000 2762 775 
Q 2650 550 2512 400 
Q 2375 250 2137 162 
Q 1900 75 1537 75 
Q 1175 75 912 162 
Q 650 250 475 425 
Q 300 600 237 837 
Q 175 1075 175 1375 
z
M 687 1400 
Q 675 1100 787 875 
Q 900 650 1200 587 
Q 1500 525 1825 600 
Q 2150 675 2275 950 
Q 2400 1225 2362 1500 
Q 2325 1775 2050 1962 
Q 1775 2150 1450 2125 
Q 1125 2100 912 1900 
Q 700 1700 687 1400 
z
M 775 3350 
Q 775 3100 950 2875 
Q 1125 2650 1500 2650 
Q 1875 2650 2062 2875 
Q 2250 3100 2237 3412 
Q 2225 3725 2012 3875 
Q 1800 4025 1437 4000 
Q 1075 3975 925 3787 
Q 775 3600 775 3350 
z
" transform="scale(0.015625)"/>
       </defs>
       <use xlink:href="#SimHei-38"/>
       <use xlink:href="#SimHei-30" transform="translate(50 0)"/>
       <use xlink:href="#SimHei-30" transform="translate(100 0)"/>
       <use xlink:href="#SimHei-30" transform="translate(150 0)"/>
      </g>
     </g>
    </g>
    <g id="text_21">
     <!-- 订购量 -->
     <g transform="translate(347.726886 220.716875) rotate(-90) scale(0.1 -0.1)">
      <defs>
       <path id="SimHei-8ba2" d="M 5250 4750 
Q 5525 4750 6125 4775 
L 6125 4300 
Q 5575 4325 4775 4325 
L 4775 100 
Q 4775 -350 4387 -462 
Q 4000 -575 3600 -600 
Q 3575 -275 3400 75 
Q 3825 25 4050 50 
Q 4275 75 4300 300 
L 4300 4325 
L 3225 4325 
Q 2850 4325 2450 4300 
L 2450 4775 
Q 3075 4750 3250 4750 
L 5250 4750 
z
M 1850 425 
Q 2400 900 2750 1225 
Q 2825 925 2950 725 
Q 2575 425 2175 87 
Q 1775 -250 1500 -550 
Q 1350 -325 1150 -150 
Q 1400 50 1375 400 
L 1375 2725 
L 1025 2725 
Q 600 2725 300 2700 
L 300 3175 
Q 600 3150 1025 3150 
L 1875 3150 
Q 1875 2675 1850 2250 
L 1850 425 
z
M 1150 5125 
Q 1525 4775 2150 4100 
Q 1950 3925 1725 3700 
Q 1300 4275 775 4750 
Q 1000 4950 1150 5125 
z
" transform="scale(0.015625)"/>
       <path id="SimHei-8d2d" d="M 5850 250 
Q 5800 -250 5525 -375 
Q 5250 -500 4675 -575 
Q 4625 -275 4450 -25 
Q 4950 -50 5150 25 
Q 5350 100 5375 325 
L 5425 3750 
L 3675 3750 
Q 3450 3250 3175 2800 
Q 3025 2925 2775 3025 
Q 3100 3475 3350 4137 
Q 3600 4800 3675 5200 
Q 3975 5075 4200 5000 
Q 4075 4800 3825 4175 
L 5925 4175 
Q 5900 3750 5900 3075 
L 5850 250 
z
M 2275 1200 
L 2275 4375 
L 975 4375 
L 975 1050 
L 500 1050 
Q 525 1625 525 2925 
Q 525 4225 500 4775 
L 2725 4775 
Q 2700 4225 2700 3000 
Q 2700 1800 2725 1200 
L 2275 1200 
z
M 200 -225 
Q 650 100 900 525 
Q 1150 950 1262 1450 
Q 1375 1950 1375 2575 
Q 1375 3200 1350 3875 
Q 1625 3825 1900 3825 
Q 1825 3425 1825 2825 
Q 1825 2250 1750 1650 
Q 1675 1050 1412 512 
Q 1150 -25 600 -575 
Q 375 -325 200 -225 
z
M 4725 2325 
Q 5000 1475 5175 900 
Q 4900 800 4700 725 
Q 4650 975 4600 1150 
Q 3600 1075 3200 875 
Q 3125 1125 2975 1400 
Q 3175 1500 3387 1937 
Q 3600 2375 3750 3175 
Q 4050 3025 4275 2975 
Q 4125 2700 3925 2237 
Q 3725 1775 3550 1450 
Q 4075 1500 4500 1525 
Q 4450 1750 4300 2200 
Q 4425 2225 4725 2325 
z
M 2525 -450 
Q 2275 -25 1650 600 
Q 1850 800 1975 950 
Q 2300 700 2925 -100 
Q 2725 -225 2525 -450 
z
" transform="scale(0.015625)"/>
       <path id="SimHei-91cf" d="M 5250 2500 
Q 5225 2200 5225 1700 
Q 5225 1225 5250 950 
L 3425 950 
L 3425 625 
L 4575 625 
Q 5000 625 5375 650 
L 5375 275 
Q 5025 300 4575 300 
L 3425 300 
L 3425 -75 
L 5125 -75 
Q 5525 -75 5925 -50 
L 5925 -425 
Q 5525 -400 5125 -400 
L 1275 -400 
Q 900 -400 475 -425 
L 475 -50 
Q 925 -50 1275 -75 
L 2975 -75 
L 2975 300 
L 1725 300 
Q 1350 300 975 250 
L 975 650 
Q 1375 625 1725 625 
L 2975 625 
L 2975 950 
L 1150 950 
Q 1175 1375 1175 1775 
Q 1175 2175 1150 2500 
L 5250 2500 
z
M 5200 4950 
Q 5175 4575 5175 4250 
Q 5175 3925 5200 3400 
L 1200 3400 
Q 1225 3925 1225 4250 
Q 1225 4575 1200 4950 
L 5200 4950 
z
M 4900 3100 
Q 5500 3125 6000 3150 
L 6000 2750 
Q 5500 2775 4925 2775 
L 1650 2775 
Q 975 2775 325 2750 
L 325 3150 
Q 975 3125 1650 3100 
L 4900 3100 
z
M 4725 3700 
L 4725 4025 
L 1675 4025 
L 1675 3700 
L 4725 3700 
z
M 4725 4350 
L 4725 4650 
L 1675 4650 
L 1675 4350 
L 4725 4350 
z
M 4750 1875 
L 4750 2175 
L 3425 2175 
L 3425 1875 
L 4750 1875 
z
M 2975 1875 
L 2975 2175 
L 1650 2175 
L 1650 1875 
L 2975 1875 
z
M 2975 1275 
L 2975 1550 
L 1650 1550 
L 1650 1275 
L 2975 1275 
z
M 4750 1275 
L 4750 1550 
L 3425 1550 
L 3425 1275 
L 4750 1275 
z
" transform="scale(0.015625)"/>
      </defs>
      <use xlink:href="#SimHei-8ba2"/>
      <use xlink:href="#SimHei-8d2d" transform="translate(100 0)"/>
      <use xlink:href="#SimHei-91cf" transform="translate(200 0)"/>
     </g>
    </g>
   </g>
   <g id="line2d_25">
    <path d="M 394.617199 89.827372 
L 407.347906 162.692241 
L 420.078613 136.411852 
L 432.80932 164.454483 
L 445.540027 148.057972 
L 458.270734 39.56517 
L 471.001441 131.508223 
L 483.732148 159.474235 
L 496.462855 112.889755 
L 509.193562 139.170144 
L 521.924269 123.846302 
L 534.654976 161.542953 
L 547.385683 100.247585 
L 560.11639 150.892883 
L 572.847097 135.185945 
L 585.577804 152.884983 
L 598.308511 110.897655 
L 611.039218 92.125949 
L 623.769925 98.102247 
L 636.500632 143.997154 
L 649.231339 108.292602 
L 661.962046 126.374736 
L 674.692753 135.798899 
L 687.42346 149.973453 
" clip-path="url(#p5870a8642f)" style="fill: none; stroke: #1f77b4; stroke-width: 2; stroke-linecap: square"/>
    <defs>
     <path id="m0251dbcd0c" d="M 0 2 
C 0.530406 2 1.03916 1.789267 1.414214 1.414214 
C 1.789267 1.03916 2 0.530406 2 0 
C 2 -0.530406 1.789267 -1.03916 1.414214 -1.414214 
C 1.03916 -1.789267 0.530406 -2 0 -2 
C -0.530406 -2 -1.03916 -1.789267 -1.414214 -1.414214 
C -1.789267 -1.03916 -2 -0.530406 -2 0 
C -2 0.530406 -1.789267 1.03916 -1.414214 1.414214 
C -1.03916 1.789267 -0.530406 2 0 2 
z
" style="stroke: #1f77b4"/>
    </defs>
    <g clip-path="url(#p5870a8642f)">
     <use xlink:href="#m0251dbcd0c" x="394.617199" y="89.827372" style="fill: #1f77b4; stroke: #1f77b4"/>
     <use xlink:href="#m0251dbcd0c" x="407.347906" y="162.692241" style="fill: #1f77b4; stroke: #1f77b4"/>
     <use xlink:href="#m0251dbcd0c" x="420.078613" y="136.411852" style="fill: #1f77b4; stroke: #1f77b4"/>
     <use xlink:href="#m0251dbcd0c" x="432.80932" y="164.454483" style="fill: #1f77b4; stroke: #1f77b4"/>
     <use xlink:href="#m0251dbcd0c" x="445.540027" y="148.057972" style="fill: #1f77b4; stroke: #1f77b4"/>
     <use xlink:href="#m0251dbcd0c" x="458.270734" y="39.56517" style="fill: #1f77b4; stroke: #1f77b4"/>
     <use xlink:href="#m0251dbcd0c" x="471.001441" y="131.508223" style="fill: #1f77b4; stroke: #1f77b4"/>
     <use xlink:href="#m0251dbcd0c" x="483.732148" y="159.474235" style="fill: #1f77b4; stroke: #1f77b4"/>
     <use xlink:href="#m0251dbcd0c" x="496.462855" y="112.889755" style="fill: #1f77b4; stroke: #1f77b4"/>
     <use xlink:href="#m0251dbcd0c" x="509.193562" y="139.170144" style="fill: #1f77b4; stroke: #1f77b4"/>
     <use xlink:href="#m0251dbcd0c" x="521.924269" y="123.846302" style="fill: #1f77b4; stroke: #1f77b4"/>
     <use xlink:href="#m0251dbcd0c" x="534.654976" y="161.542953" style="fill: #1f77b4; stroke: #1f77b4"/>
     <use xlink:href="#m0251dbcd0c" x="547.385683" y="100.247585" style="fill: #1f77b4; stroke: #1f77b4"/>
     <use xlink:href="#m0251dbcd0c" x="560.11639" y="150.892883" style="fill: #1f77b4; stroke: #1f77b4"/>
     <use xlink:href="#m0251dbcd0c" x="572.847097" y="135.185945" style="fill: #1f77b4; stroke: #1f77b4"/>
     <use xlink:href="#m0251dbcd0c" x="585.577804" y="152.884983" style="fill: #1f77b4; stroke: #1f77b4"/>
     <use xlink:href="#m0251dbcd0c" x="598.308511" y="110.897655" style="fill: #1f77b4; stroke: #1f77b4"/>
     <use xlink:href="#m0251dbcd0c" x="611.039218" y="92.125949" style="fill: #1f77b4; stroke: #1f77b4"/>
     <use xlink:href="#m0251dbcd0c" x="623.769925" y="98.102247" style="fill: #1f77b4; stroke: #1f77b4"/>
     <use xlink:href="#m0251dbcd0c" x="636.500632" y="143.997154" style="fill: #1f77b4; stroke: #1f77b4"/>
     <use xlink:href="#m0251dbcd0c" x="649.231339" y="108.292602" style="fill: #1f77b4; stroke: #1f77b4"/>
     <use xlink:href="#m0251dbcd0c" x="661.962046" y="126.374736" style="fill: #1f77b4; stroke: #1f77b4"/>
     <use xlink:href="#m0251dbcd0c" x="674.692753" y="135.798899" style="fill: #1f77b4; stroke: #1f77b4"/>
     <use xlink:href="#m0251dbcd0c" x="687.42346" y="149.973453" style="fill: #1f77b4; stroke: #1f77b4"/>
    </g>
   </g>
   <g id="line2d_26">
    <path d="M 394.617199 110.80386 
L 407.347906 251.460351 
L 420.078613 260.469269 
L 432.80932 266.388881 
L 445.540027 261.09322 
L 458.270734 279.772618 
L 471.001441 301.768029 
L 483.732148 308.880172 
L 496.462855 298.023999 
L 509.193562 268.577667 
L 521.924269 270.127853 
L 534.654976 302.236974 
L 547.385683 239.007605 
L 560.11639 276.963337 
L 572.847097 237.710606 
L 585.577804 259.730079 
L 598.308511 266.209587 
L 611.039218 314.77666 
L 623.769925 281.729051 
L 636.500632 283.084645 
L 649.231339 281.182452 
L 661.962046 307.616053 
L 674.692753 292.937895 
L 687.42346 270.226451 
" clip-path="url(#p5870a8642f)" style="fill: none; stroke: #ff7f0e; stroke-width: 2; stroke-linecap: square"/>
    <defs>
     <path id="m48995c960f" d="M 0 2 
C 0.530406 2 1.03916 1.789267 1.414214 1.414214 
C 1.789267 1.03916 2 0.530406 2 0 
C 2 -0.530406 1.789267 -1.03916 1.414214 -1.414214 
C 1.03916 -1.789267 0.530406 -2 0 -2 
C -0.530406 -2 -1.03916 -1.789267 -1.414214 -1.414214 
C -1.789267 -1.03916 -2 -0.530406 -2 0 
C -2 0.530406 -1.789267 1.03916 -1.414214 1.414214 
C -1.03916 1.789267 -0.530406 2 0 2 
z
" style="stroke: #ff7f0e"/>
    </defs>
    <g clip-path="url(#p5870a8642f)">
     <use xlink:href="#m48995c960f" x="394.617199" y="110.80386" style="fill: #ff7f0e; stroke: #ff7f0e"/>
     <use xlink:href="#m48995c960f" x="407.347906" y="251.460351" style="fill: #ff7f0e; stroke: #ff7f0e"/>
     <use xlink:href="#m48995c960f" x="420.078613" y="260.469269" style="fill: #ff7f0e; stroke: #ff7f0e"/>
     <use xlink:href="#m48995c960f" x="432.80932" y="266.388881" style="fill: #ff7f0e; stroke: #ff7f0e"/>
     <use xlink:href="#m48995c960f" x="445.540027" y="261.09322" style="fill: #ff7f0e; stroke: #ff7f0e"/>
     <use xlink:href="#m48995c960f" x="458.270734" y="279.772618" style="fill: #ff7f0e; stroke: #ff7f0e"/>
     <use xlink:href="#m48995c960f" x="471.001441" y="301.768029" style="fill: #ff7f0e; stroke: #ff7f0e"/>
     <use xlink:href="#m48995c960f" x="483.732148" y="308.880172" style="fill: #ff7f0e; stroke: #ff7f0e"/>
     <use xlink:href="#m48995c960f" x="496.462855" y="298.023999" style="fill: #ff7f0e; stroke: #ff7f0e"/>
     <use xlink:href="#m48995c960f" x="509.193562" y="268.577667" style="fill: #ff7f0e; stroke: #ff7f0e"/>
     <use xlink:href="#m48995c960f" x="521.924269" y="270.127853" style="fill: #ff7f0e; stroke: #ff7f0e"/>
     <use xlink:href="#m48995c960f" x="534.654976" y="302.236974" style="fill: #ff7f0e; stroke: #ff7f0e"/>
     <use xlink:href="#m48995c960f" x="547.385683" y="239.007605" style="fill: #ff7f0e; stroke: #ff7f0e"/>
     <use xlink:href="#m48995c960f" x="560.11639" y="276.963337" style="fill: #ff7f0e; stroke: #ff7f0e"/>
     <use xlink:href="#m48995c960f" x="572.847097" y="237.710606" style="fill: #ff7f0e; stroke: #ff7f0e"/>
     <use xlink:href="#m48995c960f" x="585.577804" y="259.730079" style="fill: #ff7f0e; stroke: #ff7f0e"/>
     <use xlink:href="#m48995c960f" x="598.308511" y="266.209587" style="fill: #ff7f0e; stroke: #ff7f0e"/>
     <use xlink:href="#m48995c960f" x="611.039218" y="314.77666" style="fill: #ff7f0e; stroke: #ff7f0e"/>
     <use xlink:href="#m48995c960f" x="623.769925" y="281.729051" style="fill: #ff7f0e; stroke: #ff7f0e"/>
     <use xlink:href="#m48995c960f" x="636.500632" y="283.084645" style="fill: #ff7f0e; stroke: #ff7f0e"/>
     <use xlink:href="#m48995c960f" x="649.231339" y="281.182452" style="fill: #ff7f0e; stroke: #ff7f0e"/>
     <use xlink:href="#m48995c960f" x="661.962046" y="307.616053" style="fill: #ff7f0e; stroke: #ff7f0e"/>
     <use xlink:href="#m48995c960f" x="674.692753" y="292.937895" style="fill: #ff7f0e; stroke: #ff7f0e"/>
     <use xlink:href="#m48995c960f" x="687.42346" y="270.226451" style="fill: #ff7f0e; stroke: #ff7f0e"/>
    </g>
   </g>
   <g id="line2d_27">
    <path d="M 394.617199 335.091359 
L 407.347906 370.666247 
L 420.078613 287.9175 
L 432.80932 290.0039 
L 445.540027 281.799751 
L 458.270734 317.091738 
L 471.001441 291.70131 
L 483.732148 319.602491 
L 496.462855 287.493148 
L 509.193562 289.013744 
L 521.924269 292.443927 
L 534.654976 284.451954 
L 547.385683 361.471942 
L 560.11639 282.011927 
L 572.847097 288.624754 
L 585.577804 295.308307 
L 598.308511 287.952863 
L 611.039218 286.891981 
L 623.769925 371.86858 
L 636.500632 365.291115 
L 649.231339 353.550694 
L 661.962046 274.196768 
L 674.692753 268.574096 
L 687.42346 281.587575 
" clip-path="url(#p5870a8642f)" style="fill: none; stroke: #2ca02c; stroke-width: 2; stroke-linecap: square"/>
    <defs>
     <path id="m2c5d9e7d01" d="M 0 2 
C 0.530406 2 1.03916 1.789267 1.414214 1.414214 
C 1.789267 1.03916 2 0.530406 2 0 
C 2 -0.530406 1.789267 -1.03916 1.414214 -1.414214 
C 1.03916 -1.789267 0.530406 -2 0 -2 
C -0.530406 -2 -1.03916 -1.789267 -1.414214 -1.414214 
C -1.789267 -1.03916 -2 -0.530406 -2 0 
C -2 0.530406 -1.789267 1.03916 -1.414214 1.414214 
C -1.03916 1.789267 -0.530406 2 0 2 
z
" style="stroke: #2ca02c"/>
    </defs>
    <g clip-path="url(#p5870a8642f)">
     <use xlink:href="#m2c5d9e7d01" x="394.617199" y="335.091359" style="fill: #2ca02c; stroke: #2ca02c"/>
     <use xlink:href="#m2c5d9e7d01" x="407.347906" y="370.666247" style="fill: #2ca02c; stroke: #2ca02c"/>
     <use xlink:href="#m2c5d9e7d01" x="420.078613" y="287.9175" style="fill: #2ca02c; stroke: #2ca02c"/>
     <use xlink:href="#m2c5d9e7d01" x="432.80932" y="290.0039" style="fill: #2ca02c; stroke: #2ca02c"/>
     <use xlink:href="#m2c5d9e7d01" x="445.540027" y="281.799751" style="fill: #2ca02c; stroke: #2ca02c"/>
     <use xlink:href="#m2c5d9e7d01" x="458.270734" y="317.091738" style="fill: #2ca02c; stroke: #2ca02c"/>
     <use xlink:href="#m2c5d9e7d01" x="471.001441" y="291.70131" style="fill: #2ca02c; stroke: #2ca02c"/>
     <use xlink:href="#m2c5d9e7d01" x="483.732148" y="319.602491" style="fill: #2ca02c; stroke: #2ca02c"/>
     <use xlink:href="#m2c5d9e7d01" x="496.462855" y="287.493148" style="fill: #2ca02c; stroke: #2ca02c"/>
     <use xlink:href="#m2c5d9e7d01" x="509.193562" y="289.013744" style="fill: #2ca02c; stroke: #2ca02c"/>
     <use xlink:href="#m2c5d9e7d01" x="521.924269" y="292.443927" style="fill: #2ca02c; stroke: #2ca02c"/>
     <use xlink:href="#m2c5d9e7d01" x="534.654976" y="284.451954" style="fill: #2ca02c; stroke: #2ca02c"/>
     <use xlink:href="#m2c5d9e7d01" x="547.385683" y="361.471942" style="fill: #2ca02c; stroke: #2ca02c"/>
     <use xlink:href="#m2c5d9e7d01" x="560.11639" y="282.011927" style="fill: #2ca02c; stroke: #2ca02c"/>
     <use xlink:href="#m2c5d9e7d01" x="572.847097" y="288.624754" style="fill: #2ca02c; stroke: #2ca02c"/>
     <use xlink:href="#m2c5d9e7d01" x="585.577804" y="295.308307" style="fill: #2ca02c; stroke: #2ca02c"/>
     <use xlink:href="#m2c5d9e7d01" x="598.308511" y="287.952863" style="fill: #2ca02c; stroke: #2ca02c"/>
     <use xlink:href="#m2c5d9e7d01" x="611.039218" y="286.891981" style="fill: #2ca02c; stroke: #2ca02c"/>
     <use xlink:href="#m2c5d9e7d01" x="623.769925" y="371.86858" style="fill: #2ca02c; stroke: #2ca02c"/>
     <use xlink:href="#m2c5d9e7d01" x="636.500632" y="365.291115" style="fill: #2ca02c; stroke: #2ca02c"/>
     <use xlink:href="#m2c5d9e7d01" x="649.231339" y="353.550694" style="fill: #2ca02c; stroke: #2ca02c"/>
     <use xlink:href="#m2c5d9e7d01" x="661.962046" y="274.196768" style="fill: #2ca02c; stroke: #2ca02c"/>
     <use xlink:href="#m2c5d9e7d01" x="674.692753" y="268.574096" style="fill: #2ca02c; stroke: #2ca02c"/>
     <use xlink:href="#m2c5d9e7d01" x="687.42346" y="281.587575" style="fill: #2ca02c; stroke: #2ca02c"/>
    </g>
   </g>
   <g id="patch_6">
    <path d="M 379.976886 388.48375 
L 379.976886 22.95 
" style="fill: none; stroke: #000000; stroke-width: 0.8; stroke-linejoin: miter; stroke-linecap: square"/>
   </g>
   <g id="patch_7">
    <path d="M 702.063773 388.48375 
L 702.063773 22.95 
" style="fill: none; stroke: #000000; stroke-width: 0.8; stroke-linejoin: miter; stroke-linecap: square"/>
   </g>
   <g id="patch_8">
    <path d="M 379.976886 388.48375 
L 702.063773 388.48375 
" style="fill: none; stroke: #000000; stroke-width: 0.8; stroke-linejoin: miter; stroke-linecap: square"/>
   </g>
   <g id="patch_9">
    <path d="M 379.976886 22.95 
L 702.063773 22.95 
" style="fill: none; stroke: #000000; stroke-width: 0.8; stroke-linejoin: miter; stroke-linecap: square"/>
   </g>
   <g id="text_22">
    <!-- 优先级驱动策略 - 每周订购量趋势 -->
    <g transform="translate(448.02033 16.95) scale(0.12 -0.12)">
     <defs>
      <path id="SimHei-6bcf" d="M 5225 3650 
Q 5175 3150 5150 2675 
L 5125 2200 
Q 5525 2200 6000 2225 
L 6000 1775 
Q 5625 1800 5100 1800 
L 5050 650 
Q 5325 650 5700 675 
L 5700 225 
Q 5400 250 5025 250 
Q 5000 -275 4775 -425 
Q 4550 -575 4000 -650 
Q 3950 -400 3775 -125 
Q 4375 -125 4475 -50 
Q 4575 25 4575 250 
L 1400 250 
L 1500 1100 
L 1550 1800 
L 1275 1800 
Q 825 1800 550 1775 
L 550 2225 
Q 975 2200 1275 2200 
L 1575 2200 
L 1625 2825 
L 1675 3650 
L 5225 3650 
z
M 2350 5000 
Q 2175 4825 2050 4600 
L 4875 4600 
Q 5275 4600 5775 4625 
L 5775 4175 
Q 5275 4200 4875 4200 
L 1825 4200 
L 1375 3625 
Q 1125 3325 775 2975 
Q 600 3175 350 3300 
Q 725 3575 1150 4112 
Q 1575 4650 1825 5250 
Q 2125 5075 2350 5000 
z
M 1975 1800 
L 1875 650 
L 4625 650 
L 4675 1800 
L 2950 1800 
Q 3575 1275 3825 1125 
Q 3625 925 3475 725 
Q 3100 1100 2650 1475 
Q 2775 1675 2875 1800 
L 1975 1800 
z
M 2975 3250 
Q 3125 3150 3287 3012 
Q 3450 2875 3800 2550 
Q 3650 2350 3525 2200 
L 4700 2200 
L 4750 3250 
L 2975 3250 
z
M 2075 3250 
L 2000 2200 
L 3425 2200 
Q 3150 2500 3012 2625 
Q 2875 2750 2700 2900 
Q 2800 3050 2925 3250 
L 2075 3250 
z
" transform="scale(0.015625)"/>
      <path id="SimHei-8d8b" d="M 6000 -500 
Q 4950 -525 4237 -500 
Q 3525 -475 2950 -350 
Q 2375 -225 1950 25 
Q 1525 275 1100 700 
Q 875 -150 625 -600 
Q 400 -300 225 -225 
Q 500 175 600 587 
Q 700 1000 737 1375 
Q 775 1750 775 2025 
Q 1025 1950 1325 1925 
Q 1200 1550 1200 1250 
Q 1200 950 1700 625 
L 1700 2600 
Q 850 2600 400 2575 
L 400 2975 
Q 875 2950 1575 2950 
L 1575 3925 
Q 1050 3925 600 3900 
L 600 4325 
Q 1050 4300 1575 4300 
Q 1575 4750 1550 5200 
L 2050 5200 
Q 2025 4800 2025 4300 
Q 2400 4300 2800 4325 
L 2800 3900 
Q 2375 3925 2025 3925 
L 2025 2950 
Q 2550 2950 3000 2975 
L 3000 2575 
Q 2550 2600 2150 2600 
L 2150 1775 
Q 2475 1775 2850 1800 
L 2850 1400 
Q 2500 1425 2150 1425 
L 2150 350 
Q 2925 -50 4150 -50 
Q 5400 -50 6200 75 
Q 6025 -200 6000 -500 
z
M 5900 450 
Q 3750 450 3275 425 
L 3275 875 
Q 3750 850 5400 850 
L 5400 1625 
Q 3850 1625 3475 1600 
L 3475 2025 
Q 3850 2000 5400 2000 
L 5400 2875 
L 4075 2875 
Q 3775 2875 3425 2850 
L 3425 3150 
L 3350 3025 
Q 3150 3300 2925 3375 
Q 3325 3875 3575 4387 
Q 3825 4900 3925 5250 
Q 4225 5125 4475 5075 
Q 4350 4900 4150 4500 
L 5750 4500 
Q 5250 3675 5025 3225 
L 5900 3225 
Q 5875 2775 5875 1800 
Q 5875 850 5900 450 
z
M 3475 3250 
Q 3775 3225 4100 3225 
L 4525 3225 
Q 4675 3525 5025 4150 
L 3975 4150 
Q 3650 3525 3475 3250 
z
" transform="scale(0.015625)"/>
      <path id="SimHei-52bf" d="M 2700 1500 
Q 2725 1700 2725 1925 
Q 3075 1850 3275 1825 
Q 3225 1700 3200 1500 
L 5325 1500 
Q 5300 1150 5237 662 
Q 5175 175 5075 -62 
Q 4975 -300 4737 -375 
Q 4500 -450 3825 -525 
Q 3800 -275 3550 25 
Q 4325 -25 4475 62 
Q 4625 150 4675 350 
Q 4725 550 4775 1100 
L 3125 1100 
Q 2850 325 2250 -12 
Q 1650 -350 775 -600 
Q 675 -325 400 -125 
Q 1050 -50 1687 225 
Q 2325 500 2600 1100 
L 1550 1100 
Q 1075 1100 650 1075 
L 650 1525 
Q 1075 1500 1550 1500 
L 2700 1500 
z
M 2350 2250 
Q 3025 2500 3350 3050 
Q 3175 3175 2850 3325 
Q 3025 3475 3100 3675 
L 3500 3425 
Q 3550 3625 3600 4075 
Q 3225 4075 2925 4025 
L 2875 4425 
L 3600 4425 
Q 3600 4900 3550 5200 
Q 3775 5150 4125 5125 
Q 4050 4875 4050 4450 
L 5275 4475 
Q 5200 3975 5175 3450 
Q 5150 2925 5262 2650 
Q 5375 2375 5487 2337 
Q 5600 2300 5600 2925 
Q 5800 2725 6125 2675 
Q 5975 2075 5875 1925 
Q 5775 1775 5600 1750 
Q 5425 1725 5112 2000 
Q 4800 2275 4725 2800 
Q 4650 3325 4725 4100 
L 4050 4075 
Q 4000 3525 3950 3200 
Q 4150 3075 4450 2900 
Q 4225 2725 4100 2550 
Q 3925 2700 3775 2800 
Q 3400 2325 2850 1950 
Q 2675 2125 2350 2250 
z
M 2525 3300 
Q 2125 3200 1950 3175 
L 1950 2250 
Q 1925 1975 1662 1900 
Q 1400 1825 1000 1750 
Q 975 2025 800 2300 
Q 1350 2275 1425 2325 
Q 1500 2375 1500 2625 
L 1500 3075 
Q 875 2900 450 2775 
Q 375 3050 225 3225 
Q 675 3275 1500 3450 
L 1500 4025 
Q 800 4025 425 4000 
L 425 4450 
Q 800 4425 1500 4425 
Q 1500 4875 1475 5150 
L 2025 5150 
Q 1950 4900 1950 4425 
Q 2200 4425 2575 4450 
L 2575 4000 
Q 2200 4025 1950 4025 
L 1950 3550 
Q 2250 3600 2550 3700 
Q 2525 3525 2525 3300 
z
" transform="scale(0.015625)"/>
     </defs>
     <use xlink:href="#SimHei-4f18"/>
     <use xlink:href="#SimHei-5148" transform="translate(100 0)"/>
     <use xlink:href="#SimHei-7ea7" transform="translate(200 0)"/>
     <use xlink:href="#SimHei-9a71" transform="translate(300 0)"/>
     <use xlink:href="#SimHei-52a8" transform="translate(400 0)"/>
     <use xlink:href="#SimHei-7b56" transform="translate(500 0)"/>
     <use xlink:href="#SimHei-7565" transform="translate(600 0)"/>
     <use xlink:href="#SimHei-20" transform="translate(700 0)"/>
     <use xlink:href="#SimHei-2d" transform="translate(750 0)"/>
     <use xlink:href="#SimHei-20" transform="translate(800 0)"/>
     <use xlink:href="#SimHei-6bcf" transform="translate(850 0)"/>
     <use xlink:href="#SimHei-5468" transform="translate(950 0)"/>
     <use xlink:href="#SimHei-8ba2" transform="translate(1050 0)"/>
     <use xlink:href="#SimHei-8d2d" transform="translate(1150 0)"/>
     <use xlink:href="#SimHei-91cf" transform="translate(1250 0)"/>
     <use xlink:href="#SimHei-8d8b" transform="translate(1350 0)"/>
     <use xlink:href="#SimHei-52bf" transform="translate(1450 0)"/>
    </g>
   </g>
   <g id="legend_1">
    <g id="patch_10">
     <path d="M 648.063773 73.489062 
L 695.063773 73.489062 
Q 697.063773 73.489062 697.063773 71.489062 
L 697.063773 29.95 
Q 697.063773 27.95 695.063773 27.95 
L 648.063773 27.95 
Q 646.063773 27.95 646.063773 29.95 
L 646.063773 71.489062 
Q 646.063773 73.489062 648.063773 73.489062 
z
" style="fill: #ffffff; opacity: 0.8; stroke: #cccccc; stroke-linejoin: miter"/>
    </g>
    <g id="line2d_28">
     <path d="M 650.063773 36.379687 
L 660.063773 36.379687 
L 670.063773 36.379687 
" style="fill: none; stroke: #1f77b4; stroke-width: 2; stroke-linecap: square"/>
     <g>
      <use xlink:href="#m0251dbcd0c" x="660.063773" y="36.379687" style="fill: #1f77b4; stroke: #1f77b4"/>
     </g>
    </g>
    <g id="text_23">
     <!-- A类 -->
     <g transform="translate(678.063773 39.879687) scale(0.1 -0.1)">
      <use xlink:href="#SimHei-41"/>
      <use xlink:href="#SimHei-7c7b" transform="translate(50 0)"/>
     </g>
    </g>
    <g id="line2d_29">
     <path d="M 650.063773 50.559375 
L 660.063773 50.559375 
L 670.063773 50.559375 
" style="fill: none; stroke: #ff7f0e; stroke-width: 2; stroke-linecap: square"/>
     <g>
      <use xlink:href="#m48995c960f" x="660.063773" y="50.559375" style="fill: #ff7f0e; stroke: #ff7f0e"/>
     </g>
    </g>
    <g id="text_24">
     <!-- B类 -->
     <g transform="translate(678.063773 54.059375) scale(0.1 -0.1)">
      <use xlink:href="#SimHei-42"/>
      <use xlink:href="#SimHei-7c7b" transform="translate(50 0)"/>
     </g>
    </g>
    <g id="line2d_30">
     <path d="M 650.063773 64.739062 
L 660.063773 64.739062 
L 670.063773 64.739062 
" style="fill: none; stroke: #2ca02c; stroke-width: 2; stroke-linecap: square"/>
     <g>
      <use xlink:href="#m2c5d9e7d01" x="660.063773" y="64.739062" style="fill: #2ca02c; stroke: #2ca02c"/>
     </g>
    </g>
    <g id="text_25">
     <!-- C类 -->
     <g transform="translate(678.063773 68.239062) scale(0.1 -0.1)">
      <use xlink:href="#SimHei-43"/>
      <use xlink:href="#SimHei-7c7b" transform="translate(50 0)"/>
     </g>
    </g>
   </g>
  </g>
 </g>
 <defs>
  <clipPath id="p5870a8642f">
   <rect x="379.976886" y="22.95" width="322.086886" height="365.53375"/>
  </clipPath>
 </defs>
</svg>
